<?xml version="1.0" encoding="UTF-8" standalone="no"?><svg xmlns="http://www.w3.org/2000/svg" xmlns:xlink="http://www.w3.org/1999/xlink" contentStyleType="text/css" height="495px" preserveAspectRatio="none" style="width:381px;height:495px;background:#FFFFFF;" version="1.1" viewBox="0 0 381 495" width="381px" zoomAndPan="magnify"><defs/><g><!--class chasseaumonstre.controller.MHPlayerController--><a href="MHPlayerController.html" target="_top" title="MHPlayerController.html" xlink:actuate="onRequest" xlink:href="MHPlayerController.html" xlink:show="new" xlink:title="MHPlayerController.html" xlink:type="simple"><g id="elem_chasseaumonstre.controller.MHPlayerController"><rect codeLine="5" fill="#F1F1F1" height="461.3594" id="chasseaumonstre.controller.MHPlayerController" rx="2.5" ry="2.5" style="stroke:#181818;stroke-width:0.5;" width="360" x="7" y="7"/><ellipse cx="113.75" cy="25.9688" fill="#A9DCDF" rx="11" ry="11" style="stroke:#181818;stroke-width:1.0;"/><path d="M113.8594,21.3125 L112.7031,26.3906 L115.0313,26.3906 L113.8594,21.3125 Z M112.375,19.0781 L115.3594,19.0781 L118.7188,31.4688 L116.2656,31.4688 L115.5,28.4063 L112.2188,28.4063 L111.4688,31.4688 L109.0313,31.4688 L112.375,19.0781 Z " fill="#000000"/><text fill="#000000" font-family="sans-serif" font-size="14" font-style="italic" lengthAdjust="spacing" textLength="131" x="137.75" y="24.9951">MHPlayerController</text><text fill="#000000" font-family="sans-serif" font-size="10" font-style="italic" lengthAdjust="spacing" textLength="138" x="134.25" y="37.5791">chasseaumonstre.controller</text><line style="stroke:#181818;stroke-width:0.5;" x1="8" x2="366" y1="44.9375" y2="44.9375"/><polygon fill="none" points="18,53.5859,22,57.5859,18,61.5859,14,57.5859" style="stroke:#B38D22;stroke-width:1.0;"/><text fill="#000000" font-family="sans-serif" font-size="14" lengthAdjust="spacing" textLength="107" x="27" y="61.9326">contentV: VBox</text><polygon fill="none" points="18,69.8828,22,73.8828,18,77.8828,14,73.8828" style="stroke:#B38D22;stroke-width:1.0;"/><text fill="#000000" font-family="sans-serif" font-size="14" lengthAdjust="spacing" textLength="110" x="27" y="78.2295">maze: GridPane</text><polygon fill="none" points="18,86.1797,22,90.1797,18,94.1797,14,90.1797" style="stroke:#B38D22;stroke-width:1.0;"/><text fill="#000000" font-family="sans-serif" font-size="14" lengthAdjust="spacing" textLength="150" x="27" y="94.5264">characterName: Label</text><polygon fill="none" points="18,102.4766,22,106.4766,18,110.4766,14,106.4766" style="stroke:#B38D22;stroke-width:1.0;"/><text fill="#000000" font-family="sans-serif" font-size="14" lengthAdjust="spacing" textLength="125" x="27" y="110.8232">alertHeader: Label</text><polygon fill="none" points="18,118.7734,22,122.7734,18,126.7734,14,122.7734" style="stroke:#B38D22;stroke-width:1.0;"/><text fill="#000000" font-family="sans-serif" font-size="14" lengthAdjust="spacing" textLength="110" x="27" y="127.1201">alertBody: Label</text><polygon fill="none" points="18,135.0703,22,139.0703,18,143.0703,14,139.0703" style="stroke:#B38D22;stroke-width:1.0;"/><text fill="#000000" font-family="sans-serif" font-size="14" lengthAdjust="spacing" textLength="116" x="27" y="143.417">skipTurn: Button</text><polygon fill="none" points="18,151.3672,22,155.3672,18,159.3672,14,155.3672" style="stroke:#B38D22;stroke-width:1.0;"/><text fill="#000000" font-family="sans-serif" font-size="14" lengthAdjust="spacing" textLength="158" x="27" y="159.7139">alertHistory: ScrollPane</text><polygon fill="none" points="18,167.6641,22,171.6641,18,175.6641,14,171.6641" style="stroke:#B38D22;stroke-width:1.0;"/><text fill="#000000" font-family="sans-serif" font-size="14" lengthAdjust="spacing" textLength="137" x="27" y="176.0107">contentAlerts: VBox</text><polygon fill="none" points="18,183.9609,22,187.9609,18,191.9609,14,187.9609" style="stroke:#B38D22;stroke-width:1.0;"/><text fill="#000000" font-family="sans-serif" font-size="14" lengthAdjust="spacing" textLength="88" x="27" y="192.3076">stage: Stage</text><polygon fill="none" points="18,200.2578,22,204.2578,18,208.2578,14,204.2578" style="stroke:#B38D22;stroke-width:1.0;"/><text fill="#000000" font-family="sans-serif" font-size="14" lengthAdjust="spacing" textLength="198" x="27" y="208.6045">model: MonsterHunterModel</text><polygon fill="none" points="18,216.5547,22,220.5547,18,224.5547,14,220.5547" style="stroke:#B38D22;stroke-width:1.0;"/><text fill="#000000" font-family="sans-serif" font-size="14" lengthAdjust="spacing" textLength="94" x="27" y="224.9014">winAlert: Alert</text><polygon fill="none" points="18,232.8516,22,236.8516,18,240.8516,14,236.8516" style="stroke:#B38D22;stroke-width:1.0;"/><text fill="#000000" font-family="sans-serif" font-size="14" lengthAdjust="spacing" textLength="130" x="27" y="241.1982">alerts: List&lt;Label&gt;</text><polygon fill="none" points="18,249.1484,22,253.1484,18,257.1484,14,253.1484" style="stroke:#B38D22;stroke-width:1.0;"/><text fill="#000000" font-family="sans-serif" font-size="14" lengthAdjust="spacing" textLength="175" x="27" y="257.4951">monsterView: IPlayerView</text><polygon fill="none" points="18,265.4453,22,269.4453,18,273.4453,14,269.4453" style="stroke:#B38D22;stroke-width:1.0;"/><text fill="#000000" font-family="sans-serif" font-size="14" lengthAdjust="spacing" textLength="163" x="27" y="273.792">hunterView: IPlayerView</text><line style="stroke:#181818;stroke-width:0.5;" x1="8" x2="366" y1="281.0938" y2="281.0938"/><ellipse cx="18" cy="294.7422" fill="#84BE84" rx="3" ry="3" style="stroke:#038048;stroke-width:1.0;"/><text fill="#000000" font-family="sans-serif" font-size="14" lengthAdjust="spacing" textLength="334" x="27" y="298.0889">MHPlayerController(Stage, MonsterHunterModel)</text><ellipse cx="18" cy="311.0391" fill="#84BE84" rx="3" ry="3" style="stroke:#038048;stroke-width:1.0;"/><text fill="#000000" font-family="sans-serif" font-size="14" font-style="italic" lengthAdjust="spacing" textLength="101" x="27" y="314.3857">initialize(): void</text><ellipse cx="18" cy="327.3359" fill="#84BE84" rx="3" ry="3" style="stroke:#038048;stroke-width:1.0;"/><text fill="#000000" font-family="sans-serif" font-size="14" lengthAdjust="spacing" textLength="230" x="27" y="330.6826">getModel(): MonsterHunterModel</text><ellipse cx="18" cy="343.6328" fill="#84BE84" rx="3" ry="3" style="stroke:#038048;stroke-width:1.0;"/><text fill="#000000" font-family="sans-serif" font-size="14" lengthAdjust="spacing" textLength="142" x="27" y="346.9795">getContentV(): VBox</text><polygon fill="#FFFF44" points="18,354.9297,22,358.9297,18,362.9297,14,358.9297" style="stroke:#B38D22;stroke-width:1.0;"/><text fill="#000000" font-family="sans-serif" font-size="14" lengthAdjust="spacing" textLength="143" x="27" y="363.2764">updateHistory(): void</text><ellipse cx="18" cy="376.2266" fill="#84BE84" rx="3" ry="3" style="stroke:#038048;stroke-width:1.0;"/><text fill="#000000" font-family="sans-serif" font-size="14" lengthAdjust="spacing" textLength="131" x="27" y="379.5732">showHistory(): void</text><ellipse cx="18" cy="392.5234" fill="#84BE84" rx="3" ry="3" style="stroke:#038048;stroke-width:1.0;"/><text fill="#000000" font-family="sans-serif" font-size="14" font-style="italic" lengthAdjust="spacing" textLength="127" x="27" y="395.8701">onSkipTurn(): void</text><polygon fill="#FFFF44" points="18,403.8203,22,407.8203,18,411.8203,14,407.8203" style="stroke:#B38D22;stroke-width:1.0;"/><text fill="#000000" font-family="sans-serif" font-size="14" font-style="italic" lengthAdjust="spacing" textLength="153" x="27" y="412.167">pathAlert(int, int): void</text><polygon fill="#FFFF44" points="18,420.1172,22,424.1172,18,428.1172,14,424.1172" style="stroke:#B38D22;stroke-width:1.0;"/><text fill="#000000" font-family="sans-serif" font-size="14" font-style="italic" lengthAdjust="spacing" textLength="147" x="27" y="428.4639">wallAlert(int, int): void</text><polygon fill="#FFFF44" points="18,436.4141,22,440.4141,18,444.4141,14,440.4141" style="stroke:#B38D22;stroke-width:1.0;"/><text fill="#000000" font-family="sans-serif" font-size="14" font-style="italic" lengthAdjust="spacing" textLength="103" x="27" y="444.7607">winAlert(): void</text><polygon fill="#FFFF44" points="18,452.7109,22,456.7109,18,460.7109,14,456.7109" style="stroke:#B38D22;stroke-width:1.0;"/><text fill="#000000" font-family="sans-serif" font-size="14" font-style="italic" lengthAdjust="spacing" textLength="136" x="27" y="461.0576">alertOnClose(): void</text></g></a><text fill="#888888" font-family="sans-serif" font-size="10" lengthAdjust="spacing" textLength="186" x="93.5" y="484.6416">UMLDoclet 2.1.0, PlantUML 1.2022.14</text><!--SRC=[bLHHI-D047w_Np4e1nLBqEEUWXIk5QpGUaBFlgWFOpAQvJQxONTYhoV-zvlTHbCJMxWyPEbyttpppSoc002U60oMv2lCQ44LEcJhm5X3NmI6GkK4L5QyXaT5ElVTQ4bSM0d7E3vuTfWnP1gzXuCph_vIUlfzD9zUQroJcrZ3pcfDxiuquCaeAuHCM9VMI3ebsJlf0D33RZZfoyBjRJ-O55pg-tjuYIR3SnX4oF0oXUNO_cdZ9Oedk70glyPc11j-WQ4nSbSoh1Hc-42wHL6Ay9Gm9_SvDhRvkeVutwhwLJkJmhXcjgQhfxoiGj8MMMYZusVZ_qSW-cuJdl59J2x2iTMQpKcdC0zZ93UjHS3DGwobh9I9YYd4esD8wip4qrbiOxGj71MNYbOfN6w67twqZ28Msqquxkzi4DqFFx5xz9xsydRVNk5O6SKAjLofmL4AprRbhVeJSSmCo9xs0s_It8j0_JZKkigHgLbAluOlx6eNkEtJcaMpzdsqmmgvY3iOACD3aDS-zWgr_Wzsi-Mz1kB6Vvg9jlxZH5ytdtf6OO3mQ6quRkQpSvjf-JFvbfmc9qEGTHgMA7nz9kULbMx_0G00]--></g></svg>