<?xml version="1.0" encoding="UTF-8" standalone="no"?><svg xmlns="http://www.w3.org/2000/svg" xmlns:xlink="http://www.w3.org/1999/xlink" contentStyleType="text/css" height="543px" preserveAspectRatio="none" style="width:381px;height:543px;background:#FFFFFF;" version="1.1" viewBox="0 0 381 543" width="381px" zoomAndPan="magnify"><defs/><g><!--class chasseaumonstre.controller.MHPlayerController--><a href="MHPlayerController.html" target="_top" title="MHPlayerController.html" xlink:actuate="onRequest" xlink:href="MHPlayerController.html" xlink:show="new" xlink:title="MHPlayerController.html" xlink:type="simple"><g id="elem_chasseaumonstre.controller.MHPlayerController"><rect codeLine="5" fill="#F1F1F1" height="510.25" id="chasseaumonstre.controller.MHPlayerController" rx="2.5" ry="2.5" style="stroke:#181818;stroke-width:0.5;" width="360" x="7" y="7"/><ellipse cx="113.75" cy="25.9688" fill="#A9DCDF" rx="11" ry="11" style="stroke:#181818;stroke-width:1.0;"/><path d="M113.8594,21.3125 L112.7031,26.3906 L115.0313,26.3906 L113.8594,21.3125 Z M112.375,19.0781 L115.3594,19.0781 L118.7188,31.4688 L116.2656,31.4688 L115.5,28.4063 L112.2188,28.4063 L111.4688,31.4688 L109.0313,31.4688 L112.375,19.0781 Z " fill="#000000"/><text fill="#000000" font-family="sans-serif" font-size="14" font-style="italic" lengthAdjust="spacing" textLength="131" x="137.75" y="24.9951">MHPlayerController</text><text fill="#000000" font-family="sans-serif" font-size="10" font-style="italic" lengthAdjust="spacing" textLength="138" x="134.25" y="37.5791">chasseaumonstre.controller</text><line style="stroke:#181818;stroke-width:0.5;" x1="8" x2="366" y1="44.9375" y2="44.9375"/><polygon fill="none" points="18,53.5859,22,57.5859,18,61.5859,14,57.5859" style="stroke:#B38D22;stroke-width:1.0;"/><text fill="#000000" font-family="sans-serif" font-size="14" lengthAdjust="spacing" textLength="107" x="27" y="61.9326">contentV: VBox</text><polygon fill="none" points="18,69.8828,22,73.8828,18,77.8828,14,73.8828" style="stroke:#B38D22;stroke-width:1.0;"/><text fill="#000000" font-family="sans-serif" font-size="14" lengthAdjust="spacing" textLength="110" x="27" y="78.2295">maze: GridPane</text><polygon fill="none" points="18,86.1797,22,90.1797,18,94.1797,14,90.1797" style="stroke:#B38D22;stroke-width:1.0;"/><text fill="#000000" font-family="sans-serif" font-size="14" lengthAdjust="spacing" textLength="150" x="27" y="94.5264">characterName: Label</text><polygon fill="none" points="18,102.4766,22,106.4766,18,110.4766,14,106.4766" style="stroke:#B38D22;stroke-width:1.0;"/><text fill="#000000" font-family="sans-serif" font-size="14" lengthAdjust="spacing" textLength="125" x="27" y="110.8232">alertHeader: Label</text><polygon fill="none" points="18,118.7734,22,122.7734,18,126.7734,14,122.7734" style="stroke:#B38D22;stroke-width:1.0;"/><text fill="#000000" font-family="sans-serif" font-size="14" lengthAdjust="spacing" textLength="110" x="27" y="127.1201">alertBody: Label</text><polygon fill="none" points="18,135.0703,22,139.0703,18,143.0703,14,139.0703" style="stroke:#B38D22;stroke-width:1.0;"/><text fill="#000000" font-family="sans-serif" font-size="14" lengthAdjust="spacing" textLength="116" x="27" y="143.417">skipTurn: Button</text><polygon fill="none" points="18,151.3672,22,155.3672,18,159.3672,14,155.3672" style="stroke:#B38D22;stroke-width:1.0;"/><text fill="#000000" font-family="sans-serif" font-size="14" lengthAdjust="spacing" textLength="158" x="27" y="159.7139">alertHistory: ScrollPane</text><polygon fill="none" points="18,167.6641,22,171.6641,18,175.6641,14,171.6641" style="stroke:#B38D22;stroke-width:1.0;"/><text fill="#000000" font-family="sans-serif" font-size="14" lengthAdjust="spacing" textLength="137" x="27" y="176.0107">contentAlerts: VBox</text><polygon fill="none" points="18,183.9609,22,187.9609,18,191.9609,14,187.9609" style="stroke:#B38D22;stroke-width:1.0;"/><text fill="#000000" font-family="sans-serif" font-size="14" lengthAdjust="spacing" textLength="88" x="27" y="192.3076">stage: Stage</text><polygon fill="none" points="18,200.2578,22,204.2578,18,208.2578,14,204.2578" style="stroke:#B38D22;stroke-width:1.0;"/><text fill="#000000" font-family="sans-serif" font-size="14" lengthAdjust="spacing" textLength="198" x="27" y="208.6045">model: MonsterHunterModel</text><polygon fill="none" points="18,216.5547,22,220.5547,18,224.5547,14,220.5547" style="stroke:#B38D22;stroke-width:1.0;"/><text fill="#000000" font-family="sans-serif" font-size="14" lengthAdjust="spacing" textLength="94" x="27" y="224.9014">winAlert: Alert</text><polygon fill="none" points="18,232.8516,22,236.8516,18,240.8516,14,236.8516" style="stroke:#B38D22;stroke-width:1.0;"/><text fill="#000000" font-family="sans-serif" font-size="14" lengthAdjust="spacing" textLength="130" x="27" y="241.1982">alerts: List&lt;Label&gt;</text><polygon fill="none" points="18,249.1484,22,253.1484,18,257.1484,14,253.1484" style="stroke:#B38D22;stroke-width:1.0;"/><text fill="#000000" font-family="sans-serif" font-size="14" lengthAdjust="spacing" textLength="210" x="27" y="257.4951">monsterView: MHMonsterView</text><polygon fill="none" points="18,265.4453,22,269.4453,18,273.4453,14,269.4453" style="stroke:#B38D22;stroke-width:1.0;"/><text fill="#000000" font-family="sans-serif" font-size="14" lengthAdjust="spacing" textLength="188" x="27" y="273.792">hunterView: MHHunterView</text><line style="stroke:#181818;stroke-width:0.5;" x1="8" x2="366" y1="281.0938" y2="281.0938"/><ellipse cx="18" cy="294.7422" fill="#84BE84" rx="3" ry="3" style="stroke:#038048;stroke-width:1.0;"/><text fill="#000000" font-family="sans-serif" font-size="14" lengthAdjust="spacing" textLength="334" x="27" y="298.0889">MHPlayerController(Stage, MonsterHunterModel)</text><rect fill="#F24D5C" height="6" style="stroke:#C82930;stroke-width:1.0;" width="6" x="15" y="308.0391"/><text fill="#000000" font-family="sans-serif" font-size="14" lengthAdjust="spacing" textLength="225" x="27" y="314.3857">attachControllersToModel(): void</text><ellipse cx="18" cy="327.3359" fill="#84BE84" rx="3" ry="3" style="stroke:#038048;stroke-width:1.0;"/><text fill="#000000" font-family="sans-serif" font-size="14" font-style="italic" lengthAdjust="spacing" textLength="101" x="27" y="330.6826">initialize(): void</text><ellipse cx="18" cy="343.6328" fill="#84BE84" rx="3" ry="3" style="stroke:#038048;stroke-width:1.0;"/><text fill="#000000" font-family="sans-serif" font-size="14" lengthAdjust="spacing" textLength="230" x="27" y="346.9795">getModel(): MonsterHunterModel</text><ellipse cx="18" cy="359.9297" fill="#84BE84" rx="3" ry="3" style="stroke:#038048;stroke-width:1.0;"/><text fill="#000000" font-family="sans-serif" font-size="14" lengthAdjust="spacing" textLength="142" x="27" y="363.2764">getContentV(): VBox</text><polygon fill="#FFFF44" points="18,371.2266,22,375.2266,18,379.2266,14,375.2266" style="stroke:#B38D22;stroke-width:1.0;"/><text fill="#000000" font-family="sans-serif" font-size="14" lengthAdjust="spacing" textLength="143" x="27" y="379.5732">updateHistory(): void</text><ellipse cx="18" cy="392.5234" fill="#84BE84" rx="3" ry="3" style="stroke:#038048;stroke-width:1.0;"/><text fill="#000000" font-family="sans-serif" font-size="14" lengthAdjust="spacing" textLength="269" x="27" y="395.8701">setMonsterView(MHMonsterView): void</text><ellipse cx="18" cy="408.8203" fill="#84BE84" rx="3" ry="3" style="stroke:#038048;stroke-width:1.0;"/><text fill="#000000" font-family="sans-serif" font-size="14" lengthAdjust="spacing" textLength="249" x="27" y="412.167">setHunterView(MHHunterView): void</text><ellipse cx="18" cy="425.1172" fill="#84BE84" rx="3" ry="3" style="stroke:#038048;stroke-width:1.0;"/><text fill="#000000" font-family="sans-serif" font-size="14" lengthAdjust="spacing" textLength="131" x="27" y="428.4639">showHistory(): void</text><ellipse cx="18" cy="441.4141" fill="#84BE84" rx="3" ry="3" style="stroke:#038048;stroke-width:1.0;"/><text fill="#000000" font-family="sans-serif" font-size="14" font-style="italic" lengthAdjust="spacing" textLength="127" x="27" y="444.7607">onSkipTurn(): void</text><polygon fill="#FFFF44" points="18,452.7109,22,456.7109,18,460.7109,14,456.7109" style="stroke:#B38D22;stroke-width:1.0;"/><text fill="#000000" font-family="sans-serif" font-size="14" font-style="italic" lengthAdjust="spacing" textLength="153" x="27" y="461.0576">pathAlert(int, int): void</text><polygon fill="#FFFF44" points="18,469.0078,22,473.0078,18,477.0078,14,473.0078" style="stroke:#B38D22;stroke-width:1.0;"/><text fill="#000000" font-family="sans-serif" font-size="14" font-style="italic" lengthAdjust="spacing" textLength="147" x="27" y="477.3545">wallAlert(int, int): void</text><polygon fill="#FFFF44" points="18,485.3047,22,489.3047,18,493.3047,14,489.3047" style="stroke:#B38D22;stroke-width:1.0;"/><text fill="#000000" font-family="sans-serif" font-size="14" font-style="italic" lengthAdjust="spacing" textLength="103" x="27" y="493.6514">winAlert(): void</text><polygon fill="#FFFF44" points="18,501.6016,22,505.6016,18,509.6016,14,505.6016" style="stroke:#B38D22;stroke-width:1.0;"/><text fill="#000000" font-family="sans-serif" font-size="14" font-style="italic" lengthAdjust="spacing" textLength="136" x="27" y="509.9482">alertOnClose(): void</text></g></a><text fill="#888888" font-family="sans-serif" font-size="10" lengthAdjust="spacing" textLength="186" x="93.5" y="533.5322">UMLDoclet 2.1.0, PlantUML 1.2022.14</text><!--SRC=[bLJ1Qjj04BttAuQ4WeDTavIUH33K3jG7kmquyINDOI9DeYMhNR4xZkk6_7jdrufaIuwXEcZHpDkPDsyU0W3mn62m85zYIWigqI5R1yOQ-YHfo5L6G4N96tXKf3FVZXR4kPLmZEE3PuSfGwhHUpYvzEel9HVVHlFfjSODkOarxApMv7wRAda-IdC14wuAQ-Gw3TCQT0BeuUFqi5iMxkwwmM7EXRw_XzT8CZodeGWPNYQm7Di_JRn0uGG_dCgkiP9WYyyn34RkfuYLm0mVI3TPb2Oy9Sp87SwDRRRfPFopAczMpYGmNZ5RqwwdlAn2hYtIC4QBpvR_zm3qxI4yuvEGN8HZPpIRaKvW7cGaDrr90JSFiGQoLYPMJ20UBKBIPoQSBkCOezt2iU9IqLhAJ-VDPuF9OxjtoBJ-gX7zxjfwSO310SPdzRKlo8nftbpoDpP2UcS9l5YLrSZNTtE-GLyPnGgr-Ay3wpyHrmMEQ1Lmayf40Rg_WLMP8LErmMuF7thKAlNsD3i4RlJgxOhNXUPs_L7JtVcjMLJUEmOxBP7pQ8IUCZm0UHr3hr7h_q1NLZjA8Dhkbvbew_StzRRztwGKf817QyDnEvzTsLJB7-thy69uFW0nb669mkSNCOQoCkq_]--></g></svg>