<?xml version="1.0" encoding="UTF-8" standalone="no"?><svg xmlns="http://www.w3.org/2000/svg" xmlns:xlink="http://www.w3.org/1999/xlink" contentStyleType="text/css" height="1004px" preserveAspectRatio="none" style="width:1145px;height:1004px;background:#FFFFFF;" version="1.1" viewBox="0 0 1145 1004" width="1145px" zoomAndPan="magnify"><defs/><g><!--cluster chasseaumonstre.controller--><g id="cluster_chasseaumonstre.controller"><path d="M8.5,6 L232.5,6 A3.75,3.75 0 0 1 235,8.5 L242,28.2969 L1135.5,28.2969 A2.5,2.5 0 0 1 1138,30.7969 L1138,976.5 A2.5,2.5 0 0 1 1135.5,979 L8.5,979 A2.5,2.5 0 0 1 6,976.5 L6,8.5 A2.5,2.5 0 0 1 8.5,6 " fill="none" style="stroke:#000000;stroke-width:1.5;"/><line style="stroke:#000000;stroke-width:1.5;" x1="6" x2="242" y1="28.2969" y2="28.2969"/><text fill="#000000" font-family="sans-serif" font-size="14" font-weight="bold" lengthAdjust="spacing" textLength="223" x="10" y="20.9951">chasseaumonstre.controller</text></g><!--class chasseaumonstre.controller.JVJController--><a href="JVJController.html" target="_top" title="JVJController.html" xlink:actuate="onRequest" xlink:href="JVJController.html" xlink:show="new" xlink:title="JVJController.html" xlink:type="simple"><g id="elem_chasseaumonstre.controller.JVJController"><rect codeLine="3" fill="#F1F1F1" height="243.5625" id="chasseaumonstre.controller.JVJController" rx="2.5" ry="2.5" style="stroke:#181818;stroke-width:0.5;" width="312" x="810" y="171"/><ellipse cx="920.75" cy="187" fill="#ADD1B2" rx="11" ry="11" style="stroke:#181818;stroke-width:1.0;"/><path d="M923.7188,192.6406 Q923.1406,192.9375 922.5,193.0781 Q921.8594,193.2344 921.1563,193.2344 Q918.6563,193.2344 917.3281,191.5938 Q916.0156,189.9375 916.0156,186.8125 Q916.0156,183.6875 917.3281,182.0313 Q918.6563,180.375 921.1563,180.375 Q921.8594,180.375 922.5,180.5313 Q923.1563,180.6875 923.7188,180.9844 L923.7188,183.7031 Q923.0938,183.125 922.5,182.8594 Q921.9063,182.5781 921.2813,182.5781 Q919.9375,182.5781 919.25,183.6563 Q918.5625,184.7188 918.5625,186.8125 Q918.5625,188.9063 919.25,189.9844 Q919.9375,191.0469 921.2813,191.0469 Q921.9063,191.0469 922.5,190.7813 Q923.0938,190.5 923.7188,189.9219 L923.7188,192.6406 Z " fill="#000000"/><text fill="#000000" font-family="sans-serif" font-size="14" lengthAdjust="spacing" textLength="82" x="941.25" y="191.8467">JVJController</text><line style="stroke:#181818;stroke-width:0.5;" x1="811" x2="1121" y1="203" y2="203"/><rect fill="none" height="6" style="stroke:#C82930;stroke-width:1.0;" width="6" x="818" y="213.6484"/><text fill="#000000" font-family="sans-serif" font-size="14" lengthAdjust="spacing" textLength="175" x="830" y="219.9951">startGameButton: Button</text><rect fill="none" height="6" style="stroke:#C82930;stroke-width:1.0;" width="6" x="818" y="229.9453"/><text fill="#000000" font-family="sans-serif" font-size="14" lengthAdjust="spacing" textLength="83" x="830" y="236.292">j1: TextField</text><rect fill="none" height="6" style="stroke:#C82930;stroke-width:1.0;" width="6" x="818" y="246.2422"/><text fill="#000000" font-family="sans-serif" font-size="14" lengthAdjust="spacing" textLength="83" x="830" y="252.5889">j2: TextField</text><rect fill="none" height="6" style="stroke:#C82930;stroke-width:1.0;" width="6" x="818" y="262.5391"/><text fill="#000000" font-family="sans-serif" font-size="14" lengthAdjust="spacing" textLength="88" x="830" y="268.8857">stage: Stage</text><rect fill="none" height="6" style="stroke:#C82930;stroke-width:1.0;" width="6" x="818" y="278.8359"/><text fill="#000000" font-family="sans-serif" font-size="14" lengthAdjust="spacing" textLength="198" x="830" y="285.1826">model: MonsterHunterModel</text><rect fill="none" height="6" style="stroke:#C82930;stroke-width:1.0;" width="6" x="818" y="295.1328"/><text fill="#000000" font-family="sans-serif" font-size="14" lengthAdjust="spacing" textLength="188" x="830" y="301.4795">hunterView: MHHunterView</text><rect fill="none" height="6" style="stroke:#C82930;stroke-width:1.0;" width="6" x="818" y="311.4297"/><text fill="#000000" font-family="sans-serif" font-size="14" lengthAdjust="spacing" textLength="210" x="830" y="317.7764">monsterView: MHMonsterView</text><line style="stroke:#181818;stroke-width:0.5;" x1="811" x2="1121" y1="325.0781" y2="325.0781"/><ellipse cx="821" cy="338.7266" fill="#84BE84" rx="3" ry="3" style="stroke:#038048;stroke-width:1.0;"/><text fill="#000000" font-family="sans-serif" font-size="14" lengthAdjust="spacing" textLength="286" x="830" y="342.0732">JVJController(Stage, MonsterHunterModel)</text><rect fill="#F24D5C" height="6" style="stroke:#C82930;stroke-width:1.0;" width="6" x="818" y="352.0234"/><text fill="#000000" font-family="sans-serif" font-size="14" lengthAdjust="spacing" textLength="119" x="830" y="358.3701">startGame(): void</text><rect fill="#F24D5C" height="6" style="stroke:#C82930;stroke-width:1.0;" width="6" x="818" y="368.3203"/><text fill="#000000" font-family="sans-serif" font-size="14" lengthAdjust="spacing" textLength="166" x="830" y="374.667">startGameButton(): void</text><rect fill="#F24D5C" height="6" style="stroke:#C82930;stroke-width:1.0;" width="6" x="818" y="384.6172"/><text fill="#000000" font-family="sans-serif" font-size="14" lengthAdjust="spacing" textLength="183" x="830" y="390.9639">startGame(KeyEvent): void</text><ellipse cx="821" cy="403.9141" fill="#84BE84" rx="3" ry="3" style="stroke:#038048;stroke-width:1.0;"/><text fill="#000000" font-family="sans-serif" font-size="14" lengthAdjust="spacing" textLength="101" x="830" y="407.2607">initialize(): void</text></g></a><!--class chasseaumonstre.controller.MHMenuController--><a href="MHMenuController.html" target="_top" title="MHMenuController.html" xlink:actuate="onRequest" xlink:href="MHMenuController.html" xlink:show="new" xlink:title="MHMenuController.html" xlink:type="simple"><g id="elem_chasseaumonstre.controller.MHMenuController"><rect codeLine="18" fill="#F1F1F1" height="292.4531" id="chasseaumonstre.controller.MHMenuController" rx="2.5" ry="2.5" style="stroke:#181818;stroke-width:0.5;" width="358" x="417" y="147"/><ellipse cx="527.75" cy="163" fill="#ADD1B2" rx="11" ry="11" style="stroke:#181818;stroke-width:1.0;"/><path d="M530.7188,168.6406 Q530.1406,168.9375 529.5,169.0781 Q528.8594,169.2344 528.1563,169.2344 Q525.6563,169.2344 524.3281,167.5938 Q523.0156,165.9375 523.0156,162.8125 Q523.0156,159.6875 524.3281,158.0313 Q525.6563,156.375 528.1563,156.375 Q528.8594,156.375 529.5,156.5313 Q530.1563,156.6875 530.7188,156.9844 L530.7188,159.7031 Q530.0938,159.125 529.5,158.8594 Q528.9063,158.5781 528.2813,158.5781 Q526.9375,158.5781 526.25,159.6563 Q525.5625,160.7188 525.5625,162.8125 Q525.5625,164.9063 526.25,165.9844 Q526.9375,167.0469 528.2813,167.0469 Q528.9063,167.0469 529.5,166.7813 Q530.0938,166.5 530.7188,165.9219 L530.7188,168.6406 Z " fill="#000000"/><text fill="#000000" font-family="sans-serif" font-size="14" lengthAdjust="spacing" textLength="128" x="548.25" y="167.8467">MHMenuController</text><line style="stroke:#181818;stroke-width:0.5;" x1="418" x2="774" y1="179" y2="179"/><rect fill="none" height="6" style="stroke:#C82930;stroke-width:1.0;" width="6" x="425" y="189.6484"/><text fill="#000000" font-family="sans-serif" font-size="14" lengthAdjust="spacing" text-decoration="underline" textLength="184" x="437" y="195.9951">BACKGROUND_URL: String</text><rect fill="none" height="6" style="stroke:#C82930;stroke-width:1.0;" width="6" x="425" y="205.9453"/><text fill="#000000" font-family="sans-serif" font-size="14" lengthAdjust="spacing" textLength="157" x="437" y="212.292">imageView: ImageView</text><rect fill="none" height="6" style="stroke:#C82930;stroke-width:1.0;" width="6" x="425" y="222.2422"/><text fill="#000000" font-family="sans-serif" font-size="14" lengthAdjust="spacing" textLength="93" x="437" y="228.5889">jvjBtn: Button</text><rect fill="none" height="6" style="stroke:#C82930;stroke-width:1.0;" width="6" x="425" y="238.5391"/><text fill="#000000" font-family="sans-serif" font-size="14" lengthAdjust="spacing" textLength="98" x="437" y="244.8857">cviBtn: Button</text><rect fill="none" height="6" style="stroke:#C82930;stroke-width:1.0;" width="6" x="425" y="254.8359"/><text fill="#000000" font-family="sans-serif" font-size="14" lengthAdjust="spacing" textLength="103" x="437" y="261.1826">mviBtn: Button</text><rect fill="none" height="6" style="stroke:#C82930;stroke-width:1.0;" width="6" x="425" y="271.1328"/><text fill="#000000" font-family="sans-serif" font-size="14" lengthAdjust="spacing" textLength="93" x="437" y="277.4795">iviBtn: Button</text><rect fill="none" height="6" style="stroke:#C82930;stroke-width:1.0;" width="6" x="425" y="287.4297"/><text fill="#000000" font-family="sans-serif" font-size="14" lengthAdjust="spacing" textLength="88" x="437" y="293.7764">stage: Stage</text><rect fill="none" height="6" style="stroke:#C82930;stroke-width:1.0;" width="6" x="425" y="303.7266"/><text fill="#000000" font-family="sans-serif" font-size="14" lengthAdjust="spacing" textLength="198" x="437" y="310.0732">model: MonsterHunterModel</text><line style="stroke:#181818;stroke-width:0.5;" x1="418" x2="774" y1="317.375" y2="317.375"/><ellipse cx="428" cy="331.0234" fill="#84BE84" rx="3" ry="3" style="stroke:#038048;stroke-width:1.0;"/><text fill="#000000" font-family="sans-serif" font-size="14" lengthAdjust="spacing" textLength="332" x="437" y="334.3701">MHMenuController(Stage, MonsterHunterModel)</text><ellipse cx="428" cy="347.3203" fill="#84BE84" rx="3" ry="3" style="stroke:#038048;stroke-width:1.0;"/><text fill="#000000" font-family="sans-serif" font-size="14" lengthAdjust="spacing" textLength="230" x="437" y="350.667">getModel(): MonsterHunterModel</text><rect fill="#F24D5C" height="6" style="stroke:#C82930;stroke-width:1.0;" width="6" x="425" y="360.6172"/><text fill="#000000" font-family="sans-serif" font-size="14" lengthAdjust="spacing" textLength="92" x="437" y="366.9639">onPVP(): void</text><rect fill="#F24D5C" height="6" style="stroke:#C82930;stroke-width:1.0;" width="6" x="425" y="376.9141"/><text fill="#000000" font-family="sans-serif" font-size="14" lengthAdjust="spacing" textLength="133" x="437" y="383.2607">onHunterVAi(): void</text><rect fill="#F24D5C" height="6" style="stroke:#C82930;stroke-width:1.0;" width="6" x="425" y="393.2109"/><text fill="#000000" font-family="sans-serif" font-size="14" lengthAdjust="spacing" textLength="143" x="437" y="399.5576">onMonsterVAi(): void</text><rect fill="#F24D5C" height="6" style="stroke:#C82930;stroke-width:1.0;" width="6" x="425" y="409.5078"/><text fill="#000000" font-family="sans-serif" font-size="14" lengthAdjust="spacing" textLength="98" x="437" y="415.8545">onAiVAi(): void</text><ellipse cx="428" cy="428.8047" fill="#84BE84" rx="3" ry="3" style="stroke:#038048;stroke-width:1.0;"/><text fill="#000000" font-family="sans-serif" font-size="14" lengthAdjust="spacing" textLength="101" x="437" y="432.1514">initialize(): void</text></g></a><!--class chasseaumonstre.controller.MHMonsterController--><a href="MHMonsterController.html" target="_top" title="MHMonsterController.html" xlink:actuate="onRequest" xlink:href="MHMonsterController.html" xlink:show="new" xlink:title="MHMonsterController.html" xlink:type="simple"><g id="elem_chasseaumonstre.controller.MHMonsterController"><rect codeLine="36" fill="#F1F1F1" height="357.6406" id="chasseaumonstre.controller.MHMonsterController" rx="2.5" ry="2.5" style="stroke:#181818;stroke-width:0.5;" width="376" x="22" y="605"/><ellipse cx="132.75" cy="621" fill="#ADD1B2" rx="11" ry="11" style="stroke:#181818;stroke-width:1.0;"/><path d="M135.7188,626.6406 Q135.1406,626.9375 134.5,627.0781 Q133.8594,627.2344 133.1563,627.2344 Q130.6563,627.2344 129.3281,625.5938 Q128.0156,623.9375 128.0156,620.8125 Q128.0156,617.6875 129.3281,616.0313 Q130.6563,614.375 133.1563,614.375 Q133.8594,614.375 134.5,614.5313 Q135.1563,614.6875 135.7188,614.9844 L135.7188,617.7031 Q135.0938,617.125 134.5,616.8594 Q133.9063,616.5781 133.2813,616.5781 Q131.9375,616.5781 131.25,617.6563 Q130.5625,618.7188 130.5625,620.8125 Q130.5625,622.9063 131.25,623.9844 Q131.9375,625.0469 133.2813,625.0469 Q133.9063,625.0469 134.5,624.7813 Q135.0938,624.5 135.7188,623.9219 L135.7188,626.6406 Z " fill="#000000"/><text fill="#000000" font-family="sans-serif" font-size="14" lengthAdjust="spacing" textLength="146" x="153.25" y="625.8467">MHMonsterController</text><line style="stroke:#181818;stroke-width:0.5;" x1="23" x2="397" y1="637" y2="637"/><rect fill="none" height="6" style="stroke:#C82930;stroke-width:1.0;" width="6" x="30" y="647.6484"/><text fill="#000000" font-family="sans-serif" font-size="14" lengthAdjust="spacing" text-decoration="underline" textLength="115" x="42" y="653.9951">VOLUME: double</text><rect fill="none" height="6" style="stroke:#C82930;stroke-width:1.0;" width="6" x="30" y="663.9453"/><text fill="#000000" font-family="sans-serif" font-size="14" lengthAdjust="spacing" text-decoration="underline" textLength="153" x="42" y="670.292">LOW_VOLUME: double</text><rect fill="none" height="6" style="stroke:#C82930;stroke-width:1.0;" width="6" x="30" y="680.2422"/><text fill="#000000" font-family="sans-serif" font-size="14" lengthAdjust="spacing" textLength="112" x="42" y="686.5889">moved: boolean</text><line style="stroke:#181818;stroke-width:0.5;" x1="23" x2="397" y1="693.8906" y2="693.8906"/><ellipse cx="33" cy="707.5391" fill="#84BE84" rx="3" ry="3" style="stroke:#038048;stroke-width:1.0;"/><text fill="#000000" font-family="sans-serif" font-size="14" lengthAdjust="spacing" textLength="350" x="42" y="710.8857">MHMonsterController(Stage, MonsterHunterModel)</text><ellipse cx="33" cy="723.8359" fill="#84BE84" rx="3" ry="3" style="stroke:#038048;stroke-width:1.0;"/><text fill="#000000" font-family="sans-serif" font-size="14" lengthAdjust="spacing" textLength="101" x="42" y="727.1826">initialize(): void</text><ellipse cx="33" cy="740.1328" fill="#84BE84" rx="3" ry="3" style="stroke:#038048;stroke-width:1.0;"/><text fill="#000000" font-family="sans-serif" font-size="14" lengthAdjust="spacing" textLength="230" x="42" y="743.4795">getModel(): MonsterHunterModel</text><ellipse cx="33" cy="756.4297" fill="#84BE84" rx="3" ry="3" style="stroke:#038048;stroke-width:1.0;"/><text fill="#000000" font-family="sans-serif" font-size="14" lengthAdjust="spacing" textLength="142" x="42" y="759.7764">getContentV(): VBox</text><ellipse cx="33" cy="772.7266" fill="#84BE84" rx="3" ry="3" style="stroke:#038048;stroke-width:1.0;"/><text fill="#000000" font-family="sans-serif" font-size="14" lengthAdjust="spacing" textLength="207" x="42" y="776.0732">setVue(MHMonsterView): void</text><ellipse cx="33" cy="789.0234" fill="#84BE84" rx="3" ry="3" style="stroke:#038048;stroke-width:1.0;"/><text fill="#000000" font-family="sans-serif" font-size="14" lengthAdjust="spacing" textLength="126" x="42" y="792.3701">onSkipTurn(): void</text><rect fill="#F24D5C" height="6" style="stroke:#C82930;stroke-width:1.0;" width="6" x="30" y="802.3203"/><text fill="#000000" font-family="sans-serif" font-size="14" lengthAdjust="spacing" textLength="175" x="42" y="808.667">advance(int, int): boolean</text><ellipse cx="33" cy="821.6172" fill="#84BE84" rx="3" ry="3" style="stroke:#038048;stroke-width:1.0;"/><text fill="#000000" font-family="sans-serif" font-size="14" lengthAdjust="spacing" textLength="195" x="42" y="824.9639">handleMove(int, int): CellInfo</text><ellipse cx="33" cy="837.9141" fill="#84BE84" rx="3" ry="3" style="stroke:#038048;stroke-width:1.0;"/><text fill="#000000" font-family="sans-serif" font-size="14" lengthAdjust="spacing" textLength="146" x="42" y="841.2607">hasMoved(): boolean</text><polygon fill="#FFFF44" points="33,849.2109,37,853.2109,33,857.2109,29,853.2109" style="stroke:#B38D22;stroke-width:1.0;"/><text fill="#000000" font-family="sans-serif" font-size="14" lengthAdjust="spacing" textLength="151" x="42" y="857.5576">pathAlert(int, int): void</text><polygon fill="#FFFF44" points="33,865.5078,37,869.5078,33,873.5078,29,869.5078" style="stroke:#B38D22;stroke-width:1.0;"/><text fill="#000000" font-family="sans-serif" font-size="14" lengthAdjust="spacing" textLength="145" x="42" y="873.8545">wallAlert(int, int): void</text><rect fill="#F24D5C" height="6" style="stroke:#C82930;stroke-width:1.0;" width="6" x="30" y="883.8047"/><text fill="#000000" font-family="sans-serif" font-size="14" lengthAdjust="spacing" textLength="164" x="42" y="890.1514">visitedAlert(int, int): void</text><rect fill="#F24D5C" height="6" style="stroke:#C82930;stroke-width:1.0;" width="6" x="30" y="900.1016"/><text fill="#000000" font-family="sans-serif" font-size="14" lengthAdjust="spacing" textLength="137" x="42" y="906.4482">farAlert(int, int): void</text><polygon fill="#FFFF44" points="33,914.3984,37,918.3984,33,922.3984,29,918.3984" style="stroke:#B38D22;stroke-width:1.0;"/><text fill="#000000" font-family="sans-serif" font-size="14" lengthAdjust="spacing" textLength="101" x="42" y="922.7451">winAlert(): void</text><polygon fill="#FFFF44" points="33,930.6953,37,934.6953,33,938.6953,29,934.6953" style="stroke:#B38D22;stroke-width:1.0;"/><text fill="#000000" font-family="sans-serif" font-size="14" lengthAdjust="spacing" textLength="136" x="42" y="939.042">alertOnClose(): void</text><ellipse cx="33" cy="951.9922" fill="#84BE84" rx="3" ry="3" style="stroke:#038048;stroke-width:1.0;"/><text fill="#000000" font-family="sans-serif" font-size="14" lengthAdjust="spacing" textLength="236" x="42" y="955.3389">keyPressedOnScene(Scene): void</text></g></a><!--class chasseaumonstre.controller.MHHunterController--><a href="MHHunterController.html" target="_top" title="MHHunterController.html" xlink:actuate="onRequest" xlink:href="MHHunterController.html" xlink:show="new" xlink:title="MHHunterController.html" xlink:type="simple"><g id="elem_chasseaumonstre.controller.MHHunterController"><rect codeLine="58" fill="#F1F1F1" height="292.4531" id="chasseaumonstre.controller.MHHunterController" rx="2.5" ry="2.5" style="stroke:#181818;stroke-width:0.5;" width="366" x="433" y="638"/><ellipse cx="543.75" cy="654" fill="#ADD1B2" rx="11" ry="11" style="stroke:#181818;stroke-width:1.0;"/><path d="M546.7188,659.6406 Q546.1406,659.9375 545.5,660.0781 Q544.8594,660.2344 544.1563,660.2344 Q541.6563,660.2344 540.3281,658.5938 Q539.0156,656.9375 539.0156,653.8125 Q539.0156,650.6875 540.3281,649.0313 Q541.6563,647.375 544.1563,647.375 Q544.8594,647.375 545.5,647.5313 Q546.1563,647.6875 546.7188,647.9844 L546.7188,650.7031 Q546.0938,650.125 545.5,649.8594 Q544.9063,649.5781 544.2813,649.5781 Q542.9375,649.5781 542.25,650.6563 Q541.5625,651.7188 541.5625,653.8125 Q541.5625,655.9063 542.25,656.9844 Q542.9375,658.0469 544.2813,658.0469 Q544.9063,658.0469 545.5,657.7813 Q546.0938,657.5 546.7188,656.9219 L546.7188,659.6406 Z " fill="#000000"/><text fill="#000000" font-family="sans-serif" font-size="14" lengthAdjust="spacing" textLength="136" x="564.25" y="658.8467">MHHunterController</text><line style="stroke:#181818;stroke-width:0.5;" x1="434" x2="798" y1="670" y2="670"/><rect fill="none" height="6" style="stroke:#C82930;stroke-width:1.0;" width="6" x="441" y="680.6484"/><text fill="#000000" font-family="sans-serif" font-size="14" lengthAdjust="spacing" textLength="115" x="453" y="686.9951">VOLUME: double</text><rect fill="none" height="6" style="stroke:#C82930;stroke-width:1.0;" width="6" x="441" y="696.9453"/><text fill="#000000" font-family="sans-serif" font-size="14" lengthAdjust="spacing" textLength="96" x="453" y="703.292">shot: boolean</text><line style="stroke:#181818;stroke-width:0.5;" x1="434" x2="798" y1="710.5938" y2="710.5938"/><ellipse cx="444" cy="724.2422" fill="#84BE84" rx="3" ry="3" style="stroke:#038048;stroke-width:1.0;"/><text fill="#000000" font-family="sans-serif" font-size="14" lengthAdjust="spacing" textLength="340" x="453" y="727.5889">MHHunterController(Stage, MonsterHunterModel)</text><ellipse cx="444" cy="740.5391" fill="#84BE84" rx="3" ry="3" style="stroke:#038048;stroke-width:1.0;"/><text fill="#000000" font-family="sans-serif" font-size="14" lengthAdjust="spacing" textLength="101" x="453" y="743.8857">initialize(): void</text><ellipse cx="444" cy="756.8359" fill="#84BE84" rx="3" ry="3" style="stroke:#038048;stroke-width:1.0;"/><text fill="#000000" font-family="sans-serif" font-size="14" lengthAdjust="spacing" textLength="230" x="453" y="760.1826">getModel(): MonsterHunterModel</text><ellipse cx="444" cy="773.1328" fill="#84BE84" rx="3" ry="3" style="stroke:#038048;stroke-width:1.0;"/><text fill="#000000" font-family="sans-serif" font-size="14" lengthAdjust="spacing" textLength="142" x="453" y="776.4795">getContentV(): VBox</text><ellipse cx="444" cy="789.4297" fill="#84BE84" rx="3" ry="3" style="stroke:#038048;stroke-width:1.0;"/><text fill="#000000" font-family="sans-serif" font-size="14" lengthAdjust="spacing" textLength="169" x="453" y="792.7764">setMaze(GridPane): void</text><ellipse cx="444" cy="805.7266" fill="#84BE84" rx="3" ry="3" style="stroke:#038048;stroke-width:1.0;"/><text fill="#000000" font-family="sans-serif" font-size="14" lengthAdjust="spacing" textLength="126" x="453" y="809.0732">onSkipTurn(): void</text><ellipse cx="444" cy="822.0234" fill="#84BE84" rx="3" ry="3" style="stroke:#038048;stroke-width:1.0;"/><text fill="#000000" font-family="sans-serif" font-size="14" lengthAdjust="spacing" textLength="190" x="453" y="825.3701">handleShot(int, int): CellInfo</text><ellipse cx="444" cy="838.3203" fill="#84BE84" rx="3" ry="3" style="stroke:#038048;stroke-width:1.0;"/><text fill="#000000" font-family="sans-serif" font-size="14" lengthAdjust="spacing" textLength="132" x="453" y="841.667">hasShot(): boolean</text><polygon fill="#FFFF44" points="444,849.6172,448,853.6172,444,857.6172,440,853.6172" style="stroke:#B38D22;stroke-width:1.0;"/><text fill="#000000" font-family="sans-serif" font-size="14" lengthAdjust="spacing" textLength="151" x="453" y="857.9639">pathAlert(int, int): void</text><polygon fill="#FFFF44" points="444,865.9141,448,869.9141,444,873.9141,440,869.9141" style="stroke:#B38D22;stroke-width:1.0;"/><text fill="#000000" font-family="sans-serif" font-size="14" lengthAdjust="spacing" textLength="145" x="453" y="874.2607">wallAlert(int, int): void</text><rect fill="#F24D5C" height="6" style="stroke:#C82930;stroke-width:1.0;" width="6" x="441" y="884.2109"/><text fill="#000000" font-family="sans-serif" font-size="14" lengthAdjust="spacing" textLength="178" x="453" y="890.5576">monsterAlert(int, int): void</text><polygon fill="#FFFF44" points="444,898.5078,448,902.5078,444,906.5078,440,902.5078" style="stroke:#B38D22;stroke-width:1.0;"/><text fill="#000000" font-family="sans-serif" font-size="14" lengthAdjust="spacing" textLength="101" x="453" y="906.8545">winAlert(): void</text><polygon fill="#FFFF44" points="444,914.8047,448,918.8047,444,922.8047,440,918.8047" style="stroke:#B38D22;stroke-width:1.0;"/><text fill="#000000" font-family="sans-serif" font-size="14" lengthAdjust="spacing" textLength="136" x="453" y="923.1514">alertOnClose(): void</text></g></a><!--class chasseaumonstre.controller.MHPlayerController--><a href="MHPlayerController.html" target="_top" title="MHPlayerController.html" xlink:actuate="onRequest" xlink:href="MHPlayerController.html" xlink:show="new" xlink:title="MHPlayerController.html" xlink:type="simple"><g id="elem_chasseaumonstre.controller.MHPlayerController"><rect codeLine="76" fill="#F1F1F1" height="504.3125" id="chasseaumonstre.controller.MHPlayerController" rx="2.5" ry="2.5" style="stroke:#181818;stroke-width:0.5;" width="360" x="22" y="41"/><ellipse cx="132.25" cy="57" fill="#A9DCDF" rx="11" ry="11" style="stroke:#181818;stroke-width:1.0;"/><path d="M132.3594,52.3438 L131.2031,57.4219 L133.5313,57.4219 L132.3594,52.3438 Z M130.875,50.1094 L133.8594,50.1094 L137.2188,62.5 L134.7656,62.5 L134,59.4375 L130.7188,59.4375 L129.9688,62.5 L127.5313,62.5 L130.875,50.1094 Z " fill="#000000"/><text fill="#000000" font-family="sans-serif" font-size="14" font-style="italic" lengthAdjust="spacing" textLength="131" x="152.75" y="61.8467">MHPlayerController</text><line style="stroke:#181818;stroke-width:0.5;" x1="23" x2="381" y1="73" y2="73"/><polygon fill="none" points="33,81.6484,37,85.6484,33,89.6484,29,85.6484" style="stroke:#B38D22;stroke-width:1.0;"/><text fill="#000000" font-family="sans-serif" font-size="14" lengthAdjust="spacing" textLength="107" x="42" y="89.9951">contentV: VBox</text><polygon fill="none" points="33,97.9453,37,101.9453,33,105.9453,29,101.9453" style="stroke:#B38D22;stroke-width:1.0;"/><text fill="#000000" font-family="sans-serif" font-size="14" lengthAdjust="spacing" textLength="110" x="42" y="106.292">maze: GridPane</text><polygon fill="none" points="33,114.2422,37,118.2422,33,122.2422,29,118.2422" style="stroke:#B38D22;stroke-width:1.0;"/><text fill="#000000" font-family="sans-serif" font-size="14" lengthAdjust="spacing" textLength="150" x="42" y="122.5889">characterName: Label</text><polygon fill="none" points="33,130.5391,37,134.5391,33,138.5391,29,134.5391" style="stroke:#B38D22;stroke-width:1.0;"/><text fill="#000000" font-family="sans-serif" font-size="14" lengthAdjust="spacing" textLength="125" x="42" y="138.8857">alertHeader: Label</text><polygon fill="none" points="33,146.8359,37,150.8359,33,154.8359,29,150.8359" style="stroke:#B38D22;stroke-width:1.0;"/><text fill="#000000" font-family="sans-serif" font-size="14" lengthAdjust="spacing" textLength="110" x="42" y="155.1826">alertBody: Label</text><polygon fill="none" points="33,163.1328,37,167.1328,33,171.1328,29,167.1328" style="stroke:#B38D22;stroke-width:1.0;"/><text fill="#000000" font-family="sans-serif" font-size="14" lengthAdjust="spacing" textLength="116" x="42" y="171.4795">skipTurn: Button</text><polygon fill="none" points="33,179.4297,37,183.4297,33,187.4297,29,183.4297" style="stroke:#B38D22;stroke-width:1.0;"/><text fill="#000000" font-family="sans-serif" font-size="14" lengthAdjust="spacing" textLength="158" x="42" y="187.7764">alertHistory: ScrollPane</text><polygon fill="none" points="33,195.7266,37,199.7266,33,203.7266,29,199.7266" style="stroke:#B38D22;stroke-width:1.0;"/><text fill="#000000" font-family="sans-serif" font-size="14" lengthAdjust="spacing" textLength="137" x="42" y="204.0732">contentAlerts: VBox</text><polygon fill="none" points="33,212.0234,37,216.0234,33,220.0234,29,216.0234" style="stroke:#B38D22;stroke-width:1.0;"/><text fill="#000000" font-family="sans-serif" font-size="14" lengthAdjust="spacing" textLength="88" x="42" y="220.3701">stage: Stage</text><polygon fill="none" points="33,228.3203,37,232.3203,33,236.3203,29,232.3203" style="stroke:#B38D22;stroke-width:1.0;"/><text fill="#000000" font-family="sans-serif" font-size="14" lengthAdjust="spacing" textLength="198" x="42" y="236.667">model: MonsterHunterModel</text><polygon fill="none" points="33,244.6172,37,248.6172,33,252.6172,29,248.6172" style="stroke:#B38D22;stroke-width:1.0;"/><text fill="#000000" font-family="sans-serif" font-size="14" lengthAdjust="spacing" textLength="94" x="42" y="252.9639">winAlert: Alert</text><polygon fill="none" points="33,260.9141,37,264.9141,33,268.9141,29,264.9141" style="stroke:#B38D22;stroke-width:1.0;"/><text fill="#000000" font-family="sans-serif" font-size="14" lengthAdjust="spacing" textLength="130" x="42" y="269.2607">alerts: List&lt;Label&gt;</text><polygon fill="none" points="33,277.2109,37,281.2109,33,285.2109,29,281.2109" style="stroke:#B38D22;stroke-width:1.0;"/><text fill="#000000" font-family="sans-serif" font-size="14" lengthAdjust="spacing" textLength="210" x="42" y="285.5576">monsterView: MHMonsterView</text><polygon fill="none" points="33,293.5078,37,297.5078,33,301.5078,29,297.5078" style="stroke:#B38D22;stroke-width:1.0;"/><text fill="#000000" font-family="sans-serif" font-size="14" lengthAdjust="spacing" textLength="188" x="42" y="301.8545">hunterView: MHHunterView</text><line style="stroke:#181818;stroke-width:0.5;" x1="23" x2="381" y1="309.1563" y2="309.1563"/><ellipse cx="33" cy="322.8047" fill="#84BE84" rx="3" ry="3" style="stroke:#038048;stroke-width:1.0;"/><text fill="#000000" font-family="sans-serif" font-size="14" lengthAdjust="spacing" textLength="334" x="42" y="326.1514">MHPlayerController(Stage, MonsterHunterModel)</text><rect fill="#F24D5C" height="6" style="stroke:#C82930;stroke-width:1.0;" width="6" x="30" y="336.1016"/><text fill="#000000" font-family="sans-serif" font-size="14" lengthAdjust="spacing" textLength="225" x="42" y="342.4482">attachControllersToModel(): void</text><ellipse cx="33" cy="355.3984" fill="#84BE84" rx="3" ry="3" style="stroke:#038048;stroke-width:1.0;"/><text fill="#000000" font-family="sans-serif" font-size="14" font-style="italic" lengthAdjust="spacing" textLength="101" x="42" y="358.7451">initialize(): void</text><ellipse cx="33" cy="371.6953" fill="#84BE84" rx="3" ry="3" style="stroke:#038048;stroke-width:1.0;"/><text fill="#000000" font-family="sans-serif" font-size="14" lengthAdjust="spacing" textLength="230" x="42" y="375.042">getModel(): MonsterHunterModel</text><ellipse cx="33" cy="387.9922" fill="#84BE84" rx="3" ry="3" style="stroke:#038048;stroke-width:1.0;"/><text fill="#000000" font-family="sans-serif" font-size="14" lengthAdjust="spacing" textLength="142" x="42" y="391.3389">getContentV(): VBox</text><polygon fill="#FFFF44" points="33,399.2891,37,403.2891,33,407.2891,29,403.2891" style="stroke:#B38D22;stroke-width:1.0;"/><text fill="#000000" font-family="sans-serif" font-size="14" lengthAdjust="spacing" textLength="143" x="42" y="407.6357">updateHistory(): void</text><ellipse cx="33" cy="420.5859" fill="#84BE84" rx="3" ry="3" style="stroke:#038048;stroke-width:1.0;"/><text fill="#000000" font-family="sans-serif" font-size="14" lengthAdjust="spacing" textLength="269" x="42" y="423.9326">setMonsterView(MHMonsterView): void</text><ellipse cx="33" cy="436.8828" fill="#84BE84" rx="3" ry="3" style="stroke:#038048;stroke-width:1.0;"/><text fill="#000000" font-family="sans-serif" font-size="14" lengthAdjust="spacing" textLength="249" x="42" y="440.2295">setHunterView(MHHunterView): void</text><ellipse cx="33" cy="453.1797" fill="#84BE84" rx="3" ry="3" style="stroke:#038048;stroke-width:1.0;"/><text fill="#000000" font-family="sans-serif" font-size="14" lengthAdjust="spacing" textLength="131" x="42" y="456.5264">showHistory(): void</text><ellipse cx="33" cy="469.4766" fill="#84BE84" rx="3" ry="3" style="stroke:#038048;stroke-width:1.0;"/><text fill="#000000" font-family="sans-serif" font-size="14" font-style="italic" lengthAdjust="spacing" textLength="127" x="42" y="472.8232">onSkipTurn(): void</text><polygon fill="#FFFF44" points="33,480.7734,37,484.7734,33,488.7734,29,484.7734" style="stroke:#B38D22;stroke-width:1.0;"/><text fill="#000000" font-family="sans-serif" font-size="14" font-style="italic" lengthAdjust="spacing" textLength="153" x="42" y="489.1201">pathAlert(int, int): void</text><polygon fill="#FFFF44" points="33,497.0703,37,501.0703,33,505.0703,29,501.0703" style="stroke:#B38D22;stroke-width:1.0;"/><text fill="#000000" font-family="sans-serif" font-size="14" font-style="italic" lengthAdjust="spacing" textLength="147" x="42" y="505.417">wallAlert(int, int): void</text><polygon fill="#FFFF44" points="33,513.3672,37,517.3672,33,521.3672,29,517.3672" style="stroke:#B38D22;stroke-width:1.0;"/><text fill="#000000" font-family="sans-serif" font-size="14" font-style="italic" lengthAdjust="spacing" textLength="103" x="42" y="521.7139">winAlert(): void</text><polygon fill="#FFFF44" points="33,529.6641,37,533.6641,33,537.6641,29,533.6641" style="stroke:#B38D22;stroke-width:1.0;"/><text fill="#000000" font-family="sans-serif" font-size="14" font-style="italic" lengthAdjust="spacing" textLength="136" x="42" y="538.0107">alertOnClose(): void</text></g></a><!--reverse link chasseaumonstre.controller.MHPlayerController to chasseaumonstre.controller.MHMonsterController--><g id="link_chasseaumonstre.controller.MHPlayerController_chasseaumonstre.controller.MHMonsterController"><path codeLine="107" d="M206.44,565.45 C206.66,578.68 206.87,591.81 207.08,604.67 " fill="none" id="chasseaumonstre.controller.MHPlayerController-backto-chasseaumonstre.controller.MHMonsterController" style="stroke:#181818;stroke-width:1.0;"/><polygon fill="none" points="199.44,565.42,206.11,545.3,213.44,565.19,199.44,565.42" style="stroke:#181818;stroke-width:1.0;"/></g><!--reverse link chasseaumonstre.controller.MHPlayerController to chasseaumonstre.controller.MHHunterController--><g id="link_chasseaumonstre.controller.MHPlayerController_chasseaumonstre.controller.MHHunterController"><path codeLine="108" d="M394.99,539.07 C396.67,541.06 398.34,543.03 400,545 C425.78,575.45 454,607.46 481.3,637.78 " fill="none" id="chasseaumonstre.controller.MHPlayerController-backto-chasseaumonstre.controller.MHHunterController" style="stroke:#181818;stroke-width:1.0;"/><polygon fill="none" points="389.56,543.49,382.1,523.65,400.3,534.5,389.56,543.49" style="stroke:#181818;stroke-width:1.0;"/></g><text fill="#888888" font-family="sans-serif" font-size="10" lengthAdjust="spacing" textLength="186" x="472.5" y="994.2822">UMLDoclet 2.1.0, PlantUML 1.2022.14</text><!--SRC=[pLVXJ-8m5F_kNz64N3A3aDEFYxa4q1CLX8Xm7umnPNkwQcd9ratHyt-_TWpOIZTgBcTk7pRMzslVw_lzzlf02266Pn3DiGV82t0K0Ovdd4KYXAR7cGWvfH2Yzxqzb5qUbIXqCRdeRCotjuNtPY1czEvEpaAvgn4978epwQuT2y6PYvRF8kZfq4Kty2f-4g2-PZegDScb7y558_KeMcRS1-gYljeJXDsOoNjVZHLXGMgO47YHs6vt_QOlbgwoWlKthmLSlP0D9utgm132Vab-d7qN9PpubUdR0N8kON6Q01CcM9qm8WYcv6tRruTEjTmdiBZ0jZva9lnT1YE8zu4QxLRdyknwCBuwkHzVznHF8M6FnSZ9J6PfcTdprK-D_-IfBKfauoMar3Qhi94Asz-AggwdoLO9zKSGwR0YPvToEHjEXcOnS9O9kKNA02i9boDQfCpuMHKjNUb2qaTtQMaow8txfoxoUJobK0Bg3NxTLm0bWGduBffoJW6pBTRqcAo9gyZ8PubLM1M1_8Gd2ZvfyzSY808nYS4fr26ZLyv6psH-4uSbHGFx2MOUE8I90qJIac7CJ82PJw4lSvU7Te3IS_R0TMoaWBvJibXjZaNGahaL-RMsOgkzO4ftmne9YOW0tmBvW4CRjuGjKKOhLgO1wr0UbH3z38jX2F8uzGTiv0439xrRV2PBFMXVYJvOSi9MIJuAk2XLlBx-VoluFfQUpaBY3_5sDct4debu9BDX9U8K-3KQphgBVwlEdEBmLBPvs1DhwGqfNcn9JnyqIw_cPSmPUAlD96akMh6cpGkmYW72AzcqkAY7fveibjlf0lOXBBUtkRymMgDC3COZFbkRH8A7Slh8KriqnBZSMvhooBJ1qawXPjSfh0brKVem12dzzcISn-aMV-XEhDhIcbMJMz-ctBg3nK9WBzXCZ6xu-klVqkdxIdyVNrj6Ql7Snm8orit-LANPPD7YY9KJDlbqyiarmmF-KXL0FZSx2beEQbcFyZFiIbDXHbNjoGDjov2XxXp_RZHC7QF57FqasyjvaoUmjA47pjLZtE-TS8-2G4VDm-Rt0oINP4AEec-9b2vHVx7-0000]--></g></svg>