<?xml version="1.0" encoding="UTF-8" standalone="no"?><svg xmlns="http://www.w3.org/2000/svg" xmlns:xlink="http://www.w3.org/1999/xlink" contentStyleType="text/css" height="446px" preserveAspectRatio="none" style="width:303px;height:446px;background:#FFFFFF;" version="1.1" viewBox="0 0 303 446" width="303px" zoomAndPan="magnify"><defs/><g><!--class fr.univlille.info.J3.chasseaumonstre.model.MazeGenerator--><a href="MazeGenerator.html" target="_top" title="MazeGenerator.html" xlink:actuate="onRequest" xlink:href="MazeGenerator.html" xlink:show="new" xlink:title="MazeGenerator.html" xlink:type="simple"><g id="elem_fr.univlille.info.J3.chasseaumonstre.model.MazeGenerator"><rect codeLine="5" fill="#F1F1F1" height="412.4688" id="fr.univlille.info.J3.chasseaumonstre.model.MazeGenerator" rx="2.5" ry="2.5" style="stroke:#181818;stroke-width:0.5;" width="282" x="7" y="7"/><ellipse cx="44.5" cy="25.9688" fill="#ADD1B2" rx="11" ry="11" style="stroke:#181818;stroke-width:1.0;"/><path d="M43.9688,32.8906 Q42.2188,32.8906 41.0781,32.1563 Q39.9531,31.4063 39.3906,30.0625 Q38.8438,28.7031 38.8438,26.9063 Q38.8438,24.875 39.5,23.4219 Q40.1563,21.9688 41.4375,21.1875 Q42.7188,20.4063 44.5938,20.4063 Q45.4844,20.4063 46.1563,20.5938 Q46.8281,20.7656 47.5156,21.1094 L46.7031,23.125 Q46.0781,22.8125 45.5313,22.6875 Q45,22.5625 44.5156,22.5625 Q43.3438,22.5625 42.6406,23.0938 Q41.9375,23.625 41.6406,24.5781 Q41.3438,25.5313 41.3438,26.7969 Q41.3438,28.8125 42.0625,29.7813 Q42.7813,30.7344 44.375,30.7344 Q44.9688,30.7344 45.5938,30.5781 Q46.2188,30.4219 47.0469,30.0469 L47.0469,32.2656 Q46.3125,32.5781 45.5156,32.7344 Q44.7344,32.8906 43.9688,32.8906 Z " fill="#000000"/><text fill="#000000" font-family="sans-serif" font-size="14" lengthAdjust="spacing" textLength="107" x="110" y="24.9951">MazeGenerator</text><text fill="#000000" font-family="sans-serif" font-size="10" lengthAdjust="spacing" textLength="200" x="63.5" y="37.5791">fr.univlille.info.J3.chasseaumonstre.model</text><line style="stroke:#181818;stroke-width:0.5;" x1="8" x2="288" y1="44.9375" y2="44.9375"/><rect fill="none" height="6" style="stroke:#C82930;stroke-width:1.0;" width="6" x="15" y="55.5859"/><text fill="#000000" font-family="sans-serif" font-size="14" lengthAdjust="spacing" textLength="63" x="27" y="61.9326">width: int</text><rect fill="none" height="6" style="stroke:#C82930;stroke-width:1.0;" width="6" x="15" y="71.8828"/><text fill="#000000" font-family="sans-serif" font-size="14" lengthAdjust="spacing" textLength="70" x="27" y="78.2295">height: int</text><rect fill="none" height="6" style="stroke:#C82930;stroke-width:1.0;" width="6" x="15" y="88.1797"/><text fill="#000000" font-family="sans-serif" font-size="14" lengthAdjust="spacing" textLength="74" x="27" y="94.5264">maze: int[]</text><rect fill="none" height="6" style="stroke:#C82930;stroke-width:1.0;" width="6" x="15" y="104.4766"/><text fill="#000000" font-family="sans-serif" font-size="14" lengthAdjust="spacing" textLength="120" x="27" y="110.8232">random: Random</text><rect fill="none" height="6" style="stroke:#C82930;stroke-width:1.0;" width="6" x="15" y="120.7734"/><text fill="#000000" font-family="sans-serif" font-size="14" lengthAdjust="spacing" textLength="223" x="27" y="127.1201">entranceCoordinate: Coordinate</text><rect fill="none" height="6" style="stroke:#C82930;stroke-width:1.0;" width="6" x="15" y="137.0703"/><text fill="#000000" font-family="sans-serif" font-size="14" lengthAdjust="spacing" textLength="185" x="27" y="143.417">exitCoordinate: Coordinate</text><line style="stroke:#181818;stroke-width:0.5;" x1="8" x2="288" y1="150.7188" y2="150.7188"/><ellipse cx="18" cy="164.3672" fill="#84BE84" rx="3" ry="3" style="stroke:#038048;stroke-width:1.0;"/><text fill="#000000" font-family="sans-serif" font-size="14" lengthAdjust="spacing" textLength="159" x="27" y="167.7139">MazeGenerator(int, int)</text><ellipse cx="18" cy="180.6641" fill="#84BE84" rx="3" ry="3" style="stroke:#038048;stroke-width:1.0;"/><text fill="#000000" font-family="sans-serif" font-size="14" lengthAdjust="spacing" textLength="98" x="27" y="184.0107">getWidth(): int</text><ellipse cx="18" cy="196.9609" fill="#84BE84" rx="3" ry="3" style="stroke:#038048;stroke-width:1.0;"/><text fill="#000000" font-family="sans-serif" font-size="14" lengthAdjust="spacing" textLength="104" x="27" y="200.3076">getHeight(): int</text><ellipse cx="18" cy="213.2578" fill="#84BE84" rx="3" ry="3" style="stroke:#038048;stroke-width:1.0;"/><text fill="#000000" font-family="sans-serif" font-size="14" lengthAdjust="spacing" textLength="106" x="27" y="216.6045">getMaze(): int[]</text><ellipse cx="18" cy="229.5547" fill="#84BE84" rx="3" ry="3" style="stroke:#038048;stroke-width:1.0;"/><text fill="#000000" font-family="sans-serif" font-size="14" lengthAdjust="spacing" textLength="178" x="27" y="232.9014">generatePlateau(int): void</text><rect fill="#F24D5C" height="6" style="stroke:#C82930;stroke-width:1.0;" width="6" x="15" y="242.8516"/><text fill="#000000" font-family="sans-serif" font-size="14" lengthAdjust="spacing" textLength="218" x="27" y="249.1982">generateEntanceAndExit(): void</text><ellipse cx="18" cy="262.1484" fill="#84BE84" rx="3" ry="3" style="stroke:#038048;stroke-width:1.0;"/><text fill="#000000" font-family="sans-serif" font-size="14" lengthAdjust="spacing" textLength="68" x="27" y="265.4951">dfs(): void</text><ellipse cx="18" cy="278.4453" fill="#84BE84" rx="3" ry="3" style="stroke:#038048;stroke-width:1.0;"/><text fill="#000000" font-family="sans-serif" font-size="14" lengthAdjust="spacing" textLength="256" x="27" y="281.792">getEntranceCoordinate(): Coordinate</text><ellipse cx="18" cy="294.7422" fill="#84BE84" rx="3" ry="3" style="stroke:#038048;stroke-width:1.0;"/><text fill="#000000" font-family="sans-serif" font-size="14" lengthAdjust="spacing" textLength="218" x="27" y="298.0889">getExitCoordinate(): Coordinate</text><ellipse cx="18" cy="311.0391" fill="#84BE84" rx="3" ry="3" style="stroke:#038048;stroke-width:1.0;"/><text fill="#000000" font-family="sans-serif" font-size="14" lengthAdjust="spacing" textLength="151" x="27" y="314.3857">getEntranceRow(): int</text><ellipse cx="18" cy="327.3359" fill="#84BE84" rx="3" ry="3" style="stroke:#038048;stroke-width:1.0;"/><text fill="#000000" font-family="sans-serif" font-size="14" lengthAdjust="spacing" textLength="143" x="27" y="330.6826">getEntranceCol(): int</text><ellipse cx="18" cy="343.6328" fill="#84BE84" rx="3" ry="3" style="stroke:#038048;stroke-width:1.0;"/><text fill="#000000" font-family="sans-serif" font-size="14" lengthAdjust="spacing" textLength="113" x="27" y="346.9795">getExitRow(): int</text><ellipse cx="18" cy="359.9297" fill="#84BE84" rx="3" ry="3" style="stroke:#038048;stroke-width:1.0;"/><text fill="#000000" font-family="sans-serif" font-size="14" lengthAdjust="spacing" textLength="105" x="27" y="363.2764">getExitCol(): int</text><ellipse cx="18" cy="376.2266" fill="#84BE84" rx="3" ry="3" style="stroke:#038048;stroke-width:1.0;"/><text fill="#000000" font-family="sans-serif" font-size="14" lengthAdjust="spacing" text-decoration="underline" textLength="163" x="27" y="379.5732">toBoolean(int): boolean</text><ellipse cx="18" cy="392.5234" fill="#84BE84" rx="3" ry="3" style="stroke:#038048;stroke-width:1.0;"/><text fill="#000000" font-family="sans-serif" font-size="14" lengthAdjust="spacing" textLength="156" x="27" y="395.8701">toBoolean(): boolean[]</text><ellipse cx="18" cy="408.8203" fill="#84BE84" rx="3" ry="3" style="stroke:#038048;stroke-width:1.0;"/><text fill="#000000" font-family="sans-serif" font-size="14" lengthAdjust="spacing" text-decoration="underline" textLength="183" x="27" y="412.167">toBoolean(int[]): boolean[]</text></g></a><text fill="#888888" font-family="sans-serif" font-size="10" lengthAdjust="spacing" textLength="186" x="54.5" y="435.751">UMLDoclet 2.1.0, PlantUML 1.2022.14</text><!--SRC=[ZLFRIWCn47ttAmP1gBI6Udag8dWfYYY88ZxKFiJDR3UGpPJDjDxmtvsiA-cszR8FcysPCtFcp2O0004Pl2unJ7M6TpZLbMQgm9F73Gb3OGq2bbD-XToYCs4PBP4B4hZ6CwT3WCt3ODzmi7jmTAtVy1mzraKVVOFtZ_9ApRoTE-iSAkjpKfVxAYia6VMi91-uGbMIGRS9Ei3_wQgb2ADHQwyABjru3Ezri_7PURQ6Ym5Opmahq4uANW9BALH3et42A-qDbGEuhTU4esS9PNXAL1dhDKjg-bxWlLZ-WzDjEUX80xtOnNOYJ90VeelEThlb6BYehQoBnB8Dlk188hKItZXvwLdK4zASh4bTVtE6dgF9Os-6ugEppEkQFAo28ZrScKwahVCUoQqH_KPigjxIypg_ITIj3OlCJvbr1ojPxu4rs-m3kamdH0wrRwRrzBLBHH8XHHU6_aEbqNY5_T5SCpbVM45E59VxwwipofnSv3srg_eza7_dML3OccCLB8di9m00]--></g></svg>