<?xml version="1.0" encoding="UTF-8" standalone="no"?><svg xmlns="http://www.w3.org/2000/svg" xmlns:xlink="http://www.w3.org/1999/xlink" contentStyleType="text/css" height="339px" preserveAspectRatio="none" style="width:389px;height:339px;background:#FFFFFF;" version="1.1" viewBox="0 0 389 339" width="389px" zoomAndPan="magnify"><defs/><g><!--class chasseaumonstre.model.Coordinate--><a href="Coordinate.html" target="_top" title="Coordinate.html" xlink:actuate="onRequest" xlink:href="Coordinate.html" xlink:show="new" xlink:title="Coordinate.html" xlink:type="simple"><g id="elem_chasseaumonstre.model.Coordinate"><rect codeLine="5" fill="#F1F1F1" height="168.0156" id="chasseaumonstre.model.Coordinate" rx="2.5" ry="2.5" style="stroke:#181818;stroke-width:0.5;" width="293" x="78.5" y="146"/><ellipse cx="161.25" cy="164.9688" fill="#ADD1B2" rx="11" ry="11" style="stroke:#181818;stroke-width:1.0;"/><path d="M164.2188,170.6094 Q163.6406,170.9063 163,171.0469 Q162.3594,171.2031 161.6563,171.2031 Q159.1563,171.2031 157.8281,169.5625 Q156.5156,167.9063 156.5156,164.7813 Q156.5156,161.6563 157.8281,160 Q159.1563,158.3438 161.6563,158.3438 Q162.3594,158.3438 163,158.5 Q163.6563,158.6563 164.2188,158.9531 L164.2188,161.6719 Q163.5938,161.0938 163,160.8281 Q162.4063,160.5469 161.7813,160.5469 Q160.4375,160.5469 159.75,161.625 Q159.0625,162.6875 159.0625,164.7813 Q159.0625,166.875 159.75,167.9531 Q160.4375,169.0156 161.7813,169.0156 Q162.4063,169.0156 163,168.75 Q163.5938,168.4688 164.2188,167.8906 L164.2188,170.6094 Z " fill="#000000"/><text fill="#000000" font-family="sans-serif" font-size="14" lengthAdjust="spacing" textLength="76" x="203.25" y="163.9951">Coordinate</text><text fill="#000000" font-family="sans-serif" font-size="10" lengthAdjust="spacing" textLength="119" x="181.75" y="176.5791">chasseaumonstre.model</text><line style="stroke:#181818;stroke-width:0.5;" x1="79.5" x2="370.5" y1="183.9375" y2="183.9375"/><rect fill="none" height="6" style="stroke:#C82930;stroke-width:1.0;" width="6" x="86.5" y="194.5859"/><text fill="#000000" font-family="sans-serif" font-size="14" lengthAdjust="spacing" textLength="83" x="98.5" y="200.9326">row: Integer</text><rect fill="none" height="6" style="stroke:#C82930;stroke-width:1.0;" width="6" x="86.5" y="210.8828"/><text fill="#000000" font-family="sans-serif" font-size="14" lengthAdjust="spacing" textLength="78" x="98.5" y="217.2295">col: Integer</text><line style="stroke:#181818;stroke-width:0.5;" x1="79.5" x2="370.5" y1="224.5313" y2="224.5313"/><ellipse cx="89.5" cy="238.1797" fill="#84BE84" rx="3" ry="3" style="stroke:#038048;stroke-width:1.0;"/><text fill="#000000" font-family="sans-serif" font-size="14" lengthAdjust="spacing" textLength="192" x="98.5" y="241.5264">Coordinate(Integer, Integer)</text><ellipse cx="89.5" cy="254.4766" fill="#84BE84" rx="3" ry="3" style="stroke:#038048;stroke-width:1.0;"/><text fill="#000000" font-family="sans-serif" font-size="14" lengthAdjust="spacing" textLength="89" x="98.5" y="257.8232">getRow(): int</text><ellipse cx="89.5" cy="270.7734" fill="#84BE84" rx="3" ry="3" style="stroke:#038048;stroke-width:1.0;"/><text fill="#000000" font-family="sans-serif" font-size="14" lengthAdjust="spacing" textLength="81" x="98.5" y="274.1201">getCol(): int</text><rect fill="#F24D5C" height="6" style="stroke:#C82930;stroke-width:1.0;" width="6" x="86.5" y="284.0703"/><text fill="#000000" font-family="sans-serif" font-size="14" lengthAdjust="spacing" textLength="267" x="98.5" y="290.417">writeObject(ObjectOutputStream): void</text><rect fill="#F24D5C" height="6" style="stroke:#C82930;stroke-width:1.0;" width="6" x="86.5" y="300.3672"/><text fill="#000000" font-family="sans-serif" font-size="14" lengthAdjust="spacing" textLength="252" x="98.5" y="306.7139">readObject(ObjectInputStream): void</text></g></a><!--class fr.univlille.iutinfo.cam.player.perception.ICoordinate--><g id="elem_fr.univlille.iutinfo.cam.player.perception.ICoordinate"><rect codeLine="15" fill="#F1F1F1" height="78.5313" id="fr.univlille.iutinfo.cam.player.perception.ICoordinate" rx="2.5" ry="2.5" style="stroke:#181818;stroke-width:0.5;" width="232" x="7" y="7"/><ellipse cx="22" cy="25.9688" fill="#B4A7E5" rx="11" ry="11" style="stroke:#181818;stroke-width:1.0;"/><path d="M17.9219,21.7344 L17.9219,19.5781 L25.3125,19.5781 L25.3125,21.7344 L22.8438,21.7344 L22.8438,29.8125 L25.3125,29.8125 L25.3125,31.9688 L17.9219,31.9688 L17.9219,29.8125 L20.3906,29.8125 L20.3906,21.7344 L17.9219,21.7344 Z " fill="#000000"/><text fill="#000000" font-family="sans-serif" font-size="14" font-style="italic" lengthAdjust="spacing" textLength="80" x="96" y="24.9951">ICoordinate</text><text fill="#000000" font-family="sans-serif" font-size="10" font-style="italic" lengthAdjust="spacing" textLength="200" x="36" y="37.5791">fr.univlille.iutinfo.cam.player.perception</text><line style="stroke:#181818;stroke-width:0.5;" x1="8" x2="238" y1="44.9375" y2="44.9375"/><ellipse cx="18" cy="58.5859" fill="#84BE84" rx="3" ry="3" style="stroke:#038048;stroke-width:1.0;"/><text fill="#000000" font-family="sans-serif" font-size="14" font-style="italic" lengthAdjust="spacing" textLength="89" x="27" y="61.9326">getRow(): int</text><ellipse cx="18" cy="74.8828" fill="#84BE84" rx="3" ry="3" style="stroke:#038048;stroke-width:1.0;"/><text fill="#000000" font-family="sans-serif" font-size="14" font-style="italic" lengthAdjust="spacing" textLength="81" x="27" y="78.2295">getCol(): int</text></g><!--class java.io.Serializable--><g id="elem_java.io.Serializable"><rect codeLine="19" fill="#F1F1F1" height="37.9375" id="java.io.Serializable" rx="2.5" ry="2.5" style="stroke:#181818;stroke-width:0.5;" width="108" x="274" y="27.5"/><ellipse cx="289" cy="46.4688" fill="#B4A7E5" rx="11" ry="11" style="stroke:#181818;stroke-width:1.0;"/><path d="M284.9219,42.2344 L284.9219,40.0781 L292.3125,40.0781 L292.3125,42.2344 L289.8438,42.2344 L289.8438,50.3125 L292.3125,50.3125 L292.3125,52.4688 L284.9219,52.4688 L284.9219,50.3125 L287.3906,50.3125 L287.3906,42.2344 L284.9219,42.2344 Z " fill="#000000"/><text fill="#000000" font-family="sans-serif" font-size="14" font-style="italic" lengthAdjust="spacing" textLength="76" x="303" y="45.4951">Serializable</text><text fill="#000000" font-family="sans-serif" font-size="10" font-style="italic" lengthAdjust="spacing" textLength="33" x="324.5" y="58.0791">java.io</text></g><!--reverse link fr.univlille.iutinfo.cam.player.perception.ICoordinate to chasseaumonstre.model.Coordinate--><g id="link_fr.univlille.iutinfo.cam.player.perception.ICoordinate_chasseaumonstre.model.Coordinate"><path codeLine="21" d="M154.86,104.18 C162.26,117.37 170.3,131.67 178.21,145.74 " fill="none" id="fr.univlille.iutinfo.cam.player.perception.ICoordinate-backto-chasseaumonstre.model.Coordinate" style="stroke:#181818;stroke-width:1.0;stroke-dasharray:7.0,7.0;"/><polygon fill="none" points="148.58,107.3,144.88,86.44,160.78,100.44,148.58,107.3" style="stroke:#181818;stroke-width:1.0;"/></g><!--reverse link java.io.Serializable to chasseaumonstre.model.Coordinate--><g id="link_java.io.Serializable_chasseaumonstre.model.Coordinate"><path codeLine="22" d="M307.87,82.97 C297.68,100.92 284.85,123.54 272.34,145.58 " fill="none" id="java.io.Serializable-backto-chasseaumonstre.model.Coordinate" style="stroke:#181818;stroke-width:1.0;stroke-dasharray:7.0,7.0;"/><polygon fill="none" points="301.79,79.51,317.75,65.57,313.96,86.42,301.79,79.51" style="stroke:#181818;stroke-width:1.0;"/></g><text fill="#888888" font-family="sans-serif" font-size="10" lengthAdjust="spacing" textLength="186" x="94.5" y="329.2979">UMLDoclet 2.1.0, PlantUML 1.2022.14</text><!--SRC=[dLF1JW8n4Btx5HCJ4uZIYF5431Uya6Wm4a_gOUZEiZNTpgQTXG3oxvO5imj2DEwbspUlVVDUMm20G08ESme5QXfJWHw5FJXsT1RBa9c4WF925f0QiaauH7EIZ2DSuTfY271-5yoIUjtR_e3P9yQXq9lRWTTzdKKIOPcp2-99vPoGFGSCSBIYwatWzRMUg4no-_uEgqfvytKyptimT49JyZMgsVv4B-kDMhlQrJUfNREc9CyyRxLxO9pimGEsXt1dxetGQF91MbhROLHAKSeuci4yicTiaaQxXCaUU-YEajVRSACK-JGUKoFWuT64KwzAPsRMM4lAb69SoafZhWgB2_Ag8A-f4CEkYltlTDNGQmI_maayBzIoFfNO0UCWlFL9VsFo1grPuiGs3NxW39NXgllTlsfIju7zqzVTfrA_NiLAu9Zq7vTldmjjB4FAl1bU7X_kMTlu86zKLrrVmPD59n65Yndv4DjijRy0]--></g></svg>