<?xml version="1.0" encoding="UTF-8" standalone="no"?><svg xmlns="http://www.w3.org/2000/svg" xmlns:xlink="http://www.w3.org/1999/xlink" contentStyleType="text/css" height="624px" preserveAspectRatio="none" style="width:307px;height:624px;background:#FFFFFF;" version="1.1" viewBox="0 0 307 624" width="307px" zoomAndPan="magnify"><defs/><g><!--class chasseaumonstre.model.MonsterHunterModel--><a href="MonsterHunterModel.html" target="_top" title="MonsterHunterModel.html" xlink:actuate="onRequest" xlink:href="MonsterHunterModel.html" xlink:show="new" xlink:title="MonsterHunterModel.html" xlink:type="simple"><g id="elem_chasseaumonstre.model.MonsterHunterModel"><rect codeLine="5" fill="#F1F1F1" height="493.9531" id="chasseaumonstre.model.MonsterHunterModel" rx="2.5" ry="2.5" style="stroke:#181818;stroke-width:0.5;" width="293" x="7" y="105"/><ellipse cx="76.25" cy="123.9688" fill="#ADD1B2" rx="11" ry="11" style="stroke:#181818;stroke-width:1.0;"/><path d="M79.2188,129.6094 Q78.6406,129.9063 78,130.0469 Q77.3594,130.2031 76.6563,130.2031 Q74.1563,130.2031 72.8281,128.5625 Q71.5156,126.9063 71.5156,123.7813 Q71.5156,120.6563 72.8281,119 Q74.1563,117.3438 76.6563,117.3438 Q77.3594,117.3438 78,117.5 Q78.6563,117.6563 79.2188,117.9531 L79.2188,120.6719 Q78.5938,120.0938 78,119.8281 Q77.4063,119.5469 76.7813,119.5469 Q75.4375,119.5469 74.75,120.625 Q74.0625,121.6875 74.0625,123.7813 Q74.0625,125.875 74.75,126.9531 Q75.4375,128.0156 76.7813,128.0156 Q77.4063,128.0156 78,127.75 Q78.5938,127.4688 79.2188,126.8906 L79.2188,129.6094 Z " fill="#000000"/><text fill="#000000" font-family="sans-serif" font-size="14" lengthAdjust="spacing" textLength="146" x="96.75" y="122.9951">MonsterHunterModel</text><text fill="#000000" font-family="sans-serif" font-size="10" lengthAdjust="spacing" textLength="119" x="110.25" y="135.5791">chasseaumonstre.model</text><line style="stroke:#181818;stroke-width:0.5;" x1="8" x2="299" y1="142.9375" y2="142.9375"/><rect fill="none" height="6" style="stroke:#C82930;stroke-width:1.0;" width="6" x="15" y="153.5859"/><text fill="#000000" font-family="sans-serif" font-size="14" lengthAdjust="spacing" textLength="107" x="27" y="159.9326">maze: CellInfo[]</text><rect fill="none" height="6" style="stroke:#C82930;stroke-width:1.0;" width="6" x="15" y="169.8828"/><text fill="#000000" font-family="sans-serif" font-size="14" lengthAdjust="spacing" textLength="86" x="27" y="176.2295">turn: Integer</text><rect fill="none" height="6" style="stroke:#C82930;stroke-width:1.0;" width="6" x="15" y="186.1797"/><text fill="#000000" font-family="sans-serif" font-size="14" lengthAdjust="spacing" textLength="63" x="27" y="192.5264">width: int</text><rect fill="none" height="6" style="stroke:#C82930;stroke-width:1.0;" width="6" x="15" y="202.4766"/><text fill="#000000" font-family="sans-serif" font-size="14" lengthAdjust="spacing" textLength="70" x="27" y="208.8232">height: int</text><rect fill="none" height="6" style="stroke:#C82930;stroke-width:1.0;" width="6" x="15" y="218.7734"/><text fill="#000000" font-family="sans-serif" font-size="14" lengthAdjust="spacing" textLength="147" x="27" y="225.1201">monsterName: String</text><rect fill="none" height="6" style="stroke:#C82930;stroke-width:1.0;" width="6" x="15" y="235.0703"/><text fill="#000000" font-family="sans-serif" font-size="14" lengthAdjust="spacing" textLength="135" x="27" y="241.417">hunterName: String</text><rect fill="none" height="6" style="stroke:#C82930;stroke-width:1.0;" width="6" x="15" y="251.3672"/><text fill="#000000" font-family="sans-serif" font-size="14" lengthAdjust="spacing" textLength="124" x="27" y="257.7139">monster: Monster</text><rect fill="none" height="6" style="stroke:#C82930;stroke-width:1.0;" width="6" x="15" y="267.6641"/><text fill="#000000" font-family="sans-serif" font-size="14" lengthAdjust="spacing" textLength="102" x="27" y="274.0107">hunter: Hunter</text><rect fill="none" height="6" style="stroke:#C82930;stroke-width:1.0;" width="6" x="15" y="283.9609"/><text fill="#000000" font-family="sans-serif" font-size="14" lengthAdjust="spacing" textLength="147" x="27" y="290.3076">entrance: Coordinate</text><rect fill="none" height="6" style="stroke:#C82930;stroke-width:1.0;" width="6" x="15" y="300.2578"/><text fill="#000000" font-family="sans-serif" font-size="14" lengthAdjust="spacing" textLength="109" x="27" y="306.6045">exit: Coordinate</text><line style="stroke:#181818;stroke-width:0.5;" x1="8" x2="299" y1="313.9063" y2="313.9063"/><ellipse cx="18" cy="327.5547" fill="#84BE84" rx="3" ry="3" style="stroke:#038048;stroke-width:1.0;"/><text fill="#000000" font-family="sans-serif" font-size="14" lengthAdjust="spacing" textLength="198" x="27" y="330.9014">MonsterHunterModel(int, int)</text><ellipse cx="18" cy="343.8516" fill="#84BE84" rx="3" ry="3" style="stroke:#038048;stroke-width:1.0;"/><text fill="#000000" font-family="sans-serif" font-size="14" lengthAdjust="spacing" textLength="179" x="27" y="347.1982">getMonsterName(): String</text><ellipse cx="18" cy="360.1484" fill="#84BE84" rx="3" ry="3" style="stroke:#038048;stroke-width:1.0;"/><text fill="#000000" font-family="sans-serif" font-size="14" lengthAdjust="spacing" textLength="206" x="27" y="363.4951">setMonsterName(String): void</text><ellipse cx="18" cy="376.4453" fill="#84BE84" rx="3" ry="3" style="stroke:#038048;stroke-width:1.0;"/><text fill="#000000" font-family="sans-serif" font-size="14" lengthAdjust="spacing" textLength="169" x="27" y="379.792">getHunterName(): String</text><ellipse cx="18" cy="392.7422" fill="#84BE84" rx="3" ry="3" style="stroke:#038048;stroke-width:1.0;"/><text fill="#000000" font-family="sans-serif" font-size="14" lengthAdjust="spacing" textLength="196" x="27" y="396.0889">setHunterName(String): void</text><ellipse cx="18" cy="409.0391" fill="#84BE84" rx="3" ry="3" style="stroke:#038048;stroke-width:1.0;"/><text fill="#000000" font-family="sans-serif" font-size="14" lengthAdjust="spacing" textLength="98" x="27" y="412.3857">getWidth(): int</text><ellipse cx="18" cy="425.3359" fill="#84BE84" rx="3" ry="3" style="stroke:#038048;stroke-width:1.0;"/><text fill="#000000" font-family="sans-serif" font-size="14" lengthAdjust="spacing" textLength="104" x="27" y="428.6826">getHeight(): int</text><ellipse cx="18" cy="441.6328" fill="#84BE84" rx="3" ry="3" style="stroke:#038048;stroke-width:1.0;"/><text fill="#000000" font-family="sans-serif" font-size="14" lengthAdjust="spacing" textLength="156" x="27" y="444.9795">getMonster(): Monster</text><ellipse cx="18" cy="457.9297" fill="#84BE84" rx="3" ry="3" style="stroke:#038048;stroke-width:1.0;"/><text fill="#000000" font-family="sans-serif" font-size="14" lengthAdjust="spacing" textLength="136" x="27" y="461.2764">getHunter(): Hunter</text><rect fill="#F24D5C" height="6" style="stroke:#C82930;stroke-width:1.0;" width="6" x="15" y="471.2266"/><text fill="#000000" font-family="sans-serif" font-size="14" lengthAdjust="spacing" textLength="180" x="27" y="477.5732">initializeMaze(int, int): void</text><ellipse cx="18" cy="490.5234" fill="#84BE84" rx="3" ry="3" style="stroke:#038048;stroke-width:1.0;"/><text fill="#000000" font-family="sans-serif" font-size="14" lengthAdjust="spacing" textLength="139" x="27" y="493.8701">getMaze(): CellInfo[]</text><ellipse cx="18" cy="506.8203" fill="#84BE84" rx="3" ry="3" style="stroke:#038048;stroke-width:1.0;"/><text fill="#000000" font-family="sans-serif" font-size="14" lengthAdjust="spacing" textLength="123" x="27" y="510.167">getTurn(): Integer</text><ellipse cx="18" cy="523.1172" fill="#84BE84" rx="3" ry="3" style="stroke:#038048;stroke-width:1.0;"/><text fill="#000000" font-family="sans-serif" font-size="14" lengthAdjust="spacing" textLength="180" x="27" y="526.4639">getEntrance(): Coordinate</text><ellipse cx="18" cy="539.4141" fill="#84BE84" rx="3" ry="3" style="stroke:#038048;stroke-width:1.0;"/><text fill="#000000" font-family="sans-serif" font-size="14" lengthAdjust="spacing" textLength="142" x="27" y="542.7607">getExit(): Coordinate</text><ellipse cx="18" cy="555.7109" fill="#84BE84" rx="3" ry="3" style="stroke:#038048;stroke-width:1.0;"/><text fill="#000000" font-family="sans-serif" font-size="14" lengthAdjust="spacing" textLength="109" x="27" y="559.0576">nextTurn(): void</text><rect fill="#F24D5C" height="6" style="stroke:#C82930;stroke-width:1.0;" width="6" x="15" y="569.0078"/><text fill="#000000" font-family="sans-serif" font-size="14" lengthAdjust="spacing" textLength="267" x="27" y="575.3545">writeObject(ObjectOutputStream): void</text><rect fill="#F24D5C" height="6" style="stroke:#C82930;stroke-width:1.0;" width="6" x="15" y="585.3047"/><text fill="#000000" font-family="sans-serif" font-size="14" lengthAdjust="spacing" textLength="252" x="27" y="591.6514">readObject(ObjectInputStream): void</text></g></a><!--class java.io.Serializable--><g id="elem_java.io.Serializable"><rect codeLine="35" fill="#F1F1F1" height="37.9375" id="java.io.Serializable" rx="2.5" ry="2.5" style="stroke:#181818;stroke-width:0.5;" width="108" x="99.5" y="7"/><ellipse cx="114.5" cy="25.9688" fill="#B4A7E5" rx="11" ry="11" style="stroke:#181818;stroke-width:1.0;"/><path d="M110.4219,21.7344 L110.4219,19.5781 L117.8125,19.5781 L117.8125,21.7344 L115.3438,21.7344 L115.3438,29.8125 L117.8125,29.8125 L117.8125,31.9688 L110.4219,31.9688 L110.4219,29.8125 L112.8906,29.8125 L112.8906,21.7344 L110.4219,21.7344 Z " fill="#000000"/><text fill="#000000" font-family="sans-serif" font-size="14" font-style="italic" lengthAdjust="spacing" textLength="76" x="128.5" y="24.9951">Serializable</text><text fill="#000000" font-family="sans-serif" font-size="10" font-style="italic" lengthAdjust="spacing" textLength="33" x="150" y="37.5791">java.io</text></g><!--reverse link java.io.Serializable to chasseaumonstre.model.MonsterHunterModel--><g id="link_java.io.Serializable_chasseaumonstre.model.MonsterHunterModel"><path codeLine="37" d="M153.5,65.64 C153.5,77 153.5,90.34 153.5,104.93 " fill="none" id="java.io.Serializable-backto-chasseaumonstre.model.MonsterHunterModel" style="stroke:#181818;stroke-width:1.0;stroke-dasharray:7.0,7.0;"/><polygon fill="none" points="146.5,65.35,153.5,45.35,160.5,65.35,146.5,65.35" style="stroke:#181818;stroke-width:1.0;"/></g><text fill="#888888" font-family="sans-serif" font-size="10" lengthAdjust="spacing" textLength="186" x="53.5" y="614.2354">UMLDoclet 2.1.0, PlantUML 1.2022.14</text><!--SRC=[ZLHDQ-Cm4BtlhnWA2mbjHRlioPHUkWiDhDj2Tjb3ceDgJs8LMGhIEEr-_VSToQPsR0MQGspUUpEUUJCI08170YDhz3jPu19tqaco3emr-85fg5I9WFMEVi56eIxz6AsHAijmn0ijlOUJAwz-OtRv-JgtnXEwsyRmVsvBr8-c8o-kYuh5A9iwY1oAEl0d83qa6J5D1glL51GLrNgzXZ-nel0xhoL_4MvGwuNPsDMwPwXn9eC51s_HzV2BAgdAG1dgiGhLjg8HMBUVlsC7CrYIKsOxY8X5fRakC8EkWN5K1crBFOw6d3H5QCHQLoeZ2GVigw8aSpfrQCOjd8K-vhrgYvJtlSpcaufF_Q6YfLctjweyo7FxrlQHD0F1yIm_mmX2Wg7VCNsSGuhfoWlKsDM-hi2EhLL6aPAQzpBdJUdjIPGL1VFaCWNwE-zJeCSR5RYltG1ZU69GGS9JF4ORV7rBVr3M-OjJXFTFprZGh7tSDxHhYCr5MK_a39O7weL9Yl-rPre5hpPyEmpEzH9Tz4i-QHoSw6UvbqBPU8QxTp6KjWbJ35pz5UBTvxwxR300iB4sF7xatxxOGlDrzabSYeipUD3I4AFmSO_EAyl6_GS0]--></g></svg>