<?xml version="1.0" encoding="UTF-8" standalone="no"?><svg xmlns="http://www.w3.org/2000/svg" xmlns:xlink="http://www.w3.org/1999/xlink" contentStyleType="text/css" height="875px" preserveAspectRatio="none" style="width:2158px;height:875px;background:#FFFFFF;" version="1.1" viewBox="0 0 2158 875" width="2158px" zoomAndPan="magnify"><defs/><g><!--cluster chasseaumonstre.model--><g id="cluster_chasseaumonstre.model"><path d="M275.5,187 L470.5,187 A3.75,3.75 0 0 1 473,189.5 L480,209.2969 L1409.5,209.2969 A2.5,2.5 0 0 1 1412,211.7969 L1412,847.5 A2.5,2.5 0 0 1 1409.5,850 L275.5,850 A2.5,2.5 0 0 1 273,847.5 L273,189.5 A2.5,2.5 0 0 1 275.5,187 " fill="none" style="stroke:#000000;stroke-width:1.5;"/><line style="stroke:#000000;stroke-width:1.5;" x1="273" x2="480" y1="209.2969" y2="209.2969"/><text fill="#000000" font-family="sans-serif" font-size="14" font-weight="bold" lengthAdjust="spacing" textLength="194" x="277" y="201.9951">chasseaumonstre.model</text></g><!--cluster fr.univlille.iutinfo.cam.player.perception--><g id="cluster_fr.univlille.iutinfo.cam.player.perception"><path d="M8.5,6 L323.5,6 A3.75,3.75 0 0 1 326,8.5 L333,28.2969 L376.5,28.2969 A2.5,2.5 0 0 1 379,30.7969 L379,151.5 A2.5,2.5 0 0 1 376.5,154 L8.5,154 A2.5,2.5 0 0 1 6,151.5 L6,8.5 A2.5,2.5 0 0 1 8.5,6 " fill="none" style="stroke:#000000;stroke-width:1.5;"/><line style="stroke:#000000;stroke-width:1.5;" x1="6" x2="333" y1="28.2969" y2="28.2969"/><text fill="#000000" font-family="sans-serif" font-size="14" font-weight="bold" lengthAdjust="spacing" textLength="314" x="10" y="20.9951">fr.univlille.iutinfo.cam.player.perception</text></g><!--cluster java.io--><g id="cluster_java.io"><path d="M793.5,30.5 L844.5,30.5 A3.75,3.75 0 0 1 847,33 L854,52.7969 L928.5,52.7969 A2.5,2.5 0 0 1 931,55.2969 L931,127 A2.5,2.5 0 0 1 928.5,129.5 L793.5,129.5 A2.5,2.5 0 0 1 791,127 L791,33 A2.5,2.5 0 0 1 793.5,30.5 " fill="none" style="stroke:#000000;stroke-width:1.5;"/><line style="stroke:#000000;stroke-width:1.5;" x1="791" x2="854" y1="52.7969" y2="52.7969"/><text fill="#000000" font-family="sans-serif" font-size="14" font-weight="bold" lengthAdjust="spacing" textLength="50" x="795" y="45.4951">java.io</text></g><!--cluster chasseaumonstre.model.strategy.monster--><g id="cluster_chasseaumonstre.model.strategy.monster"><path d="M1801.5,694 L2138.5,694 A3.75,3.75 0 0 1 2141,696.5 L2148,716.2969 L2148.5,716.2969 A2.5,2.5 0 0 1 2151,718.7969 L2151,790.5 A2.5,2.5 0 0 1 2148.5,793 L1801.5,793 A2.5,2.5 0 0 1 1799,790.5 L1799,696.5 A2.5,2.5 0 0 1 1801.5,694 " fill="none" style="stroke:#000000;stroke-width:1.5;"/><line style="stroke:#000000;stroke-width:1.5;" x1="1799" x2="2148" y1="716.2969" y2="716.2969"/><text fill="#000000" font-family="sans-serif" font-size="14" font-weight="bold" lengthAdjust="spacing" textLength="336" x="1803" y="708.9951">chasseaumonstre.model.strategy.monster</text></g><!--cluster chasseaumonstre.model.strategy.hunter--><g id="cluster_chasseaumonstre.model.strategy.hunter"><path d="M1438.5,694 L1762.5,694 A3.75,3.75 0 0 1 1765,696.5 L1772,716.2969 L1772.5,716.2969 A2.5,2.5 0 0 1 1775,718.7969 L1775,790.5 A2.5,2.5 0 0 1 1772.5,793 L1438.5,793 A2.5,2.5 0 0 1 1436,790.5 L1436,696.5 A2.5,2.5 0 0 1 1438.5,694 " fill="none" style="stroke:#000000;stroke-width:1.5;"/><line style="stroke:#000000;stroke-width:1.5;" x1="1436" x2="1772" y1="716.2969" y2="716.2969"/><text fill="#000000" font-family="sans-serif" font-size="14" font-weight="bold" lengthAdjust="spacing" textLength="323" x="1440" y="708.9951">chasseaumonstre.model.strategy.hunter</text></g><!--class chasseaumonstre.model.Coordinate--><a href="Coordinate.html" target="_top" title="Coordinate.html" xlink:actuate="onRequest" xlink:href="Coordinate.html" xlink:show="new" xlink:title="Coordinate.html" xlink:type="simple"><g id="elem_chasseaumonstre.model.Coordinate"><rect codeLine="3" fill="#F1F1F1" height="162.0781" id="chasseaumonstre.model.Coordinate" rx="2.5" ry="2.5" style="stroke:#181818;stroke-width:0.5;" width="293" x="289.5" y="672"/><ellipse cx="393.75" cy="688" fill="#ADD1B2" rx="11" ry="11" style="stroke:#181818;stroke-width:1.0;"/><path d="M396.7188,693.6406 Q396.1406,693.9375 395.5,694.0781 Q394.8594,694.2344 394.1563,694.2344 Q391.6563,694.2344 390.3281,692.5938 Q389.0156,690.9375 389.0156,687.8125 Q389.0156,684.6875 390.3281,683.0313 Q391.6563,681.375 394.1563,681.375 Q394.8594,681.375 395.5,681.5313 Q396.1563,681.6875 396.7188,681.9844 L396.7188,684.7031 Q396.0938,684.125 395.5,683.8594 Q394.9063,683.5781 394.2813,683.5781 Q392.9375,683.5781 392.25,684.6563 Q391.5625,685.7188 391.5625,687.8125 Q391.5625,689.9063 392.25,690.9844 Q392.9375,692.0469 394.2813,692.0469 Q394.9063,692.0469 395.5,691.7813 Q396.0938,691.5 396.7188,690.9219 L396.7188,693.6406 Z " fill="#000000"/><text fill="#000000" font-family="sans-serif" font-size="14" lengthAdjust="spacing" textLength="76" x="414.25" y="692.8467">Coordinate</text><line style="stroke:#181818;stroke-width:0.5;" x1="290.5" x2="581.5" y1="704" y2="704"/><rect fill="none" height="6" style="stroke:#C82930;stroke-width:1.0;" width="6" x="297.5" y="714.6484"/><text fill="#000000" font-family="sans-serif" font-size="14" lengthAdjust="spacing" textLength="83" x="309.5" y="720.9951">row: Integer</text><rect fill="none" height="6" style="stroke:#C82930;stroke-width:1.0;" width="6" x="297.5" y="730.9453"/><text fill="#000000" font-family="sans-serif" font-size="14" lengthAdjust="spacing" textLength="78" x="309.5" y="737.292">col: Integer</text><line style="stroke:#181818;stroke-width:0.5;" x1="290.5" x2="581.5" y1="744.5938" y2="744.5938"/><ellipse cx="300.5" cy="758.2422" fill="#84BE84" rx="3" ry="3" style="stroke:#038048;stroke-width:1.0;"/><text fill="#000000" font-family="sans-serif" font-size="14" lengthAdjust="spacing" textLength="192" x="309.5" y="761.5889">Coordinate(Integer, Integer)</text><ellipse cx="300.5" cy="774.5391" fill="#84BE84" rx="3" ry="3" style="stroke:#038048;stroke-width:1.0;"/><text fill="#000000" font-family="sans-serif" font-size="14" lengthAdjust="spacing" textLength="89" x="309.5" y="777.8857">getRow(): int</text><ellipse cx="300.5" cy="790.8359" fill="#84BE84" rx="3" ry="3" style="stroke:#038048;stroke-width:1.0;"/><text fill="#000000" font-family="sans-serif" font-size="14" lengthAdjust="spacing" textLength="81" x="309.5" y="794.1826">getCol(): int</text><rect fill="#F24D5C" height="6" style="stroke:#C82930;stroke-width:1.0;" width="6" x="297.5" y="804.1328"/><text fill="#000000" font-family="sans-serif" font-size="14" lengthAdjust="spacing" textLength="267" x="309.5" y="810.4795">writeObject(ObjectOutputStream): void</text><rect fill="#F24D5C" height="6" style="stroke:#C82930;stroke-width:1.0;" width="6" x="297.5" y="820.4297"/><text fill="#000000" font-family="sans-serif" font-size="14" lengthAdjust="spacing" textLength="252" x="309.5" y="826.7764">readObject(ObjectInputStream): void</text></g></a><!--class chasseaumonstre.model.MazeGenerator--><a href="MazeGenerator.html" target="_top" title="MazeGenerator.html" xlink:actuate="onRequest" xlink:href="MazeGenerator.html" xlink:show="new" xlink:title="MazeGenerator.html" xlink:type="simple"><g id="elem_chasseaumonstre.model.MazeGenerator"><rect codeLine="13" fill="#F1F1F1" height="227.2656" id="chasseaumonstre.model.MazeGenerator" rx="2.5" ry="2.5" style="stroke:#181818;stroke-width:0.5;" width="209" x="614.5" y="287.5"/><ellipse cx="661.25" cy="303.5" fill="#ADD1B2" rx="11" ry="11" style="stroke:#181818;stroke-width:1.0;"/><path d="M664.2188,309.1406 Q663.6406,309.4375 663,309.5781 Q662.3594,309.7344 661.6563,309.7344 Q659.1563,309.7344 657.8281,308.0938 Q656.5156,306.4375 656.5156,303.3125 Q656.5156,300.1875 657.8281,298.5313 Q659.1563,296.875 661.6563,296.875 Q662.3594,296.875 663,297.0313 Q663.6563,297.1875 664.2188,297.4844 L664.2188,300.2031 Q663.5938,299.625 663,299.3594 Q662.4063,299.0781 661.7813,299.0781 Q660.4375,299.0781 659.75,300.1563 Q659.0625,301.2188 659.0625,303.3125 Q659.0625,305.4063 659.75,306.4844 Q660.4375,307.5469 661.7813,307.5469 Q662.4063,307.5469 663,307.2813 Q663.5938,307 664.2188,306.4219 L664.2188,309.1406 Z " fill="#000000"/><text fill="#000000" font-family="sans-serif" font-size="14" lengthAdjust="spacing" textLength="107" x="681.75" y="308.3467">MazeGenerator</text><line style="stroke:#181818;stroke-width:0.5;" x1="615.5" x2="822.5" y1="319.5" y2="319.5"/><rect fill="none" height="6" style="stroke:#C82930;stroke-width:1.0;" width="6" x="622.5" y="330.1484"/><text fill="#000000" font-family="sans-serif" font-size="14" lengthAdjust="spacing" textLength="63" x="634.5" y="336.4951">width: int</text><rect fill="none" height="6" style="stroke:#C82930;stroke-width:1.0;" width="6" x="622.5" y="346.4453"/><text fill="#000000" font-family="sans-serif" font-size="14" lengthAdjust="spacing" textLength="70" x="634.5" y="352.792">height: int</text><rect fill="none" height="6" style="stroke:#C82930;stroke-width:1.0;" width="6" x="622.5" y="362.7422"/><text fill="#000000" font-family="sans-serif" font-size="14" lengthAdjust="spacing" textLength="74" x="634.5" y="369.0889">maze: int[]</text><rect fill="none" height="6" style="stroke:#C82930;stroke-width:1.0;" width="6" x="622.5" y="379.0391"/><text fill="#000000" font-family="sans-serif" font-size="14" lengthAdjust="spacing" textLength="120" x="634.5" y="385.3857">random: Random</text><line style="stroke:#181818;stroke-width:0.5;" x1="615.5" x2="822.5" y1="392.6875" y2="392.6875"/><ellipse cx="625.5" cy="406.3359" fill="#84BE84" rx="3" ry="3" style="stroke:#038048;stroke-width:1.0;"/><text fill="#000000" font-family="sans-serif" font-size="14" lengthAdjust="spacing" textLength="159" x="634.5" y="409.6826">MazeGenerator(int, int)</text><ellipse cx="625.5" cy="422.6328" fill="#84BE84" rx="3" ry="3" style="stroke:#038048;stroke-width:1.0;"/><text fill="#000000" font-family="sans-serif" font-size="14" lengthAdjust="spacing" textLength="106" x="634.5" y="425.9795">getMaze(): int[]</text><ellipse cx="625.5" cy="438.9297" fill="#84BE84" rx="3" ry="3" style="stroke:#038048;stroke-width:1.0;"/><text fill="#000000" font-family="sans-serif" font-size="14" lengthAdjust="spacing" textLength="110" x="634.5" y="442.2764">generate(): void</text><rect fill="#F24D5C" height="6" style="stroke:#C82930;stroke-width:1.0;" width="6" x="622.5" y="452.2266"/><text fill="#000000" font-family="sans-serif" font-size="14" lengthAdjust="spacing" textLength="183" x="634.5" y="458.5732">generatePath(int, int): void</text><ellipse cx="625.5" cy="471.5234" fill="#84BE84" rx="3" ry="3" style="stroke:#038048;stroke-width:1.0;"/><text fill="#000000" font-family="sans-serif" font-size="14" lengthAdjust="spacing" textLength="151" x="634.5" y="474.8701">getEntranceRow(): int</text><ellipse cx="625.5" cy="487.8203" fill="#84BE84" rx="3" ry="3" style="stroke:#038048;stroke-width:1.0;"/><text fill="#000000" font-family="sans-serif" font-size="14" lengthAdjust="spacing" textLength="113" x="634.5" y="491.167">getExitRow(): int</text><ellipse cx="625.5" cy="504.1172" fill="#84BE84" rx="3" ry="3" style="stroke:#038048;stroke-width:1.0;"/><text fill="#000000" font-family="sans-serif" font-size="14" lengthAdjust="spacing" textLength="143" x="634.5" y="507.4639">toCellInfo(): CellInfo[]</text></g></a><!--class chasseaumonstre.model.MazeValidator--><a href="MazeValidator.html" target="_top" title="MazeValidator.html" xlink:actuate="onRequest" xlink:href="MazeValidator.html" xlink:show="new" xlink:title="MazeValidator.html" xlink:type="simple"><g id="elem_chasseaumonstre.model.MazeValidator"><rect codeLine="27" fill="#F1F1F1" height="227.2656" id="chasseaumonstre.model.MazeValidator" rx="2.5" ry="2.5" style="stroke:#181818;stroke-width:0.5;" width="209" x="858.5" y="287.5"/><ellipse cx="910.75" cy="303.5" fill="#ADD1B2" rx="11" ry="11" style="stroke:#181818;stroke-width:1.0;"/><path d="M913.7188,309.1406 Q913.1406,309.4375 912.5,309.5781 Q911.8594,309.7344 911.1563,309.7344 Q908.6563,309.7344 907.3281,308.0938 Q906.0156,306.4375 906.0156,303.3125 Q906.0156,300.1875 907.3281,298.5313 Q908.6563,296.875 911.1563,296.875 Q911.8594,296.875 912.5,297.0313 Q913.1563,297.1875 913.7188,297.4844 L913.7188,300.2031 Q913.0938,299.625 912.5,299.3594 Q911.9063,299.0781 911.2813,299.0781 Q909.9375,299.0781 909.25,300.1563 Q908.5625,301.2188 908.5625,303.3125 Q908.5625,305.4063 909.25,306.4844 Q909.9375,307.5469 911.2813,307.5469 Q911.9063,307.5469 912.5,307.2813 Q913.0938,307 913.7188,306.4219 L913.7188,309.1406 Z " fill="#000000"/><text fill="#000000" font-family="sans-serif" font-size="14" lengthAdjust="spacing" textLength="96" x="931.25" y="308.3467">MazeValidator</text><line style="stroke:#181818;stroke-width:0.5;" x1="859.5" x2="1066.5" y1="319.5" y2="319.5"/><rect fill="none" height="6" style="stroke:#C82930;stroke-width:1.0;" width="6" x="866.5" y="330.1484"/><text fill="#000000" font-family="sans-serif" font-size="14" lengthAdjust="spacing" textLength="63" x="878.5" y="336.4951">width: int</text><rect fill="none" height="6" style="stroke:#C82930;stroke-width:1.0;" width="6" x="866.5" y="346.4453"/><text fill="#000000" font-family="sans-serif" font-size="14" lengthAdjust="spacing" textLength="70" x="878.5" y="352.792">height: int</text><rect fill="none" height="6" style="stroke:#C82930;stroke-width:1.0;" width="6" x="866.5" y="362.7422"/><text fill="#000000" font-family="sans-serif" font-size="14" lengthAdjust="spacing" textLength="74" x="878.5" y="369.0889">maze: int[]</text><rect fill="none" height="6" style="stroke:#C82930;stroke-width:1.0;" width="6" x="866.5" y="379.0391"/><text fill="#000000" font-family="sans-serif" font-size="14" lengthAdjust="spacing" textLength="119" x="878.5" y="385.3857">visited: boolean[]</text><line style="stroke:#181818;stroke-width:0.5;" x1="859.5" x2="1066.5" y1="392.6875" y2="392.6875"/><ellipse cx="869.5" cy="406.3359" fill="#84BE84" rx="3" ry="3" style="stroke:#038048;stroke-width:1.0;"/><text fill="#000000" font-family="sans-serif" font-size="14" lengthAdjust="spacing" textLength="183" x="878.5" y="409.6826">MazeValidator(int, int, int[])</text><ellipse cx="869.5" cy="422.6328" fill="#84BE84" rx="3" ry="3" style="stroke:#038048;stroke-width:1.0;"/><text fill="#000000" font-family="sans-serif" font-size="14" lengthAdjust="spacing" textLength="133" x="878.5" y="425.9795">setMaze(int[]): void</text><ellipse cx="869.5" cy="438.9297" fill="#84BE84" rx="3" ry="3" style="stroke:#038048;stroke-width:1.0;"/><text fill="#000000" font-family="sans-serif" font-size="14" lengthAdjust="spacing" textLength="106" x="878.5" y="442.2764">getMaze(): int[]</text><rect fill="#F24D5C" height="6" style="stroke:#C82930;stroke-width:1.0;" width="6" x="866.5" y="452.2266"/><text fill="#000000" font-family="sans-serif" font-size="14" lengthAdjust="spacing" textLength="147" x="878.5" y="458.5732">initializeVisited(): void</text><rect fill="#F24D5C" height="6" style="stroke:#C82930;stroke-width:1.0;" width="6" x="866.5" y="468.5234"/><text fill="#000000" font-family="sans-serif" font-size="14" lengthAdjust="spacing" textLength="121" x="878.5" y="474.8701">getEntrance(): int</text><ellipse cx="869.5" cy="487.8203" fill="#84BE84" rx="3" ry="3" style="stroke:#038048;stroke-width:1.0;"/><text fill="#000000" font-family="sans-serif" font-size="14" lengthAdjust="spacing" textLength="118" x="878.5" y="491.167">isValid(): boolean</text><rect fill="#F24D5C" height="6" style="stroke:#C82930;stroke-width:1.0;" width="6" x="866.5" y="501.1172"/><text fill="#000000" font-family="sans-serif" font-size="14" lengthAdjust="spacing" textLength="138" x="878.5" y="507.4639">dfs(int, int): boolean</text></g></a><!--class chasseaumonstre.model.MonsterHunterModel--><a href="MonsterHunterModel.html" target="_top" title="MonsterHunterModel.html" xlink:actuate="onRequest" xlink:href="MonsterHunterModel.html" xlink:show="new" xlink:title="MonsterHunterModel.html" xlink:type="simple"><g id="elem_chasseaumonstre.model.MonsterHunterModel"><rect codeLine="41" fill="#F1F1F1" height="357.6406" id="chasseaumonstre.model.MonsterHunterModel" rx="2.5" ry="2.5" style="stroke:#181818;stroke-width:0.5;" width="293" x="1102.5" y="222"/><ellipse cx="1171.75" cy="238" fill="#ADD1B2" rx="11" ry="11" style="stroke:#181818;stroke-width:1.0;"/><path d="M1174.7188,243.6406 Q1174.1406,243.9375 1173.5,244.0781 Q1172.8594,244.2344 1172.1563,244.2344 Q1169.6563,244.2344 1168.3281,242.5938 Q1167.0156,240.9375 1167.0156,237.8125 Q1167.0156,234.6875 1168.3281,233.0313 Q1169.6563,231.375 1172.1563,231.375 Q1172.8594,231.375 1173.5,231.5313 Q1174.1563,231.6875 1174.7188,231.9844 L1174.7188,234.7031 Q1174.0938,234.125 1173.5,233.8594 Q1172.9063,233.5781 1172.2813,233.5781 Q1170.9375,233.5781 1170.25,234.6563 Q1169.5625,235.7188 1169.5625,237.8125 Q1169.5625,239.9063 1170.25,240.9844 Q1170.9375,242.0469 1172.2813,242.0469 Q1172.9063,242.0469 1173.5,241.7813 Q1174.0938,241.5 1174.7188,240.9219 L1174.7188,243.6406 Z " fill="#000000"/><text fill="#000000" font-family="sans-serif" font-size="14" lengthAdjust="spacing" textLength="146" x="1192.25" y="242.8467">MonsterHunterModel</text><line style="stroke:#181818;stroke-width:0.5;" x1="1103.5" x2="1394.5" y1="254" y2="254"/><rect fill="none" height="6" style="stroke:#C82930;stroke-width:1.0;" width="6" x="1110.5" y="264.6484"/><text fill="#000000" font-family="sans-serif" font-size="14" lengthAdjust="spacing" textLength="107" x="1122.5" y="270.9951">maze: CellInfo[]</text><rect fill="none" height="6" style="stroke:#C82930;stroke-width:1.0;" width="6" x="1110.5" y="280.9453"/><text fill="#000000" font-family="sans-serif" font-size="14" lengthAdjust="spacing" textLength="86" x="1122.5" y="287.292">turn: Integer</text><rect fill="none" height="6" style="stroke:#C82930;stroke-width:1.0;" width="6" x="1110.5" y="297.2422"/><text fill="#000000" font-family="sans-serif" font-size="14" lengthAdjust="spacing" textLength="63" x="1122.5" y="303.5889">width: int</text><rect fill="none" height="6" style="stroke:#C82930;stroke-width:1.0;" width="6" x="1110.5" y="313.5391"/><text fill="#000000" font-family="sans-serif" font-size="14" lengthAdjust="spacing" textLength="70" x="1122.5" y="319.8857">height: int</text><rect fill="none" height="6" style="stroke:#C82930;stroke-width:1.0;" width="6" x="1110.5" y="329.8359"/><text fill="#000000" font-family="sans-serif" font-size="14" lengthAdjust="spacing" textLength="147" x="1122.5" y="336.1826">monsterName: String</text><rect fill="none" height="6" style="stroke:#C82930;stroke-width:1.0;" width="6" x="1110.5" y="346.1328"/><text fill="#000000" font-family="sans-serif" font-size="14" lengthAdjust="spacing" textLength="135" x="1122.5" y="352.4795">hunterName: String</text><line style="stroke:#181818;stroke-width:0.5;" x1="1103.5" x2="1394.5" y1="359.7813" y2="359.7813"/><ellipse cx="1113.5" cy="373.4297" fill="#84BE84" rx="3" ry="3" style="stroke:#038048;stroke-width:1.0;"/><text fill="#000000" font-family="sans-serif" font-size="14" lengthAdjust="spacing" textLength="198" x="1122.5" y="376.7764">MonsterHunterModel(int, int)</text><ellipse cx="1113.5" cy="389.7266" fill="#84BE84" rx="3" ry="3" style="stroke:#038048;stroke-width:1.0;"/><text fill="#000000" font-family="sans-serif" font-size="14" lengthAdjust="spacing" textLength="179" x="1122.5" y="393.0732">getMonsterName(): String</text><ellipse cx="1113.5" cy="406.0234" fill="#84BE84" rx="3" ry="3" style="stroke:#038048;stroke-width:1.0;"/><text fill="#000000" font-family="sans-serif" font-size="14" lengthAdjust="spacing" textLength="206" x="1122.5" y="409.3701">setMonsterName(String): void</text><ellipse cx="1113.5" cy="422.3203" fill="#84BE84" rx="3" ry="3" style="stroke:#038048;stroke-width:1.0;"/><text fill="#000000" font-family="sans-serif" font-size="14" lengthAdjust="spacing" textLength="169" x="1122.5" y="425.667">getHunterName(): String</text><ellipse cx="1113.5" cy="438.6172" fill="#84BE84" rx="3" ry="3" style="stroke:#038048;stroke-width:1.0;"/><text fill="#000000" font-family="sans-serif" font-size="14" lengthAdjust="spacing" textLength="196" x="1122.5" y="441.9639">setHunterName(String): void</text><ellipse cx="1113.5" cy="454.9141" fill="#84BE84" rx="3" ry="3" style="stroke:#038048;stroke-width:1.0;"/><text fill="#000000" font-family="sans-serif" font-size="14" lengthAdjust="spacing" textLength="98" x="1122.5" y="458.2607">getWidth(): int</text><ellipse cx="1113.5" cy="471.2109" fill="#84BE84" rx="3" ry="3" style="stroke:#038048;stroke-width:1.0;"/><text fill="#000000" font-family="sans-serif" font-size="14" lengthAdjust="spacing" textLength="104" x="1122.5" y="474.5576">getHeight(): int</text><rect fill="#F24D5C" height="6" style="stroke:#C82930;stroke-width:1.0;" width="6" x="1110.5" y="484.5078"/><text fill="#000000" font-family="sans-serif" font-size="14" lengthAdjust="spacing" textLength="180" x="1122.5" y="490.8545">initializeMaze(int, int): void</text><ellipse cx="1113.5" cy="503.8047" fill="#84BE84" rx="3" ry="3" style="stroke:#038048;stroke-width:1.0;"/><text fill="#000000" font-family="sans-serif" font-size="14" lengthAdjust="spacing" textLength="139" x="1122.5" y="507.1514">getMaze(): CellInfo[]</text><ellipse cx="1113.5" cy="520.1016" fill="#84BE84" rx="3" ry="3" style="stroke:#038048;stroke-width:1.0;"/><text fill="#000000" font-family="sans-serif" font-size="14" lengthAdjust="spacing" textLength="123" x="1122.5" y="523.4482">getTurn(): Integer</text><ellipse cx="1113.5" cy="536.3984" fill="#84BE84" rx="3" ry="3" style="stroke:#038048;stroke-width:1.0;"/><text fill="#000000" font-family="sans-serif" font-size="14" lengthAdjust="spacing" textLength="109" x="1122.5" y="539.7451">nextTurn(): void</text><rect fill="#F24D5C" height="6" style="stroke:#C82930;stroke-width:1.0;" width="6" x="1110.5" y="549.6953"/><text fill="#000000" font-family="sans-serif" font-size="14" lengthAdjust="spacing" textLength="267" x="1122.5" y="556.042">writeObject(ObjectOutputStream): void</text><rect fill="#F24D5C" height="6" style="stroke:#C82930;stroke-width:1.0;" width="6" x="1110.5" y="565.9922"/><text fill="#000000" font-family="sans-serif" font-size="14" lengthAdjust="spacing" textLength="252" x="1122.5" y="572.3389">readObject(ObjectInputStream): void</text></g></a><!--class chasseaumonstre.model.CellEvent--><a href="CellEvent.html" target="_top" title="CellEvent.html" xlink:actuate="onRequest" xlink:href="CellEvent.html" xlink:show="new" xlink:title="CellEvent.html" xlink:type="simple"><g id="elem_chasseaumonstre.model.CellEvent"><rect codeLine="63" fill="#F1F1F1" height="129.4844" id="chasseaumonstre.model.CellEvent" rx="2.5" ry="2.5" style="stroke:#181818;stroke-width:0.5;" width="291" x="288.5" y="336.5"/><ellipse cx="397.75" cy="352.5" fill="#ADD1B2" rx="11" ry="11" style="stroke:#181818;stroke-width:1.0;"/><path d="M400.7188,358.1406 Q400.1406,358.4375 399.5,358.5781 Q398.8594,358.7344 398.1563,358.7344 Q395.6563,358.7344 394.3281,357.0938 Q393.0156,355.4375 393.0156,352.3125 Q393.0156,349.1875 394.3281,347.5313 Q395.6563,345.875 398.1563,345.875 Q398.8594,345.875 399.5,346.0313 Q400.1563,346.1875 400.7188,346.4844 L400.7188,349.2031 Q400.0938,348.625 399.5,348.3594 Q398.9063,348.0781 398.2813,348.0781 Q396.9375,348.0781 396.25,349.1563 Q395.5625,350.2188 395.5625,352.3125 Q395.5625,354.4063 396.25,355.4844 Q396.9375,356.5469 398.2813,356.5469 Q398.9063,356.5469 399.5,356.2813 Q400.0938,356 400.7188,355.4219 L400.7188,358.1406 Z " fill="#000000"/><text fill="#000000" font-family="sans-serif" font-size="14" lengthAdjust="spacing" textLength="64" x="418.25" y="357.3467">CellEvent</text><line style="stroke:#181818;stroke-width:0.5;" x1="289.5" x2="578.5" y1="368.5" y2="368.5"/><rect fill="none" height="6" style="stroke:#C82930;stroke-width:1.0;" width="6" x="296.5" y="379.1484"/><text fill="#000000" font-family="sans-serif" font-size="14" lengthAdjust="spacing" textLength="94" x="308.5" y="385.4951">state: CellInfo</text><rect fill="none" height="6" style="stroke:#C82930;stroke-width:1.0;" width="6" x="296.5" y="395.4453"/><text fill="#000000" font-family="sans-serif" font-size="14" lengthAdjust="spacing" textLength="86" x="308.5" y="401.792">turn: Integer</text><line style="stroke:#181818;stroke-width:0.5;" x1="289.5" x2="578.5" y1="409.0938" y2="409.0938"/><ellipse cx="299.5" cy="422.7422" fill="#84BE84" rx="3" ry="3" style="stroke:#038048;stroke-width:1.0;"/><text fill="#000000" font-family="sans-serif" font-size="14" lengthAdjust="spacing" textLength="265" x="308.5" y="426.0889">CellEvent(CellInfo, Integer, Coordinate)</text><ellipse cx="299.5" cy="439.0391" fill="#84BE84" rx="3" ry="3" style="stroke:#038048;stroke-width:1.0;"/><text fill="#000000" font-family="sans-serif" font-size="14" lengthAdjust="spacing" textLength="128" x="308.5" y="442.3857">getState(): CellInfo</text><ellipse cx="299.5" cy="455.3359" fill="#84BE84" rx="3" ry="3" style="stroke:#038048;stroke-width:1.0;"/><text fill="#000000" font-family="sans-serif" font-size="14" lengthAdjust="spacing" textLength="91" x="308.5" y="458.6826">getTurn(): int</text></g></a><!--class fr.univlille.iutinfo.cam.player.perception.ICoordinate--><g id="elem_fr.univlille.iutinfo.cam.player.perception.ICoordinate"><rect codeLine="83" fill="#F1F1F1" height="80.5938" id="fr.univlille.iutinfo.cam.player.perception.ICoordinate" rx="2.5" ry="2.5" style="stroke:#181818;stroke-width:0.5;" width="115" x="22.5" y="49"/><ellipse cx="38.85" cy="65" fill="#B4A7E5" rx="11" ry="11" style="stroke:#181818;stroke-width:1.0;"/><path d="M34.7719,60.7656 L34.7719,58.6094 L42.1625,58.6094 L42.1625,60.7656 L39.6938,60.7656 L39.6938,68.8438 L42.1625,68.8438 L42.1625,71 L34.7719,71 L34.7719,68.8438 L37.2406,68.8438 L37.2406,60.7656 L34.7719,60.7656 Z " fill="#000000"/><text fill="#000000" font-family="sans-serif" font-size="14" font-style="italic" lengthAdjust="spacing" textLength="80" x="53.15" y="69.8467">ICoordinate</text><line style="stroke:#181818;stroke-width:0.5;" x1="23.5" x2="136.5" y1="81" y2="81"/><line style="stroke:#181818;stroke-width:0.5;" x1="23.5" x2="136.5" y1="89" y2="89"/><ellipse cx="33.5" cy="102.6484" fill="#84BE84" rx="3" ry="3" style="stroke:#038048;stroke-width:1.0;"/><text fill="#000000" font-family="sans-serif" font-size="14" font-style="italic" lengthAdjust="spacing" textLength="89" x="42.5" y="105.9951">getRow(): int</text><ellipse cx="33.5" cy="118.9453" fill="#84BE84" rx="3" ry="3" style="stroke:#038048;stroke-width:1.0;"/><text fill="#000000" font-family="sans-serif" font-size="14" font-style="italic" lengthAdjust="spacing" textLength="81" x="42.5" y="122.292">getCol(): int</text></g><!--class fr.univlille.iutinfo.cam.player.perception.ICellEvent--><g id="elem_fr.univlille.iutinfo.cam.player.perception.ICellEvent"><rect codeLine="87" fill="#F1F1F1" height="96.8906" id="fr.univlille.iutinfo.cam.player.perception.ICellEvent" rx="2.5" ry="2.5" style="stroke:#181818;stroke-width:0.5;" width="190" x="173" y="41"/><ellipse cx="229.25" cy="57" fill="#B4A7E5" rx="11" ry="11" style="stroke:#181818;stroke-width:1.0;"/><path d="M225.1719,52.7656 L225.1719,50.6094 L232.5625,50.6094 L232.5625,52.7656 L230.0938,52.7656 L230.0938,60.8438 L232.5625,60.8438 L232.5625,63 L225.1719,63 L225.1719,60.8438 L227.6406,60.8438 L227.6406,52.7656 L225.1719,52.7656 Z " fill="#000000"/><text fill="#000000" font-family="sans-serif" font-size="14" font-style="italic" lengthAdjust="spacing" textLength="69" x="249.75" y="61.8467">ICellEvent</text><line style="stroke:#181818;stroke-width:0.5;" x1="174" x2="362" y1="73" y2="73"/><line style="stroke:#181818;stroke-width:0.5;" x1="174" x2="362" y1="81" y2="81"/><ellipse cx="184" cy="94.6484" fill="#84BE84" rx="3" ry="3" style="stroke:#038048;stroke-width:1.0;"/><text fill="#000000" font-family="sans-serif" font-size="14" font-style="italic" lengthAdjust="spacing" textLength="129" x="193" y="97.9951">getState(): CellInfo</text><ellipse cx="184" cy="110.9453" fill="#84BE84" rx="3" ry="3" style="stroke:#038048;stroke-width:1.0;"/><text fill="#000000" font-family="sans-serif" font-size="14" font-style="italic" lengthAdjust="spacing" textLength="91" x="193" y="114.292">getTurn(): int</text><ellipse cx="184" cy="127.2422" fill="#84BE84" rx="3" ry="3" style="stroke:#038048;stroke-width:1.0;"/><text fill="#000000" font-family="sans-serif" font-size="14" font-style="italic" lengthAdjust="spacing" textLength="164" x="193" y="130.5889">getCoord(): ICoordinate</text></g><!--class java.io.Serializable--><g id="elem_java.io.Serializable"><rect codeLine="95" fill="#F1F1F1" height="48" id="java.io.Serializable" rx="2.5" ry="2.5" style="stroke:#181818;stroke-width:0.5;" width="108" x="807" y="65.5"/><ellipse cx="822" cy="81.5" fill="#B4A7E5" rx="11" ry="11" style="stroke:#181818;stroke-width:1.0;"/><path d="M817.9219,77.2656 L817.9219,75.1094 L825.3125,75.1094 L825.3125,77.2656 L822.8438,77.2656 L822.8438,85.3438 L825.3125,85.3438 L825.3125,87.5 L817.9219,87.5 L817.9219,85.3438 L820.3906,85.3438 L820.3906,77.2656 L817.9219,77.2656 Z " fill="#000000"/><text fill="#000000" font-family="sans-serif" font-size="14" font-style="italic" lengthAdjust="spacing" textLength="76" x="836" y="86.3467">Serializable</text><line style="stroke:#181818;stroke-width:0.5;" x1="808" x2="914" y1="97.5" y2="97.5"/><line style="stroke:#181818;stroke-width:0.5;" x1="808" x2="914" y1="105.5" y2="105.5"/></g><!--class chasseaumonstre.model.strategy.monster.Monster--><g id="elem_chasseaumonstre.model.strategy.monster.Monster"><rect fill="#F1F1F1" height="48" id="chasseaumonstre.model.strategy.monster.Monster" rx="2.5" ry="2.5" style="stroke:#181818;stroke-width:0.5;" width="89" x="1814.5" y="729"/><ellipse cx="1829.5" cy="745" fill="#ADD1B2" rx="11" ry="11" style="stroke:#181818;stroke-width:1.0;"/><path d="M1832.4688,750.6406 Q1831.8906,750.9375 1831.25,751.0781 Q1830.6094,751.2344 1829.9063,751.2344 Q1827.4063,751.2344 1826.0781,749.5938 Q1824.7656,747.9375 1824.7656,744.8125 Q1824.7656,741.6875 1826.0781,740.0313 Q1827.4063,738.375 1829.9063,738.375 Q1830.6094,738.375 1831.25,738.5313 Q1831.9063,738.6875 1832.4688,738.9844 L1832.4688,741.7031 Q1831.8438,741.125 1831.25,740.8594 Q1830.6563,740.5781 1830.0313,740.5781 Q1828.6875,740.5781 1828,741.6563 Q1827.3125,742.7188 1827.3125,744.8125 Q1827.3125,746.9063 1828,747.9844 Q1828.6875,749.0469 1830.0313,749.0469 Q1830.6563,749.0469 1831.25,748.7813 Q1831.8438,748.5 1832.4688,747.9219 L1832.4688,750.6406 Z " fill="#000000"/><text fill="#000000" font-family="sans-serif" font-size="14" lengthAdjust="spacing" textLength="57" x="1843.5" y="749.8467">Monster</text><line style="stroke:#181818;stroke-width:0.5;" x1="1815.5" x2="1902.5" y1="761" y2="761"/><line style="stroke:#181818;stroke-width:0.5;" x1="1815.5" x2="1902.5" y1="769" y2="769"/></g><!--class chasseaumonstre.model.strategy.hunter.Hunter--><g id="elem_chasseaumonstre.model.strategy.hunter.Hunter"><rect fill="#F1F1F1" height="48" id="chasseaumonstre.model.strategy.hunter.Hunter" rx="2.5" ry="2.5" style="stroke:#181818;stroke-width:0.5;" width="79" x="1451.5" y="729"/><ellipse cx="1466.5" cy="745" fill="#ADD1B2" rx="11" ry="11" style="stroke:#181818;stroke-width:1.0;"/><path d="M1469.4688,750.6406 Q1468.8906,750.9375 1468.25,751.0781 Q1467.6094,751.2344 1466.9063,751.2344 Q1464.4063,751.2344 1463.0781,749.5938 Q1461.7656,747.9375 1461.7656,744.8125 Q1461.7656,741.6875 1463.0781,740.0313 Q1464.4063,738.375 1466.9063,738.375 Q1467.6094,738.375 1468.25,738.5313 Q1468.9063,738.6875 1469.4688,738.9844 L1469.4688,741.7031 Q1468.8438,741.125 1468.25,740.8594 Q1467.6563,740.5781 1467.0313,740.5781 Q1465.6875,740.5781 1465,741.6563 Q1464.3125,742.7188 1464.3125,744.8125 Q1464.3125,746.9063 1465,747.9844 Q1465.6875,749.0469 1467.0313,749.0469 Q1467.6563,749.0469 1468.25,748.7813 Q1468.8438,748.5 1469.4688,747.9219 L1469.4688,750.6406 Z " fill="#000000"/><text fill="#000000" font-family="sans-serif" font-size="14" lengthAdjust="spacing" textLength="47" x="1480.5" y="749.8467">Hunter</text><line style="stroke:#181818;stroke-width:0.5;" x1="1452.5" x2="1529.5" y1="761" y2="761"/><line style="stroke:#181818;stroke-width:0.5;" x1="1452.5" x2="1529.5" y1="769" y2="769"/></g><!--reverse link fr.univlille.iutinfo.cam.player.perception.ICoordinate to chasseaumonstre.model.Coordinate--><g id="link_fr.univlille.iutinfo.cam.player.perception.ICoordinate_chasseaumonstre.model.Coordinate"><path codeLine="71" d="M78.19,150.3 C78,259.88 92.49,495.08 210,642 C230.85,668.07 259.42,688.38 289.24,704.05 " fill="none" id="fr.univlille.iutinfo.cam.player.perception.ICoordinate-backto-chasseaumonstre.model.Coordinate" style="stroke:#181818;stroke-width:1.0;stroke-dasharray:7.0,7.0;"/><polygon fill="none" points="71.19,150.05,78.4,130.12,85.19,150.19,71.19,150.05" style="stroke:#181818;stroke-width:1.0;"/></g><!--reverse link java.io.Serializable to chasseaumonstre.model.Coordinate--><g id="link_java.io.Serializable_chasseaumonstre.model.Coordinate"><path codeLine="72" d="M786.87,101.46 C628.64,124.88 272.05,177.78 271,179 C154.7,314.05 204.51,414.64 271,580 C284.82,614.36 309.14,645.72 334.93,671.97 " fill="none" id="java.io.Serializable-backto-chasseaumonstre.model.Coordinate" style="stroke:#181818;stroke-width:1.0;stroke-dasharray:7.0,7.0;"/><polygon fill="none" points="786.12,94.5,806.93,98.49,788.17,108.35,786.12,94.5" style="stroke:#181818;stroke-width:1.0;"/></g><!--link chasseaumonstre.model.MazeGenerator to chasseaumonstre.model.Coordinate--><g id="link_chasseaumonstre.model.MazeGenerator_chasseaumonstre.model.Coordinate"><path codeLine="73" d="M645.38,514.97 C629.98,536.98 613.42,559.55 597,580 C573.1,609.76 545.24,640.67 519.47,667.95 " fill="none" id="chasseaumonstre.model.MazeGenerator-to-chasseaumonstre.model.Coordinate" style="stroke:#181818;stroke-width:1.0;"/><polygon fill="#181818" points="516.01,671.6,525.0985,667.8055,519.444,667.9657,519.2837,662.3111,516.01,671.6" style="stroke:#181818;stroke-width:1.0;"/><text fill="#000000" font-family="sans-serif" font-size="13" lengthAdjust="spacing" textLength="127" x="569" y="623.0669">entranceCoordinate</text><text fill="#000000" font-family="sans-serif" font-size="13" lengthAdjust="spacing" textLength="93" x="586" y="638.1997">exitCoordinate</text></g><!--reverse link java.io.Serializable to chasseaumonstre.model.MonsterHunterModel--><g id="link_java.io.Serializable_chasseaumonstre.model.MonsterHunterModel"><path codeLine="74" d="M934.37,108.27 C980.86,122.1 1040.39,144.78 1085,179 C1101.4,191.58 1116.93,206.21 1131.43,221.85 " fill="none" id="java.io.Serializable-backto-chasseaumonstre.model.MonsterHunterModel" style="stroke:#181818;stroke-width:1.0;stroke-dasharray:7.0,7.0;"/><polygon fill="none" points="932.35,114.97,915.01,102.79,936.16,101.5,932.35,114.97" style="stroke:#181818;stroke-width:1.0;"/></g><!--link chasseaumonstre.model.MonsterHunterModel to chasseaumonstre.model.strategy.monster.Monster--><g id="link_chasseaumonstre.model.MonsterHunterModel_chasseaumonstre.model.strategy.monster.Monster"><path codeLine="75" d="M1395.89,486.28 C1532.34,564.57 1727.17,676.36 1814.11,726.25 " fill="none" id="chasseaumonstre.model.MonsterHunterModel-to-chasseaumonstre.model.strategy.monster.Monster" style="stroke:#181818;stroke-width:1.0;"/><polygon fill="#181818" points="1818.68,728.86,1812.8673,720.9094,1814.3441,726.3701,1808.8834,727.8469,1818.68,728.86" style="stroke:#181818;stroke-width:1.0;"/><text fill="#000000" font-family="sans-serif" font-size="13" lengthAdjust="spacing" textLength="54" x="1662" y="630.5669">monster</text></g><!--link chasseaumonstre.model.MonsterHunterModel to chasseaumonstre.model.strategy.hunter.Hunter--><g id="link_chasseaumonstre.model.MonsterHunterModel_chasseaumonstre.model.strategy.hunter.Hunter"><path codeLine="76" d="M1372.13,580.08 C1411.13,636.48 1449.83,692.46 1472.03,724.56 " fill="none" id="chasseaumonstre.model.MonsterHunterModel-to-chasseaumonstre.model.strategy.hunter.Hunter" style="stroke:#181818;stroke-width:1.0;"/><polygon fill="#181818" points="1474.92,728.74,1473.0946,719.0618,1472.0777,724.6265,1466.513,723.6095,1474.92,728.74" style="stroke:#181818;stroke-width:1.0;"/><text fill="#000000" font-family="sans-serif" font-size="13" lengthAdjust="spacing" textLength="42" x="1413" y="630.5669">hunter</text></g><!--link chasseaumonstre.model.MonsterHunterModel to chasseaumonstre.model.Coordinate--><g id="link_chasseaumonstre.model.MonsterHunterModel_chasseaumonstre.model.Coordinate"><path codeLine="77" d="M1102.28,568.66 C1096.61,572.68 1090.85,576.47 1085,580 C930.65,673.09 725.96,716.48 588.07,736.24 " fill="none" id="chasseaumonstre.model.MonsterHunterModel-to-chasseaumonstre.model.Coordinate" style="stroke:#181818;stroke-width:1.0;"/><polygon fill="#181818" points="582.79,736.99,592.2609,739.6923,587.7409,736.2909,591.1423,731.7709,582.79,736.99" style="stroke:#181818;stroke-width:1.0;"/><text fill="#000000" font-family="sans-serif" font-size="13" lengthAdjust="spacing" textLength="57" x="1022" y="623.0669">entrance</text><text fill="#000000" font-family="sans-serif" font-size="13" lengthAdjust="spacing" textLength="23" x="1039" y="638.1997">exit</text></g><!--reverse link fr.univlille.iutinfo.cam.player.perception.ICellEvent to chasseaumonstre.model.CellEvent--><g id="link_fr.univlille.iutinfo.cam.player.perception.ICellEvent_chasseaumonstre.model.CellEvent"><path codeLine="78" d="M303.15,156.03 C331.68,209.22 371.66,283.77 399.9,336.42 " fill="none" id="fr.univlille.iutinfo.cam.player.perception.ICellEvent-backto-chasseaumonstre.model.CellEvent" style="stroke:#181818;stroke-width:1.0;stroke-dasharray:7.0,7.0;"/><polygon fill="none" points="296.86,159.11,293.57,138.18,309.2,152.5,296.86,159.11" style="stroke:#181818;stroke-width:1.0;"/></g><!--link chasseaumonstre.model.CellEvent to chasseaumonstre.model.Coordinate--><g id="link_chasseaumonstre.model.CellEvent_chasseaumonstre.model.Coordinate"><path codeLine="79" d="M434.36,465.79 C434.69,522.08 435.16,604.57 435.51,666.55 " fill="none" id="chasseaumonstre.model.CellEvent-to-chasseaumonstre.model.Coordinate" style="stroke:#181818;stroke-width:1.0;"/><polygon fill="#181818" points="435.54,671.73,439.4885,662.7073,435.5114,666.7301,431.4886,662.753,435.54,671.73" style="stroke:#181818;stroke-width:1.0;"/><text fill="#000000" font-family="sans-serif" font-size="13" lengthAdjust="spacing" textLength="36" x="436" y="630.5669">coord</text></g><text fill="#888888" font-family="sans-serif" font-size="10" lengthAdjust="spacing" textLength="186" x="979" y="865.2822">UMLDoclet 2.1.0, PlantUML 1.2022.14</text><!--SRC=[lLRDRzCm5B_lh_05gTDQ2pX6Y4kPM2N6fWtOOUpW9g-j9yUkd9TsO_H_nywdazXX0q4kYVC-_Vkzzsn2294iXMpBOY3nXcKPi3nLCaCDD5K92F9qT4Ig9nP6WSoLqWcN387SthOBki5KtDqPVU8yCwts4Lb8X3NehYHMmYyvQPrEAlcqLZpkQgu1hzH-SXmHBd4WcYlX4ytscYDSBEyXnadvkiXnc-ErsJLBZSLEyQIt3M19ns8XWmQ7FcBdx0Ty10cQeT86jCuwWDkU9xZnvBu1ljwWHv0QfyNlsxjUwamcAet8LV7kWjJ9P6ACfzR346IhLq7PSs-aXNaX7k9MIoyPRbh_7aqRvLIYIJQ64KfF7tYGSLHp468XLygAwsydNoyntvZWYKDCi_xdnEnuPkemYSXIAG5Czf7jPDE0DorTzJZAAevAMG3VC8ipBZbo4yj4BBCAqTcGvAM0PqN2LbPjgckVh3At2lewGuBiA09zbflkr-V5F38i3Nu6g2gHznH28SLSoy1eUZd7PKgVpIoDY9aANAvxbaMoGVd9S4zZtTX6iqZx_6LThL8bL1TdJN8ZxXobSMyt5hnG_vuL27gdSbk2TIMF3ekwc0FqMfKlXc6huZra93mq2iD2_zz7XDt5wGuasZEr_WwKTOPceBORVsvLdpH-9xLfSwnEdLDzM6_NMCrtRqWNQPTKPuyhJNF9Tu8B0PJdo8qF6hEKRWLx14ste6FO8bUIBfphnRkVb3g9DUxksOvHhkWrwA9Ws5A4bRk7xspstb6A25JJhFtttHG6nnT57JPl6tqum6mAtgiMDPycuFgHLkE4LjOHgNxyfTjo2D7IAYBbydS-VMYL6FqPlKsXbuJLoyPPgz2F7jll8wUqsglhypDmcedRZQwikLjqtMPxOaiBNuo7iSjcJyjpxpnuepPR7GqwtduzPLydUbCq6ovcewVI3twGgmRm8kWsXMiTWrKXAwNiw-lvfmyg5e3aBNr3Nq_9fM0IpL_oQWSwC_HCZdy1]--></g></svg>