<?xml version="1.0" encoding="UTF-8" standalone="no"?><svg xmlns="http://www.w3.org/2000/svg" xmlns:xlink="http://www.w3.org/1999/xlink" contentStyleType="text/css" height="355px" preserveAspectRatio="none" style="width:305px;height:355px;background:#FFFFFF;" version="1.1" viewBox="0 0 305 355" width="305px" zoomAndPan="magnify"><defs/><g><!--class chasseaumonstre.model.CellEvent--><a href="CellEvent.html" target="_top" title="CellEvent.html" xlink:actuate="onRequest" xlink:href="CellEvent.html" xlink:show="new" xlink:title="CellEvent.html" xlink:type="simple"><g id="elem_chasseaumonstre.model.CellEvent"><rect codeLine="5" fill="#F1F1F1" height="168.0156" id="chasseaumonstre.model.CellEvent" rx="2.5" ry="2.5" style="stroke:#181818;stroke-width:0.5;" width="291" x="7" y="162"/><ellipse cx="88.75" cy="180.9688" fill="#ADD1B2" rx="11" ry="11" style="stroke:#181818;stroke-width:1.0;"/><path d="M91.7188,186.6094 Q91.1406,186.9063 90.5,187.0469 Q89.8594,187.2031 89.1563,187.2031 Q86.6563,187.2031 85.3281,185.5625 Q84.0156,183.9063 84.0156,180.7813 Q84.0156,177.6563 85.3281,176 Q86.6563,174.3438 89.1563,174.3438 Q89.8594,174.3438 90.5,174.5 Q91.1563,174.6563 91.7188,174.9531 L91.7188,177.6719 Q91.0938,177.0938 90.5,176.8281 Q89.9063,176.5469 89.2813,176.5469 Q87.9375,176.5469 87.25,177.625 Q86.5625,178.6875 86.5625,180.7813 Q86.5625,182.875 87.25,183.9531 Q87.9375,185.0156 89.2813,185.0156 Q89.9063,185.0156 90.5,184.75 Q91.0938,184.4688 91.7188,183.8906 L91.7188,186.6094 Z " fill="#000000"/><text fill="#000000" font-family="sans-serif" font-size="14" lengthAdjust="spacing" textLength="64" x="136.75" y="179.9951">CellEvent</text><text fill="#000000" font-family="sans-serif" font-size="10" lengthAdjust="spacing" textLength="119" x="109.25" y="192.5791">chasseaumonstre.model</text><line style="stroke:#181818;stroke-width:0.5;" x1="8" x2="297" y1="199.9375" y2="199.9375"/><rect fill="none" height="6" style="stroke:#C82930;stroke-width:1.0;" width="6" x="15" y="210.5859"/><text fill="#000000" font-family="sans-serif" font-size="14" lengthAdjust="spacing" textLength="94" x="27" y="216.9326">state: CellInfo</text><rect fill="none" height="6" style="stroke:#C82930;stroke-width:1.0;" width="6" x="15" y="226.8828"/><text fill="#000000" font-family="sans-serif" font-size="14" lengthAdjust="spacing" textLength="86" x="27" y="233.2295">turn: Integer</text><rect fill="none" height="6" style="stroke:#C82930;stroke-width:1.0;" width="6" x="15" y="243.1797"/><text fill="#000000" font-family="sans-serif" font-size="14" lengthAdjust="spacing" textLength="125" x="27" y="249.5264">coord: Coordinate</text><line style="stroke:#181818;stroke-width:0.5;" x1="8" x2="297" y1="256.8281" y2="256.8281"/><ellipse cx="18" cy="270.4766" fill="#84BE84" rx="3" ry="3" style="stroke:#038048;stroke-width:1.0;"/><text fill="#000000" font-family="sans-serif" font-size="14" lengthAdjust="spacing" textLength="265" x="27" y="273.8232">CellEvent(CellInfo, Integer, Coordinate)</text><ellipse cx="18" cy="286.7734" fill="#84BE84" rx="3" ry="3" style="stroke:#038048;stroke-width:1.0;"/><text fill="#000000" font-family="sans-serif" font-size="14" lengthAdjust="spacing" textLength="128" x="27" y="290.1201">getState(): CellInfo</text><ellipse cx="18" cy="303.0703" fill="#84BE84" rx="3" ry="3" style="stroke:#038048;stroke-width:1.0;"/><text fill="#000000" font-family="sans-serif" font-size="14" lengthAdjust="spacing" textLength="91" x="27" y="306.417">getTurn(): int</text><ellipse cx="18" cy="319.3672" fill="#84BE84" rx="3" ry="3" style="stroke:#038048;stroke-width:1.0;"/><text fill="#000000" font-family="sans-serif" font-size="14" lengthAdjust="spacing" textLength="160" x="27" y="322.7139">getCoord(): Coordinate</text></g></a><!--class fr.univlille.iutinfo.cam.player.perception.ICellEvent--><g id="elem_fr.univlille.iutinfo.cam.player.perception.ICellEvent"><rect codeLine="15" fill="#F1F1F1" height="94.8281" id="fr.univlille.iutinfo.cam.player.perception.ICellEvent" rx="2.5" ry="2.5" style="stroke:#181818;stroke-width:0.5;" width="232" x="36.5" y="7"/><ellipse cx="51.5" cy="25.9688" fill="#B4A7E5" rx="11" ry="11" style="stroke:#181818;stroke-width:1.0;"/><path d="M47.4219,21.7344 L47.4219,19.5781 L54.8125,19.5781 L54.8125,21.7344 L52.3438,21.7344 L52.3438,29.8125 L54.8125,29.8125 L54.8125,31.9688 L47.4219,31.9688 L47.4219,29.8125 L49.8906,29.8125 L49.8906,21.7344 L47.4219,21.7344 Z " fill="#000000"/><text fill="#000000" font-family="sans-serif" font-size="14" font-style="italic" lengthAdjust="spacing" textLength="69" x="131" y="24.9951">ICellEvent</text><text fill="#000000" font-family="sans-serif" font-size="10" font-style="italic" lengthAdjust="spacing" textLength="200" x="65.5" y="37.5791">fr.univlille.iutinfo.cam.player.perception</text><line style="stroke:#181818;stroke-width:0.5;" x1="37.5" x2="267.5" y1="44.9375" y2="44.9375"/><ellipse cx="47.5" cy="58.5859" fill="#84BE84" rx="3" ry="3" style="stroke:#038048;stroke-width:1.0;"/><text fill="#000000" font-family="sans-serif" font-size="14" font-style="italic" lengthAdjust="spacing" textLength="129" x="56.5" y="61.9326">getState(): CellInfo</text><ellipse cx="47.5" cy="74.8828" fill="#84BE84" rx="3" ry="3" style="stroke:#038048;stroke-width:1.0;"/><text fill="#000000" font-family="sans-serif" font-size="14" font-style="italic" lengthAdjust="spacing" textLength="91" x="56.5" y="78.2295">getTurn(): int</text><ellipse cx="47.5" cy="91.1797" fill="#84BE84" rx="3" ry="3" style="stroke:#038048;stroke-width:1.0;"/><text fill="#000000" font-family="sans-serif" font-size="14" font-style="italic" lengthAdjust="spacing" textLength="164" x="56.5" y="94.5264">getCoord(): ICoordinate</text></g><!--reverse link fr.univlille.iutinfo.cam.player.perception.ICellEvent to chasseaumonstre.model.CellEvent--><g id="link_fr.univlille.iutinfo.cam.player.perception.ICellEvent_chasseaumonstre.model.CellEvent"><path codeLine="21" d="M152.5,122.75 C152.5,135.39 152.5,148.74 152.5,161.79 " fill="none" id="fr.univlille.iutinfo.cam.player.perception.ICellEvent-backto-chasseaumonstre.model.CellEvent" style="stroke:#181818;stroke-width:1.0;stroke-dasharray:7.0,7.0;"/><polygon fill="none" points="145.5,122.34,152.5,102.34,159.5,122.34,145.5,122.34" style="stroke:#181818;stroke-width:1.0;"/></g><text fill="#888888" font-family="sans-serif" font-size="10" lengthAdjust="spacing" textLength="186" x="52.5" y="345.2979">UMLDoclet 2.1.0, PlantUML 1.2022.14</text><!--SRC=[dLF1QW8n4BttAmQXeDG6BJs9U6bxM6YXO7ko7jBih1l8JfPaLh3MVs-orLsL1KltakMzD_CcBma0W4S6aWNwKYgSOocTPEk0BE5Le27NAG8M9MyWqsXIVuuMoBaDS8qh8xs7tjJhBvoCxsSFQCpJ6ea_Q8-DPYeF6fHLOScpGr7O54qFf8TEHZGzOB5e_aNEXLakOLlRnk_MisISG9GabDcMuChH119YNA5hOMMjIuC-Bff2RKFTD3RzGxVXeNvuL31eArR8y-ZV7tHC4DctC4GaDV49NdUhgqxdsFq66kJeid0qHw4cNQbcJbIarqORWq9NhCC0Gib2b4Pkq8aIdSAIjQKwwh_BHMjtbFPMVeOZaeft5_P-9koAuKpI999qH_A_qQVVGbowOFixZ35poAoDo_lBywDL9hoIEp4Meo6y6aaSKBXUe_F1fJ_u0G00]--></g></svg>