<?xml version="1.0" encoding="UTF-8" standalone="no"?><svg xmlns="http://www.w3.org/2000/svg" xmlns:xlink="http://www.w3.org/1999/xlink" contentStyleType="text/css" height="332px" preserveAspectRatio="none" style="width:303px;height:332px;background:#FFFFFF;" version="1.1" viewBox="0 0 303 332" width="303px" zoomAndPan="magnify"><defs/><g><!--class chasseaumonstre.model.MazeGenerator--><a href="MazeGenerator.html" target="_top" title="MazeGenerator.html" xlink:actuate="onRequest" xlink:href="MazeGenerator.html" xlink:show="new" xlink:title="MazeGenerator.html" xlink:type="simple"><g id="elem_chasseaumonstre.model.MazeGenerator"><rect codeLine="5" fill="#F1F1F1" height="298.3906" id="chasseaumonstre.model.MazeGenerator" rx="2.5" ry="2.5" style="stroke:#181818;stroke-width:0.5;" width="282" x="7" y="7"/><ellipse cx="84.25" cy="25.9688" fill="#ADD1B2" rx="11" ry="11" style="stroke:#181818;stroke-width:1.0;"/><path d="M87.2188,31.6094 Q86.6406,31.9063 86,32.0469 Q85.3594,32.2031 84.6563,32.2031 Q82.1563,32.2031 80.8281,30.5625 Q79.5156,28.9063 79.5156,25.7813 Q79.5156,22.6563 80.8281,21 Q82.1563,19.3438 84.6563,19.3438 Q85.3594,19.3438 86,19.5 Q86.6563,19.6563 87.2188,19.9531 L87.2188,22.6719 Q86.5938,22.0938 86,21.8281 Q85.4063,21.5469 84.7813,21.5469 Q83.4375,21.5469 82.75,22.625 Q82.0625,23.6875 82.0625,25.7813 Q82.0625,27.875 82.75,28.9531 Q83.4375,30.0156 84.7813,30.0156 Q85.4063,30.0156 86,29.75 Q86.5938,29.4688 87.2188,28.8906 L87.2188,31.6094 Z " fill="#000000"/><text fill="#000000" font-family="sans-serif" font-size="14" lengthAdjust="spacing" textLength="107" x="110.75" y="24.9951">MazeGenerator</text><text fill="#000000" font-family="sans-serif" font-size="10" lengthAdjust="spacing" textLength="119" x="104.75" y="37.5791">chasseaumonstre.model</text><line style="stroke:#181818;stroke-width:0.5;" x1="8" x2="288" y1="44.9375" y2="44.9375"/><rect fill="none" height="6" style="stroke:#C82930;stroke-width:1.0;" width="6" x="15" y="55.5859"/><text fill="#000000" font-family="sans-serif" font-size="14" lengthAdjust="spacing" textLength="63" x="27" y="61.9326">width: int</text><rect fill="none" height="6" style="stroke:#C82930;stroke-width:1.0;" width="6" x="15" y="71.8828"/><text fill="#000000" font-family="sans-serif" font-size="14" lengthAdjust="spacing" textLength="70" x="27" y="78.2295">height: int</text><rect fill="none" height="6" style="stroke:#C82930;stroke-width:1.0;" width="6" x="15" y="88.1797"/><text fill="#000000" font-family="sans-serif" font-size="14" lengthAdjust="spacing" textLength="74" x="27" y="94.5264">maze: int[]</text><rect fill="none" height="6" style="stroke:#C82930;stroke-width:1.0;" width="6" x="15" y="104.4766"/><text fill="#000000" font-family="sans-serif" font-size="14" lengthAdjust="spacing" textLength="120" x="27" y="110.8232">random: Random</text><rect fill="none" height="6" style="stroke:#C82930;stroke-width:1.0;" width="6" x="15" y="120.7734"/><text fill="#000000" font-family="sans-serif" font-size="14" lengthAdjust="spacing" textLength="223" x="27" y="127.1201">entranceCoordinate: Coordinate</text><rect fill="none" height="6" style="stroke:#C82930;stroke-width:1.0;" width="6" x="15" y="137.0703"/><text fill="#000000" font-family="sans-serif" font-size="14" lengthAdjust="spacing" textLength="185" x="27" y="143.417">exitCoordinate: Coordinate</text><line style="stroke:#181818;stroke-width:0.5;" x1="8" x2="288" y1="150.7188" y2="150.7188"/><ellipse cx="18" cy="164.3672" fill="#84BE84" rx="3" ry="3" style="stroke:#038048;stroke-width:1.0;"/><text fill="#000000" font-family="sans-serif" font-size="14" lengthAdjust="spacing" textLength="159" x="27" y="167.7139">MazeGenerator(int, int)</text><ellipse cx="18" cy="180.6641" fill="#84BE84" rx="3" ry="3" style="stroke:#038048;stroke-width:1.0;"/><text fill="#000000" font-family="sans-serif" font-size="14" lengthAdjust="spacing" textLength="106" x="27" y="184.0107">getMaze(): int[]</text><ellipse cx="18" cy="196.9609" fill="#84BE84" rx="3" ry="3" style="stroke:#038048;stroke-width:1.0;"/><text fill="#000000" font-family="sans-serif" font-size="14" lengthAdjust="spacing" textLength="110" x="27" y="200.3076">generate(): void</text><rect fill="#F24D5C" height="6" style="stroke:#C82930;stroke-width:1.0;" width="6" x="15" y="210.2578"/><text fill="#000000" font-family="sans-serif" font-size="14" lengthAdjust="spacing" textLength="183" x="27" y="216.6045">generatePath(int, int): void</text><ellipse cx="18" cy="229.5547" fill="#84BE84" rx="3" ry="3" style="stroke:#038048;stroke-width:1.0;"/><text fill="#000000" font-family="sans-serif" font-size="14" lengthAdjust="spacing" textLength="256" x="27" y="232.9014">getEntranceCoordinate(): Coordinate</text><ellipse cx="18" cy="245.8516" fill="#84BE84" rx="3" ry="3" style="stroke:#038048;stroke-width:1.0;"/><text fill="#000000" font-family="sans-serif" font-size="14" lengthAdjust="spacing" textLength="218" x="27" y="249.1982">getExitCoordinate(): Coordinate</text><ellipse cx="18" cy="262.1484" fill="#84BE84" rx="3" ry="3" style="stroke:#038048;stroke-width:1.0;"/><text fill="#000000" font-family="sans-serif" font-size="14" lengthAdjust="spacing" textLength="151" x="27" y="265.4951">getEntranceRow(): int</text><ellipse cx="18" cy="278.4453" fill="#84BE84" rx="3" ry="3" style="stroke:#038048;stroke-width:1.0;"/><text fill="#000000" font-family="sans-serif" font-size="14" lengthAdjust="spacing" textLength="113" x="27" y="281.792">getExitRow(): int</text><ellipse cx="18" cy="294.7422" fill="#84BE84" rx="3" ry="3" style="stroke:#038048;stroke-width:1.0;"/><text fill="#000000" font-family="sans-serif" font-size="14" lengthAdjust="spacing" textLength="143" x="27" y="298.0889">toCellInfo(): CellInfo[]</text></g></a><text fill="#888888" font-family="sans-serif" font-size="10" lengthAdjust="spacing" textLength="186" x="54.5" y="321.6729">UMLDoclet 2.1.0, PlantUML 1.2022.14</text><!--SRC=[XP91ImCn48Nl_ef145giIokUYlHIHGGBfUAfzX0sqoQGP4eojbhnlvk4bRZRedj9zdilRzyi0G08oE24nR0LDJxZLdZ1vC6HmxCeWz8I0UsMFs2jqSZGfHPPKSIPrqQ40EUtGHzmFBgPpCG17z1X3drr3HzEQXLzADuikS0UAqiIpJc802ULgfK3osNhlL9ipMe5dxb2UgxsMh8QWtPSc4AzKTo1DWPbj5mLw8MJPCUmo6lXw3XADKw9lDHES3nQzhzyxvh_yLos9kZ50eFKebyC6-JawVMxzQAIZsLfHrgM3_yeSy6gP7PSAVd-Q98KTgfdChV6-SlOf2vetzG-oZabCKtHc4UtffpTx9k9lvgB5VyzUbWJfULbzdH7jObNzxeQLSC1p8rm72bSxD07JQxN_mO0]--></g></svg>