<?xml version="1.0" encoding="UTF-8" standalone="no"?><svg xmlns="http://www.w3.org/2000/svg" xmlns:xlink="http://www.w3.org/1999/xlink" contentStyleType="text/css" height="698px" preserveAspectRatio="none" style="width:534px;height:698px;background:#FFFFFF;" version="1.1" viewBox="0 0 534 698" width="534px" zoomAndPan="magnify"><defs/><g><!--class chasseaumonstre.model.MonsterHunterModel--><a href="MonsterHunterModel.html" target="_top" title="MonsterHunterModel.html" xlink:actuate="onRequest" xlink:href="MonsterHunterModel.html" xlink:show="new" xlink:title="MonsterHunterModel.html" xlink:type="simple"><g id="elem_chasseaumonstre.model.MonsterHunterModel"><rect codeLine="5" fill="#F1F1F1" height="526.5469" id="chasseaumonstre.model.MonsterHunterModel" rx="2.5" ry="2.5" style="stroke:#181818;stroke-width:0.5;" width="293" x="63.5" y="146"/><ellipse cx="132.75" cy="164.9688" fill="#ADD1B2" rx="11" ry="11" style="stroke:#181818;stroke-width:1.0;"/><path d="M135.7188,170.6094 Q135.1406,170.9063 134.5,171.0469 Q133.8594,171.2031 133.1563,171.2031 Q130.6563,171.2031 129.3281,169.5625 Q128.0156,167.9063 128.0156,164.7813 Q128.0156,161.6563 129.3281,160 Q130.6563,158.3438 133.1563,158.3438 Q133.8594,158.3438 134.5,158.5 Q135.1563,158.6563 135.7188,158.9531 L135.7188,161.6719 Q135.0938,161.0938 134.5,160.8281 Q133.9063,160.5469 133.2813,160.5469 Q131.9375,160.5469 131.25,161.625 Q130.5625,162.6875 130.5625,164.7813 Q130.5625,166.875 131.25,167.9531 Q131.9375,169.0156 133.2813,169.0156 Q133.9063,169.0156 134.5,168.75 Q135.0938,168.4688 135.7188,167.8906 L135.7188,170.6094 Z " fill="#000000"/><text fill="#000000" font-family="sans-serif" font-size="14" lengthAdjust="spacing" textLength="146" x="153.25" y="163.9951">MonsterHunterModel</text><text fill="#000000" font-family="sans-serif" font-size="10" lengthAdjust="spacing" textLength="119" x="166.75" y="176.5791">chasseaumonstre.model</text><line style="stroke:#181818;stroke-width:0.5;" x1="64.5" x2="355.5" y1="183.9375" y2="183.9375"/><rect fill="none" height="6" style="stroke:#C82930;stroke-width:1.0;" width="6" x="71.5" y="194.5859"/><text fill="#000000" font-family="sans-serif" font-size="14" lengthAdjust="spacing" textLength="107" x="83.5" y="200.9326">maze: CellInfo[]</text><rect fill="none" height="6" style="stroke:#C82930;stroke-width:1.0;" width="6" x="71.5" y="210.8828"/><text fill="#000000" font-family="sans-serif" font-size="14" lengthAdjust="spacing" textLength="86" x="83.5" y="217.2295">turn: Integer</text><rect fill="none" height="6" style="stroke:#C82930;stroke-width:1.0;" width="6" x="71.5" y="227.1797"/><text fill="#000000" font-family="sans-serif" font-size="14" lengthAdjust="spacing" textLength="63" x="83.5" y="233.5264">width: int</text><rect fill="none" height="6" style="stroke:#C82930;stroke-width:1.0;" width="6" x="71.5" y="243.4766"/><text fill="#000000" font-family="sans-serif" font-size="14" lengthAdjust="spacing" textLength="70" x="83.5" y="249.8232">height: int</text><rect fill="none" height="6" style="stroke:#C82930;stroke-width:1.0;" width="6" x="71.5" y="259.7734"/><text fill="#000000" font-family="sans-serif" font-size="14" lengthAdjust="spacing" textLength="147" x="83.5" y="266.1201">monsterName: String</text><rect fill="none" height="6" style="stroke:#C82930;stroke-width:1.0;" width="6" x="71.5" y="276.0703"/><text fill="#000000" font-family="sans-serif" font-size="14" lengthAdjust="spacing" textLength="135" x="83.5" y="282.417">hunterName: String</text><rect fill="none" height="6" style="stroke:#C82930;stroke-width:1.0;" width="6" x="71.5" y="292.3672"/><text fill="#000000" font-family="sans-serif" font-size="14" lengthAdjust="spacing" textLength="124" x="83.5" y="298.7139">monster: Monster</text><rect fill="none" height="6" style="stroke:#C82930;stroke-width:1.0;" width="6" x="71.5" y="308.6641"/><text fill="#000000" font-family="sans-serif" font-size="14" lengthAdjust="spacing" textLength="102" x="83.5" y="315.0107">hunter: Hunter</text><rect fill="none" height="6" style="stroke:#C82930;stroke-width:1.0;" width="6" x="71.5" y="324.9609"/><text fill="#000000" font-family="sans-serif" font-size="14" lengthAdjust="spacing" textLength="147" x="83.5" y="331.3076">entrance: Coordinate</text><rect fill="none" height="6" style="stroke:#C82930;stroke-width:1.0;" width="6" x="71.5" y="341.2578"/><text fill="#000000" font-family="sans-serif" font-size="14" lengthAdjust="spacing" textLength="109" x="83.5" y="347.6045">exit: Coordinate</text><line style="stroke:#181818;stroke-width:0.5;" x1="64.5" x2="355.5" y1="354.9063" y2="354.9063"/><ellipse cx="74.5" cy="368.5547" fill="#84BE84" rx="3" ry="3" style="stroke:#038048;stroke-width:1.0;"/><text fill="#000000" font-family="sans-serif" font-size="14" lengthAdjust="spacing" textLength="198" x="83.5" y="371.9014">MonsterHunterModel(int, int)</text><ellipse cx="74.5" cy="384.8516" fill="#84BE84" rx="3" ry="3" style="stroke:#038048;stroke-width:1.0;"/><text fill="#000000" font-family="sans-serif" font-size="14" lengthAdjust="spacing" textLength="179" x="83.5" y="388.1982">getMonsterName(): String</text><ellipse cx="74.5" cy="401.1484" fill="#84BE84" rx="3" ry="3" style="stroke:#038048;stroke-width:1.0;"/><text fill="#000000" font-family="sans-serif" font-size="14" lengthAdjust="spacing" textLength="206" x="83.5" y="404.4951">setMonsterName(String): void</text><ellipse cx="74.5" cy="417.4453" fill="#84BE84" rx="3" ry="3" style="stroke:#038048;stroke-width:1.0;"/><text fill="#000000" font-family="sans-serif" font-size="14" lengthAdjust="spacing" textLength="169" x="83.5" y="420.792">getHunterName(): String</text><ellipse cx="74.5" cy="433.7422" fill="#84BE84" rx="3" ry="3" style="stroke:#038048;stroke-width:1.0;"/><text fill="#000000" font-family="sans-serif" font-size="14" lengthAdjust="spacing" textLength="196" x="83.5" y="437.0889">setHunterName(String): void</text><ellipse cx="74.5" cy="450.0391" fill="#84BE84" rx="3" ry="3" style="stroke:#038048;stroke-width:1.0;"/><text fill="#000000" font-family="sans-serif" font-size="14" lengthAdjust="spacing" textLength="98" x="83.5" y="453.3857">getWidth(): int</text><ellipse cx="74.5" cy="466.3359" fill="#84BE84" rx="3" ry="3" style="stroke:#038048;stroke-width:1.0;"/><text fill="#000000" font-family="sans-serif" font-size="14" lengthAdjust="spacing" textLength="104" x="83.5" y="469.6826">getHeight(): int</text><ellipse cx="74.5" cy="482.6328" fill="#84BE84" rx="3" ry="3" style="stroke:#038048;stroke-width:1.0;"/><text fill="#000000" font-family="sans-serif" font-size="14" lengthAdjust="spacing" textLength="156" x="83.5" y="485.9795">getMonster(): Monster</text><ellipse cx="74.5" cy="498.9297" fill="#84BE84" rx="3" ry="3" style="stroke:#038048;stroke-width:1.0;"/><text fill="#000000" font-family="sans-serif" font-size="14" lengthAdjust="spacing" textLength="136" x="83.5" y="502.2764">getHunter(): Hunter</text><rect fill="#F24D5C" height="6" style="stroke:#C82930;stroke-width:1.0;" width="6" x="71.5" y="512.2266"/><text fill="#000000" font-family="sans-serif" font-size="14" lengthAdjust="spacing" textLength="180" x="83.5" y="518.5732">initializeMaze(int, int): void</text><ellipse cx="74.5" cy="531.5234" fill="#84BE84" rx="3" ry="3" style="stroke:#038048;stroke-width:1.0;"/><text fill="#000000" font-family="sans-serif" font-size="14" lengthAdjust="spacing" textLength="139" x="83.5" y="534.8701">getMaze(): CellInfo[]</text><ellipse cx="74.5" cy="547.8203" fill="#84BE84" rx="3" ry="3" style="stroke:#038048;stroke-width:1.0;"/><text fill="#000000" font-family="sans-serif" font-size="14" lengthAdjust="spacing" textLength="123" x="83.5" y="551.167">getTurn(): Integer</text><ellipse cx="74.5" cy="564.1172" fill="#84BE84" rx="3" ry="3" style="stroke:#038048;stroke-width:1.0;"/><text fill="#000000" font-family="sans-serif" font-size="14" lengthAdjust="spacing" textLength="180" x="83.5" y="567.4639">getEntrance(): Coordinate</text><ellipse cx="74.5" cy="580.4141" fill="#84BE84" rx="3" ry="3" style="stroke:#038048;stroke-width:1.0;"/><text fill="#000000" font-family="sans-serif" font-size="14" lengthAdjust="spacing" textLength="142" x="83.5" y="583.7607">getExit(): Coordinate</text><ellipse cx="74.5" cy="596.7109" fill="#84BE84" rx="3" ry="3" style="stroke:#038048;stroke-width:1.0;"/><text fill="#000000" font-family="sans-serif" font-size="14" lengthAdjust="spacing" textLength="109" x="83.5" y="600.0576">nextTurn(): void</text><ellipse cx="74.5" cy="613.0078" fill="#84BE84" rx="3" ry="3" style="stroke:#038048;stroke-width:1.0;"/><text fill="#000000" font-family="sans-serif" font-size="14" lengthAdjust="spacing" textLength="148" x="83.5" y="616.3545">update(Subject): void</text><ellipse cx="74.5" cy="629.3047" fill="#84BE84" rx="3" ry="3" style="stroke:#038048;stroke-width:1.0;"/><text fill="#000000" font-family="sans-serif" font-size="14" lengthAdjust="spacing" textLength="201" x="83.5" y="632.6514">update(Subject, Object): void</text><rect fill="#F24D5C" height="6" style="stroke:#C82930;stroke-width:1.0;" width="6" x="71.5" y="642.6016"/><text fill="#000000" font-family="sans-serif" font-size="14" lengthAdjust="spacing" textLength="267" x="83.5" y="648.9482">writeObject(ObjectOutputStream): void</text><rect fill="#F24D5C" height="6" style="stroke:#C82930;stroke-width:1.0;" width="6" x="71.5" y="658.8984"/><text fill="#000000" font-family="sans-serif" font-size="14" lengthAdjust="spacing" textLength="252" x="83.5" y="665.2451">readObject(ObjectInputStream): void</text></g></a><!--class SubjectObserver.Subject--><g id="elem_SubjectObserver.Subject"><rect codeLine="37" fill="#F1F1F1" height="37.9375" id="SubjectObserver.Subject" rx="2.5" ry="2.5" style="stroke:#181818;stroke-width:0.5;" width="114" x="7" y="27.5"/><ellipse cx="22" cy="46.4688" fill="#A9DCDF" rx="11" ry="11" style="stroke:#181818;stroke-width:1.0;"/><path d="M22.1094,41.8125 L20.9531,46.8906 L23.2813,46.8906 L22.1094,41.8125 Z M20.625,39.5781 L23.6094,39.5781 L26.9688,51.9688 L24.5156,51.9688 L23.75,48.9063 L20.4688,48.9063 L19.7188,51.9688 L17.2813,51.9688 L20.625,39.5781 Z " fill="#000000"/><text fill="#000000" font-family="sans-serif" font-size="14" font-style="italic" lengthAdjust="spacing" textLength="52" x="51" y="45.4951">Subject</text><text fill="#000000" font-family="sans-serif" font-size="10" font-style="italic" lengthAdjust="spacing" textLength="82" x="36" y="58.0791">SubjectObserver</text></g><!--class java.io.Serializable--><g id="elem_java.io.Serializable"><rect codeLine="38" fill="#F1F1F1" height="37.9375" id="java.io.Serializable" rx="2.5" ry="2.5" style="stroke:#181818;stroke-width:0.5;" width="108" x="156" y="27.5"/><ellipse cx="171" cy="46.4688" fill="#B4A7E5" rx="11" ry="11" style="stroke:#181818;stroke-width:1.0;"/><path d="M166.9219,42.2344 L166.9219,40.0781 L174.3125,40.0781 L174.3125,42.2344 L171.8438,42.2344 L171.8438,50.3125 L174.3125,50.3125 L174.3125,52.4688 L166.9219,52.4688 L166.9219,50.3125 L169.3906,50.3125 L169.3906,42.2344 L166.9219,42.2344 Z " fill="#000000"/><text fill="#000000" font-family="sans-serif" font-size="14" font-style="italic" lengthAdjust="spacing" textLength="76" x="185" y="45.4951">Serializable</text><text fill="#000000" font-family="sans-serif" font-size="10" font-style="italic" lengthAdjust="spacing" textLength="33" x="206.5" y="58.0791">java.io</text></g><!--class SubjectObserver.Observer--><g id="elem_SubjectObserver.Observer"><rect codeLine="39" fill="#F1F1F1" height="78.5313" id="SubjectObserver.Observer" rx="2.5" ry="2.5" style="stroke:#181818;stroke-width:0.5;" width="228" x="299" y="7"/><ellipse cx="367.75" cy="25.9688" fill="#B4A7E5" rx="11" ry="11" style="stroke:#181818;stroke-width:1.0;"/><path d="M363.6719,21.7344 L363.6719,19.5781 L371.0625,19.5781 L371.0625,21.7344 L368.5938,21.7344 L368.5938,29.8125 L371.0625,29.8125 L371.0625,31.9688 L363.6719,31.9688 L363.6719,29.8125 L366.1406,29.8125 L366.1406,21.7344 L363.6719,21.7344 Z " fill="#000000"/><text fill="#000000" font-family="sans-serif" font-size="14" font-style="italic" lengthAdjust="spacing" textLength="63" x="397.75" y="24.9951">Observer</text><text fill="#000000" font-family="sans-serif" font-size="10" font-style="italic" lengthAdjust="spacing" textLength="82" x="388.25" y="37.5791">SubjectObserver</text><line style="stroke:#181818;stroke-width:0.5;" x1="300" x2="526" y1="44.9375" y2="44.9375"/><ellipse cx="310" cy="58.5859" fill="#84BE84" rx="3" ry="3" style="stroke:#038048;stroke-width:1.0;"/><text fill="#000000" font-family="sans-serif" font-size="14" font-style="italic" lengthAdjust="spacing" textLength="149" x="319" y="61.9326">update(Subject): void</text><ellipse cx="310" cy="74.8828" fill="#84BE84" rx="3" ry="3" style="stroke:#038048;stroke-width:1.0;"/><text fill="#000000" font-family="sans-serif" font-size="14" font-style="italic" lengthAdjust="spacing" textLength="202" x="319" y="78.2295">update(Subject, Object): void</text></g><!--reverse link SubjectObserver.Subject to chasseaumonstre.model.MonsterHunterModel--><g id="link_SubjectObserver.Subject_chasseaumonstre.model.MonsterHunterModel"><path codeLine="44" d="M79.02,84.64 C85.74,101.26 94.29,122.4 103.8,145.91 " fill="none" id="SubjectObserver.Subject-backto-chasseaumonstre.model.MonsterHunterModel" style="stroke:#181818;stroke-width:1.0;"/><polygon fill="none" points="72.45,87.06,71.44,65.9,85.43,81.81,72.45,87.06" style="stroke:#181818;stroke-width:1.0;"/></g><!--reverse link java.io.Serializable to chasseaumonstre.model.MonsterHunterModel--><g id="link_java.io.Serializable_chasseaumonstre.model.MonsterHunterModel"><path codeLine="45" d="M210,86.05 C210,102.44 210,123.06 210,145.91 " fill="none" id="java.io.Serializable-backto-chasseaumonstre.model.MonsterHunterModel" style="stroke:#181818;stroke-width:1.0;stroke-dasharray:7.0,7.0;"/><polygon fill="none" points="203,85.9,210,65.9,217,85.9,203,85.9" style="stroke:#181818;stroke-width:1.0;"/></g><!--reverse link SubjectObserver.Observer to chasseaumonstre.model.MonsterHunterModel--><g id="link_SubjectObserver.Observer_chasseaumonstre.model.MonsterHunterModel"><path codeLine="46" d="M381.45,103.6 C374.02,116.82 365.61,131.77 356.61,147.78 " fill="none" id="SubjectObserver.Observer-backto-chasseaumonstre.model.MonsterHunterModel" style="stroke:#181818;stroke-width:1.0;stroke-dasharray:7.0,7.0;"/><polygon fill="none" points="375.37,100.14,391.28,86.13,387.57,107,375.37,100.14" style="stroke:#181818;stroke-width:1.0;"/></g><text fill="#888888" font-family="sans-serif" font-size="10" lengthAdjust="spacing" textLength="186" x="167" y="687.8291">UMLDoclet 2.1.0, PlantUML 1.2022.14</text><!--SRC=[bLLDRvj04BttLumYLR8L6oLLJoZAfQqKItLToQrwS7nOmzXi1BlMxk2aJVFVExlWW65HQXyClFVsxNmi0m20HG8b2hHxaU0Izy88qWQKLlYEQSXaYe35ddx3LcAUsYvQ86MQOOydkR0MBcwi_8FnzSVRkLQMqDoLYl_dEiNyNjNarMsIiHX5MJYHmQXm_0K82q4cwfl1QjK7euoAVBs6Pn-H-qqBmJl29yppcThgrRfXg3GgXXaltg5fu4UPKXQ3LDHW6SfTHXsmgBR_nXMCOKb6gbrhXGygpDKBOwWJwAwAeKgfmL6H4IfnYMXjKga4OOjzaXHaBliL6d4A4vV7k57jaEPDBgDnB-9BUwgeQDOTj4nFVEvUqnwmQGc6NNwv5ZY3ThszlUz3YAd3SrItgarSZksMLYf9KkHyBkTyKfho1CBoWd7mC3dw1vydHtTFbEE-r0tqomEDSXBkuX2jyEdL_ZIiSf-oShGiDm-Oq1lq11P1sVJHICAA6rMNHKdxahX5A8gUdC7qH3rJGV5BDHd4XjzaaL1lHDHXjUP2ZIms5iq1ZPy87IogdxsrTCtSylXgkwBn3HMR75lM3-8W8gczPNqVjQM3ViUDpmppUDCQHi_7IhoyrRXXPQY7TPq72WKtVwVJ_vwhtYbK7xQ9elDi1ajodbNrUK47m5PhT_av__fP9pb_m3v4rz7L1BxdGX6Zy9xzhTJyglm3]--></g></svg>