<?xml version="1.0" encoding="UTF-8" standalone="no"?><svg xmlns="http://www.w3.org/2000/svg" xmlns:xlink="http://www.w3.org/1999/xlink" contentStyleType="text/css" height="907px" preserveAspectRatio="none" style="width:2195px;height:907px;background:#FFFFFF;" version="1.1" viewBox="0 0 2195 907" width="2195px" zoomAndPan="magnify"><defs/><g><!--cluster chasseaumonstre.model--><g id="cluster_chasseaumonstre.model"><path d="M747.5,187 L942.5,187 A3.75,3.75 0 0 1 945,189.5 L952,209.2969 L1882.5,209.2969 A2.5,2.5 0 0 1 1885,211.7969 L1885,879.5 A2.5,2.5 0 0 1 1882.5,882 L747.5,882 A2.5,2.5 0 0 1 745,879.5 L745,189.5 A2.5,2.5 0 0 1 747.5,187 " fill="none" style="stroke:#000000;stroke-width:1.5;"/><line style="stroke:#000000;stroke-width:1.5;" x1="745" x2="952" y1="209.2969" y2="209.2969"/><text fill="#000000" font-family="sans-serif" font-size="14" font-weight="bold" lengthAdjust="spacing" textLength="194" x="749" y="201.9951">chasseaumonstre.model</text></g><!--cluster fr.univlille.iutinfo.cam.player.perception--><g id="cluster_fr.univlille.iutinfo.cam.player.perception"><path d="M1817.5,6 L2132.5,6 A3.75,3.75 0 0 1 2135,8.5 L2142,28.2969 L2185.5,28.2969 A2.5,2.5 0 0 1 2188,30.7969 L2188,151.5 A2.5,2.5 0 0 1 2185.5,154 L1817.5,154 A2.5,2.5 0 0 1 1815,151.5 L1815,8.5 A2.5,2.5 0 0 1 1817.5,6 " fill="none" style="stroke:#000000;stroke-width:1.5;"/><line style="stroke:#000000;stroke-width:1.5;" x1="1815" x2="2142" y1="28.2969" y2="28.2969"/><text fill="#000000" font-family="sans-serif" font-size="14" font-weight="bold" lengthAdjust="spacing" textLength="314" x="1819" y="20.9951">fr.univlille.iutinfo.cam.player.perception</text></g><!--cluster java.io--><g id="cluster_java.io"><path d="M1340.5,30.5 L1391.5,30.5 A3.75,3.75 0 0 1 1394,33 L1401,52.7969 L1475.5,52.7969 A2.5,2.5 0 0 1 1478,55.2969 L1478,127 A2.5,2.5 0 0 1 1475.5,129.5 L1340.5,129.5 A2.5,2.5 0 0 1 1338,127 L1338,33 A2.5,2.5 0 0 1 1340.5,30.5 " fill="none" style="stroke:#000000;stroke-width:1.5;"/><line style="stroke:#000000;stroke-width:1.5;" x1="1338" x2="1401" y1="52.7969" y2="52.7969"/><text fill="#000000" font-family="sans-serif" font-size="14" font-weight="bold" lengthAdjust="spacing" textLength="50" x="1342" y="45.4951">java.io</text></g><!--cluster SubjectObserver--><g id="cluster_SubjectObserver"><path d="M691.5,14 L825.5,14 A3.75,3.75 0 0 1 828,16.5 L835,36.2969 L1187.5,36.2969 A2.5,2.5 0 0 1 1190,38.7969 L1190,143.5 A2.5,2.5 0 0 1 1187.5,146 L691.5,146 A2.5,2.5 0 0 1 689,143.5 L689,16.5 A2.5,2.5 0 0 1 691.5,14 " fill="none" style="stroke:#000000;stroke-width:1.5;"/><line style="stroke:#000000;stroke-width:1.5;" x1="689" x2="835" y1="36.2969" y2="36.2969"/><text fill="#000000" font-family="sans-serif" font-size="14" font-weight="bold" lengthAdjust="spacing" textLength="133" x="693" y="28.9951">SubjectObserver</text></g><!--cluster chasseaumonstre.model.strategy.monster--><g id="cluster_chasseaumonstre.model.strategy.monster"><path d="M8.5,726 L345.5,726 A3.75,3.75 0 0 1 348,728.5 L355,748.2969 L355.5,748.2969 A2.5,2.5 0 0 1 358,750.7969 L358,822.5 A2.5,2.5 0 0 1 355.5,825 L8.5,825 A2.5,2.5 0 0 1 6,822.5 L6,728.5 A2.5,2.5 0 0 1 8.5,726 " fill="none" style="stroke:#000000;stroke-width:1.5;"/><line style="stroke:#000000;stroke-width:1.5;" x1="6" x2="355" y1="748.2969" y2="748.2969"/><text fill="#000000" font-family="sans-serif" font-size="14" font-weight="bold" lengthAdjust="spacing" textLength="336" x="10" y="740.9951">chasseaumonstre.model.strategy.monster</text></g><!--cluster chasseaumonstre.model.strategy.hunter--><g id="cluster_chasseaumonstre.model.strategy.hunter"><path d="M384.5,726 L708.5,726 A3.75,3.75 0 0 1 711,728.5 L718,748.2969 L718.5,748.2969 A2.5,2.5 0 0 1 721,750.7969 L721,822.5 A2.5,2.5 0 0 1 718.5,825 L384.5,825 A2.5,2.5 0 0 1 382,822.5 L382,728.5 A2.5,2.5 0 0 1 384.5,726 " fill="none" style="stroke:#000000;stroke-width:1.5;"/><line style="stroke:#000000;stroke-width:1.5;" x1="382" x2="718" y1="748.2969" y2="748.2969"/><text fill="#000000" font-family="sans-serif" font-size="14" font-weight="bold" lengthAdjust="spacing" textLength="323" x="386" y="740.9951">chasseaumonstre.model.strategy.hunter</text></g><!--class chasseaumonstre.model.Coordinate--><a href="Coordinate.html" target="_top" title="Coordinate.html" xlink:actuate="onRequest" xlink:href="Coordinate.html" xlink:show="new" xlink:title="Coordinate.html" xlink:type="simple"><g id="elem_chasseaumonstre.model.Coordinate"><rect codeLine="3" fill="#F1F1F1" height="162.0781" id="chasseaumonstre.model.Coordinate" rx="2.5" ry="2.5" style="stroke:#181818;stroke-width:0.5;" width="293" x="1575.5" y="704"/><ellipse cx="1679.75" cy="720" fill="#ADD1B2" rx="11" ry="11" style="stroke:#181818;stroke-width:1.0;"/><path d="M1682.7188,725.6406 Q1682.1406,725.9375 1681.5,726.0781 Q1680.8594,726.2344 1680.1563,726.2344 Q1677.6563,726.2344 1676.3281,724.5938 Q1675.0156,722.9375 1675.0156,719.8125 Q1675.0156,716.6875 1676.3281,715.0313 Q1677.6563,713.375 1680.1563,713.375 Q1680.8594,713.375 1681.5,713.5313 Q1682.1563,713.6875 1682.7188,713.9844 L1682.7188,716.7031 Q1682.0938,716.125 1681.5,715.8594 Q1680.9063,715.5781 1680.2813,715.5781 Q1678.9375,715.5781 1678.25,716.6563 Q1677.5625,717.7188 1677.5625,719.8125 Q1677.5625,721.9063 1678.25,722.9844 Q1678.9375,724.0469 1680.2813,724.0469 Q1680.9063,724.0469 1681.5,723.7813 Q1682.0938,723.5 1682.7188,722.9219 L1682.7188,725.6406 Z " fill="#000000"/><text fill="#000000" font-family="sans-serif" font-size="14" lengthAdjust="spacing" textLength="76" x="1700.25" y="724.8467">Coordinate</text><line style="stroke:#181818;stroke-width:0.5;" x1="1576.5" x2="1867.5" y1="736" y2="736"/><rect fill="none" height="6" style="stroke:#C82930;stroke-width:1.0;" width="6" x="1583.5" y="746.6484"/><text fill="#000000" font-family="sans-serif" font-size="14" lengthAdjust="spacing" textLength="83" x="1595.5" y="752.9951">row: Integer</text><rect fill="none" height="6" style="stroke:#C82930;stroke-width:1.0;" width="6" x="1583.5" y="762.9453"/><text fill="#000000" font-family="sans-serif" font-size="14" lengthAdjust="spacing" textLength="78" x="1595.5" y="769.292">col: Integer</text><line style="stroke:#181818;stroke-width:0.5;" x1="1576.5" x2="1867.5" y1="776.5938" y2="776.5938"/><ellipse cx="1586.5" cy="790.2422" fill="#84BE84" rx="3" ry="3" style="stroke:#038048;stroke-width:1.0;"/><text fill="#000000" font-family="sans-serif" font-size="14" lengthAdjust="spacing" textLength="192" x="1595.5" y="793.5889">Coordinate(Integer, Integer)</text><ellipse cx="1586.5" cy="806.5391" fill="#84BE84" rx="3" ry="3" style="stroke:#038048;stroke-width:1.0;"/><text fill="#000000" font-family="sans-serif" font-size="14" lengthAdjust="spacing" textLength="89" x="1595.5" y="809.8857">getRow(): int</text><ellipse cx="1586.5" cy="822.8359" fill="#84BE84" rx="3" ry="3" style="stroke:#038048;stroke-width:1.0;"/><text fill="#000000" font-family="sans-serif" font-size="14" lengthAdjust="spacing" textLength="81" x="1595.5" y="826.1826">getCol(): int</text><rect fill="#F24D5C" height="6" style="stroke:#C82930;stroke-width:1.0;" width="6" x="1583.5" y="836.1328"/><text fill="#000000" font-family="sans-serif" font-size="14" lengthAdjust="spacing" textLength="267" x="1595.5" y="842.4795">writeObject(ObjectOutputStream): void</text><rect fill="#F24D5C" height="6" style="stroke:#C82930;stroke-width:1.0;" width="6" x="1583.5" y="852.4297"/><text fill="#000000" font-family="sans-serif" font-size="14" lengthAdjust="spacing" textLength="252" x="1595.5" y="858.7764">readObject(ObjectInputStream): void</text></g></a><!--class chasseaumonstre.model.MazeGenerator--><a href="MazeGenerator.html" target="_top" title="MazeGenerator.html" xlink:actuate="onRequest" xlink:href="MazeGenerator.html" xlink:show="new" xlink:title="MazeGenerator.html" xlink:type="simple"><g id="elem_chasseaumonstre.model.MazeGenerator"><rect codeLine="13" fill="#F1F1F1" height="227.2656" id="chasseaumonstre.model.MazeGenerator" rx="2.5" ry="2.5" style="stroke:#181818;stroke-width:0.5;" width="209" x="1659.5" y="303.5"/><ellipse cx="1706.25" cy="319.5" fill="#ADD1B2" rx="11" ry="11" style="stroke:#181818;stroke-width:1.0;"/><path d="M1709.2188,325.1406 Q1708.6406,325.4375 1708,325.5781 Q1707.3594,325.7344 1706.6563,325.7344 Q1704.1563,325.7344 1702.8281,324.0938 Q1701.5156,322.4375 1701.5156,319.3125 Q1701.5156,316.1875 1702.8281,314.5313 Q1704.1563,312.875 1706.6563,312.875 Q1707.3594,312.875 1708,313.0313 Q1708.6563,313.1875 1709.2188,313.4844 L1709.2188,316.2031 Q1708.5938,315.625 1708,315.3594 Q1707.4063,315.0781 1706.7813,315.0781 Q1705.4375,315.0781 1704.75,316.1563 Q1704.0625,317.2188 1704.0625,319.3125 Q1704.0625,321.4063 1704.75,322.4844 Q1705.4375,323.5469 1706.7813,323.5469 Q1707.4063,323.5469 1708,323.2813 Q1708.5938,323 1709.2188,322.4219 L1709.2188,325.1406 Z " fill="#000000"/><text fill="#000000" font-family="sans-serif" font-size="14" lengthAdjust="spacing" textLength="107" x="1726.75" y="324.3467">MazeGenerator</text><line style="stroke:#181818;stroke-width:0.5;" x1="1660.5" x2="1867.5" y1="335.5" y2="335.5"/><rect fill="none" height="6" style="stroke:#C82930;stroke-width:1.0;" width="6" x="1667.5" y="346.1484"/><text fill="#000000" font-family="sans-serif" font-size="14" lengthAdjust="spacing" textLength="63" x="1679.5" y="352.4951">width: int</text><rect fill="none" height="6" style="stroke:#C82930;stroke-width:1.0;" width="6" x="1667.5" y="362.4453"/><text fill="#000000" font-family="sans-serif" font-size="14" lengthAdjust="spacing" textLength="70" x="1679.5" y="368.792">height: int</text><rect fill="none" height="6" style="stroke:#C82930;stroke-width:1.0;" width="6" x="1667.5" y="378.7422"/><text fill="#000000" font-family="sans-serif" font-size="14" lengthAdjust="spacing" textLength="74" x="1679.5" y="385.0889">maze: int[]</text><rect fill="none" height="6" style="stroke:#C82930;stroke-width:1.0;" width="6" x="1667.5" y="395.0391"/><text fill="#000000" font-family="sans-serif" font-size="14" lengthAdjust="spacing" textLength="120" x="1679.5" y="401.3857">random: Random</text><line style="stroke:#181818;stroke-width:0.5;" x1="1660.5" x2="1867.5" y1="408.6875" y2="408.6875"/><ellipse cx="1670.5" cy="422.3359" fill="#84BE84" rx="3" ry="3" style="stroke:#038048;stroke-width:1.0;"/><text fill="#000000" font-family="sans-serif" font-size="14" lengthAdjust="spacing" textLength="159" x="1679.5" y="425.6826">MazeGenerator(int, int)</text><ellipse cx="1670.5" cy="438.6328" fill="#84BE84" rx="3" ry="3" style="stroke:#038048;stroke-width:1.0;"/><text fill="#000000" font-family="sans-serif" font-size="14" lengthAdjust="spacing" textLength="106" x="1679.5" y="441.9795">getMaze(): int[]</text><ellipse cx="1670.5" cy="454.9297" fill="#84BE84" rx="3" ry="3" style="stroke:#038048;stroke-width:1.0;"/><text fill="#000000" font-family="sans-serif" font-size="14" lengthAdjust="spacing" textLength="110" x="1679.5" y="458.2764">generate(): void</text><rect fill="#F24D5C" height="6" style="stroke:#C82930;stroke-width:1.0;" width="6" x="1667.5" y="468.2266"/><text fill="#000000" font-family="sans-serif" font-size="14" lengthAdjust="spacing" textLength="183" x="1679.5" y="474.5732">generatePath(int, int): void</text><ellipse cx="1670.5" cy="487.5234" fill="#84BE84" rx="3" ry="3" style="stroke:#038048;stroke-width:1.0;"/><text fill="#000000" font-family="sans-serif" font-size="14" lengthAdjust="spacing" textLength="151" x="1679.5" y="490.8701">getEntranceRow(): int</text><ellipse cx="1670.5" cy="503.8203" fill="#84BE84" rx="3" ry="3" style="stroke:#038048;stroke-width:1.0;"/><text fill="#000000" font-family="sans-serif" font-size="14" lengthAdjust="spacing" textLength="113" x="1679.5" y="507.167">getExitRow(): int</text><ellipse cx="1670.5" cy="520.1172" fill="#84BE84" rx="3" ry="3" style="stroke:#038048;stroke-width:1.0;"/><text fill="#000000" font-family="sans-serif" font-size="14" lengthAdjust="spacing" textLength="143" x="1679.5" y="523.4639">toCellInfo(): CellInfo[]</text></g></a><!--class chasseaumonstre.model.MazeValidator--><a href="MazeValidator.html" target="_top" title="MazeValidator.html" xlink:actuate="onRequest" xlink:href="MazeValidator.html" xlink:show="new" xlink:title="MazeValidator.html" xlink:type="simple"><g id="elem_chasseaumonstre.model.MazeValidator"><rect codeLine="27" fill="#F1F1F1" height="227.2656" id="chasseaumonstre.model.MazeValidator" rx="2.5" ry="2.5" style="stroke:#181818;stroke-width:0.5;" width="209" x="1415.5" y="303.5"/><ellipse cx="1467.75" cy="319.5" fill="#ADD1B2" rx="11" ry="11" style="stroke:#181818;stroke-width:1.0;"/><path d="M1470.7188,325.1406 Q1470.1406,325.4375 1469.5,325.5781 Q1468.8594,325.7344 1468.1563,325.7344 Q1465.6563,325.7344 1464.3281,324.0938 Q1463.0156,322.4375 1463.0156,319.3125 Q1463.0156,316.1875 1464.3281,314.5313 Q1465.6563,312.875 1468.1563,312.875 Q1468.8594,312.875 1469.5,313.0313 Q1470.1563,313.1875 1470.7188,313.4844 L1470.7188,316.2031 Q1470.0938,315.625 1469.5,315.3594 Q1468.9063,315.0781 1468.2813,315.0781 Q1466.9375,315.0781 1466.25,316.1563 Q1465.5625,317.2188 1465.5625,319.3125 Q1465.5625,321.4063 1466.25,322.4844 Q1466.9375,323.5469 1468.2813,323.5469 Q1468.9063,323.5469 1469.5,323.2813 Q1470.0938,323 1470.7188,322.4219 L1470.7188,325.1406 Z " fill="#000000"/><text fill="#000000" font-family="sans-serif" font-size="14" lengthAdjust="spacing" textLength="96" x="1488.25" y="324.3467">MazeValidator</text><line style="stroke:#181818;stroke-width:0.5;" x1="1416.5" x2="1623.5" y1="335.5" y2="335.5"/><rect fill="none" height="6" style="stroke:#C82930;stroke-width:1.0;" width="6" x="1423.5" y="346.1484"/><text fill="#000000" font-family="sans-serif" font-size="14" lengthAdjust="spacing" textLength="63" x="1435.5" y="352.4951">width: int</text><rect fill="none" height="6" style="stroke:#C82930;stroke-width:1.0;" width="6" x="1423.5" y="362.4453"/><text fill="#000000" font-family="sans-serif" font-size="14" lengthAdjust="spacing" textLength="70" x="1435.5" y="368.792">height: int</text><rect fill="none" height="6" style="stroke:#C82930;stroke-width:1.0;" width="6" x="1423.5" y="378.7422"/><text fill="#000000" font-family="sans-serif" font-size="14" lengthAdjust="spacing" textLength="74" x="1435.5" y="385.0889">maze: int[]</text><rect fill="none" height="6" style="stroke:#C82930;stroke-width:1.0;" width="6" x="1423.5" y="395.0391"/><text fill="#000000" font-family="sans-serif" font-size="14" lengthAdjust="spacing" textLength="119" x="1435.5" y="401.3857">visited: boolean[]</text><line style="stroke:#181818;stroke-width:0.5;" x1="1416.5" x2="1623.5" y1="408.6875" y2="408.6875"/><ellipse cx="1426.5" cy="422.3359" fill="#84BE84" rx="3" ry="3" style="stroke:#038048;stroke-width:1.0;"/><text fill="#000000" font-family="sans-serif" font-size="14" lengthAdjust="spacing" textLength="183" x="1435.5" y="425.6826">MazeValidator(int, int, int[])</text><ellipse cx="1426.5" cy="438.6328" fill="#84BE84" rx="3" ry="3" style="stroke:#038048;stroke-width:1.0;"/><text fill="#000000" font-family="sans-serif" font-size="14" lengthAdjust="spacing" textLength="133" x="1435.5" y="441.9795">setMaze(int[]): void</text><ellipse cx="1426.5" cy="454.9297" fill="#84BE84" rx="3" ry="3" style="stroke:#038048;stroke-width:1.0;"/><text fill="#000000" font-family="sans-serif" font-size="14" lengthAdjust="spacing" textLength="106" x="1435.5" y="458.2764">getMaze(): int[]</text><rect fill="#F24D5C" height="6" style="stroke:#C82930;stroke-width:1.0;" width="6" x="1423.5" y="468.2266"/><text fill="#000000" font-family="sans-serif" font-size="14" lengthAdjust="spacing" textLength="147" x="1435.5" y="474.5732">initializeVisited(): void</text><rect fill="#F24D5C" height="6" style="stroke:#C82930;stroke-width:1.0;" width="6" x="1423.5" y="484.5234"/><text fill="#000000" font-family="sans-serif" font-size="14" lengthAdjust="spacing" textLength="121" x="1435.5" y="490.8701">getEntrance(): int</text><ellipse cx="1426.5" cy="503.8203" fill="#84BE84" rx="3" ry="3" style="stroke:#038048;stroke-width:1.0;"/><text fill="#000000" font-family="sans-serif" font-size="14" lengthAdjust="spacing" textLength="118" x="1435.5" y="507.167">isValid(): boolean</text><rect fill="#F24D5C" height="6" style="stroke:#C82930;stroke-width:1.0;" width="6" x="1423.5" y="517.1172"/><text fill="#000000" font-family="sans-serif" font-size="14" lengthAdjust="spacing" textLength="138" x="1435.5" y="523.4639">dfs(int, int): boolean</text></g></a><!--class chasseaumonstre.model.MonsterHunterModel--><a href="MonsterHunterModel.html" target="_top" title="MonsterHunterModel.html" xlink:actuate="onRequest" xlink:href="MonsterHunterModel.html" xlink:show="new" xlink:title="MonsterHunterModel.html" xlink:type="simple"><g id="elem_chasseaumonstre.model.MonsterHunterModel"><rect codeLine="41" fill="#F1F1F1" height="390.2344" id="chasseaumonstre.model.MonsterHunterModel" rx="2.5" ry="2.5" style="stroke:#181818;stroke-width:0.5;" width="293" x="761.5" y="222"/><ellipse cx="830.75" cy="238" fill="#ADD1B2" rx="11" ry="11" style="stroke:#181818;stroke-width:1.0;"/><path d="M833.7188,243.6406 Q833.1406,243.9375 832.5,244.0781 Q831.8594,244.2344 831.1563,244.2344 Q828.6563,244.2344 827.3281,242.5938 Q826.0156,240.9375 826.0156,237.8125 Q826.0156,234.6875 827.3281,233.0313 Q828.6563,231.375 831.1563,231.375 Q831.8594,231.375 832.5,231.5313 Q833.1563,231.6875 833.7188,231.9844 L833.7188,234.7031 Q833.0938,234.125 832.5,233.8594 Q831.9063,233.5781 831.2813,233.5781 Q829.9375,233.5781 829.25,234.6563 Q828.5625,235.7188 828.5625,237.8125 Q828.5625,239.9063 829.25,240.9844 Q829.9375,242.0469 831.2813,242.0469 Q831.9063,242.0469 832.5,241.7813 Q833.0938,241.5 833.7188,240.9219 L833.7188,243.6406 Z " fill="#000000"/><text fill="#000000" font-family="sans-serif" font-size="14" lengthAdjust="spacing" textLength="146" x="851.25" y="242.8467">MonsterHunterModel</text><line style="stroke:#181818;stroke-width:0.5;" x1="762.5" x2="1053.5" y1="254" y2="254"/><rect fill="none" height="6" style="stroke:#C82930;stroke-width:1.0;" width="6" x="769.5" y="264.6484"/><text fill="#000000" font-family="sans-serif" font-size="14" lengthAdjust="spacing" textLength="107" x="781.5" y="270.9951">maze: CellInfo[]</text><rect fill="none" height="6" style="stroke:#C82930;stroke-width:1.0;" width="6" x="769.5" y="280.9453"/><text fill="#000000" font-family="sans-serif" font-size="14" lengthAdjust="spacing" textLength="86" x="781.5" y="287.292">turn: Integer</text><rect fill="none" height="6" style="stroke:#C82930;stroke-width:1.0;" width="6" x="769.5" y="297.2422"/><text fill="#000000" font-family="sans-serif" font-size="14" lengthAdjust="spacing" textLength="63" x="781.5" y="303.5889">width: int</text><rect fill="none" height="6" style="stroke:#C82930;stroke-width:1.0;" width="6" x="769.5" y="313.5391"/><text fill="#000000" font-family="sans-serif" font-size="14" lengthAdjust="spacing" textLength="70" x="781.5" y="319.8857">height: int</text><rect fill="none" height="6" style="stroke:#C82930;stroke-width:1.0;" width="6" x="769.5" y="329.8359"/><text fill="#000000" font-family="sans-serif" font-size="14" lengthAdjust="spacing" textLength="147" x="781.5" y="336.1826">monsterName: String</text><rect fill="none" height="6" style="stroke:#C82930;stroke-width:1.0;" width="6" x="769.5" y="346.1328"/><text fill="#000000" font-family="sans-serif" font-size="14" lengthAdjust="spacing" textLength="135" x="781.5" y="352.4795">hunterName: String</text><line style="stroke:#181818;stroke-width:0.5;" x1="762.5" x2="1053.5" y1="359.7813" y2="359.7813"/><ellipse cx="772.5" cy="373.4297" fill="#84BE84" rx="3" ry="3" style="stroke:#038048;stroke-width:1.0;"/><text fill="#000000" font-family="sans-serif" font-size="14" lengthAdjust="spacing" textLength="198" x="781.5" y="376.7764">MonsterHunterModel(int, int)</text><ellipse cx="772.5" cy="389.7266" fill="#84BE84" rx="3" ry="3" style="stroke:#038048;stroke-width:1.0;"/><text fill="#000000" font-family="sans-serif" font-size="14" lengthAdjust="spacing" textLength="179" x="781.5" y="393.0732">getMonsterName(): String</text><ellipse cx="772.5" cy="406.0234" fill="#84BE84" rx="3" ry="3" style="stroke:#038048;stroke-width:1.0;"/><text fill="#000000" font-family="sans-serif" font-size="14" lengthAdjust="spacing" textLength="206" x="781.5" y="409.3701">setMonsterName(String): void</text><ellipse cx="772.5" cy="422.3203" fill="#84BE84" rx="3" ry="3" style="stroke:#038048;stroke-width:1.0;"/><text fill="#000000" font-family="sans-serif" font-size="14" lengthAdjust="spacing" textLength="169" x="781.5" y="425.667">getHunterName(): String</text><ellipse cx="772.5" cy="438.6172" fill="#84BE84" rx="3" ry="3" style="stroke:#038048;stroke-width:1.0;"/><text fill="#000000" font-family="sans-serif" font-size="14" lengthAdjust="spacing" textLength="196" x="781.5" y="441.9639">setHunterName(String): void</text><ellipse cx="772.5" cy="454.9141" fill="#84BE84" rx="3" ry="3" style="stroke:#038048;stroke-width:1.0;"/><text fill="#000000" font-family="sans-serif" font-size="14" lengthAdjust="spacing" textLength="98" x="781.5" y="458.2607">getWidth(): int</text><ellipse cx="772.5" cy="471.2109" fill="#84BE84" rx="3" ry="3" style="stroke:#038048;stroke-width:1.0;"/><text fill="#000000" font-family="sans-serif" font-size="14" lengthAdjust="spacing" textLength="104" x="781.5" y="474.5576">getHeight(): int</text><rect fill="#F24D5C" height="6" style="stroke:#C82930;stroke-width:1.0;" width="6" x="769.5" y="484.5078"/><text fill="#000000" font-family="sans-serif" font-size="14" lengthAdjust="spacing" textLength="180" x="781.5" y="490.8545">initializeMaze(int, int): void</text><ellipse cx="772.5" cy="503.8047" fill="#84BE84" rx="3" ry="3" style="stroke:#038048;stroke-width:1.0;"/><text fill="#000000" font-family="sans-serif" font-size="14" lengthAdjust="spacing" textLength="139" x="781.5" y="507.1514">getMaze(): CellInfo[]</text><ellipse cx="772.5" cy="520.1016" fill="#84BE84" rx="3" ry="3" style="stroke:#038048;stroke-width:1.0;"/><text fill="#000000" font-family="sans-serif" font-size="14" lengthAdjust="spacing" textLength="123" x="781.5" y="523.4482">getTurn(): Integer</text><ellipse cx="772.5" cy="536.3984" fill="#84BE84" rx="3" ry="3" style="stroke:#038048;stroke-width:1.0;"/><text fill="#000000" font-family="sans-serif" font-size="14" lengthAdjust="spacing" textLength="109" x="781.5" y="539.7451">nextTurn(): void</text><ellipse cx="772.5" cy="552.6953" fill="#84BE84" rx="3" ry="3" style="stroke:#038048;stroke-width:1.0;"/><text fill="#000000" font-family="sans-serif" font-size="14" lengthAdjust="spacing" textLength="148" x="781.5" y="556.042">update(Subject): void</text><ellipse cx="772.5" cy="568.9922" fill="#84BE84" rx="3" ry="3" style="stroke:#038048;stroke-width:1.0;"/><text fill="#000000" font-family="sans-serif" font-size="14" lengthAdjust="spacing" textLength="201" x="781.5" y="572.3389">update(Subject, Object): void</text><rect fill="#F24D5C" height="6" style="stroke:#C82930;stroke-width:1.0;" width="6" x="769.5" y="582.2891"/><text fill="#000000" font-family="sans-serif" font-size="14" lengthAdjust="spacing" textLength="267" x="781.5" y="588.6357">writeObject(ObjectOutputStream): void</text><rect fill="#F24D5C" height="6" style="stroke:#C82930;stroke-width:1.0;" width="6" x="769.5" y="598.5859"/><text fill="#000000" font-family="sans-serif" font-size="14" lengthAdjust="spacing" textLength="252" x="781.5" y="604.9326">readObject(ObjectInputStream): void</text></g></a><!--class chasseaumonstre.model.CellEvent--><a href="CellEvent.html" target="_top" title="CellEvent.html" xlink:actuate="onRequest" xlink:href="CellEvent.html" xlink:show="new" xlink:title="CellEvent.html" xlink:type="simple"><g id="elem_chasseaumonstre.model.CellEvent"><rect codeLine="65" fill="#F1F1F1" height="129.4844" id="chasseaumonstre.model.CellEvent" rx="2.5" ry="2.5" style="stroke:#181818;stroke-width:0.5;" width="291" x="1089.5" y="352.5"/><ellipse cx="1198.75" cy="368.5" fill="#ADD1B2" rx="11" ry="11" style="stroke:#181818;stroke-width:1.0;"/><path d="M1201.7188,374.1406 Q1201.1406,374.4375 1200.5,374.5781 Q1199.8594,374.7344 1199.1563,374.7344 Q1196.6563,374.7344 1195.3281,373.0938 Q1194.0156,371.4375 1194.0156,368.3125 Q1194.0156,365.1875 1195.3281,363.5313 Q1196.6563,361.875 1199.1563,361.875 Q1199.8594,361.875 1200.5,362.0313 Q1201.1563,362.1875 1201.7188,362.4844 L1201.7188,365.2031 Q1201.0938,364.625 1200.5,364.3594 Q1199.9063,364.0781 1199.2813,364.0781 Q1197.9375,364.0781 1197.25,365.1563 Q1196.5625,366.2188 1196.5625,368.3125 Q1196.5625,370.4063 1197.25,371.4844 Q1197.9375,372.5469 1199.2813,372.5469 Q1199.9063,372.5469 1200.5,372.2813 Q1201.0938,372 1201.7188,371.4219 L1201.7188,374.1406 Z " fill="#000000"/><text fill="#000000" font-family="sans-serif" font-size="14" lengthAdjust="spacing" textLength="64" x="1219.25" y="373.3467">CellEvent</text><line style="stroke:#181818;stroke-width:0.5;" x1="1090.5" x2="1379.5" y1="384.5" y2="384.5"/><rect fill="none" height="6" style="stroke:#C82930;stroke-width:1.0;" width="6" x="1097.5" y="395.1484"/><text fill="#000000" font-family="sans-serif" font-size="14" lengthAdjust="spacing" textLength="94" x="1109.5" y="401.4951">state: CellInfo</text><rect fill="none" height="6" style="stroke:#C82930;stroke-width:1.0;" width="6" x="1097.5" y="411.4453"/><text fill="#000000" font-family="sans-serif" font-size="14" lengthAdjust="spacing" textLength="86" x="1109.5" y="417.792">turn: Integer</text><line style="stroke:#181818;stroke-width:0.5;" x1="1090.5" x2="1379.5" y1="425.0938" y2="425.0938"/><ellipse cx="1100.5" cy="438.7422" fill="#84BE84" rx="3" ry="3" style="stroke:#038048;stroke-width:1.0;"/><text fill="#000000" font-family="sans-serif" font-size="14" lengthAdjust="spacing" textLength="265" x="1109.5" y="442.0889">CellEvent(CellInfo, Integer, Coordinate)</text><ellipse cx="1100.5" cy="455.0391" fill="#84BE84" rx="3" ry="3" style="stroke:#038048;stroke-width:1.0;"/><text fill="#000000" font-family="sans-serif" font-size="14" lengthAdjust="spacing" textLength="128" x="1109.5" y="458.3857">getState(): CellInfo</text><ellipse cx="1100.5" cy="471.3359" fill="#84BE84" rx="3" ry="3" style="stroke:#038048;stroke-width:1.0;"/><text fill="#000000" font-family="sans-serif" font-size="14" lengthAdjust="spacing" textLength="91" x="1109.5" y="474.6826">getTurn(): int</text></g></a><!--class fr.univlille.iutinfo.cam.player.perception.ICoordinate--><g id="elem_fr.univlille.iutinfo.cam.player.perception.ICoordinate"><rect codeLine="87" fill="#F1F1F1" height="80.5938" id="fr.univlille.iutinfo.cam.player.perception.ICoordinate" rx="2.5" ry="2.5" style="stroke:#181818;stroke-width:0.5;" width="115" x="2056.5" y="49"/><ellipse cx="2072.85" cy="65" fill="#B4A7E5" rx="11" ry="11" style="stroke:#181818;stroke-width:1.0;"/><path d="M2068.7719,60.7656 L2068.7719,58.6094 L2076.1625,58.6094 L2076.1625,60.7656 L2073.6938,60.7656 L2073.6938,68.8438 L2076.1625,68.8438 L2076.1625,71 L2068.7719,71 L2068.7719,68.8438 L2071.2406,68.8438 L2071.2406,60.7656 L2068.7719,60.7656 Z " fill="#000000"/><text fill="#000000" font-family="sans-serif" font-size="14" font-style="italic" lengthAdjust="spacing" textLength="80" x="2087.15" y="69.8467">ICoordinate</text><line style="stroke:#181818;stroke-width:0.5;" x1="2057.5" x2="2170.5" y1="81" y2="81"/><line style="stroke:#181818;stroke-width:0.5;" x1="2057.5" x2="2170.5" y1="89" y2="89"/><ellipse cx="2067.5" cy="102.6484" fill="#84BE84" rx="3" ry="3" style="stroke:#038048;stroke-width:1.0;"/><text fill="#000000" font-family="sans-serif" font-size="14" font-style="italic" lengthAdjust="spacing" textLength="89" x="2076.5" y="105.9951">getRow(): int</text><ellipse cx="2067.5" cy="118.9453" fill="#84BE84" rx="3" ry="3" style="stroke:#038048;stroke-width:1.0;"/><text fill="#000000" font-family="sans-serif" font-size="14" font-style="italic" lengthAdjust="spacing" textLength="81" x="2076.5" y="122.292">getCol(): int</text></g><!--class fr.univlille.iutinfo.cam.player.perception.ICellEvent--><g id="elem_fr.univlille.iutinfo.cam.player.perception.ICellEvent"><rect codeLine="91" fill="#F1F1F1" height="96.8906" id="fr.univlille.iutinfo.cam.player.perception.ICellEvent" rx="2.5" ry="2.5" style="stroke:#181818;stroke-width:0.5;" width="190" x="1831" y="41"/><ellipse cx="1887.25" cy="57" fill="#B4A7E5" rx="11" ry="11" style="stroke:#181818;stroke-width:1.0;"/><path d="M1883.1719,52.7656 L1883.1719,50.6094 L1890.5625,50.6094 L1890.5625,52.7656 L1888.0938,52.7656 L1888.0938,60.8438 L1890.5625,60.8438 L1890.5625,63 L1883.1719,63 L1883.1719,60.8438 L1885.6406,60.8438 L1885.6406,52.7656 L1883.1719,52.7656 Z " fill="#000000"/><text fill="#000000" font-family="sans-serif" font-size="14" font-style="italic" lengthAdjust="spacing" textLength="69" x="1907.75" y="61.8467">ICellEvent</text><line style="stroke:#181818;stroke-width:0.5;" x1="1832" x2="2020" y1="73" y2="73"/><line style="stroke:#181818;stroke-width:0.5;" x1="1832" x2="2020" y1="81" y2="81"/><ellipse cx="1842" cy="94.6484" fill="#84BE84" rx="3" ry="3" style="stroke:#038048;stroke-width:1.0;"/><text fill="#000000" font-family="sans-serif" font-size="14" font-style="italic" lengthAdjust="spacing" textLength="129" x="1851" y="97.9951">getState(): CellInfo</text><ellipse cx="1842" cy="110.9453" fill="#84BE84" rx="3" ry="3" style="stroke:#038048;stroke-width:1.0;"/><text fill="#000000" font-family="sans-serif" font-size="14" font-style="italic" lengthAdjust="spacing" textLength="91" x="1851" y="114.292">getTurn(): int</text><ellipse cx="1842" cy="127.2422" fill="#84BE84" rx="3" ry="3" style="stroke:#038048;stroke-width:1.0;"/><text fill="#000000" font-family="sans-serif" font-size="14" font-style="italic" lengthAdjust="spacing" textLength="164" x="1851" y="130.5889">getCoord(): ICoordinate</text></g><!--class java.io.Serializable--><g id="elem_java.io.Serializable"><rect codeLine="99" fill="#F1F1F1" height="48" id="java.io.Serializable" rx="2.5" ry="2.5" style="stroke:#181818;stroke-width:0.5;" width="108" x="1354" y="65.5"/><ellipse cx="1369" cy="81.5" fill="#B4A7E5" rx="11" ry="11" style="stroke:#181818;stroke-width:1.0;"/><path d="M1364.9219,77.2656 L1364.9219,75.1094 L1372.3125,75.1094 L1372.3125,77.2656 L1369.8438,77.2656 L1369.8438,85.3438 L1372.3125,85.3438 L1372.3125,87.5 L1364.9219,87.5 L1364.9219,85.3438 L1367.3906,85.3438 L1367.3906,77.2656 L1364.9219,77.2656 Z " fill="#000000"/><text fill="#000000" font-family="sans-serif" font-size="14" font-style="italic" lengthAdjust="spacing" textLength="76" x="1383" y="86.3467">Serializable</text><line style="stroke:#181818;stroke-width:0.5;" x1="1355" x2="1461" y1="97.5" y2="97.5"/><line style="stroke:#181818;stroke-width:0.5;" x1="1355" x2="1461" y1="105.5" y2="105.5"/></g><!--class SubjectObserver.Subject--><g id="elem_SubjectObserver.Subject"><rect codeLine="103" fill="#F1F1F1" height="64.2969" id="SubjectObserver.Subject" rx="2.5" ry="2.5" style="stroke:#181818;stroke-width:0.5;" width="206" x="705" y="57.5"/><ellipse cx="777.75" cy="73.5" fill="#A9DCDF" rx="11" ry="11" style="stroke:#181818;stroke-width:1.0;"/><path d="M777.8594,68.8438 L776.7031,73.9219 L779.0313,73.9219 L777.8594,68.8438 Z M776.375,66.6094 L779.3594,66.6094 L782.7188,79 L780.2656,79 L779.5,75.9375 L776.2188,75.9375 L775.4688,79 L773.0313,79 L776.375,66.6094 Z " fill="#000000"/><text fill="#000000" font-family="sans-serif" font-size="14" font-style="italic" lengthAdjust="spacing" textLength="52" x="798.25" y="78.3467">Subject</text><line style="stroke:#181818;stroke-width:0.5;" x1="706" x2="910" y1="89.5" y2="89.5"/><polygon fill="none" points="716,98.1484,720,102.1484,716,106.1484,712,102.1484" style="stroke:#B38D22;stroke-width:1.0;"/><text fill="#000000" font-family="sans-serif" font-size="14" lengthAdjust="spacing" textLength="180" x="725" y="106.4951">attached: List&lt;Observer&gt;</text><line style="stroke:#181818;stroke-width:0.5;" x1="706" x2="910" y1="113.7969" y2="113.7969"/></g><!--class SubjectObserver.Observer--><g id="elem_SubjectObserver.Observer"><rect codeLine="106" fill="#F1F1F1" height="80.5938" id="SubjectObserver.Observer" rx="2.5" ry="2.5" style="stroke:#181818;stroke-width:0.5;" width="228" x="946" y="49"/><ellipse cx="1024.25" cy="65" fill="#B4A7E5" rx="11" ry="11" style="stroke:#181818;stroke-width:1.0;"/><path d="M1020.1719,60.7656 L1020.1719,58.6094 L1027.5625,58.6094 L1027.5625,60.7656 L1025.0938,60.7656 L1025.0938,68.8438 L1027.5625,68.8438 L1027.5625,71 L1020.1719,71 L1020.1719,68.8438 L1022.6406,68.8438 L1022.6406,60.7656 L1020.1719,60.7656 Z " fill="#000000"/><text fill="#000000" font-family="sans-serif" font-size="14" font-style="italic" lengthAdjust="spacing" textLength="63" x="1044.75" y="69.8467">Observer</text><line style="stroke:#181818;stroke-width:0.5;" x1="947" x2="1173" y1="81" y2="81"/><line style="stroke:#181818;stroke-width:0.5;" x1="947" x2="1173" y1="89" y2="89"/><ellipse cx="957" cy="102.6484" fill="#84BE84" rx="3" ry="3" style="stroke:#038048;stroke-width:1.0;"/><text fill="#000000" font-family="sans-serif" font-size="14" font-style="italic" lengthAdjust="spacing" textLength="149" x="966" y="105.9951">update(Subject): void</text><ellipse cx="957" cy="118.9453" fill="#84BE84" rx="3" ry="3" style="stroke:#038048;stroke-width:1.0;"/><text fill="#000000" font-family="sans-serif" font-size="14" font-style="italic" lengthAdjust="spacing" textLength="202" x="966" y="122.292">update(Subject, Object): void</text></g><!--class chasseaumonstre.model.strategy.monster.Monster--><g id="elem_chasseaumonstre.model.strategy.monster.Monster"><rect fill="#F1F1F1" height="48" id="chasseaumonstre.model.strategy.monster.Monster" rx="2.5" ry="2.5" style="stroke:#181818;stroke-width:0.5;" width="89" x="253.5" y="761"/><ellipse cx="268.5" cy="777" fill="#ADD1B2" rx="11" ry="11" style="stroke:#181818;stroke-width:1.0;"/><path d="M271.4688,782.6406 Q270.8906,782.9375 270.25,783.0781 Q269.6094,783.2344 268.9063,783.2344 Q266.4063,783.2344 265.0781,781.5938 Q263.7656,779.9375 263.7656,776.8125 Q263.7656,773.6875 265.0781,772.0313 Q266.4063,770.375 268.9063,770.375 Q269.6094,770.375 270.25,770.5313 Q270.9063,770.6875 271.4688,770.9844 L271.4688,773.7031 Q270.8438,773.125 270.25,772.8594 Q269.6563,772.5781 269.0313,772.5781 Q267.6875,772.5781 267,773.6563 Q266.3125,774.7188 266.3125,776.8125 Q266.3125,778.9063 267,779.9844 Q267.6875,781.0469 269.0313,781.0469 Q269.6563,781.0469 270.25,780.7813 Q270.8438,780.5 271.4688,779.9219 L271.4688,782.6406 Z " fill="#000000"/><text fill="#000000" font-family="sans-serif" font-size="14" lengthAdjust="spacing" textLength="57" x="282.5" y="781.8467">Monster</text><line style="stroke:#181818;stroke-width:0.5;" x1="254.5" x2="341.5" y1="793" y2="793"/><line style="stroke:#181818;stroke-width:0.5;" x1="254.5" x2="341.5" y1="801" y2="801"/></g><!--class chasseaumonstre.model.strategy.hunter.Hunter--><g id="elem_chasseaumonstre.model.strategy.hunter.Hunter"><rect fill="#F1F1F1" height="48" id="chasseaumonstre.model.strategy.hunter.Hunter" rx="2.5" ry="2.5" style="stroke:#181818;stroke-width:0.5;" width="79" x="626.5" y="761"/><ellipse cx="641.5" cy="777" fill="#ADD1B2" rx="11" ry="11" style="stroke:#181818;stroke-width:1.0;"/><path d="M644.4688,782.6406 Q643.8906,782.9375 643.25,783.0781 Q642.6094,783.2344 641.9063,783.2344 Q639.4063,783.2344 638.0781,781.5938 Q636.7656,779.9375 636.7656,776.8125 Q636.7656,773.6875 638.0781,772.0313 Q639.4063,770.375 641.9063,770.375 Q642.6094,770.375 643.25,770.5313 Q643.9063,770.6875 644.4688,770.9844 L644.4688,773.7031 Q643.8438,773.125 643.25,772.8594 Q642.6563,772.5781 642.0313,772.5781 Q640.6875,772.5781 640,773.6563 Q639.3125,774.7188 639.3125,776.8125 Q639.3125,778.9063 640,779.9844 Q640.6875,781.0469 642.0313,781.0469 Q642.6563,781.0469 643.25,780.7813 Q643.8438,780.5 644.4688,779.9219 L644.4688,782.6406 Z " fill="#000000"/><text fill="#000000" font-family="sans-serif" font-size="14" lengthAdjust="spacing" textLength="47" x="655.5" y="781.8467">Hunter</text><line style="stroke:#181818;stroke-width:0.5;" x1="627.5" x2="704.5" y1="793" y2="793"/><line style="stroke:#181818;stroke-width:0.5;" x1="627.5" x2="704.5" y1="801" y2="801"/></g><!--reverse link fr.univlille.iutinfo.cam.player.perception.ICoordinate to chasseaumonstre.model.Coordinate--><g id="link_fr.univlille.iutinfo.cam.player.perception.ICoordinate_chasseaumonstre.model.Coordinate"><path codeLine="73" d="M2103.25,150.15 C2083.75,249.83 2036.96,454.8 1957,612 C1937.17,650.98 1903.91,683.26 1868.57,708.91 " fill="none" id="fr.univlille.iutinfo.cam.player.perception.ICoordinate-backto-chasseaumonstre.model.Coordinate" style="stroke:#181818;stroke-width:1.0;stroke-dasharray:7.0,7.0;"/><polygon fill="none" points="2096.43,148.58,2107.06,130.25,2110.18,151.21,2096.43,148.58" style="stroke:#181818;stroke-width:1.0;"/></g><!--reverse link java.io.Serializable to chasseaumonstre.model.Coordinate--><g id="link_java.io.Serializable_chasseaumonstre.model.Coordinate"><path codeLine="74" d="M1482.5,103.04 C1615.25,125.56 1879.54,171.23 1886,179 C2026.73,348.17 1992.17,487.74 1875,674 C1868.29,684.66 1860.14,694.6 1851.14,703.8 " fill="none" id="java.io.Serializable-backto-chasseaumonstre.model.Coordinate" style="stroke:#181818;stroke-width:1.0;stroke-dasharray:7.0,7.0;"/><polygon fill="none" points="1480.93,109.88,1462.38,99.64,1483.27,96.07,1480.93,109.88" style="stroke:#181818;stroke-width:1.0;"/></g><!--link chasseaumonstre.model.MazeGenerator to chasseaumonstre.model.Coordinate--><g id="link_chasseaumonstre.model.MazeGenerator_chasseaumonstre.model.Coordinate"><path codeLine="75" d="M1751.06,530.8 C1744.85,584.92 1737.53,648.69 1731.79,698.69 " fill="none" id="chasseaumonstre.model.MazeGenerator-to-chasseaumonstre.model.Coordinate" style="stroke:#181818;stroke-width:1.0;"/><polygon fill="#181818" points="1731.2,703.79,1736.1802,695.2931,1731.7584,698.8213,1728.2302,694.3996,1731.2,703.79" style="stroke:#181818;stroke-width:1.0;"/><text fill="#000000" font-family="sans-serif" font-size="13" lengthAdjust="spacing" textLength="127" x="1739" y="655.0669">entranceCoordinate</text><text fill="#000000" font-family="sans-serif" font-size="13" lengthAdjust="spacing" textLength="93" x="1756" y="670.1997">exitCoordinate</text></g><!--reverse link SubjectObserver.Subject to chasseaumonstre.model.MonsterHunterModel--><g id="link_SubjectObserver.Subject_chasseaumonstre.model.MonsterHunterModel"><path codeLine="76" d="M823.47,140.85 C830.45,163.56 839.18,191.99 848.36,221.89 " fill="none" id="SubjectObserver.Subject-backto-chasseaumonstre.model.MonsterHunterModel" style="stroke:#181818;stroke-width:1.0;"/><polygon fill="none" points="816.77,142.88,817.59,121.71,830.15,138.77,816.77,142.88" style="stroke:#181818;stroke-width:1.0;"/></g><!--reverse link java.io.Serializable to chasseaumonstre.model.MonsterHunterModel--><g id="link_java.io.Serializable_chasseaumonstre.model.MonsterHunterModel"><path codeLine="77" d="M1334.72,118.07 C1292.84,132.93 1239.05,150.52 1190,162 C1138.41,174.08 1117.05,151.11 1072,179 C1053.07,190.72 1035.76,205.53 1020.09,221.99 " fill="none" id="java.io.Serializable-backto-chasseaumonstre.model.MonsterHunterModel" style="stroke:#181818;stroke-width:1.0;stroke-dasharray:7.0,7.0;"/><polygon fill="none" points="1332.46,111.44,1353.65,111.25,1337.21,124.61,1332.46,111.44" style="stroke:#181818;stroke-width:1.0;"/></g><!--reverse link SubjectObserver.Observer to chasseaumonstre.model.MonsterHunterModel--><g id="link_SubjectObserver.Observer_chasseaumonstre.model.MonsterHunterModel"><path codeLine="78" d="M1032.96,148.41 C1023,169.74 1011.09,195.25 998.63,221.92 " fill="none" id="SubjectObserver.Observer-backto-chasseaumonstre.model.MonsterHunterModel" style="stroke:#181818;stroke-width:1.0;stroke-dasharray:7.0,7.0;"/><polygon fill="none" points="1026.71,145.25,1041.51,130.09,1039.39,151.17,1026.71,145.25" style="stroke:#181818;stroke-width:1.0;"/></g><!--link chasseaumonstre.model.MonsterHunterModel to chasseaumonstre.model.strategy.monster.Monster--><g id="link_chasseaumonstre.model.MonsterHunterModel_chasseaumonstre.model.strategy.monster.Monster"><path codeLine="79" d="M761.11,506.13 C623.62,588.63 426.86,706.68 340.92,758.25 " fill="none" id="chasseaumonstre.model.MonsterHunterModel-to-chasseaumonstre.model.strategy.monster.Monster" style="stroke:#181818;stroke-width:1.0;"/><polygon fill="#181818" points="336.41,760.95,346.1854,759.7495,340.6975,758.3775,342.0695,752.8896,336.41,760.95" style="stroke:#181818;stroke-width:1.0;"/><text fill="#000000" font-family="sans-serif" font-size="13" lengthAdjust="spacing" textLength="54" x="531" y="662.5669">monster</text></g><!--link chasseaumonstre.model.MonsterHunterModel to chasseaumonstre.model.strategy.hunter.Hunter--><g id="link_chasseaumonstre.model.MonsterHunterModel_chasseaumonstre.model.strategy.hunter.Hunter"><path codeLine="80" d="M779.56,612.25 C742.04,669 705.47,724.3 684.37,756.22 " fill="none" id="chasseaumonstre.model.MonsterHunterModel-to-chasseaumonstre.model.strategy.hunter.Hunter" style="stroke:#181818;stroke-width:1.0;"/><polygon fill="#181818" points="681.37,760.75,689.6696,755.4474,684.127,756.5788,682.9956,751.0362,681.37,760.75" style="stroke:#181818;stroke-width:1.0;"/><text fill="#000000" font-family="sans-serif" font-size="13" lengthAdjust="spacing" textLength="42" x="759" y="662.5669">hunter</text></g><!--link chasseaumonstre.model.MonsterHunterModel to chasseaumonstre.model.Coordinate--><g id="link_chasseaumonstre.model.MonsterHunterModel_chasseaumonstre.model.Coordinate"><path codeLine="81" d="M1054.7,600.08 C1060.36,604.3 1066.13,608.29 1072,612 C1225.05,708.78 1431.3,751.43 1570.07,770.01 " fill="none" id="chasseaumonstre.model.MonsterHunterModel-to-chasseaumonstre.model.Coordinate" style="stroke:#181818;stroke-width:1.0;"/><polygon fill="#181818" points="1575.39,770.71,1566.9937,765.562,1570.4334,770.0529,1565.9424,773.4926,1575.39,770.71" style="stroke:#181818;stroke-width:1.0;"/><text fill="#000000" font-family="sans-serif" font-size="13" lengthAdjust="spacing" textLength="57" x="1186" y="655.0669">entrance</text><text fill="#000000" font-family="sans-serif" font-size="13" lengthAdjust="spacing" textLength="23" x="1203" y="670.1997">exit</text></g><!--reverse link fr.univlille.iutinfo.cam.player.perception.ICellEvent to chasseaumonstre.model.CellEvent--><g id="link_fr.univlille.iutinfo.cam.player.perception.ICellEvent_chasseaumonstre.model.CellEvent"><path codeLine="82" d="M1810.96,108.64 C1658.26,132.88 1406.72,173.45 1398,179 C1333.35,220.18 1287.62,297.19 1261.37,352.25 " fill="none" id="fr.univlille.iutinfo.cam.player.perception.ICellEvent-backto-chasseaumonstre.model.CellEvent" style="stroke:#181818;stroke-width:1.0;stroke-dasharray:7.0,7.0;"/><polygon fill="none" points="1810.05,101.7,1830.9,105.48,1812.24,115.52,1810.05,101.7" style="stroke:#181818;stroke-width:1.0;"/></g><!--link chasseaumonstre.model.CellEvent to chasseaumonstre.model.Coordinate--><g id="link_chasseaumonstre.model.CellEvent_chasseaumonstre.model.Coordinate"><path codeLine="83" d="M1278.54,481.57 C1308.7,522.36 1351.65,574.52 1398,612 C1449.78,653.87 1513.31,690.23 1570.36,718.6 " fill="none" id="chasseaumonstre.model.CellEvent-to-chasseaumonstre.model.Coordinate" style="stroke:#181818;stroke-width:1.0;"/><polygon fill="#181818" points="1575.15,720.97,1568.8793,713.3754,1570.675,718.7397,1565.3107,720.5354,1575.15,720.97" style="stroke:#181818;stroke-width:1.0;"/><text fill="#000000" font-family="sans-serif" font-size="13" lengthAdjust="spacing" textLength="36" x="1481" y="662.5669">coord</text></g><text fill="#888888" font-family="sans-serif" font-size="10" lengthAdjust="spacing" textLength="186" x="997.5" y="897.2822">UMLDoclet 2.1.0, PlantUML 1.2022.14</text><!--SRC=[lLPRJzim57xdLrYQ9XNHMjiU8yGBGwCIh8Zkyi1uS9FJriYng-IaXR7-T-nSdSGEtQOjBx5zxj-vs8GG8baCwOQ5GC8rIrDWMQnaYWdGM4KWoFFH4Ic_K6W6SgvK4d794CZTNREXQup5_Rtc9zOtITGk85E9i8AaJGcLS5DE6gMZaZwk68_Rd2l0MxKR7GU4I-oHpfLmaIQxX2FC5WyGugZupJBSP3ZNKRDOIsmLZpfX08jQ4bFf5TXt4RjcF-4JI4WOgaI3rjfxSDln2DSEtzV0Lsjq46AjD3- -k- -upcIaue3SvlysI2rFHbfuR3JqGJPy9PGTzPgQY-VaFcuLzORXkj7lu3HMBYHgPqCOIEd58_Tc7DKv236LIsN8rThorvcORqpmo4fClV_dYTdoLDTX5925KWAOx2BRygO6RroewkGeBNDKq3pu-hCuuP8ZrxQqnS8hNphh93bJmDFSOKChWshBHylKhe8kJpz1PXH1Sfdfxa-kytcaizGxzAIgGDvH23aLiqHwHjFlvxXmwREUfG7HKu7BLKSoTzPBF-d7DDIDZJM3j4jVskOgM7nrSLaxDw3EOXhMzjs0v-lVonn1vrHkIh2gvC5XKHMp9xs6vOlEi65nNZ8I7ck6le5i4vcPDi_oONy0ovZClAp__S8nc5niGQAveQkrfqbIr54qC1xQ8oUrtb4bMb_IO-kDqA_UEPQtXTEadJUxHAmObmdD9DyABWHGdY7NEcZ8OheHx0aIke4aX0ro9UdKUgoS_gBKSgnMzy2sZ795vv3avSSMmi_SliedapEBAI1GpiRcx8SkCuuEHMNPp1Of95ljTBdNXYSJnzWxmDi1eQwnQl6ge6F-cfYTBqMgbph2rHCjfo4jfGDI7lobscA6qa8g8CNsDPskz1H9-RDwgZkhg91gMojh6BhMGxC-icgvUNaVxe7LlTm4kZJYTfMtk_kPBGny8Uw7tieTBiUpUU-qMeSwQ7IutplChjPtkgW3paUxexNsRf3Bpd4YQ7UJMxhJGfQMohDozbQDtCRa3KDauTgyzgvuYgULdhD1Y1tMkc2yVb7vkNrtLWl048mxPAcK-NszllgeGW58Fj3tzDsOt0WcKP-IjzhFL5VewFW5]--></g></svg>