<?xml version="1.0" encoding="UTF-8" standalone="no"?><svg xmlns="http://www.w3.org/2000/svg" xmlns:xlink="http://www.w3.org/1999/xlink" contentStyleType="text/css" height="725px" preserveAspectRatio="none" style="width:487px;height:725px;background:#FFFFFF;" version="1.1" viewBox="0 0 487 725" width="487px" zoomAndPan="magnify"><defs/><g><!--cluster chasseaumonstre.model.strategy.monster--><g id="cluster_chasseaumonstre.model.strategy.monster"><path d="M79.5,145 L416.5,145 A3.75,3.75 0 0 1 419,147.5 L426,167.2969 L426.5,167.2969 A2.5,2.5 0 0 1 429,169.7969 L429,697.5 A2.5,2.5 0 0 1 426.5,700 L79.5,700 A2.5,2.5 0 0 1 77,697.5 L77,147.5 A2.5,2.5 0 0 1 79.5,145 " fill="none" style="stroke:#000000;stroke-width:1.5;"/><line style="stroke:#000000;stroke-width:1.5;" x1="77" x2="426" y1="167.2969" y2="167.2969"/><text fill="#000000" font-family="sans-serif" font-size="14" font-weight="bold" lengthAdjust="spacing" textLength="336" x="81" y="159.9951">chasseaumonstre.model.strategy.monster</text></g><!--cluster fr.univlille.iutinfo.cam.player.monster--><g id="cluster_fr.univlille.iutinfo.cam.player.monster"><path d="M8.5,6 L303.5,6 A3.75,3.75 0 0 1 306,8.5 L313,28.2969 L313.5,28.2969 A2.5,2.5 0 0 1 316,30.7969 L316,118.5 A2.5,2.5 0 0 1 313.5,121 L8.5,121 A2.5,2.5 0 0 1 6,118.5 L6,8.5 A2.5,2.5 0 0 1 8.5,6 " fill="none" style="stroke:#000000;stroke-width:1.5;"/><line style="stroke:#000000;stroke-width:1.5;" x1="6" x2="313" y1="28.2969" y2="28.2969"/><text fill="#000000" font-family="sans-serif" font-size="14" font-weight="bold" lengthAdjust="spacing" textLength="294" x="10" y="20.9951">fr.univlille.iutinfo.cam.player.monster</text></g><!--cluster java.io--><g id="cluster_java.io"><path d="M342.5,14 L393.5,14 A3.75,3.75 0 0 1 396,16.5 L403,36.2969 L477.5,36.2969 A2.5,2.5 0 0 1 480,38.7969 L480,110.5 A2.5,2.5 0 0 1 477.5,113 L342.5,113 A2.5,2.5 0 0 1 340,110.5 L340,16.5 A2.5,2.5 0 0 1 342.5,14 " fill="none" style="stroke:#000000;stroke-width:1.5;"/><line style="stroke:#000000;stroke-width:1.5;" x1="340" x2="403" y1="36.2969" y2="36.2969"/><text fill="#000000" font-family="sans-serif" font-size="14" font-weight="bold" lengthAdjust="spacing" textLength="50" x="344" y="28.9951">java.io</text></g><!--class chasseaumonstre.model.strategy.monster.Monster--><a href="Monster.html" target="_top" title="Monster.html" xlink:actuate="onRequest" xlink:href="Monster.html" xlink:show="new" xlink:title="Monster.html" xlink:type="simple"><g id="elem_chasseaumonstre.model.strategy.monster.Monster"><rect codeLine="3" fill="#F1F1F1" height="504.3125" id="chasseaumonstre.model.strategy.monster.Monster" rx="2.5" ry="2.5" style="stroke:#181818;stroke-width:0.5;" width="293" x="106.5" y="180"/><ellipse cx="220.25" cy="196" fill="#ADD1B2" rx="11" ry="11" style="stroke:#181818;stroke-width:1.0;"/><path d="M223.2188,201.6406 Q222.6406,201.9375 222,202.0781 Q221.3594,202.2344 220.6563,202.2344 Q218.1563,202.2344 216.8281,200.5938 Q215.5156,198.9375 215.5156,195.8125 Q215.5156,192.6875 216.8281,191.0313 Q218.1563,189.375 220.6563,189.375 Q221.3594,189.375 222,189.5313 Q222.6563,189.6875 223.2188,189.9844 L223.2188,192.7031 Q222.5938,192.125 222,191.8594 Q221.4063,191.5781 220.7813,191.5781 Q219.4375,191.5781 218.75,192.6563 Q218.0625,193.7188 218.0625,195.8125 Q218.0625,197.9063 218.75,198.9844 Q219.4375,200.0469 220.7813,200.0469 Q221.4063,200.0469 222,199.7813 Q222.5938,199.5 223.2188,198.9219 L223.2188,201.6406 Z " fill="#000000"/><text fill="#000000" font-family="sans-serif" font-size="14" lengthAdjust="spacing" textLength="57" x="240.75" y="200.8467">Monster</text><line style="stroke:#181818;stroke-width:0.5;" x1="107.5" x2="398.5" y1="212" y2="212"/><rect fill="none" height="6" style="stroke:#C82930;stroke-width:1.0;" width="6" x="114.5" y="222.6484"/><text fill="#000000" font-family="sans-serif" font-size="14" lengthAdjust="spacing" textLength="112" x="126.5" y="228.9951">exit: ICoordinate</text><rect fill="none" height="6" style="stroke:#C82930;stroke-width:1.0;" width="6" x="114.5" y="238.9453"/><text fill="#000000" font-family="sans-serif" font-size="14" lengthAdjust="spacing" textLength="123" x="126.5" y="245.292">entry: ICoordinate</text><rect fill="none" height="6" style="stroke:#C82930;stroke-width:1.0;" width="6" x="114.5" y="255.2422"/><text fill="#000000" font-family="sans-serif" font-size="14" lengthAdjust="spacing" textLength="128" x="126.5" y="261.5889">coord: ICoordinate</text><rect fill="none" height="6" style="stroke:#C82930;stroke-width:1.0;" width="6" x="114.5" y="271.5391"/><text fill="#000000" font-family="sans-serif" font-size="14" lengthAdjust="spacing" textLength="119" x="126.5" y="277.8857">visited: boolean[]</text><rect fill="none" height="6" style="stroke:#C82930;stroke-width:1.0;" width="6" x="114.5" y="287.8359"/><text fill="#000000" font-family="sans-serif" font-size="14" lengthAdjust="spacing" textLength="144" x="126.5" y="294.1826">visitedTurn: Integer[]</text><line style="stroke:#181818;stroke-width:0.5;" x1="107.5" x2="398.5" y1="301.4844" y2="301.4844"/><ellipse cx="117.5" cy="315.1328" fill="#84BE84" rx="3" ry="3" style="stroke:#038048;stroke-width:1.0;"/><text fill="#000000" font-family="sans-serif" font-size="14" lengthAdjust="spacing" textLength="67" x="126.5" y="318.4795">Monster()</text><ellipse cx="117.5" cy="331.4297" fill="#84BE84" rx="3" ry="3" style="stroke:#038048;stroke-width:1.0;"/><text fill="#000000" font-family="sans-serif" font-size="14" lengthAdjust="spacing" textLength="133" x="126.5" y="334.7764">Monster(boolean[])</text><ellipse cx="117.5" cy="347.7266" fill="#84BE84" rx="3" ry="3" style="stroke:#038048;stroke-width:1.0;"/><text fill="#000000" font-family="sans-serif" font-size="14" lengthAdjust="spacing" textLength="167" x="126.5" y="351.0732">initialize(boolean[]): void</text><ellipse cx="117.5" cy="364.0234" fill="#84BE84" rx="3" ry="3" style="stroke:#038048;stroke-width:1.0;"/><text fill="#000000" font-family="sans-serif" font-size="14" lengthAdjust="spacing" textLength="145" x="126.5" y="367.3701">getExit(): ICoordinate</text><ellipse cx="117.5" cy="380.3203" fill="#84BE84" rx="3" ry="3" style="stroke:#038048;stroke-width:1.0;"/><text fill="#000000" font-family="sans-serif" font-size="14" lengthAdjust="spacing" textLength="135" x="126.5" y="383.667">setExit(int, int): void</text><rect fill="#F24D5C" height="6" style="stroke:#C82930;stroke-width:1.0;" width="6" x="114.5" y="393.6172"/><text fill="#000000" font-family="sans-serif" font-size="14" lengthAdjust="spacing" textLength="172" x="126.5" y="399.9639">setExit(ICoordinate): void</text><ellipse cx="117.5" cy="412.9141" fill="#84BE84" rx="3" ry="3" style="stroke:#038048;stroke-width:1.0;"/><text fill="#000000" font-family="sans-serif" font-size="14" lengthAdjust="spacing" textLength="156" x="126.5" y="416.2607">getEntry(): ICoordinate</text><ellipse cx="117.5" cy="429.2109" fill="#84BE84" rx="3" ry="3" style="stroke:#038048;stroke-width:1.0;"/><text fill="#000000" font-family="sans-serif" font-size="14" lengthAdjust="spacing" textLength="154" x="126.5" y="432.5576">getVisited(): boolean[]</text><ellipse cx="117.5" cy="445.5078" fill="#84BE84" rx="3" ry="3" style="stroke:#038048;stroke-width:1.0;"/><text fill="#000000" font-family="sans-serif" font-size="14" lengthAdjust="spacing" textLength="146" x="126.5" y="448.8545">setEntry(int, int): void</text><rect fill="#F24D5C" height="6" style="stroke:#C82930;stroke-width:1.0;" width="6" x="114.5" y="458.8047"/><text fill="#000000" font-family="sans-serif" font-size="14" lengthAdjust="spacing" textLength="183" x="126.5" y="465.1514">setEntry(ICoordinate): void</text><ellipse cx="117.5" cy="478.1016" fill="#84BE84" rx="3" ry="3" style="stroke:#038048;stroke-width:1.0;"/><text fill="#000000" font-family="sans-serif" font-size="14" lengthAdjust="spacing" textLength="163" x="126.5" y="481.4482">getCoord(): ICoordinate</text><rect fill="#F24D5C" height="6" style="stroke:#C82930;stroke-width:1.0;" width="6" x="114.5" y="491.3984"/><text fill="#000000" font-family="sans-serif" font-size="14" lengthAdjust="spacing" textLength="190" x="126.5" y="497.7451">setCoord(ICoordinate): void</text><ellipse cx="117.5" cy="510.6953" fill="#84BE84" rx="3" ry="3" style="stroke:#038048;stroke-width:1.0;"/><text fill="#000000" font-family="sans-serif" font-size="14" lengthAdjust="spacing" textLength="178" x="126.5" y="514.042">setCoord(int, int, int): void</text><ellipse cx="117.5" cy="526.9922" fill="#84BE84" rx="3" ry="3" style="stroke:#038048;stroke-width:1.0;"/><text fill="#000000" font-family="sans-serif" font-size="14" lengthAdjust="spacing" textLength="174" x="126.5" y="530.3389">isVisited(int, int): boolean</text><rect fill="#F24D5C" height="6" style="stroke:#C82930;stroke-width:1.0;" width="6" x="114.5" y="540.2891"/><text fill="#000000" font-family="sans-serif" font-size="14" lengthAdjust="spacing" textLength="157" x="126.5" y="546.6357">setVisited(int, int): void</text><ellipse cx="117.5" cy="559.5859" fill="#84BE84" rx="3" ry="3" style="stroke:#038048;stroke-width:1.0;"/><text fill="#000000" font-family="sans-serif" font-size="14" lengthAdjust="spacing" textLength="208" x="126.5" y="562.9326">estAdjacente(int, int): boolean</text><ellipse cx="117.5" cy="575.8828" fill="#84BE84" rx="3" ry="3" style="stroke:#038048;stroke-width:1.0;"/><text fill="#000000" font-family="sans-serif" font-size="14" lengthAdjust="spacing" textLength="194" x="126.5" y="579.2295">setVisited(ICoordinate): void</text><rect fill="#F24D5C" height="6" style="stroke:#C82930;stroke-width:1.0;" width="6" x="114.5" y="589.1797"/><text fill="#000000" font-family="sans-serif" font-size="14" lengthAdjust="spacing" textLength="173" x="126.5" y="595.5264">checkCoord(int, int): void</text><ellipse cx="117.5" cy="608.4766" fill="#84BE84" rx="3" ry="3" style="stroke:#038048;stroke-width:1.0;"/><text fill="#000000" font-family="sans-serif" font-size="14" lengthAdjust="spacing" textLength="179" x="126.5" y="611.8232">getVisitedTurn(int, int): int</text><ellipse cx="117.5" cy="624.7734" fill="#84BE84" rx="3" ry="3" style="stroke:#038048;stroke-width:1.0;"/><text fill="#000000" font-family="sans-serif" font-size="14" lengthAdjust="spacing" textLength="125" x="126.5" y="628.1201">play(): ICoordinate</text><ellipse cx="117.5" cy="641.0703" fill="#84BE84" rx="3" ry="3" style="stroke:#038048;stroke-width:1.0;"/><text fill="#000000" font-family="sans-serif" font-size="14" lengthAdjust="spacing" textLength="163" x="126.5" y="644.417">update(ICellEvent): void</text><rect fill="#F24D5C" height="6" style="stroke:#C82930;stroke-width:1.0;" width="6" x="114.5" y="654.3672"/><text fill="#000000" font-family="sans-serif" font-size="14" lengthAdjust="spacing" textLength="267" x="126.5" y="660.7139">writeObject(ObjectOutputStream): void</text><rect fill="#F24D5C" height="6" style="stroke:#C82930;stroke-width:1.0;" width="6" x="114.5" y="670.6641"/><text fill="#000000" font-family="sans-serif" font-size="14" lengthAdjust="spacing" textLength="252" x="126.5" y="677.0107">readObject(ObjectInputStream): void</text></g></a><!--class fr.univlille.iutinfo.cam.player.monster.IMonsterStrategy--><g id="elem_fr.univlille.iutinfo.cam.player.monster.IMonsterStrategy"><rect codeLine="39" fill="#F1F1F1" height="64.2969" id="fr.univlille.iutinfo.cam.player.monster.IMonsterStrategy" rx="2.5" ry="2.5" style="stroke:#181818;stroke-width:0.5;" width="193" x="106.5" y="41"/><ellipse cx="140.85" cy="57" fill="#B4A7E5" rx="11" ry="11" style="stroke:#181818;stroke-width:1.0;"/><path d="M136.7719,52.7656 L136.7719,50.6094 L144.1625,50.6094 L144.1625,52.7656 L141.6938,52.7656 L141.6938,60.8438 L144.1625,60.8438 L144.1625,63 L136.7719,63 L136.7719,60.8438 L139.2406,60.8438 L139.2406,52.7656 L136.7719,52.7656 Z " fill="#000000"/><text fill="#000000" font-family="sans-serif" font-size="14" font-style="italic" lengthAdjust="spacing" textLength="118" x="159.15" y="61.8467">IMonsterStrategy</text><line style="stroke:#181818;stroke-width:0.5;" x1="107.5" x2="298.5" y1="73" y2="73"/><line style="stroke:#181818;stroke-width:0.5;" x1="107.5" x2="298.5" y1="81" y2="81"/><ellipse cx="117.5" cy="94.6484" fill="#84BE84" rx="3" ry="3" style="stroke:#038048;stroke-width:1.0;"/><text fill="#000000" font-family="sans-serif" font-size="14" font-style="italic" lengthAdjust="spacing" textLength="167" x="126.5" y="97.9951">initialize(boolean[]): void</text></g><!--class java.io.Serializable--><g id="elem_java.io.Serializable"><rect codeLine="45" fill="#F1F1F1" height="48" id="java.io.Serializable" rx="2.5" ry="2.5" style="stroke:#181818;stroke-width:0.5;" width="108" x="356" y="49"/><ellipse cx="371" cy="65" fill="#B4A7E5" rx="11" ry="11" style="stroke:#181818;stroke-width:1.0;"/><path d="M366.9219,60.7656 L366.9219,58.6094 L374.3125,58.6094 L374.3125,60.7656 L371.8438,60.7656 L371.8438,68.8438 L374.3125,68.8438 L374.3125,71 L366.9219,71 L366.9219,68.8438 L369.3906,68.8438 L369.3906,60.7656 L366.9219,60.7656 Z " fill="#000000"/><text fill="#000000" font-family="sans-serif" font-size="14" font-style="italic" lengthAdjust="spacing" textLength="76" x="385" y="69.8467">Serializable</text><line style="stroke:#181818;stroke-width:0.5;" x1="357" x2="463" y1="81" y2="81"/><line style="stroke:#181818;stroke-width:0.5;" x1="357" x2="463" y1="89" y2="89"/></g><!--reverse link fr.univlille.iutinfo.cam.player.monster.IMonsterStrategy to chasseaumonstre.model.strategy.monster.Monster--><g id="link_fr.univlille.iutinfo.cam.player.monster.IMonsterStrategy_chasseaumonstre.model.strategy.monster.Monster"><path codeLine="34" d="M210.13,124.88 C212.36,140.8 214.98,159.55 217.82,179.81 " fill="none" id="fr.univlille.iutinfo.cam.player.monster.IMonsterStrategy-backto-chasseaumonstre.model.strategy.monster.Monster" style="stroke:#181818;stroke-width:1.0;stroke-dasharray:7.0,7.0;"/><polygon fill="none" points="203.19,125.83,207.35,105.06,217.06,123.89,203.19,125.83" style="stroke:#181818;stroke-width:1.0;"/></g><!--reverse link java.io.Serializable to chasseaumonstre.model.strategy.monster.Monster--><g id="link_java.io.Serializable_chasseaumonstre.model.strategy.monster.Monster"><path codeLine="35" d="M391.66,115.71 C383.89,133.38 374.15,155.52 363.46,179.83 " fill="none" id="java.io.Serializable-backto-chasseaumonstre.model.strategy.monster.Monster" style="stroke:#181818;stroke-width:1.0;stroke-dasharray:7.0,7.0;"/><polygon fill="none" points="385.36,112.64,399.82,97.15,398.18,118.27,385.36,112.64" style="stroke:#181818;stroke-width:1.0;"/></g><text fill="#888888" font-family="sans-serif" font-size="10" lengthAdjust="spacing" textLength="186" x="143.5" y="715.2822">UMLDoclet 2.1.0, PlantUML 1.2022.14</text><!--SRC=[ZLJ1Zjem4BtlLyob4eZ5QdjSzLArUq3QrLQYtGlYO9nXCUlOo9watMxvzqw20GUIG0w9vNdpvit4VW00LkOODb8Xg9KC0MMHEnl8eyXTXaRmKXA-l8bw6psytzn0V9JX37YCWTaihiIASZEVCnAIPun_DDt1v9jpFjEMIK_2blnRJrnL-ptnKWTDo8Y5SmQbdSrRupyBRvd5Sa_eJp2ZsC1WsBvzO3w9Qwj9IwF_OWAvWzBfh0byGRhdAGo6tNsCGiHeIxV0hpQYyHwKi7GMhERQMv51pxlXLB3syTMoQgQBkchK5S9gH9-mYcq7kiHs0Ex5TIeSwR3lDO75di-gjq3F6J7GrspDDuZFr2NIKK9weQcnMg5wRRRLDShduzbEiVnkGZT6zX-5OfFn7aj3O-vBxFZBlprNUrgiKT5WztagQ5FGb6r3vgqf7CWQ6HFRcR0zEipIYyBgqcXZKEY2j5qweMGkgaxOQQ8fYKcyejFeLl3bdn1xPpgmhMKfXNPYYhw-hd9Xy1mPon-DyKeHYT_nuD4lgzmpOKrJV9UBoc0LRQzpaMsxmjXOguAqsJIxFgyUbivLdr-F3z-TCaZmMNmI7s_XXv6MU1S-bEY3TdOm_0y0]--></g></svg>