<?xml version="1.0" encoding="UTF-8" standalone="no"?><svg xmlns="http://www.w3.org/2000/svg" xmlns:xlink="http://www.w3.org/1999/xlink" contentStyleType="text/css" height="364px" preserveAspectRatio="none" style="width:461px;height:364px;background:#FFFFFF;" version="1.1" viewBox="0 0 461 364" width="461px" zoomAndPan="magnify"><defs/><g><!--class fr.univlille.info.J3.chasseaumonstre.controller.JVJController--><a href="JVJController.html" target="_top" title="JVJController.html" xlink:actuate="onRequest" xlink:href="JVJController.html" xlink:show="new" xlink:title="JVJController.html" xlink:type="simple"><g id="elem_fr.univlille.info.J3.chasseaumonstre.controller.JVJController"><rect codeLine="5" fill="#F1F1F1" height="330.9844" id="fr.univlille.info.J3.chasseaumonstre.controller.JVJController" rx="2.5" ry="2.5" style="stroke:#181818;stroke-width:0.5;" width="440" x="7" y="7"/><ellipse cx="115.25" cy="25.9688" fill="#ADD1B2" rx="11" ry="11" style="stroke:#181818;stroke-width:1.0;"/><path d="M114.7188,32.8906 Q112.9688,32.8906 111.8281,32.1563 Q110.7031,31.4063 110.1406,30.0625 Q109.5938,28.7031 109.5938,26.9063 Q109.5938,24.875 110.25,23.4219 Q110.9063,21.9688 112.1875,21.1875 Q113.4688,20.4063 115.3438,20.4063 Q116.2344,20.4063 116.9063,20.5938 Q117.5781,20.7656 118.2656,21.1094 L117.4531,23.125 Q116.8281,22.8125 116.2813,22.6875 Q115.75,22.5625 115.2656,22.5625 Q114.0938,22.5625 113.3906,23.0938 Q112.6875,23.625 112.3906,24.5781 Q112.0938,25.5313 112.0938,26.7969 Q112.0938,28.8125 112.8125,29.7813 Q113.5313,30.7344 115.125,30.7344 Q115.7188,30.7344 116.3438,30.5781 Q116.9688,30.4219 117.7969,30.0469 L117.7969,32.2656 Q117.0625,32.5781 116.2656,32.7344 Q115.4844,32.8906 114.7188,32.8906 Z " fill="#000000"/><text fill="#000000" font-family="sans-serif" font-size="14" lengthAdjust="spacing" textLength="82" x="202.25" y="24.9951">JVJController</text><text fill="#000000" font-family="sans-serif" font-size="10" lengthAdjust="spacing" textLength="215" x="135.75" y="37.5791">fr.univlille.info.J3.chasseaumonstre.controller</text><line style="stroke:#181818;stroke-width:0.5;" x1="8" x2="446" y1="44.9375" y2="44.9375"/><rect fill="none" height="6" style="stroke:#C82930;stroke-width:1.0;" width="6" x="15" y="55.5859"/><text fill="#000000" font-family="sans-serif" font-size="14" lengthAdjust="spacing" textLength="175" x="27" y="61.9326">startGameButton: Button</text><rect fill="none" height="6" style="stroke:#C82930;stroke-width:1.0;" width="6" x="15" y="71.8828"/><text fill="#000000" font-family="sans-serif" font-size="14" lengthAdjust="spacing" textLength="83" x="27" y="78.2295">j1: TextField</text><rect fill="none" height="6" style="stroke:#C82930;stroke-width:1.0;" width="6" x="15" y="88.1797"/><text fill="#000000" font-family="sans-serif" font-size="14" lengthAdjust="spacing" textLength="83" x="27" y="94.5264">j2: TextField</text><rect fill="none" height="6" style="stroke:#C82930;stroke-width:1.0;" width="6" x="15" y="104.4766"/><text fill="#000000" font-family="sans-serif" font-size="14" lengthAdjust="spacing" textLength="126" x="27" y="110.8232">btnReturn: Button</text><rect fill="none" height="6" style="stroke:#C82930;stroke-width:1.0;" width="6" x="15" y="120.7734"/><text fill="#000000" font-family="sans-serif" font-size="14" lengthAdjust="spacing" textLength="88" x="27" y="127.1201">stage: Stage</text><rect fill="none" height="6" style="stroke:#C82930;stroke-width:1.0;" width="6" x="15" y="137.0703"/><text fill="#000000" font-family="sans-serif" font-size="14" lengthAdjust="spacing" textLength="198" x="27" y="143.417">model: MonsterHunterModel</text><rect fill="none" height="6" style="stroke:#C82930;stroke-width:1.0;" width="6" x="15" y="153.3672"/><text fill="#000000" font-family="sans-serif" font-size="14" lengthAdjust="spacing" textLength="188" x="27" y="159.7139">hunterView: MHHunterView</text><rect fill="none" height="6" style="stroke:#C82930;stroke-width:1.0;" width="6" x="15" y="169.6641"/><text fill="#000000" font-family="sans-serif" font-size="14" lengthAdjust="spacing" textLength="210" x="27" y="176.0107">monsterView: MHMonsterView</text><rect fill="none" height="6" style="stroke:#C82930;stroke-width:1.0;" width="6" x="15" y="185.9609"/><text fill="#000000" font-family="sans-serif" font-size="14" lengthAdjust="spacing" textLength="123" x="27" y="192.3076">hunterAI: boolean</text><rect fill="none" height="6" style="stroke:#C82930;stroke-width:1.0;" width="6" x="15" y="202.2578"/><text fill="#000000" font-family="sans-serif" font-size="14" lengthAdjust="spacing" textLength="135" x="27" y="208.6045">monsterAI: boolean</text><line style="stroke:#181818;stroke-width:0.5;" x1="8" x2="446" y1="215.9063" y2="215.9063"/><ellipse cx="18" cy="229.5547" fill="#84BE84" rx="3" ry="3" style="stroke:#038048;stroke-width:1.0;"/><text fill="#000000" font-family="sans-serif" font-size="14" lengthAdjust="spacing" textLength="286" x="27" y="232.9014">JVJController(Stage, MonsterHunterModel)</text><ellipse cx="18" cy="245.8516" fill="#84BE84" rx="3" ry="3" style="stroke:#038048;stroke-width:1.0;"/><text fill="#000000" font-family="sans-serif" font-size="14" lengthAdjust="spacing" textLength="414" x="27" y="249.1982">JVJController(Stage, MonsterHunterModel, boolean, boolean)</text><rect fill="#F24D5C" height="6" style="stroke:#C82930;stroke-width:1.0;" width="6" x="15" y="259.1484"/><text fill="#000000" font-family="sans-serif" font-size="14" lengthAdjust="spacing" textLength="119" x="27" y="265.4951">startGame(): void</text><rect fill="#F24D5C" height="6" style="stroke:#C82930;stroke-width:1.0;" width="6" x="15" y="275.4453"/><text fill="#000000" font-family="sans-serif" font-size="14" lengthAdjust="spacing" textLength="166" x="27" y="281.792">startGameButton(): void</text><rect fill="#F24D5C" height="6" style="stroke:#C82930;stroke-width:1.0;" width="6" x="15" y="291.7422"/><text fill="#000000" font-family="sans-serif" font-size="14" lengthAdjust="spacing" textLength="183" x="27" y="298.0889">startGame(KeyEvent): void</text><rect fill="#F24D5C" height="6" style="stroke:#C82930;stroke-width:1.0;" width="6" x="15" y="308.0391"/><text fill="#000000" font-family="sans-serif" font-size="14" lengthAdjust="spacing" textLength="146" x="27" y="314.3857">returnToMenu(): void</text><ellipse cx="18" cy="327.3359" fill="#84BE84" rx="3" ry="3" style="stroke:#038048;stroke-width:1.0;"/><text fill="#000000" font-family="sans-serif" font-size="14" lengthAdjust="spacing" textLength="101" x="27" y="330.6826">initialize(): void</text></g></a><text fill="#888888" font-family="sans-serif" font-size="10" lengthAdjust="spacing" textLength="186" x="133.5" y="354.2666">UMLDoclet 2.1.0, PlantUML 1.2022.14</text><!--SRC=[bLDDJy904BtxAoOa9X1m0-YfCIH-8zh427913qixjMksksHtYgBnlxkjG2bK4theTDwyDpCximK0i4YWU89snWCSuemRJjg0qWeFN1XY4I9WCgC5H09bQBVH12dM3ixnG79heNPgnITwdPFUO3ouq8gCbXBDirhYxLvaMAh4N0g7Cw4YpGR7B8YT67cQQ6N980lMoXfm2tjgMAasJ2ObdyMKo9SN-ChRpfuZIzpGZHl5UKgabGU_jY2yTJmOuGTTPtFOWBkLy9JK8r9gAXAvIg_emJ0p1Phe4AK7VdOIDFrKkRUVOGKbpi6nm7V7w_VNtcQINBsY-8MxdUNireEfrXAvsf5NnPgb-TNpvbiLtJRsLhHMjTOVZOgjr1iUpBK8_rpOFuJw7IwkvgXeXsBo5OsqZohTIT0KIf3WqbtQKknxUTanEm94McVcoR-_r85qlrENTLYx1G-IAt8e7CxHM94r-0C0]--></g></svg>