<?xml version="1.0" encoding="UTF-8" standalone="no"?><svg xmlns="http://www.w3.org/2000/svg" xmlns:xlink="http://www.w3.org/1999/xlink" contentStyleType="text/css" height="511px" preserveAspectRatio="none" style="width:379px;height:511px;background:#FFFFFF;" version="1.1" viewBox="0 0 379 511" width="379px" zoomAndPan="magnify"><defs/><g><!--class fr.univlille.info.J3.chasseaumonstre.controller.MHMenuController--><a href="MHMenuController.html" target="_top" title="MHMenuController.html" xlink:actuate="onRequest" xlink:href="MHMenuController.html" xlink:show="new" xlink:title="MHMenuController.html" xlink:type="simple"><g id="elem_fr.univlille.info.J3.chasseaumonstre.controller.MHMenuController"><rect codeLine="5" fill="#F1F1F1" height="477.6563" id="fr.univlille.info.J3.chasseaumonstre.controller.MHMenuController" rx="2.5" ry="2.5" style="stroke:#181818;stroke-width:0.5;" width="358" x="7" y="7"/><ellipse cx="74.25" cy="25.9688" fill="#ADD1B2" rx="11" ry="11" style="stroke:#181818;stroke-width:1.0;"/><path d="M73.7188,32.8906 Q71.9688,32.8906 70.8281,32.1563 Q69.7031,31.4063 69.1406,30.0625 Q68.5938,28.7031 68.5938,26.9063 Q68.5938,24.875 69.25,23.4219 Q69.9063,21.9688 71.1875,21.1875 Q72.4688,20.4063 74.3438,20.4063 Q75.2344,20.4063 75.9063,20.5938 Q76.5781,20.7656 77.2656,21.1094 L76.4531,23.125 Q75.8281,22.8125 75.2813,22.6875 Q74.75,22.5625 74.2656,22.5625 Q73.0938,22.5625 72.3906,23.0938 Q71.6875,23.625 71.3906,24.5781 Q71.0938,25.5313 71.0938,26.7969 Q71.0938,28.8125 71.8125,29.7813 Q72.5313,30.7344 74.125,30.7344 Q74.7188,30.7344 75.3438,30.5781 Q75.9688,30.4219 76.7969,30.0469 L76.7969,32.2656 Q76.0625,32.5781 75.2656,32.7344 Q74.4844,32.8906 73.7188,32.8906 Z " fill="#000000"/><text fill="#000000" font-family="sans-serif" font-size="14" lengthAdjust="spacing" textLength="128" x="138.25" y="24.9951">MHMenuController</text><text fill="#000000" font-family="sans-serif" font-size="10" lengthAdjust="spacing" textLength="215" x="94.75" y="37.5791">fr.univlille.info.J3.chasseaumonstre.controller</text><line style="stroke:#181818;stroke-width:0.5;" x1="8" x2="364" y1="44.9375" y2="44.9375"/><rect fill="none" height="6" style="stroke:#C82930;stroke-width:1.0;" width="6" x="15" y="55.5859"/><text fill="#000000" font-family="sans-serif" font-size="14" lengthAdjust="spacing" textLength="157" x="27" y="61.9326">imageView: ImageView</text><rect fill="none" height="6" style="stroke:#C82930;stroke-width:1.0;" width="6" x="15" y="71.8828"/><text fill="#000000" font-family="sans-serif" font-size="14" lengthAdjust="spacing" textLength="93" x="27" y="78.2295">jvjBtn: Button</text><rect fill="none" height="6" style="stroke:#C82930;stroke-width:1.0;" width="6" x="15" y="88.1797"/><text fill="#000000" font-family="sans-serif" font-size="14" lengthAdjust="spacing" textLength="105" x="27" y="94.5264">pvpBtn: Button</text><rect fill="none" height="6" style="stroke:#C82930;stroke-width:1.0;" width="6" x="15" y="104.4766"/><text fill="#000000" font-family="sans-serif" font-size="14" lengthAdjust="spacing" textLength="98" x="27" y="110.8232">cviBtn: Button</text><rect fill="none" height="6" style="stroke:#C82930;stroke-width:1.0;" width="6" x="15" y="120.7734"/><text fill="#000000" font-family="sans-serif" font-size="14" lengthAdjust="spacing" textLength="103" x="27" y="127.1201">mviBtn: Button</text><rect fill="none" height="6" style="stroke:#C82930;stroke-width:1.0;" width="6" x="15" y="137.0703"/><text fill="#000000" font-family="sans-serif" font-size="14" lengthAdjust="spacing" textLength="93" x="27" y="143.417">iviBtn: Button</text><rect fill="none" height="6" style="stroke:#C82930;stroke-width:1.0;" width="6" x="15" y="153.3672"/><text fill="#000000" font-family="sans-serif" font-size="14" lengthAdjust="spacing" textLength="135" x="27" y="159.7139">parametres: Button</text><rect fill="none" height="6" style="stroke:#C82930;stroke-width:1.0;" width="6" x="15" y="169.6641"/><text fill="#000000" font-family="sans-serif" font-size="14" lengthAdjust="spacing" textLength="101" x="27" y="176.0107">quitter: Button</text><rect fill="none" height="6" style="stroke:#C82930;stroke-width:1.0;" width="6" x="15" y="185.9609"/><text fill="#000000" font-family="sans-serif" font-size="14" lengthAdjust="spacing" textLength="88" x="27" y="192.3076">stage: Stage</text><rect fill="none" height="6" style="stroke:#C82930;stroke-width:1.0;" width="6" x="15" y="202.2578"/><text fill="#000000" font-family="sans-serif" font-size="14" lengthAdjust="spacing" textLength="198" x="27" y="208.6045">model: MonsterHunterModel</text><rect fill="none" height="6" style="stroke:#C82930;stroke-width:1.0;" width="6" x="15" y="218.5547"/><text fill="#000000" font-family="sans-serif" font-size="14" lengthAdjust="spacing" textLength="188" x="27" y="224.9014">hunterView: MHHunterView</text><rect fill="none" height="6" style="stroke:#C82930;stroke-width:1.0;" width="6" x="15" y="234.8516"/><text fill="#000000" font-family="sans-serif" font-size="14" lengthAdjust="spacing" textLength="210" x="27" y="241.1982">monsterView: MHMonsterView</text><rect fill="none" height="6" style="stroke:#C82930;stroke-width:1.0;" width="6" x="15" y="251.1484"/><text fill="#000000" font-family="sans-serif" font-size="14" lengthAdjust="spacing" textLength="104" x="27" y="257.4951">socket: Socket</text><line style="stroke:#181818;stroke-width:0.5;" x1="8" x2="364" y1="264.7969" y2="264.7969"/><ellipse cx="18" cy="278.4453" fill="#84BE84" rx="3" ry="3" style="stroke:#038048;stroke-width:1.0;"/><text fill="#000000" font-family="sans-serif" font-size="14" lengthAdjust="spacing" textLength="332" x="27" y="281.792">MHMenuController(Stage, MonsterHunterModel)</text><ellipse cx="18" cy="294.7422" fill="#84BE84" rx="3" ry="3" style="stroke:#038048;stroke-width:1.0;"/><text fill="#000000" font-family="sans-serif" font-size="14" lengthAdjust="spacing" textLength="230" x="27" y="298.0889">getModel(): MonsterHunterModel</text><rect fill="#F24D5C" height="6" style="stroke:#C82930;stroke-width:1.0;" width="6" x="15" y="308.0391"/><text fill="#000000" font-family="sans-serif" font-size="14" lengthAdjust="spacing" textLength="92" x="27" y="314.3857">onPVP(): void</text><rect fill="#F24D5C" height="6" style="stroke:#C82930;stroke-width:1.0;" width="6" x="15" y="324.3359"/><text fill="#000000" font-family="sans-serif" font-size="14" lengthAdjust="spacing" textLength="133" x="27" y="330.6826">onHunterVAi(): void</text><rect fill="#F24D5C" height="6" style="stroke:#C82930;stroke-width:1.0;" width="6" x="15" y="340.6328"/><text fill="#000000" font-family="sans-serif" font-size="14" lengthAdjust="spacing" textLength="143" x="27" y="346.9795">onMonsterVAi(): void</text><rect fill="#F24D5C" height="6" style="stroke:#C82930;stroke-width:1.0;" width="6" x="15" y="356.9297"/><text fill="#000000" font-family="sans-serif" font-size="14" lengthAdjust="spacing" textLength="98" x="27" y="363.2764">onAiVAi(): void</text><rect fill="#F24D5C" height="6" style="stroke:#C82930;stroke-width:1.0;" width="6" x="15" y="373.2266"/><text fill="#000000" font-family="sans-serif" font-size="14" lengthAdjust="spacing" textLength="138" x="27" y="379.5732">loadLabyrinth(): void</text><rect fill="#F24D5C" height="6" style="stroke:#C82930;stroke-width:1.0;" width="6" x="15" y="389.5234"/><text fill="#000000" font-family="sans-serif" font-size="14" lengthAdjust="spacing" textLength="136" x="27" y="395.8701">onParameter(): void</text><rect fill="#F24D5C" height="6" style="stroke:#C82930;stroke-width:1.0;" width="6" x="15" y="405.8203"/><text fill="#000000" font-family="sans-serif" font-size="14" lengthAdjust="spacing" textLength="93" x="27" y="412.167">onQuit(): void</text><rect fill="#F24D5C" height="6" style="stroke:#C82930;stroke-width:1.0;" width="6" x="15" y="422.1172"/><text fill="#000000" font-family="sans-serif" font-size="14" lengthAdjust="spacing" textLength="219" x="27" y="428.4639">synchronize(String, String): void</text><rect fill="#F24D5C" height="6" style="stroke:#C82930;stroke-width:1.0;" width="6" x="15" y="438.4141"/><text fill="#000000" font-family="sans-serif" font-size="14" lengthAdjust="spacing" textLength="239" x="27" y="444.7607">startGame(boolean, boolean): void</text><rect fill="#F24D5C" height="6" style="stroke:#C82930;stroke-width:1.0;" width="6" x="15" y="454.7109"/><text fill="#000000" font-family="sans-serif" font-size="14" lengthAdjust="spacing" textLength="124" x="27" y="461.0576">onPVPMulti(): void</text><ellipse cx="18" cy="474.0078" fill="#84BE84" rx="3" ry="3" style="stroke:#038048;stroke-width:1.0;"/><text fill="#000000" font-family="sans-serif" font-size="14" lengthAdjust="spacing" textLength="101" x="27" y="477.3545">initialize(): void</text></g></a><text fill="#888888" font-family="sans-serif" font-size="10" lengthAdjust="spacing" textLength="186" x="92.5" y="500.9385">UMLDoclet 2.1.0, PlantUML 1.2022.14</text><!--SRC=[bPJVQzH04CVV_Ik6Wd17pz2gJq4AhOAdD10ftaljmpQPkqpTpCJTIUGK_tStkHy9brGm3vdDvpkpCpl31W30emAR4drbChp3oZYZue25yKMGeQ0S0SjAjx0cjBa_fILg8G5tFBF6UpXxv-aNnfTlhv9bWbo_5rOdrgBxndlfuchjefgfiHHuHBoMwFERA2j2F9gw5FRgCCgEaMTWFFndJ7IQ7kxlJr5KQ6aV7k1tLt_xlABIR715-3E6JuTbhpurJpVACTpKgi8zhvfgacSDJVBo6KxFy7OoeTSE_LZxKPCgkh7WDTGVmrrh1gabHnj3qZOCtRBcy4vQrhiK7Tmr8LakZr_3JRheWqlIVmxII_OTDUJlx96VdmvXrXMucAXetWTjK3iqc_-xTE5qbRPEZL0-nFjJNDEKUAX_MhscIS6AoM_DuzOHQp4Lb-w65auu8Nu9Knjpl-MiSCBXceIsX9qt2zZPiQiQfnz3WjcZY4N32zWlfafPfKbjTNoASs9IChPDEDJ-xAyqjbs3jKXhlYQt7oIpuQVnEhgCBXQGMiCQABniq7aIdit_0W00]--></g></svg>