<?xml version="1.0" encoding="UTF-8" standalone="no"?><svg xmlns="http://www.w3.org/2000/svg" xmlns:xlink="http://www.w3.org/1999/xlink" contentStyleType="text/css" height="592px" preserveAspectRatio="none" style="width:437px;height:592px;background:#FFFFFF;" version="1.1" viewBox="0 0 437 592" width="437px" zoomAndPan="magnify"><defs/><g><!--class fr.univlille.info.J3.chasseaumonstre.controller.MHPlayerController--><a href="MHPlayerController.html" target="_top" title="MHPlayerController.html" xlink:actuate="onRequest" xlink:href="MHPlayerController.html" xlink:show="new" xlink:title="MHPlayerController.html" xlink:type="simple"><g id="elem_fr.univlille.info.J3.chasseaumonstre.controller.MHPlayerController"><rect codeLine="5" fill="#F1F1F1" height="559.1406" id="fr.univlille.info.J3.chasseaumonstre.controller.MHPlayerController" rx="2.5" ry="2.5" style="stroke:#181818;stroke-width:0.5;" width="416" x="7" y="7"/><ellipse cx="103.25" cy="25.9688" fill="#A9DCDF" rx="11" ry="11" style="stroke:#181818;stroke-width:1.0;"/><path d="M98.4219,31.7188 L101.7656,19.5313 L104.9063,19.5313 L108.2813,31.7188 L105.8125,31.7188 L105.0781,28.7031 L101.5625,28.7031 L100.8125,31.7188 L98.4219,31.7188 Z M102.8281,23.6719 L102.0781,26.6719 L104.5938,26.6719 L103.875,23.6719 Q103.7344,23.0938 103.6094,22.5469 Q103.4844,21.9844 103.3438,21.4063 Q103.2344,21.9844 103.0938,22.5469 Q102.9531,23.0938 102.8281,23.6719 Z " fill="#000000"/><text fill="#000000" font-family="sans-serif" font-size="14" font-style="italic" lengthAdjust="spacing" textLength="130" x="166.25" y="24.9951">MHPlayerController</text><text fill="#000000" font-family="sans-serif" font-size="10" font-style="italic" lengthAdjust="spacing" textLength="215" x="123.75" y="37.5791">fr.univlille.info.J3.chasseaumonstre.controller</text><line style="stroke:#181818;stroke-width:0.5;" x1="8" x2="422" y1="44.9375" y2="44.9375"/><polygon fill="none" points="18,53.5859,22,57.5859,18,61.5859,14,57.5859" style="stroke:#B38D22;stroke-width:1.0;"/><text fill="#000000" font-family="sans-serif" font-size="14" lengthAdjust="spacing" textLength="131" x="27" y="61.9326">contentMain: HBox</text><polygon fill="none" points="18,69.8828,22,73.8828,18,77.8828,14,73.8828" style="stroke:#B38D22;stroke-width:1.0;"/><text fill="#000000" font-family="sans-serif" font-size="14" lengthAdjust="spacing" textLength="107" x="27" y="78.2295">contentV: VBox</text><polygon fill="none" points="18,86.1797,22,90.1797,18,94.1797,14,90.1797" style="stroke:#B38D22;stroke-width:1.0;"/><text fill="#000000" font-family="sans-serif" font-size="14" lengthAdjust="spacing" textLength="110" x="27" y="94.5264">maze: GridPane</text><polygon fill="none" points="18,102.4766,22,106.4766,18,110.4766,14,106.4766" style="stroke:#B38D22;stroke-width:1.0;"/><text fill="#000000" font-family="sans-serif" font-size="14" lengthAdjust="spacing" textLength="150" x="27" y="110.8232">characterName: Label</text><polygon fill="none" points="18,118.7734,22,122.7734,18,126.7734,14,122.7734" style="stroke:#B38D22;stroke-width:1.0;"/><text fill="#000000" font-family="sans-serif" font-size="14" lengthAdjust="spacing" textLength="125" x="27" y="127.1201">alertHeader: Label</text><polygon fill="none" points="18,135.0703,22,139.0703,18,143.0703,14,139.0703" style="stroke:#B38D22;stroke-width:1.0;"/><text fill="#000000" font-family="sans-serif" font-size="14" lengthAdjust="spacing" textLength="110" x="27" y="143.417">alertBody: Label</text><polygon fill="none" points="18,151.3672,22,155.3672,18,159.3672,14,155.3672" style="stroke:#B38D22;stroke-width:1.0;"/><text fill="#000000" font-family="sans-serif" font-size="14" lengthAdjust="spacing" textLength="116" x="27" y="159.7139">skipTurn: Button</text><polygon fill="none" points="18,167.6641,22,171.6641,18,175.6641,14,171.6641" style="stroke:#B38D22;stroke-width:1.0;"/><text fill="#000000" font-family="sans-serif" font-size="14" lengthAdjust="spacing" textLength="158" x="27" y="176.0107">alertHistory: ScrollPane</text><polygon fill="none" points="18,183.9609,22,187.9609,18,191.9609,14,187.9609" style="stroke:#B38D22;stroke-width:1.0;"/><text fill="#000000" font-family="sans-serif" font-size="14" lengthAdjust="spacing" textLength="137" x="27" y="192.3076">contentAlerts: VBox</text><polygon fill="none" points="18,200.2578,22,204.2578,18,208.2578,14,204.2578" style="stroke:#B38D22;stroke-width:1.0;"/><text fill="#000000" font-family="sans-serif" font-size="14" lengthAdjust="spacing" textLength="88" x="27" y="208.6045">stage: Stage</text><polygon fill="none" points="18,216.5547,22,220.5547,18,224.5547,14,220.5547" style="stroke:#B38D22;stroke-width:1.0;"/><text fill="#000000" font-family="sans-serif" font-size="14" lengthAdjust="spacing" textLength="198" x="27" y="224.9014">model: MonsterHunterModel</text><polygon fill="none" points="18,232.8516,22,236.8516,18,240.8516,14,236.8516" style="stroke:#B38D22;stroke-width:1.0;"/><text fill="#000000" font-family="sans-serif" font-size="14" lengthAdjust="spacing" textLength="94" x="27" y="241.1982">winAlert: Alert</text><polygon fill="none" points="18,249.1484,22,253.1484,18,257.1484,14,253.1484" style="stroke:#B38D22;stroke-width:1.0;"/><text fill="#000000" font-family="sans-serif" font-size="14" lengthAdjust="spacing" textLength="130" x="27" y="257.4951">alerts: List&lt;Label&gt;</text><polygon fill="none" points="18,265.4453,22,269.4453,18,273.4453,14,269.4453" style="stroke:#B38D22;stroke-width:1.0;"/><text fill="#000000" font-family="sans-serif" font-size="14" lengthAdjust="spacing" textLength="210" x="27" y="273.792">monsterView: MHMonsterView</text><polygon fill="none" points="18,281.7422,22,285.7422,18,289.7422,14,285.7422" style="stroke:#B38D22;stroke-width:1.0;"/><text fill="#000000" font-family="sans-serif" font-size="14" lengthAdjust="spacing" textLength="188" x="27" y="290.0889">hunterView: MHHunterView</text><polygon fill="none" points="18,298.0391,22,302.0391,18,306.0391,14,302.0391" style="stroke:#B38D22;stroke-width:1.0;"/><text fill="#000000" font-family="sans-serif" font-size="14" lengthAdjust="spacing" textLength="104" x="27" y="306.3857">socket: Socket</text><line style="stroke:#181818;stroke-width:0.5;" x1="8" x2="422" y1="313.6875" y2="313.6875"/><ellipse cx="18" cy="327.3359" fill="#84BE84" rx="3" ry="3" style="stroke:#038048;stroke-width:1.0;"/><text fill="#000000" font-family="sans-serif" font-size="14" lengthAdjust="spacing" textLength="390" x="27" y="330.6826">MHPlayerController(Stage, MonsterHunterModel, Socket)</text><rect fill="#F24D5C" height="6" style="stroke:#C82930;stroke-width:1.0;" width="6" x="15" y="340.6328"/><text fill="#000000" font-family="sans-serif" font-size="14" lengthAdjust="spacing" textLength="225" x="27" y="346.9795">attachControllersToModel(): void</text><ellipse cx="18" cy="359.9297" fill="#84BE84" rx="3" ry="3" style="stroke:#038048;stroke-width:1.0;"/><text fill="#000000" font-family="sans-serif" font-size="14" font-style="italic" lengthAdjust="spacing" textLength="101" x="27" y="363.2764">initialize(): void</text><ellipse cx="18" cy="376.2266" fill="#84BE84" rx="3" ry="3" style="stroke:#038048;stroke-width:1.0;"/><text fill="#000000" font-family="sans-serif" font-size="14" lengthAdjust="spacing" textLength="230" x="27" y="379.5732">getModel(): MonsterHunterModel</text><ellipse cx="18" cy="392.5234" fill="#84BE84" rx="3" ry="3" style="stroke:#038048;stroke-width:1.0;"/><text fill="#000000" font-family="sans-serif" font-size="14" lengthAdjust="spacing" textLength="142" x="27" y="395.8701">getContentV(): VBox</text><rect fill="#F24D5C" height="6" style="stroke:#C82930;stroke-width:1.0;" width="6" x="15" y="405.8203"/><text fill="#000000" font-family="sans-serif" font-size="14" lengthAdjust="spacing" textLength="299" x="27" y="412.167">onKeyPressedContentMain(KeyEvent): void</text><rect fill="#F24D5C" height="6" style="stroke:#C82930;stroke-width:1.0;" width="6" x="15" y="422.1172"/><text fill="#000000" font-family="sans-serif" font-size="14" lengthAdjust="spacing" textLength="129" x="27" y="428.4639">pauseMenu(): void</text><polygon fill="#FFFF44" points="18,436.4141,22,440.4141,18,444.4141,14,440.4141" style="stroke:#B38D22;stroke-width:1.0;"/><text fill="#000000" font-family="sans-serif" font-size="14" lengthAdjust="spacing" textLength="143" x="27" y="444.7607">updateHistory(): void</text><ellipse cx="18" cy="457.7109" fill="#84BE84" rx="3" ry="3" style="stroke:#038048;stroke-width:1.0;"/><text fill="#000000" font-family="sans-serif" font-size="14" lengthAdjust="spacing" textLength="269" x="27" y="461.0576">setMonsterView(MHMonsterView): void</text><ellipse cx="18" cy="474.0078" fill="#84BE84" rx="3" ry="3" style="stroke:#038048;stroke-width:1.0;"/><text fill="#000000" font-family="sans-serif" font-size="14" lengthAdjust="spacing" textLength="249" x="27" y="477.3545">setHunterView(MHHunterView): void</text><ellipse cx="18" cy="490.3047" fill="#84BE84" rx="3" ry="3" style="stroke:#038048;stroke-width:1.0;"/><text fill="#000000" font-family="sans-serif" font-size="14" lengthAdjust="spacing" textLength="131" x="27" y="493.6514">showHistory(): void</text><ellipse cx="18" cy="506.6016" fill="#84BE84" rx="3" ry="3" style="stroke:#038048;stroke-width:1.0;"/><text fill="#000000" font-family="sans-serif" font-size="14" font-style="italic" lengthAdjust="spacing" textLength="126" x="27" y="509.9482">onSkipTurn(): void</text><polygon fill="#FFFF44" points="18,517.8984,22,521.8984,18,525.8984,14,521.8984" style="stroke:#B38D22;stroke-width:1.0;"/><text fill="#000000" font-family="sans-serif" font-size="14" font-style="italic" lengthAdjust="spacing" textLength="151" x="27" y="526.2451">pathAlert(int, int): void</text><polygon fill="#FFFF44" points="18,534.1953,22,538.1953,18,542.1953,14,538.1953" style="stroke:#B38D22;stroke-width:1.0;"/><text fill="#000000" font-family="sans-serif" font-size="14" font-style="italic" lengthAdjust="spacing" textLength="145" x="27" y="542.542">wallAlert(int, int): void</text><polygon fill="#FFFF44" points="18,550.4922,22,554.4922,18,558.4922,14,554.4922" style="stroke:#B38D22;stroke-width:1.0;"/><text fill="#000000" font-family="sans-serif" font-size="14" font-style="italic" lengthAdjust="spacing" textLength="136" x="27" y="558.8389">alertOnClose(): void</text></g></a><text fill="#888888" font-family="sans-serif" font-size="10" lengthAdjust="spacing" textLength="186" x="121.5" y="582.4229">UMLDoclet 2.1.0, PlantUML 1.2022.14</text><!--SRC=[bLHDRzf04BttLuo2AX41LjBsP4L8XLP5BMwHIBcaEKpi8LvbsRLsrr0IvRztrZYsiMdK-hBQDszctdnu0G0iEL2u8PjXJ4lAqA3J1fHMz8RDa8g4W3QPsyDQa4ni6zsGIpN31OvtrXcC7SGIhOMpAoiUARpyC8vc2ubxCbEjdD5IalcbIkF5U6s2N8cj58m7GgrryFLz4ASSWJ3VQCKnAOWhppD02__f4tG5mCrD5mnIjv6tj_1KbEE_dWz2oaKeL0YpYVxTCQr2M1tX6-J2u8iHoGBBFXxuAVhkaFdE7GzXZdSaQojoVZSZJCYSjarqikzOx8F8hdF3sYQvSrgrumdBysItPUmhREavwF_eYRPTX7LupoAN_cYKfXEI8KI-msHcEGSmaSTgoawe8c88nT4In7dchEcgA6FS35n4N0dQSVXPL5zhJbgaUw7Cgbj3j8uVY3ClYxF21zr9zul2XYSg6PRUvvNx29t3EAsTxRKkgFtp4BPQ91NpwUKFU8Q1KC89bBpa7ThWdbmLu9LUUjwqN39FFPhGIAjlj5yOufrFflMMzXdzlELBE-iemznIH2hl2EhbMOAEoctfwhLURpMH_j5yJf7hsVIRW-fIKxtxMz9cBxLQbdl-6gsNeKkBfUiBvOOWkZreidSevR-pY-tzeQPIs-E1FX_UlfXybR3MsXy_e_ad7Kj-NTy5by7547Z_b6CKtcvvVuJcGlu0]--></g></svg>