<?xml version="1.0" encoding="UTF-8" standalone="no"?><svg xmlns="http://www.w3.org/2000/svg" xmlns:xlink="http://www.w3.org/1999/xlink" contentStyleType="text/css" height="309px" preserveAspectRatio="none" style="width:325px;height:309px;background:#FFFFFF;" version="1.1" viewBox="0 0 325 309" width="325px" zoomAndPan="magnify"><defs/><g><!--cluster chasseaumonstre.controller.utils--><g id="cluster_chasseaumonstre.controller.utils"><path d="M8.5,6 L270.5,6 A3.75,3.75 0 0 1 273,8.5 L280,28.2969 L315.5,28.2969 A2.5,2.5 0 0 1 318,30.7969 L318,281.5 A2.5,2.5 0 0 1 315.5,284 L8.5,284 A2.5,2.5 0 0 1 6,281.5 L6,8.5 A2.5,2.5 0 0 1 8.5,6 " fill="none" style="stroke:#000000;stroke-width:1.5;"/><line style="stroke:#000000;stroke-width:1.5;" x1="6" x2="280" y1="28.2969" y2="28.2969"/><text fill="#000000" font-family="sans-serif" font-size="14" font-weight="bold" lengthAdjust="spacing" textLength="261" x="10" y="20.9951">chasseaumonstre.controller.utils</text></g><!--class chasseaumonstre.controller.utils.UtilsController--><a href="UtilsController.html" target="_top" title="UtilsController.html" xlink:actuate="onRequest" xlink:href="UtilsController.html" xlink:show="new" xlink:title="UtilsController.html" xlink:type="simple"><g id="elem_chasseaumonstre.controller.utils.UtilsController"><rect codeLine="3" fill="#F1F1F1" height="227.2656" id="chasseaumonstre.controller.utils.UtilsController" rx="2.5" ry="2.5" style="stroke:#181818;stroke-width:0.5;" width="279" x="22.5" y="41"/><ellipse cx="109.75" cy="57" fill="#ADD1B2" rx="11" ry="11" style="stroke:#181818;stroke-width:1.0;"/><path d="M112.7188,62.6406 Q112.1406,62.9375 111.5,63.0781 Q110.8594,63.2344 110.1563,63.2344 Q107.6563,63.2344 106.3281,61.5938 Q105.0156,59.9375 105.0156,56.8125 Q105.0156,53.6875 106.3281,52.0313 Q107.6563,50.375 110.1563,50.375 Q110.8594,50.375 111.5,50.5313 Q112.1563,50.6875 112.7188,50.9844 L112.7188,53.7031 Q112.0938,53.125 111.5,52.8594 Q110.9063,52.5781 110.2813,52.5781 Q108.9375,52.5781 108.25,53.6563 Q107.5625,54.7188 107.5625,56.8125 Q107.5625,58.9063 108.25,59.9844 Q108.9375,61.0469 110.2813,61.0469 Q110.9063,61.0469 111.5,60.7813 Q112.0938,60.5 112.7188,59.9219 L112.7188,62.6406 Z " fill="#000000"/><text fill="#000000" font-family="sans-serif" font-size="14" lengthAdjust="spacing" textLength="96" x="130.25" y="61.8467">UtilsController</text><line style="stroke:#181818;stroke-width:0.5;" x1="23.5" x2="300.5" y1="73" y2="73"/><ellipse cx="33.5" cy="86.6484" fill="none" rx="3" ry="3" style="stroke:#038048;stroke-width:1.0;"/><text fill="#000000" font-family="sans-serif" font-size="14" lengthAdjust="spacing" text-decoration="underline" textLength="162" x="42.5" y="89.9951">FXML_LOCATION: String</text><ellipse cx="33.5" cy="102.9453" fill="none" rx="3" ry="3" style="stroke:#038048;stroke-width:1.0;"/><text fill="#000000" font-family="sans-serif" font-size="14" lengthAdjust="spacing" text-decoration="underline" textLength="144" x="42.5" y="106.292">SOUND_PATH: String</text><ellipse cx="33.5" cy="119.2422" fill="none" rx="3" ry="3" style="stroke:#038048;stroke-width:1.0;"/><text fill="#000000" font-family="sans-serif" font-size="14" lengthAdjust="spacing" text-decoration="underline" textLength="228" x="42.5" y="122.5889">GUN_SHOT_SOUND_PATH: String</text><ellipse cx="33.5" cy="135.5391" fill="none" rx="3" ry="3" style="stroke:#038048;stroke-width:1.0;"/><text fill="#000000" font-family="sans-serif" font-size="14" lengthAdjust="spacing" text-decoration="underline" textLength="197" x="42.5" y="138.8857">METAL_SOUND_PATH: String</text><ellipse cx="33.5" cy="151.8359" fill="none" rx="3" ry="3" style="stroke:#038048;stroke-width:1.0;"/><text fill="#000000" font-family="sans-serif" font-size="14" lengthAdjust="spacing" text-decoration="underline" textLength="247" x="42.5" y="155.1826">MONSTERKILL_SOUND_PATH: String</text><ellipse cx="33.5" cy="168.1328" fill="none" rx="3" ry="3" style="stroke:#038048;stroke-width:1.0;"/><text fill="#000000" font-family="sans-serif" font-size="14" lengthAdjust="spacing" text-decoration="underline" textLength="196" x="42.5" y="171.4795">STEPS_SOUND_PATH: String</text><ellipse cx="33.5" cy="184.4297" fill="none" rx="3" ry="3" style="stroke:#038048;stroke-width:1.0;"/><text fill="#000000" font-family="sans-serif" font-size="14" lengthAdjust="spacing" text-decoration="underline" textLength="206" x="42.5" y="187.7764">WRONG_SOUND_PATH: String</text><line style="stroke:#181818;stroke-width:0.5;" x1="23.5" x2="300.5" y1="195.0781" y2="195.0781"/><ellipse cx="33.5" cy="208.7266" fill="#84BE84" rx="3" ry="3" style="stroke:#038048;stroke-width:1.0;"/><text fill="#000000" font-family="sans-serif" font-size="14" lengthAdjust="spacing" text-decoration="underline" textLength="243" x="42.5" y="212.0732">playSound(String, double): boolean</text><ellipse cx="33.5" cy="225.0234" fill="#84BE84" rx="3" ry="3" style="stroke:#038048;stroke-width:1.0;"/><text fill="#000000" font-family="sans-serif" font-size="14" lengthAdjust="spacing" text-decoration="underline" textLength="172" x="42.5" y="228.3701">hovereffect(Button): void</text><ellipse cx="33.5" cy="241.3203" fill="#84BE84" rx="3" ry="3" style="stroke:#038048;stroke-width:1.0;"/><text fill="#000000" font-family="sans-serif" font-size="14" lengthAdjust="spacing" text-decoration="underline" textLength="253" x="42.5" y="244.667">onMouseEntered(MouseEvent): void</text><ellipse cx="33.5" cy="257.6172" fill="#84BE84" rx="3" ry="3" style="stroke:#038048;stroke-width:1.0;"/><text fill="#000000" font-family="sans-serif" font-size="14" lengthAdjust="spacing" text-decoration="underline" textLength="240" x="42.5" y="260.9639">onMouseExited(MouseEvent): void</text></g></a><text fill="#888888" font-family="sans-serif" font-size="10" lengthAdjust="spacing" textLength="186" x="62.5" y="299.2822">UMLDoclet 2.1.0, PlantUML 1.2022.14</text><!--SRC=[bP9DQy9048Rl_egv52ALqFRepQfLQRum2Is8X7KpQGAR7SbEf4NyxrrHf1Hiuro6UNaUXe410D2YHhCL4a6MmXWKRKtQS8Ek9CqDAOMDstAb3EnxFJYNL9Q5z1YFBnYiLhyIj-HQhTVMX1-rDoouaWUuVtdtlSmBnwDa4GP3YBcfzCSLDWxJO995esJ-3pXBWooUXqdMsV2doSYx0G-3E9akNnVU3P8rehWx_hOCWrbtVAl4LqojpfqJDe2Sset2_X0sH0g5lYAMjCC6Ym8bEyyjCschxAZAh_2aVMeDJZLRBNTEmmurTzC-A_xJEfnUxDma7jT0GNHigUzDI2faU78VtOS1H4fejYdSsHjCHThfVmC0]--></g></svg>