<?xml version="1.0" encoding="UTF-8" standalone="no"?><svg xmlns="http://www.w3.org/2000/svg" xmlns:xlink="http://www.w3.org/1999/xlink" contentStyleType="text/css" height="551px" preserveAspectRatio="none" style="width:382px;height:551px;background:#FFFFFF;" version="1.1" viewBox="0 0 382 551" width="382px" zoomAndPan="magnify"><defs/><g><!--class chasseaumonstre.controller.MHHunterController--><a href="MHHunterController.html" target="_top" title="MHHunterController.html" xlink:actuate="onRequest" xlink:href="MHHunterController.html" xlink:show="new" xlink:title="MHHunterController.html" xlink:type="simple"><g id="elem_chasseaumonstre.controller.MHHunterController"><rect codeLine="5" fill="#F1F1F1" height="314.6875" id="chasseaumonstre.controller.MHHunterController" rx="2.5" ry="2.5" style="stroke:#181818;stroke-width:0.5;" width="366" x="9" y="211"/><ellipse cx="119.75" cy="229.9688" fill="#ADD1B2" rx="11" ry="11" style="stroke:#181818;stroke-width:1.0;"/><path d="M122.7188,235.6094 Q122.1406,235.9063 121.5,236.0469 Q120.8594,236.2031 120.1563,236.2031 Q117.6563,236.2031 116.3281,234.5625 Q115.0156,232.9063 115.0156,229.7813 Q115.0156,226.6563 116.3281,225 Q117.6563,223.3438 120.1563,223.3438 Q120.8594,223.3438 121.5,223.5 Q122.1563,223.6563 122.7188,223.9531 L122.7188,226.6719 Q122.0938,226.0938 121.5,225.8281 Q120.9063,225.5469 120.2813,225.5469 Q118.9375,225.5469 118.25,226.625 Q117.5625,227.6875 117.5625,229.7813 Q117.5625,231.875 118.25,232.9531 Q118.9375,234.0156 120.2813,234.0156 Q120.9063,234.0156 121.5,233.75 Q122.0938,233.4688 122.7188,232.8906 L122.7188,235.6094 Z " fill="#000000"/><text fill="#000000" font-family="sans-serif" font-size="14" lengthAdjust="spacing" textLength="136" x="140.25" y="228.9951">MHHunterController</text><text fill="#000000" font-family="sans-serif" font-size="10" lengthAdjust="spacing" textLength="134" x="141.25" y="241.5791">chasseaumonstre.controller</text><line style="stroke:#181818;stroke-width:0.5;" x1="10" x2="374" y1="248.9375" y2="248.9375"/><rect fill="none" height="6" style="stroke:#C82930;stroke-width:1.0;" width="6" x="17" y="259.5859"/><text fill="#000000" font-family="sans-serif" font-size="14" lengthAdjust="spacing" textLength="115" x="29" y="265.9326">VOLUME: double</text><rect fill="none" height="6" style="stroke:#C82930;stroke-width:1.0;" width="6" x="17" y="275.8828"/><text fill="#000000" font-family="sans-serif" font-size="14" lengthAdjust="spacing" textLength="96" x="29" y="282.2295">shot: boolean</text><line style="stroke:#181818;stroke-width:0.5;" x1="10" x2="374" y1="289.5313" y2="289.5313"/><ellipse cx="20" cy="303.1797" fill="#84BE84" rx="3" ry="3" style="stroke:#038048;stroke-width:1.0;"/><text fill="#000000" font-family="sans-serif" font-size="14" lengthAdjust="spacing" textLength="340" x="29" y="306.5264">MHHunterController(Stage, MonsterHunterModel)</text><ellipse cx="20" cy="319.4766" fill="#84BE84" rx="3" ry="3" style="stroke:#038048;stroke-width:1.0;"/><text fill="#000000" font-family="sans-serif" font-size="14" lengthAdjust="spacing" textLength="101" x="29" y="322.8232">initialize(): void</text><ellipse cx="20" cy="335.7734" fill="#84BE84" rx="3" ry="3" style="stroke:#038048;stroke-width:1.0;"/><text fill="#000000" font-family="sans-serif" font-size="14" lengthAdjust="spacing" textLength="230" x="29" y="339.1201">getModel(): MonsterHunterModel</text><ellipse cx="20" cy="352.0703" fill="#84BE84" rx="3" ry="3" style="stroke:#038048;stroke-width:1.0;"/><text fill="#000000" font-family="sans-serif" font-size="14" lengthAdjust="spacing" textLength="142" x="29" y="355.417">getContentV(): VBox</text><ellipse cx="20" cy="368.3672" fill="#84BE84" rx="3" ry="3" style="stroke:#038048;stroke-width:1.0;"/><text fill="#000000" font-family="sans-serif" font-size="14" lengthAdjust="spacing" textLength="169" x="29" y="371.7139">setMaze(GridPane): void</text><ellipse cx="20" cy="384.6641" fill="#84BE84" rx="3" ry="3" style="stroke:#038048;stroke-width:1.0;"/><text fill="#000000" font-family="sans-serif" font-size="14" lengthAdjust="spacing" textLength="126" x="29" y="388.0107">onSkipTurn(): void</text><ellipse cx="20" cy="400.9609" fill="#84BE84" rx="3" ry="3" style="stroke:#038048;stroke-width:1.0;"/><text fill="#000000" font-family="sans-serif" font-size="14" lengthAdjust="spacing" textLength="306" x="29" y="404.3076">handleShot(int, int, Rectangle, Text): CellInfo</text><ellipse cx="20" cy="417.2578" fill="#84BE84" rx="3" ry="3" style="stroke:#038048;stroke-width:1.0;"/><text fill="#000000" font-family="sans-serif" font-size="14" lengthAdjust="spacing" textLength="132" x="29" y="420.6045">hasShot(): boolean</text><ellipse cx="20" cy="433.5547" fill="#84BE84" rx="3" ry="3" style="stroke:#038048;stroke-width:1.0;"/><text fill="#000000" font-family="sans-serif" font-size="14" lengthAdjust="spacing" textLength="269" x="29" y="436.9014">setMonsterView(MHMonsterView): void</text><polygon fill="#FFFF44" points="20,444.8516,24,448.8516,20,452.8516,16,448.8516" style="stroke:#B38D22;stroke-width:1.0;"/><text fill="#000000" font-family="sans-serif" font-size="14" lengthAdjust="spacing" textLength="151" x="29" y="453.1982">pathAlert(int, int): void</text><polygon fill="#FFFF44" points="20,461.1484,24,465.1484,20,469.1484,16,465.1484" style="stroke:#B38D22;stroke-width:1.0;"/><text fill="#000000" font-family="sans-serif" font-size="14" lengthAdjust="spacing" textLength="145" x="29" y="469.4951">wallAlert(int, int): void</text><rect fill="#F24D5C" height="6" style="stroke:#C82930;stroke-width:1.0;" width="6" x="17" y="479.4453"/><text fill="#000000" font-family="sans-serif" font-size="14" lengthAdjust="spacing" textLength="178" x="29" y="485.792">monsterAlert(int, int): void</text><polygon fill="#FFFF44" points="20,493.7422,24,497.7422,20,501.7422,16,497.7422" style="stroke:#B38D22;stroke-width:1.0;"/><text fill="#000000" font-family="sans-serif" font-size="14" lengthAdjust="spacing" textLength="101" x="29" y="502.0889">winAlert(): void</text><polygon fill="#FFFF44" points="20,510.0391,24,514.0391,20,518.0391,16,514.0391" style="stroke:#B38D22;stroke-width:1.0;"/><text fill="#000000" font-family="sans-serif" font-size="14" lengthAdjust="spacing" textLength="136" x="29" y="518.3857">alertOnClose(): void</text></g></a><!--class chasseaumonstre.controller.MHPlayerController--><a href="MHPlayerController.html" target="_top" title="MHPlayerController.html" xlink:actuate="onRequest" xlink:href="MHPlayerController.html" xlink:show="new" xlink:title="MHPlayerController.html" xlink:type="simple"><g id="elem_chasseaumonstre.controller.MHPlayerController"><rect codeLine="24" fill="#F1F1F1" height="143.7188" id="chasseaumonstre.controller.MHPlayerController" rx="2.5" ry="2.5" style="stroke:#181818;stroke-width:0.5;" width="179" x="102.5" y="7"/><ellipse cx="121.55" cy="25.9688" fill="#A9DCDF" rx="11" ry="11" style="stroke:#181818;stroke-width:1.0;"/><path d="M121.6594,21.3125 L120.5031,26.3906 L122.8313,26.3906 L121.6594,21.3125 Z M120.175,19.0781 L123.1594,19.0781 L126.5188,31.4688 L124.0656,31.4688 L123.3,28.4063 L120.0188,28.4063 L119.2688,31.4688 L116.8313,31.4688 L120.175,19.0781 Z " fill="#000000"/><text fill="#000000" font-family="sans-serif" font-size="14" font-style="italic" lengthAdjust="spacing" textLength="131" x="139.95" y="24.9951">MHPlayerController</text><text fill="#000000" font-family="sans-serif" font-size="10" font-style="italic" lengthAdjust="spacing" textLength="138" x="136.45" y="37.5791">chasseaumonstre.controller</text><line style="stroke:#181818;stroke-width:0.5;" x1="103.5" x2="280.5" y1="44.9375" y2="44.9375"/><ellipse cx="113.5" cy="58.5859" fill="#84BE84" rx="3" ry="3" style="stroke:#038048;stroke-width:1.0;"/><text fill="#000000" font-family="sans-serif" font-size="14" font-style="italic" lengthAdjust="spacing" textLength="101" x="122.5" y="61.9326">initialize(): void</text><ellipse cx="113.5" cy="74.8828" fill="#84BE84" rx="3" ry="3" style="stroke:#038048;stroke-width:1.0;"/><text fill="#000000" font-family="sans-serif" font-size="14" font-style="italic" lengthAdjust="spacing" textLength="127" x="122.5" y="78.2295">onSkipTurn(): void</text><polygon fill="#FFFF44" points="113.5,86.1797,117.5,90.1797,113.5,94.1797,109.5,90.1797" style="stroke:#B38D22;stroke-width:1.0;"/><text fill="#000000" font-family="sans-serif" font-size="14" font-style="italic" lengthAdjust="spacing" textLength="153" x="122.5" y="94.5264">pathAlert(int, int): void</text><polygon fill="#FFFF44" points="113.5,102.4766,117.5,106.4766,113.5,110.4766,109.5,106.4766" style="stroke:#B38D22;stroke-width:1.0;"/><text fill="#000000" font-family="sans-serif" font-size="14" font-style="italic" lengthAdjust="spacing" textLength="147" x="122.5" y="110.8232">wallAlert(int, int): void</text><polygon fill="#FFFF44" points="113.5,118.7734,117.5,122.7734,113.5,126.7734,109.5,122.7734" style="stroke:#B38D22;stroke-width:1.0;"/><text fill="#000000" font-family="sans-serif" font-size="14" font-style="italic" lengthAdjust="spacing" textLength="103" x="122.5" y="127.1201">winAlert(): void</text><polygon fill="#FFFF44" points="113.5,135.0703,117.5,139.0703,113.5,143.0703,109.5,139.0703" style="stroke:#B38D22;stroke-width:1.0;"/><text fill="#000000" font-family="sans-serif" font-size="14" font-style="italic" lengthAdjust="spacing" textLength="136" x="122.5" y="143.417">alertOnClose(): void</text></g></a><!--reverse link chasseaumonstre.controller.MHPlayerController to chasseaumonstre.controller.MHHunterController--><g id="link_chasseaumonstre.controller.MHPlayerController_chasseaumonstre.controller.MHHunterController"><path codeLine="33" d="M192,171.17 C192,183.92 192,197.31 192,210.86 " fill="none" id="chasseaumonstre.controller.MHPlayerController-backto-chasseaumonstre.controller.MHHunterController" style="stroke:#181818;stroke-width:1.0;"/><polygon fill="none" points="185,171.07,192,151.07,199,171.07,185,171.07" style="stroke:#181818;stroke-width:1.0;"/></g><text fill="#888888" font-family="sans-serif" font-size="10" lengthAdjust="spacing" textLength="186" x="91" y="540.9697">UMLDoclet 2.1.0, PlantUML 1.2022.14</text><!--SRC=[jLHDJzj04BttLuoeAYLgOa7LKuIGshHgAc616iY5SfZOatZLzOorE-6Zm7_lsgROYI4fX_fWo- -zdS-d1G3mfC2OaoymeIaLw5350GlJcq13Pb82oWkzXOKXc_fDD2VD9C0LdbZq7lOElVbDeuEFH_5aic8bDnPM9zQI-ycFvFvHaWKnuIeNzkeeIfv4Uu0UNgQZRbYukEY2KQQvlRo4kwgsyXdEJexFuwyZI6KrjzJWFXCTmLp44l8J_BuRipTLND80uh8gSZKTIqgstnmpRDIW3Nts-YEu4fCst9AqafTCDyYQhinAhBDIEliiDmqPjXPZYFxDcVGKcJfPXAU_J76sSjoj84DEBKr3npt3Ee3gzOCIHLxQqDePtMWuD2Phl_D2sWTzTQh_pAJAYkfkPeQkU_6azRTPmTi2DViKXjaKq95SexNR9SEyph0haE5QqM6mX4zuRCMlx-cXDZFEW-ymqMTSVMhnzZ-uUZDivUfDiElgkx-LFcorNbksnHyjsJyiggtUlRCrzKkBQOjsxUXrupoy7mvVTwyyPg4IXOL8-JcFZxz8OiF5-I4wYFO74FAm1XJUNP7pHi9C_m00]--></g></svg>