<?xml version="1.0" encoding="UTF-8" standalone="no"?><svg xmlns="http://www.w3.org/2000/svg" xmlns:xlink="http://www.w3.org/1999/xlink" contentStyleType="text/css" height="332px" preserveAspectRatio="none" style="width:379px;height:332px;background:#FFFFFF;" version="1.1" viewBox="0 0 379 332" width="379px" zoomAndPan="magnify"><defs/><g><!--class chasseaumonstre.controller.MHMenuController--><a href="MHMenuController.html" target="_top" title="MHMenuController.html" xlink:actuate="onRequest" xlink:href="MHMenuController.html" xlink:show="new" xlink:title="MHMenuController.html" xlink:type="simple"><g id="elem_chasseaumonstre.controller.MHMenuController"><rect codeLine="5" fill="#F1F1F1" height="298.3906" id="chasseaumonstre.controller.MHMenuController" rx="2.5" ry="2.5" style="stroke:#181818;stroke-width:0.5;" width="358" x="7" y="7"/><ellipse cx="114.75" cy="25.9688" fill="#ADD1B2" rx="11" ry="11" style="stroke:#181818;stroke-width:1.0;"/><path d="M117.7188,31.6094 Q117.1406,31.9063 116.5,32.0469 Q115.8594,32.2031 115.1563,32.2031 Q112.6563,32.2031 111.3281,30.5625 Q110.0156,28.9063 110.0156,25.7813 Q110.0156,22.6563 111.3281,21 Q112.6563,19.3438 115.1563,19.3438 Q115.8594,19.3438 116.5,19.5 Q117.1563,19.6563 117.7188,19.9531 L117.7188,22.6719 Q117.0938,22.0938 116.5,21.8281 Q115.9063,21.5469 115.2813,21.5469 Q113.9375,21.5469 113.25,22.625 Q112.5625,23.6875 112.5625,25.7813 Q112.5625,27.875 113.25,28.9531 Q113.9375,30.0156 115.2813,30.0156 Q115.9063,30.0156 116.5,29.75 Q117.0938,29.4688 117.7188,28.8906 L117.7188,31.6094 Z " fill="#000000"/><text fill="#000000" font-family="sans-serif" font-size="14" lengthAdjust="spacing" textLength="128" x="138.25" y="24.9951">MHMenuController</text><text fill="#000000" font-family="sans-serif" font-size="10" lengthAdjust="spacing" textLength="134" x="135.25" y="37.5791">chasseaumonstre.controller</text><line style="stroke:#181818;stroke-width:0.5;" x1="8" x2="364" y1="44.9375" y2="44.9375"/><rect fill="none" height="6" style="stroke:#C82930;stroke-width:1.0;" width="6" x="15" y="55.5859"/><text fill="#000000" font-family="sans-serif" font-size="14" lengthAdjust="spacing" text-decoration="underline" textLength="184" x="27" y="61.9326">BACKGROUND_URL: String</text><rect fill="none" height="6" style="stroke:#C82930;stroke-width:1.0;" width="6" x="15" y="71.8828"/><text fill="#000000" font-family="sans-serif" font-size="14" lengthAdjust="spacing" textLength="157" x="27" y="78.2295">imageView: ImageView</text><rect fill="none" height="6" style="stroke:#C82930;stroke-width:1.0;" width="6" x="15" y="88.1797"/><text fill="#000000" font-family="sans-serif" font-size="14" lengthAdjust="spacing" textLength="93" x="27" y="94.5264">jvjBtn: Button</text><rect fill="none" height="6" style="stroke:#C82930;stroke-width:1.0;" width="6" x="15" y="104.4766"/><text fill="#000000" font-family="sans-serif" font-size="14" lengthAdjust="spacing" textLength="98" x="27" y="110.8232">cviBtn: Button</text><rect fill="none" height="6" style="stroke:#C82930;stroke-width:1.0;" width="6" x="15" y="120.7734"/><text fill="#000000" font-family="sans-serif" font-size="14" lengthAdjust="spacing" textLength="103" x="27" y="127.1201">mviBtn: Button</text><rect fill="none" height="6" style="stroke:#C82930;stroke-width:1.0;" width="6" x="15" y="137.0703"/><text fill="#000000" font-family="sans-serif" font-size="14" lengthAdjust="spacing" textLength="93" x="27" y="143.417">iviBtn: Button</text><rect fill="none" height="6" style="stroke:#C82930;stroke-width:1.0;" width="6" x="15" y="153.3672"/><text fill="#000000" font-family="sans-serif" font-size="14" lengthAdjust="spacing" textLength="88" x="27" y="159.7139">stage: Stage</text><rect fill="none" height="6" style="stroke:#C82930;stroke-width:1.0;" width="6" x="15" y="169.6641"/><text fill="#000000" font-family="sans-serif" font-size="14" lengthAdjust="spacing" textLength="198" x="27" y="176.0107">model: MonsterHunterModel</text><line style="stroke:#181818;stroke-width:0.5;" x1="8" x2="364" y1="183.3125" y2="183.3125"/><ellipse cx="18" cy="196.9609" fill="#84BE84" rx="3" ry="3" style="stroke:#038048;stroke-width:1.0;"/><text fill="#000000" font-family="sans-serif" font-size="14" lengthAdjust="spacing" textLength="332" x="27" y="200.3076">MHMenuController(Stage, MonsterHunterModel)</text><ellipse cx="18" cy="213.2578" fill="#84BE84" rx="3" ry="3" style="stroke:#038048;stroke-width:1.0;"/><text fill="#000000" font-family="sans-serif" font-size="14" lengthAdjust="spacing" textLength="230" x="27" y="216.6045">getModel(): MonsterHunterModel</text><rect fill="#F24D5C" height="6" style="stroke:#C82930;stroke-width:1.0;" width="6" x="15" y="226.5547"/><text fill="#000000" font-family="sans-serif" font-size="14" lengthAdjust="spacing" textLength="92" x="27" y="232.9014">onPVP(): void</text><rect fill="#F24D5C" height="6" style="stroke:#C82930;stroke-width:1.0;" width="6" x="15" y="242.8516"/><text fill="#000000" font-family="sans-serif" font-size="14" lengthAdjust="spacing" textLength="133" x="27" y="249.1982">onHunterVAi(): void</text><rect fill="#F24D5C" height="6" style="stroke:#C82930;stroke-width:1.0;" width="6" x="15" y="259.1484"/><text fill="#000000" font-family="sans-serif" font-size="14" lengthAdjust="spacing" textLength="143" x="27" y="265.4951">onMonsterVAi(): void</text><rect fill="#F24D5C" height="6" style="stroke:#C82930;stroke-width:1.0;" width="6" x="15" y="275.4453"/><text fill="#000000" font-family="sans-serif" font-size="14" lengthAdjust="spacing" textLength="98" x="27" y="281.792">onAiVAi(): void</text><ellipse cx="18" cy="294.7422" fill="#84BE84" rx="3" ry="3" style="stroke:#038048;stroke-width:1.0;"/><text fill="#000000" font-family="sans-serif" font-size="14" lengthAdjust="spacing" textLength="101" x="27" y="298.0889">initialize(): void</text></g></a><text fill="#888888" font-family="sans-serif" font-size="10" lengthAdjust="spacing" textLength="186" x="92.5" y="321.6729">UMLDoclet 2.1.0, PlantUML 1.2022.14</text><!--SRC=[VP9VQy8m5CNVzoakma1HYuuzbI7u1-QOtKJH5oSZjDVsIff8SzknYTzzgNFgIhiy9E5tpZsvX0i0O911YHZDJlWunvr81Ei4b5PuOsM8A430UCUVi26KWIdI63dI5X-vBuKnK7imz8LkzxxdZJrKwL0hJhIKcBofazJf-P6reaXZhGmdwFXdKms4WMhPAOR2QbL4JiInNAzXV-mgNtl3Wia_G7lG7pu_pbuNBwFtnMpYmfmJKk7PsAPOXBWa_73XwVTwKRVPTi3AXK7AhDM5-ncLyhY2KmMtROQODsMFgnGTe7J1opy3at6gxExbx6nf5h-WVenebTGqBaKXyX7L6_-6jxMQBgUvATCKNECVzx9FPU8fiKBjKvdG94LCGjef-QCTJWE6-NkmqJe_5jvaf7rfH_ZEwJgT5aobK6mft6QO6DAgtlW6]--></g></svg>