<?xml version="1.0" encoding="UTF-8" standalone="no"?><svg xmlns="http://www.w3.org/2000/svg" xmlns:xlink="http://www.w3.org/1999/xlink" contentStyleType="text/css" height="616px" preserveAspectRatio="none" style="width:392px;height:616px;background:#FFFFFF;" version="1.1" viewBox="0 0 392 616" width="392px" zoomAndPan="magnify"><defs/><g><!--class chasseaumonstre.controller.MHMonsterController--><a href="MHMonsterController.html" target="_top" title="MHMonsterController.html" xlink:actuate="onRequest" xlink:href="MHMonsterController.html" xlink:show="new" xlink:title="MHMonsterController.html" xlink:type="simple"><g id="elem_chasseaumonstre.controller.MHMonsterController"><rect codeLine="5" fill="#F1F1F1" height="379.875" id="chasseaumonstre.controller.MHMonsterController" rx="2.5" ry="2.5" style="stroke:#181818;stroke-width:0.5;" width="376" x="9" y="211"/><ellipse cx="119.75" cy="229.9688" fill="#ADD1B2" rx="11" ry="11" style="stroke:#181818;stroke-width:1.0;"/><path d="M122.7188,235.6094 Q122.1406,235.9063 121.5,236.0469 Q120.8594,236.2031 120.1563,236.2031 Q117.6563,236.2031 116.3281,234.5625 Q115.0156,232.9063 115.0156,229.7813 Q115.0156,226.6563 116.3281,225 Q117.6563,223.3438 120.1563,223.3438 Q120.8594,223.3438 121.5,223.5 Q122.1563,223.6563 122.7188,223.9531 L122.7188,226.6719 Q122.0938,226.0938 121.5,225.8281 Q120.9063,225.5469 120.2813,225.5469 Q118.9375,225.5469 118.25,226.625 Q117.5625,227.6875 117.5625,229.7813 Q117.5625,231.875 118.25,232.9531 Q118.9375,234.0156 120.2813,234.0156 Q120.9063,234.0156 121.5,233.75 Q122.0938,233.4688 122.7188,232.8906 L122.7188,235.6094 Z " fill="#000000"/><text fill="#000000" font-family="sans-serif" font-size="14" lengthAdjust="spacing" textLength="146" x="140.25" y="228.9951">MHMonsterController</text><text fill="#000000" font-family="sans-serif" font-size="10" lengthAdjust="spacing" textLength="134" x="146.25" y="241.5791">chasseaumonstre.controller</text><line style="stroke:#181818;stroke-width:0.5;" x1="10" x2="384" y1="248.9375" y2="248.9375"/><rect fill="none" height="6" style="stroke:#C82930;stroke-width:1.0;" width="6" x="17" y="259.5859"/><text fill="#000000" font-family="sans-serif" font-size="14" lengthAdjust="spacing" textLength="115" x="29" y="265.9326">VOLUME: double</text><rect fill="none" height="6" style="stroke:#C82930;stroke-width:1.0;" width="6" x="17" y="275.8828"/><text fill="#000000" font-family="sans-serif" font-size="14" lengthAdjust="spacing" textLength="153" x="29" y="282.2295">LOW_VOLUME: double</text><rect fill="none" height="6" style="stroke:#C82930;stroke-width:1.0;" width="6" x="17" y="292.1797"/><text fill="#000000" font-family="sans-serif" font-size="14" lengthAdjust="spacing" textLength="112" x="29" y="298.5264">moved: boolean</text><line style="stroke:#181818;stroke-width:0.5;" x1="10" x2="384" y1="305.8281" y2="305.8281"/><ellipse cx="20" cy="319.4766" fill="#84BE84" rx="3" ry="3" style="stroke:#038048;stroke-width:1.0;"/><text fill="#000000" font-family="sans-serif" font-size="14" lengthAdjust="spacing" textLength="350" x="29" y="322.8232">MHMonsterController(Stage, MonsterHunterModel)</text><ellipse cx="20" cy="335.7734" fill="#84BE84" rx="3" ry="3" style="stroke:#038048;stroke-width:1.0;"/><text fill="#000000" font-family="sans-serif" font-size="14" lengthAdjust="spacing" textLength="101" x="29" y="339.1201">initialize(): void</text><ellipse cx="20" cy="352.0703" fill="#84BE84" rx="3" ry="3" style="stroke:#038048;stroke-width:1.0;"/><text fill="#000000" font-family="sans-serif" font-size="14" lengthAdjust="spacing" textLength="230" x="29" y="355.417">getModel(): MonsterHunterModel</text><ellipse cx="20" cy="368.3672" fill="#84BE84" rx="3" ry="3" style="stroke:#038048;stroke-width:1.0;"/><text fill="#000000" font-family="sans-serif" font-size="14" lengthAdjust="spacing" textLength="142" x="29" y="371.7139">getContentV(): VBox</text><ellipse cx="20" cy="384.6641" fill="#84BE84" rx="3" ry="3" style="stroke:#038048;stroke-width:1.0;"/><text fill="#000000" font-family="sans-serif" font-size="14" lengthAdjust="spacing" textLength="207" x="29" y="388.0107">setVue(MHMonsterView): void</text><ellipse cx="20" cy="400.9609" fill="#84BE84" rx="3" ry="3" style="stroke:#038048;stroke-width:1.0;"/><text fill="#000000" font-family="sans-serif" font-size="14" lengthAdjust="spacing" textLength="126" x="29" y="404.3076">onSkipTurn(): void</text><rect fill="#F24D5C" height="6" style="stroke:#C82930;stroke-width:1.0;" width="6" x="17" y="414.2578"/><text fill="#000000" font-family="sans-serif" font-size="14" lengthAdjust="spacing" textLength="175" x="29" y="420.6045">advance(int, int): boolean</text><ellipse cx="20" cy="433.5547" fill="#84BE84" rx="3" ry="3" style="stroke:#038048;stroke-width:1.0;"/><text fill="#000000" font-family="sans-serif" font-size="14" lengthAdjust="spacing" textLength="195" x="29" y="436.9014">handleMove(int, int): CellInfo</text><ellipse cx="20" cy="449.8516" fill="#84BE84" rx="3" ry="3" style="stroke:#038048;stroke-width:1.0;"/><text fill="#000000" font-family="sans-serif" font-size="14" lengthAdjust="spacing" textLength="146" x="29" y="453.1982">hasMoved(): boolean</text><ellipse cx="20" cy="466.1484" fill="#84BE84" rx="3" ry="3" style="stroke:#038048;stroke-width:1.0;"/><text fill="#000000" font-family="sans-serif" font-size="14" lengthAdjust="spacing" textLength="249" x="29" y="469.4951">setHunterView(MHHunterView): void</text><polygon fill="#FFFF44" points="20,477.4453,24,481.4453,20,485.4453,16,481.4453" style="stroke:#B38D22;stroke-width:1.0;"/><text fill="#000000" font-family="sans-serif" font-size="14" lengthAdjust="spacing" textLength="151" x="29" y="485.792">pathAlert(int, int): void</text><polygon fill="#FFFF44" points="20,493.7422,24,497.7422,20,501.7422,16,497.7422" style="stroke:#B38D22;stroke-width:1.0;"/><text fill="#000000" font-family="sans-serif" font-size="14" lengthAdjust="spacing" textLength="145" x="29" y="502.0889">wallAlert(int, int): void</text><rect fill="#F24D5C" height="6" style="stroke:#C82930;stroke-width:1.0;" width="6" x="17" y="512.0391"/><text fill="#000000" font-family="sans-serif" font-size="14" lengthAdjust="spacing" textLength="164" x="29" y="518.3857">visitedAlert(int, int): void</text><rect fill="#F24D5C" height="6" style="stroke:#C82930;stroke-width:1.0;" width="6" x="17" y="528.3359"/><text fill="#000000" font-family="sans-serif" font-size="14" lengthAdjust="spacing" textLength="137" x="29" y="534.6826">farAlert(int, int): void</text><polygon fill="#FFFF44" points="20,542.6328,24,546.6328,20,550.6328,16,546.6328" style="stroke:#B38D22;stroke-width:1.0;"/><text fill="#000000" font-family="sans-serif" font-size="14" lengthAdjust="spacing" textLength="101" x="29" y="550.9795">winAlert(): void</text><polygon fill="#FFFF44" points="20,558.9297,24,562.9297,20,566.9297,16,562.9297" style="stroke:#B38D22;stroke-width:1.0;"/><text fill="#000000" font-family="sans-serif" font-size="14" lengthAdjust="spacing" textLength="136" x="29" y="567.2764">alertOnClose(): void</text><ellipse cx="20" cy="580.2266" fill="#84BE84" rx="3" ry="3" style="stroke:#038048;stroke-width:1.0;"/><text fill="#000000" font-family="sans-serif" font-size="14" lengthAdjust="spacing" textLength="236" x="29" y="583.5732">keyPressedOnScene(Scene): void</text></g></a><!--class chasseaumonstre.controller.MHPlayerController--><a href="MHPlayerController.html" target="_top" title="MHPlayerController.html" xlink:actuate="onRequest" xlink:href="MHPlayerController.html" xlink:show="new" xlink:title="MHPlayerController.html" xlink:type="simple"><g id="elem_chasseaumonstre.controller.MHPlayerController"><rect codeLine="28" fill="#F1F1F1" height="143.7188" id="chasseaumonstre.controller.MHPlayerController" rx="2.5" ry="2.5" style="stroke:#181818;stroke-width:0.5;" width="179" x="107.5" y="7"/><ellipse cx="126.55" cy="25.9688" fill="#A9DCDF" rx="11" ry="11" style="stroke:#181818;stroke-width:1.0;"/><path d="M126.6594,21.3125 L125.5031,26.3906 L127.8313,26.3906 L126.6594,21.3125 Z M125.175,19.0781 L128.1594,19.0781 L131.5188,31.4688 L129.0656,31.4688 L128.3,28.4063 L125.0188,28.4063 L124.2688,31.4688 L121.8313,31.4688 L125.175,19.0781 Z " fill="#000000"/><text fill="#000000" font-family="sans-serif" font-size="14" font-style="italic" lengthAdjust="spacing" textLength="131" x="144.95" y="24.9951">MHPlayerController</text><text fill="#000000" font-family="sans-serif" font-size="10" font-style="italic" lengthAdjust="spacing" textLength="138" x="141.45" y="37.5791">chasseaumonstre.controller</text><line style="stroke:#181818;stroke-width:0.5;" x1="108.5" x2="285.5" y1="44.9375" y2="44.9375"/><ellipse cx="118.5" cy="58.5859" fill="#84BE84" rx="3" ry="3" style="stroke:#038048;stroke-width:1.0;"/><text fill="#000000" font-family="sans-serif" font-size="14" font-style="italic" lengthAdjust="spacing" textLength="101" x="127.5" y="61.9326">initialize(): void</text><ellipse cx="118.5" cy="74.8828" fill="#84BE84" rx="3" ry="3" style="stroke:#038048;stroke-width:1.0;"/><text fill="#000000" font-family="sans-serif" font-size="14" font-style="italic" lengthAdjust="spacing" textLength="127" x="127.5" y="78.2295">onSkipTurn(): void</text><polygon fill="#FFFF44" points="118.5,86.1797,122.5,90.1797,118.5,94.1797,114.5,90.1797" style="stroke:#B38D22;stroke-width:1.0;"/><text fill="#000000" font-family="sans-serif" font-size="14" font-style="italic" lengthAdjust="spacing" textLength="153" x="127.5" y="94.5264">pathAlert(int, int): void</text><polygon fill="#FFFF44" points="118.5,102.4766,122.5,106.4766,118.5,110.4766,114.5,106.4766" style="stroke:#B38D22;stroke-width:1.0;"/><text fill="#000000" font-family="sans-serif" font-size="14" font-style="italic" lengthAdjust="spacing" textLength="147" x="127.5" y="110.8232">wallAlert(int, int): void</text><polygon fill="#FFFF44" points="118.5,118.7734,122.5,122.7734,118.5,126.7734,114.5,122.7734" style="stroke:#B38D22;stroke-width:1.0;"/><text fill="#000000" font-family="sans-serif" font-size="14" font-style="italic" lengthAdjust="spacing" textLength="103" x="127.5" y="127.1201">winAlert(): void</text><polygon fill="#FFFF44" points="118.5,135.0703,122.5,139.0703,118.5,143.0703,114.5,139.0703" style="stroke:#B38D22;stroke-width:1.0;"/><text fill="#000000" font-family="sans-serif" font-size="14" font-style="italic" lengthAdjust="spacing" textLength="136" x="127.5" y="143.417">alertOnClose(): void</text></g></a><!--reverse link chasseaumonstre.controller.MHPlayerController to chasseaumonstre.controller.MHMonsterController--><g id="link_chasseaumonstre.controller.MHPlayerController_chasseaumonstre.controller.MHMonsterController"><path codeLine="37" d="M197,171.47 C197,184.06 197,197.35 197,210.93 " fill="none" id="chasseaumonstre.controller.MHPlayerController-backto-chasseaumonstre.controller.MHMonsterController" style="stroke:#181818;stroke-width:1.0;"/><polygon fill="none" points="190,171.02,197,151.02,204,171.02,190,171.02" style="stroke:#181818;stroke-width:1.0;"/></g><text fill="#888888" font-family="sans-serif" font-size="10" lengthAdjust="spacing" textLength="186" x="96" y="606.1572">UMLDoclet 2.1.0, PlantUML 1.2022.14</text><!--SRC=[jPHHQzim4CVVzocEZe73OjEEFOLIsB911p4fPFKUsZ8KwrABoYSZoUwohjzzafF6JkmawyFy8EF__sVT-Kvd00235eZbQ0gMuWmBffbL6aWHld4sP88ZO5xO9Im4IcvsrHnjffnSwwbani39kH6_SNJsyIA-Z1KPYtgio6eb9UfRMhkd5sdcQ6HbxXcDKRg1Je0Ps6z7FVl2pKsF6cKsbtTty5IdvwymcKwkuwyZuAgSIspqoVJ7ptrUhYha8vWh9P7HHd_V4p6OMNQFGrWRboMvDLOSvQ1vJv2mWabNXs0mWae9tdZtQ6lSEzrDjZWV5Sac7aq-gr-DwTgQb1Xiyai4FdOYAPezYE9xgQcJHSXunIZ5G90TWbi6FL-VCU8IOrURDZP6AR_HGhKvuo4Uz6tYCbrzda_H9TmyxERqjc0s- -HARDlXjf579kLX9Ao44HRv4Mh1zB5GWbP4ns5Udj9OAjFJtmTSNcbq9vjFQPOYOL2lRUvvDKrixiuzIstFM5r9jlmFKxMxRJrKks9tffvUCdq-UBJRs86pryB-eULj-dZtj-Xz3Mn3Utkvxj7hodd-9mnV-LzRXq4_5R1Goj-kuyaNbKhtw_uGdKMdGt21o3eLtbMeZL2kg7y1]--></g></svg>