<?xml version="1.0" encoding="UTF-8" standalone="no"?><svg xmlns="http://www.w3.org/2000/svg" xmlns:xlink="http://www.w3.org/1999/xlink" contentStyleType="text/css" height="971px" preserveAspectRatio="none" style="width:1145px;height:971px;background:#FFFFFF;" version="1.1" viewBox="0 0 1145 971" width="1145px" zoomAndPan="magnify"><defs/><g><!--cluster chasseaumonstre.controller--><g id="cluster_chasseaumonstre.controller"><path d="M8.5,6 L232.5,6 A3.75,3.75 0 0 1 235,8.5 L242,28.2969 L1135.5,28.2969 A2.5,2.5 0 0 1 1138,30.7969 L1138,943.5 A2.5,2.5 0 0 1 1135.5,946 L8.5,946 A2.5,2.5 0 0 1 6,943.5 L6,8.5 A2.5,2.5 0 0 1 8.5,6 " fill="none" style="stroke:#000000;stroke-width:1.5;"/><line style="stroke:#000000;stroke-width:1.5;" x1="6" x2="242" y1="28.2969" y2="28.2969"/><text fill="#000000" font-family="sans-serif" font-size="14" font-weight="bold" lengthAdjust="spacing" textLength="223" x="10" y="20.9951">chasseaumonstre.controller</text></g><!--class chasseaumonstre.controller.JVJController--><a href="JVJController.html" target="_top" title="JVJController.html" xlink:actuate="onRequest" xlink:href="JVJController.html" xlink:show="new" xlink:title="JVJController.html" xlink:type="simple"><g id="elem_chasseaumonstre.controller.JVJController"><rect codeLine="3" fill="#F1F1F1" height="243.5625" id="chasseaumonstre.controller.JVJController" rx="2.5" ry="2.5" style="stroke:#181818;stroke-width:0.5;" width="312" x="810" y="146.5"/><ellipse cx="920.75" cy="162.5" fill="#ADD1B2" rx="11" ry="11" style="stroke:#181818;stroke-width:1.0;"/><path d="M923.7188,168.1406 Q923.1406,168.4375 922.5,168.5781 Q921.8594,168.7344 921.1563,168.7344 Q918.6563,168.7344 917.3281,167.0938 Q916.0156,165.4375 916.0156,162.3125 Q916.0156,159.1875 917.3281,157.5313 Q918.6563,155.875 921.1563,155.875 Q921.8594,155.875 922.5,156.0313 Q923.1563,156.1875 923.7188,156.4844 L923.7188,159.2031 Q923.0938,158.625 922.5,158.3594 Q921.9063,158.0781 921.2813,158.0781 Q919.9375,158.0781 919.25,159.1563 Q918.5625,160.2188 918.5625,162.3125 Q918.5625,164.4063 919.25,165.4844 Q919.9375,166.5469 921.2813,166.5469 Q921.9063,166.5469 922.5,166.2813 Q923.0938,166 923.7188,165.4219 L923.7188,168.1406 Z " fill="#000000"/><text fill="#000000" font-family="sans-serif" font-size="14" lengthAdjust="spacing" textLength="82" x="941.25" y="167.3467">JVJController</text><line style="stroke:#181818;stroke-width:0.5;" x1="811" x2="1121" y1="178.5" y2="178.5"/><rect fill="none" height="6" style="stroke:#C82930;stroke-width:1.0;" width="6" x="818" y="189.1484"/><text fill="#000000" font-family="sans-serif" font-size="14" lengthAdjust="spacing" textLength="175" x="830" y="195.4951">startGameButton: Button</text><rect fill="none" height="6" style="stroke:#C82930;stroke-width:1.0;" width="6" x="818" y="205.4453"/><text fill="#000000" font-family="sans-serif" font-size="14" lengthAdjust="spacing" textLength="83" x="830" y="211.792">j1: TextField</text><rect fill="none" height="6" style="stroke:#C82930;stroke-width:1.0;" width="6" x="818" y="221.7422"/><text fill="#000000" font-family="sans-serif" font-size="14" lengthAdjust="spacing" textLength="83" x="830" y="228.0889">j2: TextField</text><rect fill="none" height="6" style="stroke:#C82930;stroke-width:1.0;" width="6" x="818" y="238.0391"/><text fill="#000000" font-family="sans-serif" font-size="14" lengthAdjust="spacing" textLength="88" x="830" y="244.3857">stage: Stage</text><rect fill="none" height="6" style="stroke:#C82930;stroke-width:1.0;" width="6" x="818" y="254.3359"/><text fill="#000000" font-family="sans-serif" font-size="14" lengthAdjust="spacing" textLength="198" x="830" y="260.6826">model: MonsterHunterModel</text><rect fill="none" height="6" style="stroke:#C82930;stroke-width:1.0;" width="6" x="818" y="270.6328"/><text fill="#000000" font-family="sans-serif" font-size="14" lengthAdjust="spacing" textLength="188" x="830" y="276.9795">hunterView: MHHunterView</text><rect fill="none" height="6" style="stroke:#C82930;stroke-width:1.0;" width="6" x="818" y="286.9297"/><text fill="#000000" font-family="sans-serif" font-size="14" lengthAdjust="spacing" textLength="210" x="830" y="293.2764">monsterView: MHMonsterView</text><line style="stroke:#181818;stroke-width:0.5;" x1="811" x2="1121" y1="300.5781" y2="300.5781"/><ellipse cx="821" cy="314.2266" fill="#84BE84" rx="3" ry="3" style="stroke:#038048;stroke-width:1.0;"/><text fill="#000000" font-family="sans-serif" font-size="14" lengthAdjust="spacing" textLength="286" x="830" y="317.5732">JVJController(Stage, MonsterHunterModel)</text><rect fill="#F24D5C" height="6" style="stroke:#C82930;stroke-width:1.0;" width="6" x="818" y="327.5234"/><text fill="#000000" font-family="sans-serif" font-size="14" lengthAdjust="spacing" textLength="119" x="830" y="333.8701">startGame(): void</text><rect fill="#F24D5C" height="6" style="stroke:#C82930;stroke-width:1.0;" width="6" x="818" y="343.8203"/><text fill="#000000" font-family="sans-serif" font-size="14" lengthAdjust="spacing" textLength="166" x="830" y="350.167">startGameButton(): void</text><rect fill="#F24D5C" height="6" style="stroke:#C82930;stroke-width:1.0;" width="6" x="818" y="360.1172"/><text fill="#000000" font-family="sans-serif" font-size="14" lengthAdjust="spacing" textLength="183" x="830" y="366.4639">startGame(KeyEvent): void</text><ellipse cx="821" cy="379.4141" fill="#84BE84" rx="3" ry="3" style="stroke:#038048;stroke-width:1.0;"/><text fill="#000000" font-family="sans-serif" font-size="14" lengthAdjust="spacing" textLength="101" x="830" y="382.7607">initialize(): void</text></g></a><!--class chasseaumonstre.controller.MHMenuController--><a href="MHMenuController.html" target="_top" title="MHMenuController.html" xlink:actuate="onRequest" xlink:href="MHMenuController.html" xlink:show="new" xlink:title="MHMenuController.html" xlink:type="simple"><g id="elem_chasseaumonstre.controller.MHMenuController"><rect codeLine="18" fill="#F1F1F1" height="292.4531" id="chasseaumonstre.controller.MHMenuController" rx="2.5" ry="2.5" style="stroke:#181818;stroke-width:0.5;" width="358" x="417" y="122.5"/><ellipse cx="527.75" cy="138.5" fill="#ADD1B2" rx="11" ry="11" style="stroke:#181818;stroke-width:1.0;"/><path d="M530.7188,144.1406 Q530.1406,144.4375 529.5,144.5781 Q528.8594,144.7344 528.1563,144.7344 Q525.6563,144.7344 524.3281,143.0938 Q523.0156,141.4375 523.0156,138.3125 Q523.0156,135.1875 524.3281,133.5313 Q525.6563,131.875 528.1563,131.875 Q528.8594,131.875 529.5,132.0313 Q530.1563,132.1875 530.7188,132.4844 L530.7188,135.2031 Q530.0938,134.625 529.5,134.3594 Q528.9063,134.0781 528.2813,134.0781 Q526.9375,134.0781 526.25,135.1563 Q525.5625,136.2188 525.5625,138.3125 Q525.5625,140.4063 526.25,141.4844 Q526.9375,142.5469 528.2813,142.5469 Q528.9063,142.5469 529.5,142.2813 Q530.0938,142 530.7188,141.4219 L530.7188,144.1406 Z " fill="#000000"/><text fill="#000000" font-family="sans-serif" font-size="14" lengthAdjust="spacing" textLength="128" x="548.25" y="143.3467">MHMenuController</text><line style="stroke:#181818;stroke-width:0.5;" x1="418" x2="774" y1="154.5" y2="154.5"/><rect fill="none" height="6" style="stroke:#C82930;stroke-width:1.0;" width="6" x="425" y="165.1484"/><text fill="#000000" font-family="sans-serif" font-size="14" lengthAdjust="spacing" text-decoration="underline" textLength="184" x="437" y="171.4951">BACKGROUND_URL: String</text><rect fill="none" height="6" style="stroke:#C82930;stroke-width:1.0;" width="6" x="425" y="181.4453"/><text fill="#000000" font-family="sans-serif" font-size="14" lengthAdjust="spacing" textLength="157" x="437" y="187.792">imageView: ImageView</text><rect fill="none" height="6" style="stroke:#C82930;stroke-width:1.0;" width="6" x="425" y="197.7422"/><text fill="#000000" font-family="sans-serif" font-size="14" lengthAdjust="spacing" textLength="93" x="437" y="204.0889">jvjBtn: Button</text><rect fill="none" height="6" style="stroke:#C82930;stroke-width:1.0;" width="6" x="425" y="214.0391"/><text fill="#000000" font-family="sans-serif" font-size="14" lengthAdjust="spacing" textLength="98" x="437" y="220.3857">cviBtn: Button</text><rect fill="none" height="6" style="stroke:#C82930;stroke-width:1.0;" width="6" x="425" y="230.3359"/><text fill="#000000" font-family="sans-serif" font-size="14" lengthAdjust="spacing" textLength="103" x="437" y="236.6826">mviBtn: Button</text><rect fill="none" height="6" style="stroke:#C82930;stroke-width:1.0;" width="6" x="425" y="246.6328"/><text fill="#000000" font-family="sans-serif" font-size="14" lengthAdjust="spacing" textLength="93" x="437" y="252.9795">iviBtn: Button</text><rect fill="none" height="6" style="stroke:#C82930;stroke-width:1.0;" width="6" x="425" y="262.9297"/><text fill="#000000" font-family="sans-serif" font-size="14" lengthAdjust="spacing" textLength="88" x="437" y="269.2764">stage: Stage</text><rect fill="none" height="6" style="stroke:#C82930;stroke-width:1.0;" width="6" x="425" y="279.2266"/><text fill="#000000" font-family="sans-serif" font-size="14" lengthAdjust="spacing" textLength="198" x="437" y="285.5732">model: MonsterHunterModel</text><line style="stroke:#181818;stroke-width:0.5;" x1="418" x2="774" y1="292.875" y2="292.875"/><ellipse cx="428" cy="306.5234" fill="#84BE84" rx="3" ry="3" style="stroke:#038048;stroke-width:1.0;"/><text fill="#000000" font-family="sans-serif" font-size="14" lengthAdjust="spacing" textLength="332" x="437" y="309.8701">MHMenuController(Stage, MonsterHunterModel)</text><ellipse cx="428" cy="322.8203" fill="#84BE84" rx="3" ry="3" style="stroke:#038048;stroke-width:1.0;"/><text fill="#000000" font-family="sans-serif" font-size="14" lengthAdjust="spacing" textLength="230" x="437" y="326.167">getModel(): MonsterHunterModel</text><rect fill="#F24D5C" height="6" style="stroke:#C82930;stroke-width:1.0;" width="6" x="425" y="336.1172"/><text fill="#000000" font-family="sans-serif" font-size="14" lengthAdjust="spacing" textLength="92" x="437" y="342.4639">onPVP(): void</text><rect fill="#F24D5C" height="6" style="stroke:#C82930;stroke-width:1.0;" width="6" x="425" y="352.4141"/><text fill="#000000" font-family="sans-serif" font-size="14" lengthAdjust="spacing" textLength="133" x="437" y="358.7607">onHunterVAi(): void</text><rect fill="#F24D5C" height="6" style="stroke:#C82930;stroke-width:1.0;" width="6" x="425" y="368.7109"/><text fill="#000000" font-family="sans-serif" font-size="14" lengthAdjust="spacing" textLength="143" x="437" y="375.0576">onMonsterVAi(): void</text><rect fill="#F24D5C" height="6" style="stroke:#C82930;stroke-width:1.0;" width="6" x="425" y="385.0078"/><text fill="#000000" font-family="sans-serif" font-size="14" lengthAdjust="spacing" textLength="98" x="437" y="391.3545">onAiVAi(): void</text><ellipse cx="428" cy="404.3047" fill="#84BE84" rx="3" ry="3" style="stroke:#038048;stroke-width:1.0;"/><text fill="#000000" font-family="sans-serif" font-size="14" lengthAdjust="spacing" textLength="101" x="437" y="407.6514">initialize(): void</text></g></a><!--class chasseaumonstre.controller.MHMonsterController--><a href="MHMonsterController.html" target="_top" title="MHMonsterController.html" xlink:actuate="onRequest" xlink:href="MHMonsterController.html" xlink:show="new" xlink:title="MHMonsterController.html" xlink:type="simple"><g id="elem_chasseaumonstre.controller.MHMonsterController"><rect codeLine="36" fill="#F1F1F1" height="373.9375" id="chasseaumonstre.controller.MHMonsterController" rx="2.5" ry="2.5" style="stroke:#181818;stroke-width:0.5;" width="376" x="22" y="556"/><ellipse cx="132.75" cy="572" fill="#ADD1B2" rx="11" ry="11" style="stroke:#181818;stroke-width:1.0;"/><path d="M135.7188,577.6406 Q135.1406,577.9375 134.5,578.0781 Q133.8594,578.2344 133.1563,578.2344 Q130.6563,578.2344 129.3281,576.5938 Q128.0156,574.9375 128.0156,571.8125 Q128.0156,568.6875 129.3281,567.0313 Q130.6563,565.375 133.1563,565.375 Q133.8594,565.375 134.5,565.5313 Q135.1563,565.6875 135.7188,565.9844 L135.7188,568.7031 Q135.0938,568.125 134.5,567.8594 Q133.9063,567.5781 133.2813,567.5781 Q131.9375,567.5781 131.25,568.6563 Q130.5625,569.7188 130.5625,571.8125 Q130.5625,573.9063 131.25,574.9844 Q131.9375,576.0469 133.2813,576.0469 Q133.9063,576.0469 134.5,575.7813 Q135.0938,575.5 135.7188,574.9219 L135.7188,577.6406 Z " fill="#000000"/><text fill="#000000" font-family="sans-serif" font-size="14" lengthAdjust="spacing" textLength="146" x="153.25" y="576.8467">MHMonsterController</text><line style="stroke:#181818;stroke-width:0.5;" x1="23" x2="397" y1="588" y2="588"/><rect fill="none" height="6" style="stroke:#C82930;stroke-width:1.0;" width="6" x="30" y="598.6484"/><text fill="#000000" font-family="sans-serif" font-size="14" lengthAdjust="spacing" textLength="115" x="42" y="604.9951">VOLUME: double</text><rect fill="none" height="6" style="stroke:#C82930;stroke-width:1.0;" width="6" x="30" y="614.9453"/><text fill="#000000" font-family="sans-serif" font-size="14" lengthAdjust="spacing" textLength="153" x="42" y="621.292">LOW_VOLUME: double</text><rect fill="none" height="6" style="stroke:#C82930;stroke-width:1.0;" width="6" x="30" y="631.2422"/><text fill="#000000" font-family="sans-serif" font-size="14" lengthAdjust="spacing" textLength="112" x="42" y="637.5889">moved: boolean</text><line style="stroke:#181818;stroke-width:0.5;" x1="23" x2="397" y1="644.8906" y2="644.8906"/><ellipse cx="33" cy="658.5391" fill="#84BE84" rx="3" ry="3" style="stroke:#038048;stroke-width:1.0;"/><text fill="#000000" font-family="sans-serif" font-size="14" lengthAdjust="spacing" textLength="350" x="42" y="661.8857">MHMonsterController(Stage, MonsterHunterModel)</text><ellipse cx="33" cy="674.8359" fill="#84BE84" rx="3" ry="3" style="stroke:#038048;stroke-width:1.0;"/><text fill="#000000" font-family="sans-serif" font-size="14" lengthAdjust="spacing" textLength="101" x="42" y="678.1826">initialize(): void</text><ellipse cx="33" cy="691.1328" fill="#84BE84" rx="3" ry="3" style="stroke:#038048;stroke-width:1.0;"/><text fill="#000000" font-family="sans-serif" font-size="14" lengthAdjust="spacing" textLength="230" x="42" y="694.4795">getModel(): MonsterHunterModel</text><ellipse cx="33" cy="707.4297" fill="#84BE84" rx="3" ry="3" style="stroke:#038048;stroke-width:1.0;"/><text fill="#000000" font-family="sans-serif" font-size="14" lengthAdjust="spacing" textLength="142" x="42" y="710.7764">getContentV(): VBox</text><ellipse cx="33" cy="723.7266" fill="#84BE84" rx="3" ry="3" style="stroke:#038048;stroke-width:1.0;"/><text fill="#000000" font-family="sans-serif" font-size="14" lengthAdjust="spacing" textLength="207" x="42" y="727.0732">setVue(MHMonsterView): void</text><ellipse cx="33" cy="740.0234" fill="#84BE84" rx="3" ry="3" style="stroke:#038048;stroke-width:1.0;"/><text fill="#000000" font-family="sans-serif" font-size="14" lengthAdjust="spacing" textLength="126" x="42" y="743.3701">onSkipTurn(): void</text><rect fill="#F24D5C" height="6" style="stroke:#C82930;stroke-width:1.0;" width="6" x="30" y="753.3203"/><text fill="#000000" font-family="sans-serif" font-size="14" lengthAdjust="spacing" textLength="175" x="42" y="759.667">advance(int, int): boolean</text><ellipse cx="33" cy="772.6172" fill="#84BE84" rx="3" ry="3" style="stroke:#038048;stroke-width:1.0;"/><text fill="#000000" font-family="sans-serif" font-size="14" lengthAdjust="spacing" textLength="195" x="42" y="775.9639">handleMove(int, int): CellInfo</text><ellipse cx="33" cy="788.9141" fill="#84BE84" rx="3" ry="3" style="stroke:#038048;stroke-width:1.0;"/><text fill="#000000" font-family="sans-serif" font-size="14" lengthAdjust="spacing" textLength="146" x="42" y="792.2607">hasMoved(): boolean</text><ellipse cx="33" cy="805.2109" fill="#84BE84" rx="3" ry="3" style="stroke:#038048;stroke-width:1.0;"/><text fill="#000000" font-family="sans-serif" font-size="14" lengthAdjust="spacing" textLength="249" x="42" y="808.5576">setHunterView(MHHunterView): void</text><polygon fill="#FFFF44" points="33,816.5078,37,820.5078,33,824.5078,29,820.5078" style="stroke:#B38D22;stroke-width:1.0;"/><text fill="#000000" font-family="sans-serif" font-size="14" lengthAdjust="spacing" textLength="151" x="42" y="824.8545">pathAlert(int, int): void</text><polygon fill="#FFFF44" points="33,832.8047,37,836.8047,33,840.8047,29,836.8047" style="stroke:#B38D22;stroke-width:1.0;"/><text fill="#000000" font-family="sans-serif" font-size="14" lengthAdjust="spacing" textLength="145" x="42" y="841.1514">wallAlert(int, int): void</text><rect fill="#F24D5C" height="6" style="stroke:#C82930;stroke-width:1.0;" width="6" x="30" y="851.1016"/><text fill="#000000" font-family="sans-serif" font-size="14" lengthAdjust="spacing" textLength="164" x="42" y="857.4482">visitedAlert(int, int): void</text><rect fill="#F24D5C" height="6" style="stroke:#C82930;stroke-width:1.0;" width="6" x="30" y="867.3984"/><text fill="#000000" font-family="sans-serif" font-size="14" lengthAdjust="spacing" textLength="137" x="42" y="873.7451">farAlert(int, int): void</text><polygon fill="#FFFF44" points="33,881.6953,37,885.6953,33,889.6953,29,885.6953" style="stroke:#B38D22;stroke-width:1.0;"/><text fill="#000000" font-family="sans-serif" font-size="14" lengthAdjust="spacing" textLength="101" x="42" y="890.042">winAlert(): void</text><polygon fill="#FFFF44" points="33,897.9922,37,901.9922,33,905.9922,29,901.9922" style="stroke:#B38D22;stroke-width:1.0;"/><text fill="#000000" font-family="sans-serif" font-size="14" lengthAdjust="spacing" textLength="136" x="42" y="906.3389">alertOnClose(): void</text><ellipse cx="33" cy="919.2891" fill="#84BE84" rx="3" ry="3" style="stroke:#038048;stroke-width:1.0;"/><text fill="#000000" font-family="sans-serif" font-size="14" lengthAdjust="spacing" textLength="236" x="42" y="922.6357">keyPressedOnScene(Scene): void</text></g></a><!--class chasseaumonstre.controller.MHHunterController--><a href="MHHunterController.html" target="_top" title="MHHunterController.html" xlink:actuate="onRequest" xlink:href="MHHunterController.html" xlink:show="new" xlink:title="MHHunterController.html" xlink:type="simple"><g id="elem_chasseaumonstre.controller.MHHunterController"><rect codeLine="59" fill="#F1F1F1" height="308.75" id="chasseaumonstre.controller.MHHunterController" rx="2.5" ry="2.5" style="stroke:#181818;stroke-width:0.5;" width="366" x="433" y="588.5"/><ellipse cx="543.75" cy="604.5" fill="#ADD1B2" rx="11" ry="11" style="stroke:#181818;stroke-width:1.0;"/><path d="M546.7188,610.1406 Q546.1406,610.4375 545.5,610.5781 Q544.8594,610.7344 544.1563,610.7344 Q541.6563,610.7344 540.3281,609.0938 Q539.0156,607.4375 539.0156,604.3125 Q539.0156,601.1875 540.3281,599.5313 Q541.6563,597.875 544.1563,597.875 Q544.8594,597.875 545.5,598.0313 Q546.1563,598.1875 546.7188,598.4844 L546.7188,601.2031 Q546.0938,600.625 545.5,600.3594 Q544.9063,600.0781 544.2813,600.0781 Q542.9375,600.0781 542.25,601.1563 Q541.5625,602.2188 541.5625,604.3125 Q541.5625,606.4063 542.25,607.4844 Q542.9375,608.5469 544.2813,608.5469 Q544.9063,608.5469 545.5,608.2813 Q546.0938,608 546.7188,607.4219 L546.7188,610.1406 Z " fill="#000000"/><text fill="#000000" font-family="sans-serif" font-size="14" lengthAdjust="spacing" textLength="136" x="564.25" y="609.3467">MHHunterController</text><line style="stroke:#181818;stroke-width:0.5;" x1="434" x2="798" y1="620.5" y2="620.5"/><rect fill="none" height="6" style="stroke:#C82930;stroke-width:1.0;" width="6" x="441" y="631.1484"/><text fill="#000000" font-family="sans-serif" font-size="14" lengthAdjust="spacing" textLength="115" x="453" y="637.4951">VOLUME: double</text><rect fill="none" height="6" style="stroke:#C82930;stroke-width:1.0;" width="6" x="441" y="647.4453"/><text fill="#000000" font-family="sans-serif" font-size="14" lengthAdjust="spacing" textLength="96" x="453" y="653.792">shot: boolean</text><line style="stroke:#181818;stroke-width:0.5;" x1="434" x2="798" y1="661.0938" y2="661.0938"/><ellipse cx="444" cy="674.7422" fill="#84BE84" rx="3" ry="3" style="stroke:#038048;stroke-width:1.0;"/><text fill="#000000" font-family="sans-serif" font-size="14" lengthAdjust="spacing" textLength="340" x="453" y="678.0889">MHHunterController(Stage, MonsterHunterModel)</text><ellipse cx="444" cy="691.0391" fill="#84BE84" rx="3" ry="3" style="stroke:#038048;stroke-width:1.0;"/><text fill="#000000" font-family="sans-serif" font-size="14" lengthAdjust="spacing" textLength="101" x="453" y="694.3857">initialize(): void</text><ellipse cx="444" cy="707.3359" fill="#84BE84" rx="3" ry="3" style="stroke:#038048;stroke-width:1.0;"/><text fill="#000000" font-family="sans-serif" font-size="14" lengthAdjust="spacing" textLength="230" x="453" y="710.6826">getModel(): MonsterHunterModel</text><ellipse cx="444" cy="723.6328" fill="#84BE84" rx="3" ry="3" style="stroke:#038048;stroke-width:1.0;"/><text fill="#000000" font-family="sans-serif" font-size="14" lengthAdjust="spacing" textLength="142" x="453" y="726.9795">getContentV(): VBox</text><ellipse cx="444" cy="739.9297" fill="#84BE84" rx="3" ry="3" style="stroke:#038048;stroke-width:1.0;"/><text fill="#000000" font-family="sans-serif" font-size="14" lengthAdjust="spacing" textLength="169" x="453" y="743.2764">setMaze(GridPane): void</text><ellipse cx="444" cy="756.2266" fill="#84BE84" rx="3" ry="3" style="stroke:#038048;stroke-width:1.0;"/><text fill="#000000" font-family="sans-serif" font-size="14" lengthAdjust="spacing" textLength="126" x="453" y="759.5732">onSkipTurn(): void</text><ellipse cx="444" cy="772.5234" fill="#84BE84" rx="3" ry="3" style="stroke:#038048;stroke-width:1.0;"/><text fill="#000000" font-family="sans-serif" font-size="14" lengthAdjust="spacing" textLength="306" x="453" y="775.8701">handleShot(int, int, Rectangle, Text): CellInfo</text><ellipse cx="444" cy="788.8203" fill="#84BE84" rx="3" ry="3" style="stroke:#038048;stroke-width:1.0;"/><text fill="#000000" font-family="sans-serif" font-size="14" lengthAdjust="spacing" textLength="132" x="453" y="792.167">hasShot(): boolean</text><ellipse cx="444" cy="805.1172" fill="#84BE84" rx="3" ry="3" style="stroke:#038048;stroke-width:1.0;"/><text fill="#000000" font-family="sans-serif" font-size="14" lengthAdjust="spacing" textLength="269" x="453" y="808.4639">setMonsterView(MHMonsterView): void</text><polygon fill="#FFFF44" points="444,816.4141,448,820.4141,444,824.4141,440,820.4141" style="stroke:#B38D22;stroke-width:1.0;"/><text fill="#000000" font-family="sans-serif" font-size="14" lengthAdjust="spacing" textLength="151" x="453" y="824.7607">pathAlert(int, int): void</text><polygon fill="#FFFF44" points="444,832.7109,448,836.7109,444,840.7109,440,836.7109" style="stroke:#B38D22;stroke-width:1.0;"/><text fill="#000000" font-family="sans-serif" font-size="14" lengthAdjust="spacing" textLength="145" x="453" y="841.0576">wallAlert(int, int): void</text><rect fill="#F24D5C" height="6" style="stroke:#C82930;stroke-width:1.0;" width="6" x="441" y="851.0078"/><text fill="#000000" font-family="sans-serif" font-size="14" lengthAdjust="spacing" textLength="178" x="453" y="857.3545">monsterAlert(int, int): void</text><polygon fill="#FFFF44" points="444,865.3047,448,869.3047,444,873.3047,440,869.3047" style="stroke:#B38D22;stroke-width:1.0;"/><text fill="#000000" font-family="sans-serif" font-size="14" lengthAdjust="spacing" textLength="101" x="453" y="873.6514">winAlert(): void</text><polygon fill="#FFFF44" points="444,881.6016,448,885.6016,444,889.6016,440,885.6016" style="stroke:#B38D22;stroke-width:1.0;"/><text fill="#000000" font-family="sans-serif" font-size="14" lengthAdjust="spacing" textLength="136" x="453" y="889.9482">alertOnClose(): void</text></g></a><!--class chasseaumonstre.controller.MHPlayerController--><a href="MHPlayerController.html" target="_top" title="MHPlayerController.html" xlink:actuate="onRequest" xlink:href="MHPlayerController.html" xlink:show="new" xlink:title="MHPlayerController.html" xlink:type="simple"><g id="elem_chasseaumonstre.controller.MHPlayerController"><rect codeLine="78" fill="#F1F1F1" height="455.4219" id="chasseaumonstre.controller.MHPlayerController" rx="2.5" ry="2.5" style="stroke:#181818;stroke-width:0.5;" width="360" x="22" y="41"/><ellipse cx="132.25" cy="57" fill="#A9DCDF" rx="11" ry="11" style="stroke:#181818;stroke-width:1.0;"/><path d="M132.3594,52.3438 L131.2031,57.4219 L133.5313,57.4219 L132.3594,52.3438 Z M130.875,50.1094 L133.8594,50.1094 L137.2188,62.5 L134.7656,62.5 L134,59.4375 L130.7188,59.4375 L129.9688,62.5 L127.5313,62.5 L130.875,50.1094 Z " fill="#000000"/><text fill="#000000" font-family="sans-serif" font-size="14" font-style="italic" lengthAdjust="spacing" textLength="131" x="152.75" y="61.8467">MHPlayerController</text><line style="stroke:#181818;stroke-width:0.5;" x1="23" x2="381" y1="73" y2="73"/><polygon fill="none" points="33,81.6484,37,85.6484,33,89.6484,29,85.6484" style="stroke:#B38D22;stroke-width:1.0;"/><text fill="#000000" font-family="sans-serif" font-size="14" lengthAdjust="spacing" textLength="107" x="42" y="89.9951">contentV: VBox</text><polygon fill="none" points="33,97.9453,37,101.9453,33,105.9453,29,101.9453" style="stroke:#B38D22;stroke-width:1.0;"/><text fill="#000000" font-family="sans-serif" font-size="14" lengthAdjust="spacing" textLength="110" x="42" y="106.292">maze: GridPane</text><polygon fill="none" points="33,114.2422,37,118.2422,33,122.2422,29,118.2422" style="stroke:#B38D22;stroke-width:1.0;"/><text fill="#000000" font-family="sans-serif" font-size="14" lengthAdjust="spacing" textLength="150" x="42" y="122.5889">characterName: Label</text><polygon fill="none" points="33,130.5391,37,134.5391,33,138.5391,29,134.5391" style="stroke:#B38D22;stroke-width:1.0;"/><text fill="#000000" font-family="sans-serif" font-size="14" lengthAdjust="spacing" textLength="125" x="42" y="138.8857">alertHeader: Label</text><polygon fill="none" points="33,146.8359,37,150.8359,33,154.8359,29,150.8359" style="stroke:#B38D22;stroke-width:1.0;"/><text fill="#000000" font-family="sans-serif" font-size="14" lengthAdjust="spacing" textLength="110" x="42" y="155.1826">alertBody: Label</text><polygon fill="none" points="33,163.1328,37,167.1328,33,171.1328,29,167.1328" style="stroke:#B38D22;stroke-width:1.0;"/><text fill="#000000" font-family="sans-serif" font-size="14" lengthAdjust="spacing" textLength="116" x="42" y="171.4795">skipTurn: Button</text><polygon fill="none" points="33,179.4297,37,183.4297,33,187.4297,29,183.4297" style="stroke:#B38D22;stroke-width:1.0;"/><text fill="#000000" font-family="sans-serif" font-size="14" lengthAdjust="spacing" textLength="158" x="42" y="187.7764">alertHistory: ScrollPane</text><polygon fill="none" points="33,195.7266,37,199.7266,33,203.7266,29,199.7266" style="stroke:#B38D22;stroke-width:1.0;"/><text fill="#000000" font-family="sans-serif" font-size="14" lengthAdjust="spacing" textLength="137" x="42" y="204.0732">contentAlerts: VBox</text><polygon fill="none" points="33,212.0234,37,216.0234,33,220.0234,29,216.0234" style="stroke:#B38D22;stroke-width:1.0;"/><text fill="#000000" font-family="sans-serif" font-size="14" lengthAdjust="spacing" textLength="88" x="42" y="220.3701">stage: Stage</text><polygon fill="none" points="33,228.3203,37,232.3203,33,236.3203,29,232.3203" style="stroke:#B38D22;stroke-width:1.0;"/><text fill="#000000" font-family="sans-serif" font-size="14" lengthAdjust="spacing" textLength="198" x="42" y="236.667">model: MonsterHunterModel</text><polygon fill="none" points="33,244.6172,37,248.6172,33,252.6172,29,248.6172" style="stroke:#B38D22;stroke-width:1.0;"/><text fill="#000000" font-family="sans-serif" font-size="14" lengthAdjust="spacing" textLength="94" x="42" y="252.9639">winAlert: Alert</text><polygon fill="none" points="33,260.9141,37,264.9141,33,268.9141,29,264.9141" style="stroke:#B38D22;stroke-width:1.0;"/><text fill="#000000" font-family="sans-serif" font-size="14" lengthAdjust="spacing" textLength="130" x="42" y="269.2607">alerts: List&lt;Label&gt;</text><polygon fill="none" points="33,277.2109,37,281.2109,33,285.2109,29,281.2109" style="stroke:#B38D22;stroke-width:1.0;"/><text fill="#000000" font-family="sans-serif" font-size="14" lengthAdjust="spacing" textLength="175" x="42" y="285.5576">monsterView: IPlayerView</text><polygon fill="none" points="33,293.5078,37,297.5078,33,301.5078,29,297.5078" style="stroke:#B38D22;stroke-width:1.0;"/><text fill="#000000" font-family="sans-serif" font-size="14" lengthAdjust="spacing" textLength="163" x="42" y="301.8545">hunterView: IPlayerView</text><line style="stroke:#181818;stroke-width:0.5;" x1="23" x2="381" y1="309.1563" y2="309.1563"/><ellipse cx="33" cy="322.8047" fill="#84BE84" rx="3" ry="3" style="stroke:#038048;stroke-width:1.0;"/><text fill="#000000" font-family="sans-serif" font-size="14" lengthAdjust="spacing" textLength="334" x="42" y="326.1514">MHPlayerController(Stage, MonsterHunterModel)</text><ellipse cx="33" cy="339.1016" fill="#84BE84" rx="3" ry="3" style="stroke:#038048;stroke-width:1.0;"/><text fill="#000000" font-family="sans-serif" font-size="14" font-style="italic" lengthAdjust="spacing" textLength="101" x="42" y="342.4482">initialize(): void</text><ellipse cx="33" cy="355.3984" fill="#84BE84" rx="3" ry="3" style="stroke:#038048;stroke-width:1.0;"/><text fill="#000000" font-family="sans-serif" font-size="14" lengthAdjust="spacing" textLength="230" x="42" y="358.7451">getModel(): MonsterHunterModel</text><ellipse cx="33" cy="371.6953" fill="#84BE84" rx="3" ry="3" style="stroke:#038048;stroke-width:1.0;"/><text fill="#000000" font-family="sans-serif" font-size="14" lengthAdjust="spacing" textLength="142" x="42" y="375.042">getContentV(): VBox</text><polygon fill="#FFFF44" points="33,382.9922,37,386.9922,33,390.9922,29,386.9922" style="stroke:#B38D22;stroke-width:1.0;"/><text fill="#000000" font-family="sans-serif" font-size="14" lengthAdjust="spacing" textLength="143" x="42" y="391.3389">updateHistory(): void</text><ellipse cx="33" cy="404.2891" fill="#84BE84" rx="3" ry="3" style="stroke:#038048;stroke-width:1.0;"/><text fill="#000000" font-family="sans-serif" font-size="14" lengthAdjust="spacing" textLength="131" x="42" y="407.6357">showHistory(): void</text><ellipse cx="33" cy="420.5859" fill="#84BE84" rx="3" ry="3" style="stroke:#038048;stroke-width:1.0;"/><text fill="#000000" font-family="sans-serif" font-size="14" font-style="italic" lengthAdjust="spacing" textLength="127" x="42" y="423.9326">onSkipTurn(): void</text><polygon fill="#FFFF44" points="33,431.8828,37,435.8828,33,439.8828,29,435.8828" style="stroke:#B38D22;stroke-width:1.0;"/><text fill="#000000" font-family="sans-serif" font-size="14" font-style="italic" lengthAdjust="spacing" textLength="153" x="42" y="440.2295">pathAlert(int, int): void</text><polygon fill="#FFFF44" points="33,448.1797,37,452.1797,33,456.1797,29,452.1797" style="stroke:#B38D22;stroke-width:1.0;"/><text fill="#000000" font-family="sans-serif" font-size="14" font-style="italic" lengthAdjust="spacing" textLength="147" x="42" y="456.5264">wallAlert(int, int): void</text><polygon fill="#FFFF44" points="33,464.4766,37,468.4766,33,472.4766,29,468.4766" style="stroke:#B38D22;stroke-width:1.0;"/><text fill="#000000" font-family="sans-serif" font-size="14" font-style="italic" lengthAdjust="spacing" textLength="103" x="42" y="472.8232">winAlert(): void</text><polygon fill="#FFFF44" points="33,480.7734,37,484.7734,33,488.7734,29,484.7734" style="stroke:#B38D22;stroke-width:1.0;"/><text fill="#000000" font-family="sans-serif" font-size="14" font-style="italic" lengthAdjust="spacing" textLength="136" x="42" y="489.1201">alertOnClose(): void</text></g></a><!--reverse link chasseaumonstre.controller.MHPlayerController to chasseaumonstre.controller.MHMonsterController--><g id="link_chasseaumonstre.controller.MHPlayerController_chasseaumonstre.controller.MHMonsterController"><path codeLine="106" d="M206.18,516.24 C206.4,529.53 206.63,542.77 206.85,555.81 " fill="none" id="chasseaumonstre.controller.MHPlayerController-backto-chasseaumonstre.controller.MHMonsterController" style="stroke:#181818;stroke-width:1.0;"/><polygon fill="none" points="199.18,516.18,205.84,496.06,213.17,515.94,199.18,516.18" style="stroke:#181818;stroke-width:1.0;"/></g><!--reverse link chasseaumonstre.controller.MHPlayerController to chasseaumonstre.controller.MHHunterController--><g id="link_chasseaumonstre.controller.MHPlayerController_chasseaumonstre.controller.MHHunterController"><path codeLine="107" d="M395.59,490.97 C397.07,492.65 398.54,494.33 400,496 C426.12,525.82 454.05,557.65 480.85,588.18 " fill="none" id="chasseaumonstre.controller.MHPlayerController-backto-chasseaumonstre.controller.MHHunterController" style="stroke:#181818;stroke-width:1.0;"/><polygon fill="none" points="390.11,495.33,382.2,475.67,400.64,486.11,390.11,495.33" style="stroke:#181818;stroke-width:1.0;"/></g><text fill="#888888" font-family="sans-serif" font-size="10" lengthAdjust="spacing" textLength="186" x="472.5" y="961.2822">UMLDoclet 2.1.0, PlantUML 1.2022.14</text><!--SRC=[pLVRJkCm47tdAonLAmNreeN72AtK5fO2BQrQsdr02Bd9q1eSkqgSG9VbtzTEqfAuJXhsfkr3Gpt7dl6SCvC18OGOzY1OOGUGiyH103ZqE0k43os7C-5pIi57hmS7AFquLABGvUoo-sw-lStzRYs5H-_kv2wK-JG3WNrnBjrrGY4uir7op8CUZsnq0o_YAm7gQgRZGfCyUW4scgX7tk9n5wYD1kfEuFT29hy7QYqFMyQ66O5dYUtrjh_qm-9JDh31-yyShfxBXXL7rJ24S5YG7-lGHX4dRcdwze2iArYVHS242LOdZ0Y2AVc-w-jDfrhU4rYOOrjVCXF-AeCHn7b3pKwxUtK-7awlJ- -duxxYoITiaO-SU39BIMOlDdzg_4UF7L4W6oSYXJQln4PARByhghgUfgfAg2z0nCkAd7tAvMmq6vd5m5agv3Of0cmaN8neaoBZHrMKkDA5fAyMD8_Pi3yTdDd8vU6SQdJqXz_ko-mUZy2rqPnp2fZjSAH7K9ccalj_b4Q5LH78Wfqf-Ap3N_A00CGi12lNTOnUEPiyaTLDw1Uq2En6c3bW4IOQYCGDmfYP9MOkXO7CNHRQ1Kels0FNiO42kbRHOJBwzwPgPJkiASRQ2ejbMr8XigvtOS-OqlsmPaG28i2jW7p0VXMtX2KeenKhqv1rAGyATF44wv4Fybth3jd40GPM_5sXXfAqQIMaB_v21GLBBWeBH3__lwsF0PQUpdtYZl1kDglKHghvYSp6LW4DD0P7OBQWyifg_2WhWdXdIGraQdT_9V_XAaY7bx-hxuncyLnEaTWHM_6EA5xlY5TVD8ktvgJS6vYlUP9s6srur_OjiOe1_6iv4zceZ-UQi9Bhz02xu1VREznT6wr1AYVZ196UJGB1VRbzugWh6c9CxXQdF31Ti70GgLKRHBQ4sYX-68AKVliopfFuYbzq9vcfzo8XR6SwgsKdw29GVPVlgitaTIEdjt_RLshXoiK2KXBD_cJtV2u3P6FVqu4oq8hbdzrHhHFaTfILUXPOjUeDPNxoezaqpNyLzkYldeECD_dAb3RqmBbwJ0VzK-vG4EYuTTJwt43oI2RaAleKWHyGzG_JJm00]--></g></svg>