<?xml version="1.0" encoding="UTF-8" standalone="no"?><svg xmlns="http://www.w3.org/2000/svg" xmlns:xlink="http://www.w3.org/1999/xlink" contentStyleType="text/css" height="501px" preserveAspectRatio="none" style="width:368px;height:501px;background:#FFFFFF;" version="1.1" viewBox="0 0 368 501" width="368px" zoomAndPan="magnify"><defs/><g><!--class chasseaumonstre.model.strategy.hunter.Hunter--><a href="Hunter.html" target="_top" title="Hunter.html" xlink:actuate="onRequest" xlink:href="Hunter.html" xlink:show="new" xlink:title="Hunter.html" xlink:type="simple"><g id="elem_chasseaumonstre.model.strategy.hunter.Hunter"><rect codeLine="5" fill="#F1F1F1" height="347.2813" id="chasseaumonstre.model.strategy.hunter.Hunter" rx="2.5" ry="2.5" style="stroke:#181818;stroke-width:0.5;" width="293" x="63" y="129"/><ellipse cx="106.35" cy="147.9688" fill="#ADD1B2" rx="11" ry="11" style="stroke:#181818;stroke-width:1.0;"/><path d="M109.3188,153.6094 Q108.7406,153.9063 108.1,154.0469 Q107.4594,154.2031 106.7563,154.2031 Q104.2563,154.2031 102.9281,152.5625 Q101.6156,150.9063 101.6156,147.7813 Q101.6156,144.6563 102.9281,143 Q104.2563,141.3438 106.7563,141.3438 Q107.4594,141.3438 108.1,141.5 Q108.7563,141.6563 109.3188,141.9531 L109.3188,144.6719 Q108.6938,144.0938 108.1,143.8281 Q107.5063,143.5469 106.8813,143.5469 Q105.5375,143.5469 104.85,144.625 Q104.1625,145.6875 104.1625,147.7813 Q104.1625,149.875 104.85,150.9531 Q105.5375,152.0156 106.8813,152.0156 Q107.5063,152.0156 108.1,151.75 Q108.6938,151.4688 109.3188,150.8906 L109.3188,153.6094 Z " fill="#000000"/><text fill="#000000" font-family="sans-serif" font-size="14" lengthAdjust="spacing" textLength="47" x="202.15" y="146.9951">Hunter</text><text fill="#000000" font-family="sans-serif" font-size="10" lengthAdjust="spacing" textLength="198" x="126.65" y="159.5791">chasseaumonstre.model.strategy.hunter</text><line style="stroke:#181818;stroke-width:0.5;" x1="64" x2="355" y1="166.9375" y2="166.9375"/><rect fill="none" height="6" style="stroke:#C82930;stroke-width:1.0;" width="6" x="71" y="177.5859"/><text fill="#000000" font-family="sans-serif" font-size="14" lengthAdjust="spacing" textLength="181" x="83" y="183.9326">shootLocations: boolean[]</text><rect fill="none" height="6" style="stroke:#C82930;stroke-width:1.0;" width="6" x="71" y="193.8828"/><text fill="#000000" font-family="sans-serif" font-size="14" lengthAdjust="spacing" textLength="88" x="83" y="200.2295">name: String</text><rect fill="none" height="6" style="stroke:#C82930;stroke-width:1.0;" width="6" x="71" y="210.1797"/><text fill="#000000" font-family="sans-serif" font-size="14" lengthAdjust="spacing" textLength="119" x="83" y="216.5264">visited: boolean[]</text><rect fill="none" height="6" style="stroke:#C82930;stroke-width:1.0;" width="6" x="71" y="226.4766"/><text fill="#000000" font-family="sans-serif" font-size="14" lengthAdjust="spacing" textLength="112" x="83" y="232.8232">visitedTurn: int[]</text><line style="stroke:#181818;stroke-width:0.5;" x1="64" x2="355" y1="240.125" y2="240.125"/><ellipse cx="74" cy="253.7734" fill="#84BE84" rx="3" ry="3" style="stroke:#038048;stroke-width:1.0;"/><text fill="#000000" font-family="sans-serif" font-size="14" lengthAdjust="spacing" textLength="167" x="83" y="257.1201">initialize(boolean[]): void</text><ellipse cx="74" cy="270.0703" fill="#84BE84" rx="3" ry="3" style="stroke:#038048;stroke-width:1.0;"/><text fill="#000000" font-family="sans-serif" font-size="14" lengthAdjust="spacing" textLength="143" x="83" y="273.417">initialize(int, int): void</text><ellipse cx="74" cy="286.3672" fill="#84BE84" rx="3" ry="3" style="stroke:#038048;stroke-width:1.0;"/><text fill="#000000" font-family="sans-serif" font-size="14" lengthAdjust="spacing" textLength="215" x="83" y="289.7139">getShootLocations(): boolean[]</text><ellipse cx="74" cy="302.6641" fill="#84BE84" rx="3" ry="3" style="stroke:#038048;stroke-width:1.0;"/><text fill="#000000" font-family="sans-serif" font-size="14" lengthAdjust="spacing" textLength="122" x="83" y="306.0107">getName(): String</text><ellipse cx="74" cy="318.9609" fill="#84BE84" rx="3" ry="3" style="stroke:#038048;stroke-width:1.0;"/><text fill="#000000" font-family="sans-serif" font-size="14" lengthAdjust="spacing" textLength="149" x="83" y="322.3076">setName(String): void</text><ellipse cx="74" cy="335.2578" fill="#84BE84" rx="3" ry="3" style="stroke:#038048;stroke-width:1.0;"/><text fill="#000000" font-family="sans-serif" font-size="14" lengthAdjust="spacing" textLength="174" x="83" y="338.6045">hasShot(int, int): boolean</text><ellipse cx="74" cy="351.5547" fill="#84BE84" rx="3" ry="3" style="stroke:#038048;stroke-width:1.0;"/><text fill="#000000" font-family="sans-serif" font-size="14" lengthAdjust="spacing" textLength="129" x="83" y="354.9014">shoot(int, int): void</text><ellipse cx="74" cy="367.8516" fill="#84BE84" rx="3" ry="3" style="stroke:#038048;stroke-width:1.0;"/><text fill="#000000" font-family="sans-serif" font-size="14" lengthAdjust="spacing" textLength="125" x="83" y="371.1982">play(): ICoordinate</text><ellipse cx="74" cy="384.1484" fill="#84BE84" rx="3" ry="3" style="stroke:#038048;stroke-width:1.0;"/><text fill="#000000" font-family="sans-serif" font-size="14" lengthAdjust="spacing" textLength="163" x="83" y="387.4951">update(ICellEvent): void</text><ellipse cx="74" cy="400.4453" fill="#84BE84" rx="3" ry="3" style="stroke:#038048;stroke-width:1.0;"/><text fill="#000000" font-family="sans-serif" font-size="14" lengthAdjust="spacing" textLength="174" x="83" y="403.792">isVisited(int, int): boolean</text><ellipse cx="74" cy="416.7422" fill="#84BE84" rx="3" ry="3" style="stroke:#038048;stroke-width:1.0;"/><text fill="#000000" font-family="sans-serif" font-size="14" lengthAdjust="spacing" textLength="179" x="83" y="420.0889">getVisitedTurn(int, int): int</text><ellipse cx="74" cy="433.0391" fill="#84BE84" rx="3" ry="3" style="stroke:#038048;stroke-width:1.0;"/><text fill="#000000" font-family="sans-serif" font-size="14" lengthAdjust="spacing" textLength="182" x="83" y="436.3857">setVisited(int, int, int): void</text><rect fill="#F24D5C" height="6" style="stroke:#C82930;stroke-width:1.0;" width="6" x="71" y="446.3359"/><text fill="#000000" font-family="sans-serif" font-size="14" lengthAdjust="spacing" textLength="267" x="83" y="452.6826">writeObject(ObjectOutputStream): void</text><rect fill="#F24D5C" height="6" style="stroke:#C82930;stroke-width:1.0;" width="6" x="71" y="462.6328"/><text fill="#000000" font-family="sans-serif" font-size="14" lengthAdjust="spacing" textLength="252" x="83" y="468.9795">readObject(ObjectInputStream): void</text></g></a><!--class fr.univlille.iutinfo.cam.player.hunter.IHunterStrategy--><g id="elem_fr.univlille.iutinfo.cam.player.hunter.IHunterStrategy"><rect codeLine="26" fill="#F1F1F1" height="62.2344" id="fr.univlille.iutinfo.cam.player.hunter.IHunterStrategy" rx="2.5" ry="2.5" style="stroke:#181818;stroke-width:0.5;" width="211" x="7" y="7"/><ellipse cx="22" cy="25.9688" fill="#B4A7E5" rx="11" ry="11" style="stroke:#181818;stroke-width:1.0;"/><path d="M17.9219,21.7344 L17.9219,19.5781 L25.3125,19.5781 L25.3125,21.7344 L22.8438,21.7344 L22.8438,29.8125 L25.3125,29.8125 L25.3125,31.9688 L17.9219,31.9688 L17.9219,29.8125 L20.3906,29.8125 L20.3906,21.7344 L17.9219,21.7344 Z " fill="#000000"/><text fill="#000000" font-family="sans-serif" font-size="14" font-style="italic" lengthAdjust="spacing" textLength="110" x="70.5" y="24.9951">IHunterStrategy</text><text fill="#000000" font-family="sans-serif" font-size="10" font-style="italic" lengthAdjust="spacing" textLength="179" x="36" y="37.5791">fr.univlille.iutinfo.cam.player.hunter</text><line style="stroke:#181818;stroke-width:0.5;" x1="8" x2="217" y1="44.9375" y2="44.9375"/><ellipse cx="18" cy="58.5859" fill="#84BE84" rx="3" ry="3" style="stroke:#038048;stroke-width:1.0;"/><text fill="#000000" font-family="sans-serif" font-size="14" font-style="italic" lengthAdjust="spacing" textLength="143" x="27" y="61.9326">initialize(int, int): void</text></g><!--class java.io.Serializable--><g id="elem_java.io.Serializable"><rect codeLine="29" fill="#F1F1F1" height="37.9375" id="java.io.Serializable" rx="2.5" ry="2.5" style="stroke:#181818;stroke-width:0.5;" width="108" x="253.5" y="19"/><ellipse cx="268.5" cy="37.9688" fill="#B4A7E5" rx="11" ry="11" style="stroke:#181818;stroke-width:1.0;"/><path d="M264.4219,33.7344 L264.4219,31.5781 L271.8125,31.5781 L271.8125,33.7344 L269.3438,33.7344 L269.3438,41.8125 L271.8125,41.8125 L271.8125,43.9688 L264.4219,43.9688 L264.4219,41.8125 L266.8906,41.8125 L266.8906,33.7344 L264.4219,33.7344 Z " fill="#000000"/><text fill="#000000" font-family="sans-serif" font-size="14" font-style="italic" lengthAdjust="spacing" textLength="76" x="282.5" y="36.9951">Serializable</text><text fill="#000000" font-family="sans-serif" font-size="10" font-style="italic" lengthAdjust="spacing" textLength="33" x="304" y="49.5791">java.io</text></g><!--reverse link fr.univlille.iutinfo.cam.player.hunter.IHunterStrategy to chasseaumonstre.model.strategy.hunter.Hunter--><g id="link_fr.univlille.iutinfo.cam.player.hunter.IHunterStrategy_chasseaumonstre.model.strategy.hunter.Hunter"><path codeLine="31" d="M130.65,88.13 C135.2,100.42 140.33,114.31 145.75,128.97 " fill="none" id="fr.univlille.iutinfo.cam.player.hunter.IHunterStrategy-backto-chasseaumonstre.model.strategy.hunter.Hunter" style="stroke:#181818;stroke-width:1.0;stroke-dasharray:7.0,7.0;"/><polygon fill="none" points="123.99,90.3,123.63,69.11,137.13,85.45,123.99,90.3" style="stroke:#181818;stroke-width:1.0;"/></g><!--reverse link java.io.Serializable to chasseaumonstre.model.strategy.hunter.Hunter--><g id="link_java.io.Serializable_chasseaumonstre.model.strategy.hunter.Hunter"><path codeLine="32" d="M293.74,75.87 C288.18,90.75 281.34,109.08 273.98,128.79 " fill="none" id="java.io.Serializable-backto-chasseaumonstre.model.strategy.hunter.Hunter" style="stroke:#181818;stroke-width:1.0;stroke-dasharray:7.0,7.0;"/><polygon fill="none" points="287.21,73.33,300.76,57.04,300.33,78.23,287.21,73.33" style="stroke:#181818;stroke-width:1.0;"/></g><text fill="#888888" font-family="sans-serif" font-size="10" lengthAdjust="spacing" textLength="186" x="84.25" y="491.5635">UMLDoclet 2.1.0, PlantUML 1.2022.14</text><!--SRC=[dLJ1Rjim3BtlAuW20nAq5TfX9wFefHkm0Dqw85ilMGwApSGiPCcGQ0zPbtyVPHkraxXRLnzYXNmatwD90G04PB2wm53g5ETOQg_PUR3EuXjnGquP0XObRs5DQB9mQ2sGSoVcnfuQ7GASN0NwXSdb- -jFbMNqFsndkBXESm6WhWfd0tjKXSlGA3bgnirMvGt-17I05o5LMm0MY_QWSYxCSWcF3Plud8VSERvrgMQIJ0cid3EexMBPGwB-1ERioMvwQqs16BFHYCxthV8s0R8yy9sI9IPjHF3aANAQGEqe6mL9-5dCSOJP8C_to4-cOsGYxeieYDu33QUXSxNsemhIOgd0GmfT_a6AIE5vagNHsrXvTkESpyZAr-cTLPd9_ydi1etvMED8E8NxjfL_vI0Ax_kE3w7okwVsCDiewVEVNa1tgmTCUTA-xYekAvOseIwEu6BCzj0pEmhUjKj0SHBNiaw3HPYrypdlndUm4MklAakr8MDGKSLarqwbkb2nit6Y-vLu6LGTr1eimwDUnGLAUVVF2TmzAsMEledJAuC37G-wrefSGxGxgo6qxSqh9LpzLkg_ReIcs1YDLwHgRpPiBfgrB8Eyld- -_U1I8tVdEtMfBixWgz6MnGflQ_H1bdKo_GC0]--></g></svg>