<?xml version="1.0" encoding="UTF-8" standalone="no"?><svg xmlns="http://www.w3.org/2000/svg" xmlns:xlink="http://www.w3.org/1999/xlink" contentStyleType="text/css" height="485px" preserveAspectRatio="none" style="width:518px;height:485px;background:#FFFFFF;" version="1.1" viewBox="0 0 518 485" width="518px" zoomAndPan="magnify"><defs/><g><!--class chasseaumonstre.model.strategy.hunter.Hunter--><a href="Hunter.html" target="_top" title="Hunter.html" xlink:actuate="onRequest" xlink:href="Hunter.html" xlink:show="new" xlink:title="Hunter.html" xlink:type="simple"><g id="elem_chasseaumonstre.model.strategy.hunter.Hunter"><rect codeLine="5" fill="#F1F1F1" height="330.9844" id="chasseaumonstre.model.strategy.hunter.Hunter" rx="2.5" ry="2.5" style="stroke:#181818;stroke-width:0.5;" width="293" x="115.5" y="129"/><ellipse cx="158.85" cy="147.9688" fill="#ADD1B2" rx="11" ry="11" style="stroke:#181818;stroke-width:1.0;"/><path d="M161.8188,153.6094 Q161.2406,153.9063 160.6,154.0469 Q159.9594,154.2031 159.2563,154.2031 Q156.7563,154.2031 155.4281,152.5625 Q154.1156,150.9063 154.1156,147.7813 Q154.1156,144.6563 155.4281,143 Q156.7563,141.3438 159.2563,141.3438 Q159.9594,141.3438 160.6,141.5 Q161.2563,141.6563 161.8188,141.9531 L161.8188,144.6719 Q161.1938,144.0938 160.6,143.8281 Q160.0063,143.5469 159.3813,143.5469 Q158.0375,143.5469 157.35,144.625 Q156.6625,145.6875 156.6625,147.7813 Q156.6625,149.875 157.35,150.9531 Q158.0375,152.0156 159.3813,152.0156 Q160.0063,152.0156 160.6,151.75 Q161.1938,151.4688 161.8188,150.8906 L161.8188,153.6094 Z " fill="#000000"/><text fill="#000000" font-family="sans-serif" font-size="14" lengthAdjust="spacing" textLength="47" x="254.65" y="146.9951">Hunter</text><text fill="#000000" font-family="sans-serif" font-size="10" lengthAdjust="spacing" textLength="198" x="179.15" y="159.5791">chasseaumonstre.model.strategy.hunter</text><line style="stroke:#181818;stroke-width:0.5;" x1="116.5" x2="407.5" y1="166.9375" y2="166.9375"/><rect fill="none" height="6" style="stroke:#C82930;stroke-width:1.0;" width="6" x="123.5" y="177.5859"/><text fill="#000000" font-family="sans-serif" font-size="14" lengthAdjust="spacing" textLength="181" x="135.5" y="183.9326">shootLocations: boolean[]</text><rect fill="none" height="6" style="stroke:#C82930;stroke-width:1.0;" width="6" x="123.5" y="193.8828"/><text fill="#000000" font-family="sans-serif" font-size="14" lengthAdjust="spacing" textLength="88" x="135.5" y="200.2295">name: String</text><rect fill="none" height="6" style="stroke:#C82930;stroke-width:1.0;" width="6" x="123.5" y="210.1797"/><text fill="#000000" font-family="sans-serif" font-size="14" lengthAdjust="spacing" textLength="119" x="135.5" y="216.5264">visited: boolean[]</text><rect fill="none" height="6" style="stroke:#C82930;stroke-width:1.0;" width="6" x="123.5" y="226.4766"/><text fill="#000000" font-family="sans-serif" font-size="14" lengthAdjust="spacing" textLength="112" x="135.5" y="232.8232">visitedTurn: int[]</text><line style="stroke:#181818;stroke-width:0.5;" x1="116.5" x2="407.5" y1="240.125" y2="240.125"/><ellipse cx="126.5" cy="253.7734" fill="#84BE84" rx="3" ry="3" style="stroke:#038048;stroke-width:1.0;"/><text fill="#000000" font-family="sans-serif" font-size="14" lengthAdjust="spacing" textLength="167" x="135.5" y="257.1201">initialize(boolean[]): void</text><ellipse cx="126.5" cy="270.0703" fill="#84BE84" rx="3" ry="3" style="stroke:#038048;stroke-width:1.0;"/><text fill="#000000" font-family="sans-serif" font-size="14" lengthAdjust="spacing" textLength="143" x="135.5" y="273.417">initialize(int, int): void</text><ellipse cx="126.5" cy="286.3672" fill="#84BE84" rx="3" ry="3" style="stroke:#038048;stroke-width:1.0;"/><text fill="#000000" font-family="sans-serif" font-size="14" lengthAdjust="spacing" textLength="122" x="135.5" y="289.7139">getName(): String</text><ellipse cx="126.5" cy="302.6641" fill="#84BE84" rx="3" ry="3" style="stroke:#038048;stroke-width:1.0;"/><text fill="#000000" font-family="sans-serif" font-size="14" lengthAdjust="spacing" textLength="149" x="135.5" y="306.0107">setName(String): void</text><ellipse cx="126.5" cy="318.9609" fill="#84BE84" rx="3" ry="3" style="stroke:#038048;stroke-width:1.0;"/><text fill="#000000" font-family="sans-serif" font-size="14" lengthAdjust="spacing" textLength="174" x="135.5" y="322.3076">hasShot(int, int): boolean</text><ellipse cx="126.5" cy="335.2578" fill="#84BE84" rx="3" ry="3" style="stroke:#038048;stroke-width:1.0;"/><text fill="#000000" font-family="sans-serif" font-size="14" lengthAdjust="spacing" textLength="129" x="135.5" y="338.6045">shoot(int, int): void</text><ellipse cx="126.5" cy="351.5547" fill="#84BE84" rx="3" ry="3" style="stroke:#038048;stroke-width:1.0;"/><text fill="#000000" font-family="sans-serif" font-size="14" lengthAdjust="spacing" textLength="125" x="135.5" y="354.9014">play(): ICoordinate</text><ellipse cx="126.5" cy="367.8516" fill="#84BE84" rx="3" ry="3" style="stroke:#038048;stroke-width:1.0;"/><text fill="#000000" font-family="sans-serif" font-size="14" lengthAdjust="spacing" textLength="163" x="135.5" y="371.1982">update(ICellEvent): void</text><ellipse cx="126.5" cy="384.1484" fill="#84BE84" rx="3" ry="3" style="stroke:#038048;stroke-width:1.0;"/><text fill="#000000" font-family="sans-serif" font-size="14" lengthAdjust="spacing" textLength="174" x="135.5" y="387.4951">isVisited(int, int): boolean</text><ellipse cx="126.5" cy="400.4453" fill="#84BE84" rx="3" ry="3" style="stroke:#038048;stroke-width:1.0;"/><text fill="#000000" font-family="sans-serif" font-size="14" lengthAdjust="spacing" textLength="179" x="135.5" y="403.792">getVisitedTurn(int, int): int</text><ellipse cx="126.5" cy="416.7422" fill="#84BE84" rx="3" ry="3" style="stroke:#038048;stroke-width:1.0;"/><text fill="#000000" font-family="sans-serif" font-size="14" lengthAdjust="spacing" textLength="182" x="135.5" y="420.0889">setVisited(int, int, int): void</text><rect fill="#F24D5C" height="6" style="stroke:#C82930;stroke-width:1.0;" width="6" x="123.5" y="430.0391"/><text fill="#000000" font-family="sans-serif" font-size="14" lengthAdjust="spacing" textLength="267" x="135.5" y="436.3857">writeObject(ObjectOutputStream): void</text><rect fill="#F24D5C" height="6" style="stroke:#C82930;stroke-width:1.0;" width="6" x="123.5" y="446.3359"/><text fill="#000000" font-family="sans-serif" font-size="14" lengthAdjust="spacing" textLength="252" x="135.5" y="452.6826">readObject(ObjectInputStream): void</text></g></a><!--class SubjectObserver.Subject--><g id="elem_SubjectObserver.Subject"><rect codeLine="25" fill="#F1F1F1" height="37.9375" id="SubjectObserver.Subject" rx="2.5" ry="2.5" style="stroke:#181818;stroke-width:0.5;" width="114" x="7" y="19"/><ellipse cx="22" cy="37.9688" fill="#A9DCDF" rx="11" ry="11" style="stroke:#181818;stroke-width:1.0;"/><path d="M22.1094,33.3125 L20.9531,38.3906 L23.2813,38.3906 L22.1094,33.3125 Z M20.625,31.0781 L23.6094,31.0781 L26.9688,43.4688 L24.5156,43.4688 L23.75,40.4063 L20.4688,40.4063 L19.7188,43.4688 L17.2813,43.4688 L20.625,31.0781 Z " fill="#000000"/><text fill="#000000" font-family="sans-serif" font-size="14" font-style="italic" lengthAdjust="spacing" textLength="52" x="51" y="36.9951">Subject</text><text fill="#000000" font-family="sans-serif" font-size="10" font-style="italic" lengthAdjust="spacing" textLength="82" x="36" y="49.5791">SubjectObserver</text></g><!--class fr.univlille.iutinfo.cam.player.hunter.IHunterStrategy--><g id="elem_fr.univlille.iutinfo.cam.player.hunter.IHunterStrategy"><rect codeLine="26" fill="#F1F1F1" height="62.2344" id="fr.univlille.iutinfo.cam.player.hunter.IHunterStrategy" rx="2.5" ry="2.5" style="stroke:#181818;stroke-width:0.5;" width="211" x="156.5" y="7"/><ellipse cx="171.5" cy="25.9688" fill="#B4A7E5" rx="11" ry="11" style="stroke:#181818;stroke-width:1.0;"/><path d="M167.4219,21.7344 L167.4219,19.5781 L174.8125,19.5781 L174.8125,21.7344 L172.3438,21.7344 L172.3438,29.8125 L174.8125,29.8125 L174.8125,31.9688 L167.4219,31.9688 L167.4219,29.8125 L169.8906,29.8125 L169.8906,21.7344 L167.4219,21.7344 Z " fill="#000000"/><text fill="#000000" font-family="sans-serif" font-size="14" font-style="italic" lengthAdjust="spacing" textLength="110" x="220" y="24.9951">IHunterStrategy</text><text fill="#000000" font-family="sans-serif" font-size="10" font-style="italic" lengthAdjust="spacing" textLength="179" x="185.5" y="37.5791">fr.univlille.iutinfo.cam.player.hunter</text><line style="stroke:#181818;stroke-width:0.5;" x1="157.5" x2="366.5" y1="44.9375" y2="44.9375"/><ellipse cx="167.5" cy="58.5859" fill="#84BE84" rx="3" ry="3" style="stroke:#038048;stroke-width:1.0;"/><text fill="#000000" font-family="sans-serif" font-size="14" font-style="italic" lengthAdjust="spacing" textLength="143" x="176.5" y="61.9326">initialize(int, int): void</text></g><!--class java.io.Serializable--><g id="elem_java.io.Serializable"><rect codeLine="29" fill="#F1F1F1" height="37.9375" id="java.io.Serializable" rx="2.5" ry="2.5" style="stroke:#181818;stroke-width:0.5;" width="108" x="403" y="19"/><ellipse cx="418" cy="37.9688" fill="#B4A7E5" rx="11" ry="11" style="stroke:#181818;stroke-width:1.0;"/><path d="M413.9219,33.7344 L413.9219,31.5781 L421.3125,31.5781 L421.3125,33.7344 L418.8438,33.7344 L418.8438,41.8125 L421.3125,41.8125 L421.3125,43.9688 L413.9219,43.9688 L413.9219,41.8125 L416.3906,41.8125 L416.3906,33.7344 L413.9219,33.7344 Z " fill="#000000"/><text fill="#000000" font-family="sans-serif" font-size="14" font-style="italic" lengthAdjust="spacing" textLength="76" x="432" y="36.9951">Serializable</text><text fill="#000000" font-family="sans-serif" font-size="10" font-style="italic" lengthAdjust="spacing" textLength="33" x="453.5" y="49.5791">java.io</text></g><!--reverse link SubjectObserver.Subject to chasseaumonstre.model.strategy.hunter.Hunter--><g id="link_SubjectObserver.Subject_chasseaumonstre.model.strategy.hunter.Hunter"><path codeLine="31" d="M90.74,73.37 C102.7,88.74 117.74,108.08 133.92,128.88 " fill="none" id="SubjectObserver.Subject-backto-chasseaumonstre.model.strategy.hunter.Hunter" style="stroke:#181818;stroke-width:1.0;"/><polygon fill="none" points="85,77.39,78.24,57.3,96.05,68.79,85,77.39" style="stroke:#181818;stroke-width:1.0;"/></g><!--reverse link fr.univlille.iutinfo.cam.player.hunter.IHunterStrategy to chasseaumonstre.model.strategy.hunter.Hunter--><g id="link_fr.univlille.iutinfo.cam.player.hunter.IHunterStrategy_chasseaumonstre.model.strategy.hunter.Hunter"><path codeLine="32" d="M262,89.51 C262,101.41 262,114.74 262,128.73 " fill="none" id="fr.univlille.iutinfo.cam.player.hunter.IHunterStrategy-backto-chasseaumonstre.model.strategy.hunter.Hunter" style="stroke:#181818;stroke-width:1.0;stroke-dasharray:7.0,7.0;"/><polygon fill="none" points="255,89.19,262,69.19,269,89.19,255,89.19" style="stroke:#181818;stroke-width:1.0;"/></g><!--reverse link java.io.Serializable to chasseaumonstre.model.strategy.hunter.Hunter--><g id="link_java.io.Serializable_chasseaumonstre.model.strategy.hunter.Hunter"><path codeLine="33" d="M430.66,73.37 C418.89,88.74 404.07,108.08 388.13,128.88 " fill="none" id="java.io.Serializable-backto-chasseaumonstre.model.strategy.hunter.Hunter" style="stroke:#181818;stroke-width:1.0;stroke-dasharray:7.0,7.0;"/><polygon fill="none" points="425.26,68.92,442.98,57.3,436.37,77.44,425.26,68.92" style="stroke:#181818;stroke-width:1.0;"/></g><text fill="#888888" font-family="sans-serif" font-size="10" lengthAdjust="spacing" textLength="186" x="159" y="475.2666">UMLDoclet 2.1.0, PlantUML 1.2022.14</text><!--SRC=[dLHDRzD04BtpAqQLa1orMRM8anNrKf28L0YIePUGmzeUnrkjTwtTiL5eyzyPVq3Ss86sETZhjs_UV6Hc000y4XXPe2zbWX6Mqaco3emr-8Ql8LSf0XObxI1Jg5D_Z1P8kMMunHCjlOUpXLU_CBnwV_sfCeJkX-c1o-iaPmBAgh36aqDHs1IruACatEv4tlBFG7fu5bDq3c2zxWuYfq9lDl3GHjFyvZwtbcvj8acnKWYnjHgbMMyEb2R_429oocmFQAsy8amdBVgxRvKp8IX3WxjpPHGfgJdXuA_bB8JQgdIInEONZSQ8iqNwmf45ir5ivxw_wl2H9PSkoYqDfVjG1X9DNKuxBxNSDPwNDzQwL1ck-k6oAbF-3fOtgFN76YVCbR_hIlJF63Z3kqCbXrH-FidsM6qowFbFnwHLV8y91TrhLL5P4PS9PJ6YCvW-OI_D97dVDRUCc-vBQDJbKTLQ3zgyHrQnHrVt3Ns4YVwxbLPDysOyWGFLPTVIKT_n0_NCYSgeMYkjKQYAbCciI6GXcZ-j6OB353sFAevy3URduK_M-_ysxVvaAX6wrax66WTvtCjQ2cNRGFkp65Axif-e6omUv_CNRObMxPK5MJmAyN9dKqczGgfRhTXkkeodbb_VFzz-i8dcvVrEN8dB2_YgfI56uItNoFEg2sQ_0G00]--></g></svg>