<?xml version="1.0" encoding="UTF-8" standalone="no"?><svg xmlns="http://www.w3.org/2000/svg" xmlns:xlink="http://www.w3.org/1999/xlink" contentStyleType="text/css" height="562px" preserveAspectRatio="none" style="width:474px;height:562px;background:#FFFFFF;" version="1.1" viewBox="0 0 474 562" width="474px" zoomAndPan="magnify"><defs/><g><!--cluster chasseaumonstre.model.strategy.hunter--><g id="cluster_chasseaumonstre.model.strategy.hunter"><path d="M83.5,145 L407.5,145 A3.75,3.75 0 0 1 410,147.5 L417,167.2969 L417.5,167.2969 A2.5,2.5 0 0 1 420,169.7969 L420,534.5 A2.5,2.5 0 0 1 417.5,537 L83.5,537 A2.5,2.5 0 0 1 81,534.5 L81,147.5 A2.5,2.5 0 0 1 83.5,145 " fill="none" style="stroke:#000000;stroke-width:1.5;"/><line style="stroke:#000000;stroke-width:1.5;" x1="81" x2="417" y1="167.2969" y2="167.2969"/><text fill="#000000" font-family="sans-serif" font-size="14" font-weight="bold" lengthAdjust="spacing" textLength="323" x="85" y="159.9951">chasseaumonstre.model.strategy.hunter</text></g><!--cluster fr.univlille.iutinfo.cam.player.hunter--><g id="cluster_fr.univlille.iutinfo.cam.player.hunter"><path d="M8.5,6 L290.5,6 A3.75,3.75 0 0 1 293,8.5 L300,28.2969 L300.5,28.2969 A2.5,2.5 0 0 1 303,30.7969 L303,118.5 A2.5,2.5 0 0 1 300.5,121 L8.5,121 A2.5,2.5 0 0 1 6,118.5 L6,8.5 A2.5,2.5 0 0 1 8.5,6 " fill="none" style="stroke:#000000;stroke-width:1.5;"/><line style="stroke:#000000;stroke-width:1.5;" x1="6" x2="300" y1="28.2969" y2="28.2969"/><text fill="#000000" font-family="sans-serif" font-size="14" font-weight="bold" lengthAdjust="spacing" textLength="281" x="10" y="20.9951">fr.univlille.iutinfo.cam.player.hunter</text></g><!--cluster java.io--><g id="cluster_java.io"><path d="M329.5,14 L380.5,14 A3.75,3.75 0 0 1 383,16.5 L390,36.2969 L464.5,36.2969 A2.5,2.5 0 0 1 467,38.7969 L467,110.5 A2.5,2.5 0 0 1 464.5,113 L329.5,113 A2.5,2.5 0 0 1 327,110.5 L327,16.5 A2.5,2.5 0 0 1 329.5,14 " fill="none" style="stroke:#000000;stroke-width:1.5;"/><line style="stroke:#000000;stroke-width:1.5;" x1="327" x2="390" y1="36.2969" y2="36.2969"/><text fill="#000000" font-family="sans-serif" font-size="14" font-weight="bold" lengthAdjust="spacing" textLength="50" x="331" y="28.9951">java.io</text></g><!--class chasseaumonstre.model.strategy.hunter.Hunter--><a href="Hunter.html" target="_top" title="Hunter.html" xlink:actuate="onRequest" xlink:href="Hunter.html" xlink:show="new" xlink:title="Hunter.html" xlink:type="simple"><g id="elem_chasseaumonstre.model.strategy.hunter.Hunter"><rect codeLine="3" fill="#F1F1F1" height="341.3438" id="chasseaumonstre.model.strategy.hunter.Hunter" rx="2.5" ry="2.5" style="stroke:#181818;stroke-width:0.5;" width="293" x="103.5" y="180"/><ellipse cx="222.25" cy="196" fill="#ADD1B2" rx="11" ry="11" style="stroke:#181818;stroke-width:1.0;"/><path d="M225.2188,201.6406 Q224.6406,201.9375 224,202.0781 Q223.3594,202.2344 222.6563,202.2344 Q220.1563,202.2344 218.8281,200.5938 Q217.5156,198.9375 217.5156,195.8125 Q217.5156,192.6875 218.8281,191.0313 Q220.1563,189.375 222.6563,189.375 Q223.3594,189.375 224,189.5313 Q224.6563,189.6875 225.2188,189.9844 L225.2188,192.7031 Q224.5938,192.125 224,191.8594 Q223.4063,191.5781 222.7813,191.5781 Q221.4375,191.5781 220.75,192.6563 Q220.0625,193.7188 220.0625,195.8125 Q220.0625,197.9063 220.75,198.9844 Q221.4375,200.0469 222.7813,200.0469 Q223.4063,200.0469 224,199.7813 Q224.5938,199.5 225.2188,198.9219 L225.2188,201.6406 Z " fill="#000000"/><text fill="#000000" font-family="sans-serif" font-size="14" lengthAdjust="spacing" textLength="47" x="242.75" y="200.8467">Hunter</text><line style="stroke:#181818;stroke-width:0.5;" x1="104.5" x2="395.5" y1="212" y2="212"/><rect fill="none" height="6" style="stroke:#C82930;stroke-width:1.0;" width="6" x="111.5" y="222.6484"/><text fill="#000000" font-family="sans-serif" font-size="14" lengthAdjust="spacing" textLength="181" x="123.5" y="228.9951">shootLocations: boolean[]</text><rect fill="none" height="6" style="stroke:#C82930;stroke-width:1.0;" width="6" x="111.5" y="238.9453"/><text fill="#000000" font-family="sans-serif" font-size="14" lengthAdjust="spacing" textLength="88" x="123.5" y="245.292">name: String</text><rect fill="none" height="6" style="stroke:#C82930;stroke-width:1.0;" width="6" x="111.5" y="255.2422"/><text fill="#000000" font-family="sans-serif" font-size="14" lengthAdjust="spacing" textLength="119" x="123.5" y="261.5889">visited: boolean[]</text><rect fill="none" height="6" style="stroke:#C82930;stroke-width:1.0;" width="6" x="111.5" y="271.5391"/><text fill="#000000" font-family="sans-serif" font-size="14" lengthAdjust="spacing" textLength="112" x="123.5" y="277.8857">visitedTurn: int[]</text><line style="stroke:#181818;stroke-width:0.5;" x1="104.5" x2="395.5" y1="285.1875" y2="285.1875"/><ellipse cx="114.5" cy="298.8359" fill="#84BE84" rx="3" ry="3" style="stroke:#038048;stroke-width:1.0;"/><text fill="#000000" font-family="sans-serif" font-size="14" lengthAdjust="spacing" textLength="167" x="123.5" y="302.1826">initialize(boolean[]): void</text><ellipse cx="114.5" cy="315.1328" fill="#84BE84" rx="3" ry="3" style="stroke:#038048;stroke-width:1.0;"/><text fill="#000000" font-family="sans-serif" font-size="14" lengthAdjust="spacing" textLength="143" x="123.5" y="318.4795">initialize(int, int): void</text><ellipse cx="114.5" cy="331.4297" fill="#84BE84" rx="3" ry="3" style="stroke:#038048;stroke-width:1.0;"/><text fill="#000000" font-family="sans-serif" font-size="14" lengthAdjust="spacing" textLength="215" x="123.5" y="334.7764">getShootLocations(): boolean[]</text><ellipse cx="114.5" cy="347.7266" fill="#84BE84" rx="3" ry="3" style="stroke:#038048;stroke-width:1.0;"/><text fill="#000000" font-family="sans-serif" font-size="14" lengthAdjust="spacing" textLength="122" x="123.5" y="351.0732">getName(): String</text><ellipse cx="114.5" cy="364.0234" fill="#84BE84" rx="3" ry="3" style="stroke:#038048;stroke-width:1.0;"/><text fill="#000000" font-family="sans-serif" font-size="14" lengthAdjust="spacing" textLength="149" x="123.5" y="367.3701">setName(String): void</text><ellipse cx="114.5" cy="380.3203" fill="#84BE84" rx="3" ry="3" style="stroke:#038048;stroke-width:1.0;"/><text fill="#000000" font-family="sans-serif" font-size="14" lengthAdjust="spacing" textLength="174" x="123.5" y="383.667">hasShot(int, int): boolean</text><ellipse cx="114.5" cy="396.6172" fill="#84BE84" rx="3" ry="3" style="stroke:#038048;stroke-width:1.0;"/><text fill="#000000" font-family="sans-serif" font-size="14" lengthAdjust="spacing" textLength="129" x="123.5" y="399.9639">shoot(int, int): void</text><ellipse cx="114.5" cy="412.9141" fill="#84BE84" rx="3" ry="3" style="stroke:#038048;stroke-width:1.0;"/><text fill="#000000" font-family="sans-serif" font-size="14" lengthAdjust="spacing" textLength="125" x="123.5" y="416.2607">play(): ICoordinate</text><ellipse cx="114.5" cy="429.2109" fill="#84BE84" rx="3" ry="3" style="stroke:#038048;stroke-width:1.0;"/><text fill="#000000" font-family="sans-serif" font-size="14" lengthAdjust="spacing" textLength="163" x="123.5" y="432.5576">update(ICellEvent): void</text><ellipse cx="114.5" cy="445.5078" fill="#84BE84" rx="3" ry="3" style="stroke:#038048;stroke-width:1.0;"/><text fill="#000000" font-family="sans-serif" font-size="14" lengthAdjust="spacing" textLength="174" x="123.5" y="448.8545">isVisited(int, int): boolean</text><ellipse cx="114.5" cy="461.8047" fill="#84BE84" rx="3" ry="3" style="stroke:#038048;stroke-width:1.0;"/><text fill="#000000" font-family="sans-serif" font-size="14" lengthAdjust="spacing" textLength="179" x="123.5" y="465.1514">getVisitedTurn(int, int): int</text><ellipse cx="114.5" cy="478.1016" fill="#84BE84" rx="3" ry="3" style="stroke:#038048;stroke-width:1.0;"/><text fill="#000000" font-family="sans-serif" font-size="14" lengthAdjust="spacing" textLength="182" x="123.5" y="481.4482">setVisited(int, int, int): void</text><rect fill="#F24D5C" height="6" style="stroke:#C82930;stroke-width:1.0;" width="6" x="111.5" y="491.3984"/><text fill="#000000" font-family="sans-serif" font-size="14" lengthAdjust="spacing" textLength="267" x="123.5" y="497.7451">writeObject(ObjectOutputStream): void</text><rect fill="#F24D5C" height="6" style="stroke:#C82930;stroke-width:1.0;" width="6" x="111.5" y="507.6953"/><text fill="#000000" font-family="sans-serif" font-size="14" lengthAdjust="spacing" textLength="252" x="123.5" y="514.042">readObject(ObjectInputStream): void</text></g></a><!--class fr.univlille.iutinfo.cam.player.hunter.IHunterStrategy--><g id="elem_fr.univlille.iutinfo.cam.player.hunter.IHunterStrategy"><rect codeLine="29" fill="#F1F1F1" height="64.2969" id="fr.univlille.iutinfo.cam.player.hunter.IHunterStrategy" rx="2.5" ry="2.5" style="stroke:#181818;stroke-width:0.5;" width="169" x="118.5" y="41"/><ellipse cx="145.65" cy="57" fill="#B4A7E5" rx="11" ry="11" style="stroke:#181818;stroke-width:1.0;"/><path d="M141.5719,52.7656 L141.5719,50.6094 L148.9625,50.6094 L148.9625,52.7656 L146.4938,52.7656 L146.4938,60.8438 L148.9625,60.8438 L148.9625,63 L141.5719,63 L141.5719,60.8438 L144.0406,60.8438 L144.0406,52.7656 L141.5719,52.7656 Z " fill="#000000"/><text fill="#000000" font-family="sans-serif" font-size="14" font-style="italic" lengthAdjust="spacing" textLength="110" x="162.35" y="61.8467">IHunterStrategy</text><line style="stroke:#181818;stroke-width:0.5;" x1="119.5" x2="286.5" y1="73" y2="73"/><line style="stroke:#181818;stroke-width:0.5;" x1="119.5" x2="286.5" y1="81" y2="81"/><ellipse cx="129.5" cy="94.6484" fill="#84BE84" rx="3" ry="3" style="stroke:#038048;stroke-width:1.0;"/><text fill="#000000" font-family="sans-serif" font-size="14" font-style="italic" lengthAdjust="spacing" textLength="143" x="138.5" y="97.9951">initialize(int, int): void</text></g><!--class java.io.Serializable--><g id="elem_java.io.Serializable"><rect codeLine="35" fill="#F1F1F1" height="48" id="java.io.Serializable" rx="2.5" ry="2.5" style="stroke:#181818;stroke-width:0.5;" width="108" x="343" y="49"/><ellipse cx="358" cy="65" fill="#B4A7E5" rx="11" ry="11" style="stroke:#181818;stroke-width:1.0;"/><path d="M353.9219,60.7656 L353.9219,58.6094 L361.3125,58.6094 L361.3125,60.7656 L358.8438,60.7656 L358.8438,68.8438 L361.3125,68.8438 L361.3125,71 L353.9219,71 L353.9219,68.8438 L356.3906,68.8438 L356.3906,60.7656 L353.9219,60.7656 Z " fill="#000000"/><text fill="#000000" font-family="sans-serif" font-size="14" font-style="italic" lengthAdjust="spacing" textLength="76" x="372" y="69.8467">Serializable</text><line style="stroke:#181818;stroke-width:0.5;" x1="344" x2="450" y1="81" y2="81"/><line style="stroke:#181818;stroke-width:0.5;" x1="344" x2="450" y1="89" y2="89"/></g><!--reverse link fr.univlille.iutinfo.cam.player.hunter.IHunterStrategy to chasseaumonstre.model.strategy.hunter.Hunter--><g id="link_fr.univlille.iutinfo.cam.player.hunter.IHunterStrategy_chasseaumonstre.model.strategy.hunter.Hunter"><path codeLine="24" d="M211.7,124.97 C214.46,141.16 217.68,160.04 221.06,179.85 " fill="none" id="fr.univlille.iutinfo.cam.player.hunter.IHunterStrategy-backto-chasseaumonstre.model.strategy.hunter.Hunter" style="stroke:#181818;stroke-width:1.0;stroke-dasharray:7.0,7.0;"/><polygon fill="none" points="204.76,125.96,208.3,105.07,218.56,123.61,204.76,125.96" style="stroke:#181818;stroke-width:1.0;"/></g><!--reverse link java.io.Serializable to chasseaumonstre.model.strategy.hunter.Hunter--><g id="link_java.io.Serializable_chasseaumonstre.model.strategy.hunter.Hunter"><path codeLine="25" d="M375.25,114.77 C365.56,132.92 353.45,155.62 340.59,179.72 " fill="none" id="java.io.Serializable-backto-chasseaumonstre.model.strategy.hunter.Hunter" style="stroke:#181818;stroke-width:1.0;stroke-dasharray:7.0,7.0;"/><polygon fill="none" points="369.13,111.37,384.72,97.02,381.48,117.96,369.13,111.37" style="stroke:#181818;stroke-width:1.0;"/></g><text fill="#888888" font-family="sans-serif" font-size="10" lengthAdjust="spacing" textLength="186" x="137" y="552.2822">UMLDoclet 2.1.0, PlantUML 1.2022.14</text><!--SRC=[ZLF1JkCm4Btp5NDPAHLWBHohlS5ALEfIf2vSgXvSPzeESkpAdWG1stzdJ2AQb6J1XzZnl7dpPZm30E1qWN6d3OBPwXXHbuLtaGEgmkTebHmru-PPRKl76E3rv0IQPQmum4rzlrZK1xNbmYwNWeFMEezRxtdgZMOI-Z6ilBUetMBPXIKrOvXp8BVfMYgAn9WFUZRslsLmOo37H_PJSiIaBRrWzi4m6aFbAHy42irPukh5RP3ddQIoqP2uXBsLp1AY9xVJs9XhMsyqUHk9ncr9JQmZgYJf_y9tLZyd9PChxqDEJfwt2oXtkTnbaokqzdU50pGK7-gIVwb9idyul4uRBjzFbJXc7Kpa_2a8SBPwHCDPlSrAtfKiPKHTzBg88UzuJDoWm_xGwUkWIaUL9MjHKSdarbuPNQXKozJpTUjFwX6ODoC3l_ufrSp71zMZhhGYh-OOthjChon-0ZQX3xFvFG6jeQFqlqwknwAwW_cgLsd23U-_rVdxVdbDKhtnsucslGs-IrvBlyfs_sTwxOr5XajreNwUmPtLZkKMVbGOeinNDde3]--></g></svg>