<?xml version="1.0" encoding="UTF-8" standalone="no"?><svg xmlns="http://www.w3.org/2000/svg" xmlns:xlink="http://www.w3.org/1999/xlink" contentStyleType="text/css" height="546px" preserveAspectRatio="none" style="width:736px;height:546px;background:#FFFFFF;" version="1.1" viewBox="0 0 736 546" width="736px" zoomAndPan="magnify"><defs/><g><!--cluster chasseaumonstre.model.strategy.hunter--><g id="cluster_chasseaumonstre.model.strategy.hunter"><path d="M249.5,145 L573.5,145 A3.75,3.75 0 0 1 576,147.5 L583,167.2969 L583.5,167.2969 A2.5,2.5 0 0 1 586,169.7969 L586,518.5 A2.5,2.5 0 0 1 583.5,521 L249.5,521 A2.5,2.5 0 0 1 247,518.5 L247,147.5 A2.5,2.5 0 0 1 249.5,145 " fill="none" style="stroke:#000000;stroke-width:1.5;"/><line style="stroke:#000000;stroke-width:1.5;" x1="247" x2="583" y1="167.2969" y2="167.2969"/><text fill="#000000" font-family="sans-serif" font-size="14" font-weight="bold" lengthAdjust="spacing" textLength="323" x="251" y="159.9951">chasseaumonstre.model.strategy.hunter</text></g><!--cluster SubjectObserver--><g id="cluster_SubjectObserver"><path d="M8.5,6 L142.5,6 A3.75,3.75 0 0 1 145,8.5 L152,28.2969 L241.5,28.2969 A2.5,2.5 0 0 1 244,30.7969 L244,118.5 A2.5,2.5 0 0 1 241.5,121 L8.5,121 A2.5,2.5 0 0 1 6,118.5 L6,8.5 A2.5,2.5 0 0 1 8.5,6 " fill="none" style="stroke:#000000;stroke-width:1.5;"/><line style="stroke:#000000;stroke-width:1.5;" x1="6" x2="152" y1="28.2969" y2="28.2969"/><text fill="#000000" font-family="sans-serif" font-size="14" font-weight="bold" lengthAdjust="spacing" textLength="133" x="10" y="20.9951">SubjectObserver</text></g><!--cluster fr.univlille.iutinfo.cam.player.hunter--><g id="cluster_fr.univlille.iutinfo.cam.player.hunter"><path d="M270.5,6 L552.5,6 A3.75,3.75 0 0 1 555,8.5 L562,28.2969 L562.5,28.2969 A2.5,2.5 0 0 1 565,30.7969 L565,118.5 A2.5,2.5 0 0 1 562.5,121 L270.5,121 A2.5,2.5 0 0 1 268,118.5 L268,8.5 A2.5,2.5 0 0 1 270.5,6 " fill="none" style="stroke:#000000;stroke-width:1.5;"/><line style="stroke:#000000;stroke-width:1.5;" x1="268" x2="562" y1="28.2969" y2="28.2969"/><text fill="#000000" font-family="sans-serif" font-size="14" font-weight="bold" lengthAdjust="spacing" textLength="281" x="272" y="20.9951">fr.univlille.iutinfo.cam.player.hunter</text></g><!--cluster java.io--><g id="cluster_java.io"><path d="M591.5,14 L642.5,14 A3.75,3.75 0 0 1 645,16.5 L652,36.2969 L726.5,36.2969 A2.5,2.5 0 0 1 729,38.7969 L729,110.5 A2.5,2.5 0 0 1 726.5,113 L591.5,113 A2.5,2.5 0 0 1 589,110.5 L589,16.5 A2.5,2.5 0 0 1 591.5,14 " fill="none" style="stroke:#000000;stroke-width:1.5;"/><line style="stroke:#000000;stroke-width:1.5;" x1="589" x2="652" y1="36.2969" y2="36.2969"/><text fill="#000000" font-family="sans-serif" font-size="14" font-weight="bold" lengthAdjust="spacing" textLength="50" x="593" y="28.9951">java.io</text></g><!--class chasseaumonstre.model.strategy.hunter.Hunter--><a href="Hunter.html" target="_top" title="Hunter.html" xlink:actuate="onRequest" xlink:href="Hunter.html" xlink:show="new" xlink:title="Hunter.html" xlink:type="simple"><g id="elem_chasseaumonstre.model.strategy.hunter.Hunter"><rect codeLine="3" fill="#F1F1F1" height="325.0469" id="chasseaumonstre.model.strategy.hunter.Hunter" rx="2.5" ry="2.5" style="stroke:#181818;stroke-width:0.5;" width="293" x="269.5" y="180"/><ellipse cx="388.25" cy="196" fill="#ADD1B2" rx="11" ry="11" style="stroke:#181818;stroke-width:1.0;"/><path d="M391.2188,201.6406 Q390.6406,201.9375 390,202.0781 Q389.3594,202.2344 388.6563,202.2344 Q386.1563,202.2344 384.8281,200.5938 Q383.5156,198.9375 383.5156,195.8125 Q383.5156,192.6875 384.8281,191.0313 Q386.1563,189.375 388.6563,189.375 Q389.3594,189.375 390,189.5313 Q390.6563,189.6875 391.2188,189.9844 L391.2188,192.7031 Q390.5938,192.125 390,191.8594 Q389.4063,191.5781 388.7813,191.5781 Q387.4375,191.5781 386.75,192.6563 Q386.0625,193.7188 386.0625,195.8125 Q386.0625,197.9063 386.75,198.9844 Q387.4375,200.0469 388.7813,200.0469 Q389.4063,200.0469 390,199.7813 Q390.5938,199.5 391.2188,198.9219 L391.2188,201.6406 Z " fill="#000000"/><text fill="#000000" font-family="sans-serif" font-size="14" lengthAdjust="spacing" textLength="47" x="408.75" y="200.8467">Hunter</text><line style="stroke:#181818;stroke-width:0.5;" x1="270.5" x2="561.5" y1="212" y2="212"/><rect fill="none" height="6" style="stroke:#C82930;stroke-width:1.0;" width="6" x="277.5" y="222.6484"/><text fill="#000000" font-family="sans-serif" font-size="14" lengthAdjust="spacing" textLength="181" x="289.5" y="228.9951">shootLocations: boolean[]</text><rect fill="none" height="6" style="stroke:#C82930;stroke-width:1.0;" width="6" x="277.5" y="238.9453"/><text fill="#000000" font-family="sans-serif" font-size="14" lengthAdjust="spacing" textLength="88" x="289.5" y="245.292">name: String</text><rect fill="none" height="6" style="stroke:#C82930;stroke-width:1.0;" width="6" x="277.5" y="255.2422"/><text fill="#000000" font-family="sans-serif" font-size="14" lengthAdjust="spacing" textLength="119" x="289.5" y="261.5889">visited: boolean[]</text><rect fill="none" height="6" style="stroke:#C82930;stroke-width:1.0;" width="6" x="277.5" y="271.5391"/><text fill="#000000" font-family="sans-serif" font-size="14" lengthAdjust="spacing" textLength="112" x="289.5" y="277.8857">visitedTurn: int[]</text><line style="stroke:#181818;stroke-width:0.5;" x1="270.5" x2="561.5" y1="285.1875" y2="285.1875"/><ellipse cx="280.5" cy="298.8359" fill="#84BE84" rx="3" ry="3" style="stroke:#038048;stroke-width:1.0;"/><text fill="#000000" font-family="sans-serif" font-size="14" lengthAdjust="spacing" textLength="167" x="289.5" y="302.1826">initialize(boolean[]): void</text><ellipse cx="280.5" cy="315.1328" fill="#84BE84" rx="3" ry="3" style="stroke:#038048;stroke-width:1.0;"/><text fill="#000000" font-family="sans-serif" font-size="14" lengthAdjust="spacing" textLength="143" x="289.5" y="318.4795">initialize(int, int): void</text><ellipse cx="280.5" cy="331.4297" fill="#84BE84" rx="3" ry="3" style="stroke:#038048;stroke-width:1.0;"/><text fill="#000000" font-family="sans-serif" font-size="14" lengthAdjust="spacing" textLength="122" x="289.5" y="334.7764">getName(): String</text><ellipse cx="280.5" cy="347.7266" fill="#84BE84" rx="3" ry="3" style="stroke:#038048;stroke-width:1.0;"/><text fill="#000000" font-family="sans-serif" font-size="14" lengthAdjust="spacing" textLength="149" x="289.5" y="351.0732">setName(String): void</text><ellipse cx="280.5" cy="364.0234" fill="#84BE84" rx="3" ry="3" style="stroke:#038048;stroke-width:1.0;"/><text fill="#000000" font-family="sans-serif" font-size="14" lengthAdjust="spacing" textLength="174" x="289.5" y="367.3701">hasShot(int, int): boolean</text><ellipse cx="280.5" cy="380.3203" fill="#84BE84" rx="3" ry="3" style="stroke:#038048;stroke-width:1.0;"/><text fill="#000000" font-family="sans-serif" font-size="14" lengthAdjust="spacing" textLength="129" x="289.5" y="383.667">shoot(int, int): void</text><ellipse cx="280.5" cy="396.6172" fill="#84BE84" rx="3" ry="3" style="stroke:#038048;stroke-width:1.0;"/><text fill="#000000" font-family="sans-serif" font-size="14" lengthAdjust="spacing" textLength="125" x="289.5" y="399.9639">play(): ICoordinate</text><ellipse cx="280.5" cy="412.9141" fill="#84BE84" rx="3" ry="3" style="stroke:#038048;stroke-width:1.0;"/><text fill="#000000" font-family="sans-serif" font-size="14" lengthAdjust="spacing" textLength="163" x="289.5" y="416.2607">update(ICellEvent): void</text><ellipse cx="280.5" cy="429.2109" fill="#84BE84" rx="3" ry="3" style="stroke:#038048;stroke-width:1.0;"/><text fill="#000000" font-family="sans-serif" font-size="14" lengthAdjust="spacing" textLength="174" x="289.5" y="432.5576">isVisited(int, int): boolean</text><ellipse cx="280.5" cy="445.5078" fill="#84BE84" rx="3" ry="3" style="stroke:#038048;stroke-width:1.0;"/><text fill="#000000" font-family="sans-serif" font-size="14" lengthAdjust="spacing" textLength="179" x="289.5" y="448.8545">getVisitedTurn(int, int): int</text><ellipse cx="280.5" cy="461.8047" fill="#84BE84" rx="3" ry="3" style="stroke:#038048;stroke-width:1.0;"/><text fill="#000000" font-family="sans-serif" font-size="14" lengthAdjust="spacing" textLength="182" x="289.5" y="465.1514">setVisited(int, int, int): void</text><rect fill="#F24D5C" height="6" style="stroke:#C82930;stroke-width:1.0;" width="6" x="277.5" y="475.1016"/><text fill="#000000" font-family="sans-serif" font-size="14" lengthAdjust="spacing" textLength="267" x="289.5" y="481.4482">writeObject(ObjectOutputStream): void</text><rect fill="#F24D5C" height="6" style="stroke:#C82930;stroke-width:1.0;" width="6" x="277.5" y="491.3984"/><text fill="#000000" font-family="sans-serif" font-size="14" lengthAdjust="spacing" textLength="252" x="289.5" y="497.7451">readObject(ObjectInputStream): void</text></g></a><!--class SubjectObserver.Subject--><g id="elem_SubjectObserver.Subject"><rect codeLine="29" fill="#F1F1F1" height="64.2969" id="SubjectObserver.Subject" rx="2.5" ry="2.5" style="stroke:#181818;stroke-width:0.5;" width="206" x="22" y="41"/><ellipse cx="94.75" cy="57" fill="#A9DCDF" rx="11" ry="11" style="stroke:#181818;stroke-width:1.0;"/><path d="M94.8594,52.3438 L93.7031,57.4219 L96.0313,57.4219 L94.8594,52.3438 Z M93.375,50.1094 L96.3594,50.1094 L99.7188,62.5 L97.2656,62.5 L96.5,59.4375 L93.2188,59.4375 L92.4688,62.5 L90.0313,62.5 L93.375,50.1094 Z " fill="#000000"/><text fill="#000000" font-family="sans-serif" font-size="14" font-style="italic" lengthAdjust="spacing" textLength="52" x="115.25" y="61.8467">Subject</text><line style="stroke:#181818;stroke-width:0.5;" x1="23" x2="227" y1="73" y2="73"/><polygon fill="none" points="33,81.6484,37,85.6484,33,89.6484,29,85.6484" style="stroke:#B38D22;stroke-width:1.0;"/><text fill="#000000" font-family="sans-serif" font-size="14" lengthAdjust="spacing" textLength="180" x="42" y="89.9951">attached: List&lt;Observer&gt;</text><line style="stroke:#181818;stroke-width:0.5;" x1="23" x2="227" y1="97.2969" y2="97.2969"/></g><!--class fr.univlille.iutinfo.cam.player.hunter.IHunterStrategy--><g id="elem_fr.univlille.iutinfo.cam.player.hunter.IHunterStrategy"><rect codeLine="35" fill="#F1F1F1" height="64.2969" id="fr.univlille.iutinfo.cam.player.hunter.IHunterStrategy" rx="2.5" ry="2.5" style="stroke:#181818;stroke-width:0.5;" width="169" x="331.5" y="41"/><ellipse cx="358.65" cy="57" fill="#B4A7E5" rx="11" ry="11" style="stroke:#181818;stroke-width:1.0;"/><path d="M354.5719,52.7656 L354.5719,50.6094 L361.9625,50.6094 L361.9625,52.7656 L359.4938,52.7656 L359.4938,60.8438 L361.9625,60.8438 L361.9625,63 L354.5719,63 L354.5719,60.8438 L357.0406,60.8438 L357.0406,52.7656 L354.5719,52.7656 Z " fill="#000000"/><text fill="#000000" font-family="sans-serif" font-size="14" font-style="italic" lengthAdjust="spacing" textLength="110" x="375.35" y="61.8467">IHunterStrategy</text><line style="stroke:#181818;stroke-width:0.5;" x1="332.5" x2="499.5" y1="73" y2="73"/><line style="stroke:#181818;stroke-width:0.5;" x1="332.5" x2="499.5" y1="81" y2="81"/><ellipse cx="342.5" cy="94.6484" fill="#84BE84" rx="3" ry="3" style="stroke:#038048;stroke-width:1.0;"/><text fill="#000000" font-family="sans-serif" font-size="14" font-style="italic" lengthAdjust="spacing" textLength="143" x="351.5" y="97.9951">initialize(int, int): void</text></g><!--class java.io.Serializable--><g id="elem_java.io.Serializable"><rect codeLine="41" fill="#F1F1F1" height="48" id="java.io.Serializable" rx="2.5" ry="2.5" style="stroke:#181818;stroke-width:0.5;" width="108" x="605" y="49"/><ellipse cx="620" cy="65" fill="#B4A7E5" rx="11" ry="11" style="stroke:#181818;stroke-width:1.0;"/><path d="M615.9219,60.7656 L615.9219,58.6094 L623.3125,58.6094 L623.3125,60.7656 L620.8438,60.7656 L620.8438,68.8438 L623.3125,68.8438 L623.3125,71 L615.9219,71 L615.9219,68.8438 L618.3906,68.8438 L618.3906,60.7656 L615.9219,60.7656 Z " fill="#000000"/><text fill="#000000" font-family="sans-serif" font-size="14" font-style="italic" lengthAdjust="spacing" textLength="76" x="634" y="69.8467">Serializable</text><line style="stroke:#181818;stroke-width:0.5;" x1="606" x2="712" y1="81" y2="81"/><line style="stroke:#181818;stroke-width:0.5;" x1="606" x2="712" y1="89" y2="89"/></g><!--reverse link SubjectObserver.Subject to chasseaumonstre.model.strategy.hunter.Hunter--><g id="link_SubjectObserver.Subject_chasseaumonstre.model.strategy.hunter.Hunter"><path codeLine="23" d="M174.01,119.05 C200.55,143.45 234.89,175.02 269.32,206.66 " fill="none" id="SubjectObserver.Subject-backto-chasseaumonstre.model.strategy.hunter.Hunter" style="stroke:#181818;stroke-width:1.0;"/><polygon fill="none" points="168.94,123.9,158.95,105.21,178.41,113.59,168.94,123.9" style="stroke:#181818;stroke-width:1.0;"/></g><!--reverse link fr.univlille.iutinfo.cam.player.hunter.IHunterStrategy to chasseaumonstre.model.strategy.hunter.Hunter--><g id="link_fr.univlille.iutinfo.cam.player.hunter.IHunterStrategy_chasseaumonstre.model.strategy.hunter.Hunter"><path codeLine="24" d="M416,125.38 C416,141.47 416,160.17 416,179.71 " fill="none" id="fr.univlille.iutinfo.cam.player.hunter.IHunterStrategy-backto-chasseaumonstre.model.strategy.hunter.Hunter" style="stroke:#181818;stroke-width:1.0;stroke-dasharray:7.0,7.0;"/><polygon fill="none" points="409,125.21,416,105.21,423,125.21,409,125.21" style="stroke:#181818;stroke-width:1.0;"/></g><!--reverse link java.io.Serializable to chasseaumonstre.model.strategy.hunter.Hunter--><g id="link_java.io.Serializable_chasseaumonstre.model.strategy.hunter.Hunter"><path codeLine="25" d="M624.27,112.23 C607.33,130.88 585.68,154.71 562.78,179.92 " fill="none" id="java.io.Serializable-backto-chasseaumonstre.model.strategy.hunter.Hunter" style="stroke:#181818;stroke-width:1.0;stroke-dasharray:7.0,7.0;"/><polygon fill="none" points="619.23,107.37,637.86,97.27,629.59,116.78,619.23,107.37" style="stroke:#181818;stroke-width:1.0;"/></g><text fill="#888888" font-family="sans-serif" font-size="10" lengthAdjust="spacing" textLength="186" x="268" y="536.2822">UMLDoclet 2.1.0, PlantUML 1.2022.14</text><!--SRC=[ZLJ1Jjj04Btp5IjLbHn1Li0nGhtGIeqKe99RBb4EQtiI3rhlHhkphe3oxvt53h6DtU93RE-yUVlsPPw54CAe2lnUvI3oKdaFAbJMU78WArk0bloe27QFiWo6m8ddanFHNhdc1l6zML-lcmTPKgKt6yQ9pZNtfRMqihaYPFg5oApLeCnwquT5DGkHaaEpwrTgz4XGJ7QszP_1cOL0GuFwAHeaL1gV87bZc2r4RR6O13BDMUGQnUs0RbbjCXlLU-hRSbCRPM2_qz9ITvjMse0gUlTlCNkj7gEIvRMrha33VraV4FO5hoNBQz3wMmqJDEZl6nl_gubFVtzql0ldttTE35ad3pB_xHXubpr0Jabpkmkq3yGsWgf6MxXGz3gMPhBXvJYzQMZeCm-kvhbjtyNLd_cy7UetxDR9OB3Mg3L838HcQsMkAXbzZpFVZFwoQKlRo32Lb4Eg1rKhYLQcu5wdJ6KQtW5RcSTi3iHsqgMoc53MtQJnS8f-_3uf8fMNCJuhz7HruFdICMPqtuyTlBCRnlTjR1sQqLVqVD3zyg74JSXhpHpTlsjmjpk7LybRpXJVVjsiljfS0ubBUI7FpyGFhGpnglZC_dZ-M2Mplm00]--></g></svg>