<?xml version="1.0" encoding="UTF-8" standalone="no"?><svg xmlns="http://www.w3.org/2000/svg" xmlns:xlink="http://www.w3.org/1999/xlink" contentStyleType="text/css" height="401px" preserveAspectRatio="none" style="width:1415px;height:401px;" version="1.1" viewBox="0 0 1415 401" width="1415px" zoomAndPan="magnify"><defs/><g><!--class chasseaumonstre--><a href="chasseaumonstre/package-summary.html" target="_top" title="chasseaumonstre/package-summary.html" xlink:actuate="onRequest" xlink:href="chasseaumonstre/package-summary.html" xlink:show="new" xlink:title="chasseaumonstre/package-summary.html" xlink:type="simple"><g id="elem_chasseaumonstre"><rect codeLine="38" fill="#F1F1F1" height="26.2969" id="chasseaumonstre" rx="2.5" ry="2.5" style="stroke:#181818;stroke-width:0.5;" width="131" x="138" y="93"/><text fill="#000000" font-family="sans-serif" font-size="14" lengthAdjust="spacing" textLength="125" x="141" y="110.9951">chasseaumonstre</text></g></a><!--class javafx.application--><g id="elem_javafx.application"><rect fill="#F1F1F1" height="26.2969" id="javafx.application" rx="2.5" ry="2.5" style="stroke:#181818;stroke-width:0.5;" width="121" x="73" y="179"/><text fill="#000000" font-family="sans-serif" font-size="14" lengthAdjust="spacing" textLength="115" x="76" y="196.9951">javafx.application</text></g><!--class javafx.stage--><g id="elem_javafx.stage"><rect fill="#F1F1F1" height="26.2969" id="javafx.stage" rx="2.5" ry="2.5" style="stroke:#181818;stroke-width:0.5;" width="86" x="229.5" y="179"/><text fill="#000000" font-family="sans-serif" font-size="14" lengthAdjust="spacing" textLength="80" x="232.5" y="196.9951">javafx.stage</text></g><!--class chasseaumonstre.views--><a href="chasseaumonstre/views/package-summary.html" target="_top" title="chasseaumonstre/views/package-summary.html" xlink:actuate="onRequest" xlink:href="chasseaumonstre/views/package-summary.html" xlink:show="new" xlink:title="chasseaumonstre/views/package-summary.html" xlink:type="simple"><g id="elem_chasseaumonstre.views"><rect codeLine="40" fill="#F1F1F1" height="26.2969" id="chasseaumonstre.views" rx="2.5" ry="2.5" style="stroke:#181818;stroke-width:0.5;" width="173" x="488" y="7"/><text fill="#000000" font-family="sans-serif" font-size="14" lengthAdjust="spacing" textLength="167" x="491" y="24.9951">chasseaumonstre.views</text></g></a><!--class SubjectObserver--><g id="elem_SubjectObserver"><rect fill="#F1F1F1" height="26.2969" id="SubjectObserver" rx="2.5" ry="2.5" style="stroke:#181818;stroke-width:0.5;" width="121" x="7" y="351"/><text fill="#000000" font-family="sans-serif" font-size="14" lengthAdjust="spacing" textLength="115" x="10" y="368.9951">SubjectObserver</text></g><!--class chasseaumonstre.controller--><a href="chasseaumonstre/controller/package-summary.html" target="_top" title="chasseaumonstre/controller/package-summary.html" xlink:actuate="onRequest" xlink:href="chasseaumonstre/controller/package-summary.html" xlink:show="new" xlink:title="chasseaumonstre/controller/package-summary.html" xlink:type="simple"><g id="elem_chasseaumonstre.controller"><rect codeLine="42" fill="#F1F1F1" height="26.2969" id="chasseaumonstre.controller" rx="2.5" ry="2.5" style="stroke:#181818;stroke-width:0.5;" width="200" x="644.5" y="93"/><text fill="#000000" font-family="sans-serif" font-size="14" lengthAdjust="spacing" textLength="194" x="647.5" y="110.9951">chasseaumonstre.controller</text></g></a><!--class javafx.scene.layout--><g id="elem_javafx.scene.layout"><rect fill="#F1F1F1" height="26.2969" id="javafx.scene.layout" rx="2.5" ry="2.5" style="stroke:#181818;stroke-width:0.5;" width="135" x="931" y="179"/><text fill="#000000" font-family="sans-serif" font-size="14" lengthAdjust="spacing" textLength="129" x="934" y="196.9951">javafx.scene.layout</text></g><!--class javafx.scene.image--><g id="elem_javafx.scene.image"><rect fill="#F1F1F1" height="26.2969" id="javafx.scene.image" rx="2.5" ry="2.5" style="stroke:#181818;stroke-width:0.5;" width="136" x="350.5" y="179"/><text fill="#000000" font-family="sans-serif" font-size="14" lengthAdjust="spacing" textLength="130" x="353.5" y="196.9951">javafx.scene.image</text></g><!--class javafx.scene.paint--><g id="elem_javafx.scene.paint"><rect fill="#F1F1F1" height="26.2969" id="javafx.scene.paint" rx="2.5" ry="2.5" style="stroke:#181818;stroke-width:0.5;" width="128" x="322.5" y="93"/><text fill="#000000" font-family="sans-serif" font-size="14" lengthAdjust="spacing" textLength="122" x="325.5" y="110.9951">javafx.scene.paint</text></g><!--class chasseaumonstre.model--><a href="chasseaumonstre/model/package-summary.html" target="_top" title="chasseaumonstre/model/package-summary.html" xlink:actuate="onRequest" xlink:href="chasseaumonstre/model/package-summary.html" xlink:show="new" xlink:title="chasseaumonstre/model/package-summary.html" xlink:type="simple"><g id="elem_chasseaumonstre.model"><rect codeLine="44" fill="#F1F1F1" height="26.2969" id="chasseaumonstre.model" rx="2.5" ry="2.5" style="stroke:#181818;stroke-width:0.5;" width="178" x="521.5" y="179"/><text fill="#000000" font-family="sans-serif" font-size="14" lengthAdjust="spacing" textLength="172" x="524.5" y="196.9951">chasseaumonstre.model</text></g></a><!--class fr.univlille.iutinfo.cam.player.perception--><g id="elem_fr.univlille.iutinfo.cam.player.perception"><rect fill="#F1F1F1" height="26.2969" id="fr.univlille.iutinfo.cam.player.perception" rx="2.5" ry="2.5" style="stroke:#181818;stroke-width:0.5;" width="271" x="730" y="351"/><text fill="#000000" font-family="sans-serif" font-size="14" lengthAdjust="spacing" textLength="265" x="733" y="368.9951">fr.univlille.iutinfo.cam.player.perception</text></g><!--class chasseaumonstre.model.strategy.monster--><a href="chasseaumonstre/model/strategy/monster/package-summary.html" target="_top" title="chasseaumonstre/model/strategy/monster/package-summary.html" xlink:actuate="onRequest" xlink:href="chasseaumonstre/model/strategy/monster/package-summary.html" xlink:show="new" xlink:title="chasseaumonstre/model/strategy/monster/package-summary.html" xlink:type="simple"><g id="elem_chasseaumonstre.model.strategy.monster"><rect codeLine="46" fill="#F1F1F1" height="26.2969" id="chasseaumonstre.model.strategy.monster" rx="2.5" ry="2.5" style="stroke:#181818;stroke-width:0.5;" width="300" x="130.5" y="265"/><text fill="#000000" font-family="sans-serif" font-size="14" lengthAdjust="spacing" textLength="294" x="133.5" y="282.9951">chasseaumonstre.model.strategy.monster</text></g></a><!--class chasseaumonstre.model.strategy.hunter--><a href="chasseaumonstre/model/strategy/hunter/package-summary.html" target="_top" title="chasseaumonstre/model/strategy/hunter/package-summary.html" xlink:actuate="onRequest" xlink:href="chasseaumonstre/model/strategy/hunter/package-summary.html" xlink:show="new" xlink:title="chasseaumonstre/model/strategy/hunter/package-summary.html" xlink:type="simple"><g id="elem_chasseaumonstre.model.strategy.hunter"><rect codeLine="48" fill="#F1F1F1" height="26.2969" id="chasseaumonstre.model.strategy.hunter" rx="2.5" ry="2.5" style="stroke:#181818;stroke-width:0.5;" width="288" x="465.5" y="265"/><text fill="#000000" font-family="sans-serif" font-size="14" lengthAdjust="spacing" textLength="282" x="468.5" y="282.9951">chasseaumonstre.model.strategy.hunter</text></g></a><!--class fr.univlille.iutinfo.cam.player.monster--><g id="elem_fr.univlille.iutinfo.cam.player.monster"><rect fill="#F1F1F1" height="26.2969" id="fr.univlille.iutinfo.cam.player.monster" rx="2.5" ry="2.5" style="stroke:#181818;stroke-width:0.5;" width="254" x="163.5" y="351"/><text fill="#000000" font-family="sans-serif" font-size="14" lengthAdjust="spacing" textLength="248" x="166.5" y="368.9951">fr.univlille.iutinfo.cam.player.monster</text></g><!--class fr.univlille.iutinfo.cam.player.hunter--><g id="elem_fr.univlille.iutinfo.cam.player.hunter"><rect fill="#F1F1F1" height="26.2969" id="fr.univlille.iutinfo.cam.player.hunter" rx="2.5" ry="2.5" style="stroke:#181818;stroke-width:0.5;" width="242" x="452.5" y="351"/><text fill="#000000" font-family="sans-serif" font-size="14" lengthAdjust="spacing" textLength="236" x="455.5" y="368.9951">fr.univlille.iutinfo.cam.player.hunter</text></g><!--class javafx.scene.control--><g id="elem_javafx.scene.control"><rect fill="#F1F1F1" height="26.2969" id="javafx.scene.control" rx="2.5" ry="2.5" style="stroke:#181818;stroke-width:0.5;" width="142" x="1101.5" y="179"/><text fill="#000000" font-family="sans-serif" font-size="14" lengthAdjust="spacing" textLength="136" x="1104.5" y="196.9951">javafx.scene.control</text></g><!--class javafx.scene.input--><g id="elem_javafx.scene.input"><rect fill="#F1F1F1" height="26.2969" id="javafx.scene.input" rx="2.5" ry="2.5" style="stroke:#181818;stroke-width:0.5;" width="129" x="1279" y="179"/><text fill="#000000" font-family="sans-serif" font-size="14" lengthAdjust="spacing" textLength="123" x="1282" y="196.9951">javafx.scene.input</text></g><!--class javafx.scene--><g id="elem_javafx.scene"><rect fill="#F1F1F1" height="26.2969" id="javafx.scene" rx="2.5" ry="2.5" style="stroke:#181818;stroke-width:0.5;" width="90" x="734.5" y="179"/><text fill="#000000" font-family="sans-serif" font-size="14" lengthAdjust="spacing" textLength="84" x="737.5" y="196.9951">javafx.scene</text></g><!--class chasseaumonstre.controller.utils--><a href="chasseaumonstre/controller/utils/package-summary.html" target="_top" title="chasseaumonstre/controller/utils/package-summary.html" xlink:actuate="onRequest" xlink:href="chasseaumonstre/controller/utils/package-summary.html" xlink:show="new" xlink:title="chasseaumonstre/controller/utils/package-summary.html" xlink:type="simple"><g id="elem_chasseaumonstre.controller.utils"><rect codeLine="50" fill="#F1F1F1" height="26.2969" id="chasseaumonstre.controller.utils" rx="2.5" ry="2.5" style="stroke:#181818;stroke-width:0.5;" width="232" x="1141.5" y="93"/><text fill="#000000" font-family="sans-serif" font-size="14" lengthAdjust="spacing" textLength="226" x="1144.5" y="110.9951">chasseaumonstre.controller.utils</text></g></a><!--link chasseaumonstre to javafx.application--><g id="link_chasseaumonstre_javafx.application"><path codeLine="7" d="M193.47,119.04 C181.2,133.76 160.4,158.72 146.8,175.04 " fill="none" id="chasseaumonstre-to-javafx.application" style="stroke:#181818;stroke-width:1.0;"/><polygon fill="#181818" points="143.51,178.99,152.343,174.6335,146.7095,175.1477,146.1953,169.5143,143.51,178.99" style="stroke:#181818;stroke-width:1.0;"/></g><!--link chasseaumonstre to javafx.stage--><g id="link_chasseaumonstre_javafx.stage"><path codeLine="8" d="M213.39,119.04 C225.48,133.76 245.99,158.72 259.39,175.04 " fill="none" id="chasseaumonstre-to-javafx.stage" style="stroke:#181818;stroke-width:1.0;"/><polygon fill="#181818" points="262.63,178.99,260.0038,169.4977,259.4545,175.1279,253.8243,174.5786,262.63,178.99" style="stroke:#181818;stroke-width:1.0;"/></g><!--link chasseaumonstre.views to SubjectObserver--><g id="link_chasseaumonstre.views_SubjectObserver"><path codeLine="9" d="M487.82,27.03 C373.82,36.27 180.89,56.76 120.5,93 C79.42,117.65 70.74,133.58 55.5,179 C35.79,237.77 52.76,312.91 62.2,346.03 " fill="none" id="chasseaumonstre.views-to-SubjectObserver" style="stroke:#181818;stroke-width:1.0;"/><polygon fill="#181818" points="63.65,350.97,64.97,341.21,62.25,346.17,57.29,343.45,63.65,350.97" style="stroke:#181818;stroke-width:1.0;"/></g><!--link chasseaumonstre.views to javafx.stage--><g id="link_chasseaumonstre.views_javafx.stage"><path codeLine="10" d="M564.14,33.18 C546.27,53.49 507.72,94.47 467.5,119 C421.02,147.35 361.6,167.29 320.63,178.89 " fill="none" id="chasseaumonstre.views-to-javafx.stage" style="stroke:#181818;stroke-width:1.0;"/><polygon fill="#181818" points="315.73,180.26,325.4777,181.668,320.5424,178.9034,323.3071,173.9681,315.73,180.26" style="stroke:#181818;stroke-width:1.0;"/></g><!--link chasseaumonstre.views to chasseaumonstre.controller--><g id="link_chasseaumonstre.views_chasseaumonstre.controller"><path codeLine="11" d="M589.6,33.04 C616.07,48.32 669.16,74.64 706.07,90.87 " fill="none" id="chasseaumonstre.views-to-chasseaumonstre.controller" style="stroke:#181818;stroke-width:1.0;"/><polygon fill="#181818" points="710.94,92.99,704.2788,85.7355,706.354,90.9979,701.0915,93.0731,710.94,92.99" style="stroke:#181818;stroke-width:1.0;"/></g><!--link chasseaumonstre.controller to chasseaumonstre.views--><g id="link_chasseaumonstre.controller_chasseaumonstre.views"><path codeLine="28" d="M729.98,92.99 C703.8,77.72 650.73,51.39 613.56,35.16 " fill="none" id="chasseaumonstre.controller-to-chasseaumonstre.views" style="stroke:#181818;stroke-width:1.0;"/><polygon fill="#181818" points="608.66,33.04,615.3295,40.2869,613.2483,35.0268,618.5084,32.9457,608.66,33.04" style="stroke:#181818;stroke-width:1.0;"/></g><!--link chasseaumonstre.views to javafx.scene.layout--><g id="link_chasseaumonstre.views_javafx.scene.layout"><path codeLine="12" d="M656.74,33.01 C715.92,43.66 796.59,62.4 862.5,93 C909.41,114.78 956.73,153.55 981.29,175.22 " fill="none" id="chasseaumonstre.views-to-javafx.scene.layout" style="stroke:#181818;stroke-width:1.0;"/><polygon fill="#181818" points="985.31,178.81,981.2408,169.8411,981.573,175.4882,975.9259,175.8204,985.31,178.81" style="stroke:#181818;stroke-width:1.0;"/></g><!--link chasseaumonstre.views to javafx.scene.image--><g id="link_chasseaumonstre.views_javafx.scene.image"><path codeLine="13" d="M571.35,33.07 C565.71,52.86 552.28,92.66 529.5,119 C507.67,144.25 474.86,164.03 450.57,176.42 " fill="none" id="chasseaumonstre.views-to-javafx.scene.image" style="stroke:#181818;stroke-width:1.0;"/><polygon fill="#181818" points="445.83,178.8,455.6681,178.3402,450.2993,176.5582,452.0813,171.1894,445.83,178.8" style="stroke:#181818;stroke-width:1.0;"/></g><!--link chasseaumonstre.views to javafx.scene.paint--><g id="link_chasseaumonstre.views_javafx.scene.paint"><path codeLine="14" d="M547.56,33.04 C513.36,48.32 454.44,74.64 418.13,90.87 " fill="none" id="chasseaumonstre.views-to-javafx.scene.paint" style="stroke:#181818;stroke-width:1.0;"/><polygon fill="#181818" points="413.39,92.99,423.2389,92.9957,417.9602,90.962,419.994,85.6833,413.39,92.99" style="stroke:#181818;stroke-width:1.0;"/></g><!--link chasseaumonstre.model to fr.univlille.iutinfo.cam.player.perception--><g id="link_chasseaumonstre.model_fr.univlille.iutinfo.cam.player.perception"><path codeLine="15" d="M647.79,205.02 C681.86,217.05 732.69,237.68 771.5,265 C805.12,288.66 836.55,325.56 853.18,346.68 " fill="none" id="chasseaumonstre.model-to-fr.univlille.iutinfo.cam.player.perception" style="stroke:#181818;stroke-width:1.0;"/><polygon fill="#181818" points="856.3,350.69,853.9248,341.1319,853.2273,346.7455,847.6136,346.0481,856.3,350.69" style="stroke:#181818;stroke-width:1.0;"/></g><!--link chasseaumonstre.model to SubjectObserver--><g id="link_chasseaumonstre.model_SubjectObserver"><path codeLine="16" d="M521.41,203.65 C382.57,220.56 128.71,252.88 112.5,265 C86.26,284.61 74.87,323.2 70.29,345.66 " fill="none" id="chasseaumonstre.model-to-SubjectObserver" style="stroke:#181818;stroke-width:1.0;"/><polygon fill="#181818" points="69.31,350.73,74.9385,342.6479,70.2548,345.8201,67.0826,341.1363,69.31,350.73" style="stroke:#181818;stroke-width:1.0;"/></g><!--link chasseaumonstre.model to chasseaumonstre.model.strategy.monster--><g id="link_chasseaumonstre.model_chasseaumonstre.model.strategy.monster"><path codeLine="17" d="M563.22,205.04 C502.08,220.6 395.94,247.61 332.56,263.75 " fill="none" id="chasseaumonstre.model-to-chasseaumonstre.model.strategy.monster" style="stroke:#181818;stroke-width:1.0;"/><polygon fill="#181818" points="327.69,264.99,337.3973,266.6541,332.5365,263.7605,335.4301,258.8997,327.69,264.99" style="stroke:#181818;stroke-width:1.0;"/></g><!--link chasseaumonstre.model to chasseaumonstre.model.strategy.hunter--><g id="link_chasseaumonstre.model_chasseaumonstre.model.strategy.hunter"><path codeLine="18" d="M610.36,205.04 C610.19,219.38 609.9,243.46 609.71,259.78 " fill="none" id="chasseaumonstre.model-to-chasseaumonstre.model.strategy.hunter" style="stroke:#181818;stroke-width:1.0;"/><polygon fill="#181818" points="609.64,264.99,613.7426,256.0363,609.6971,259.9903,605.7431,255.9449,609.64,264.99" style="stroke:#181818;stroke-width:1.0;"/></g><!--link chasseaumonstre.model.strategy.monster to SubjectObserver--><g id="link_chasseaumonstre.model.strategy.monster_SubjectObserver"><path codeLine="19" d="M249.98,291.04 C211.07,306.38 143.93,332.86 102.84,349.06 " fill="none" id="chasseaumonstre.model.strategy.monster-to-SubjectObserver" style="stroke:#181818;stroke-width:1.0;"/><polygon fill="#181818" points="97.96,350.99,107.7993,351.424,102.6141,349.1626,104.8755,343.9774,97.96,350.99" style="stroke:#181818;stroke-width:1.0;"/></g><!--link chasseaumonstre.model.strategy.monster to fr.univlille.iutinfo.cam.player.monster--><g id="link_chasseaumonstre.model.strategy.monster_fr.univlille.iutinfo.cam.player.monster"><path codeLine="20" d="M281.93,291.04 C283.64,305.38 286.51,329.46 288.45,345.78 " fill="none" id="chasseaumonstre.model.strategy.monster-to-fr.univlille.iutinfo.cam.player.monster" style="stroke:#181818;stroke-width:1.0;"/><polygon fill="#181818" points="289.07,350.99,291.9895,341.5838,288.485,346.0243,284.0444,342.5198,289.07,350.99" style="stroke:#181818;stroke-width:1.0;"/></g><!--link chasseaumonstre.model.strategy.monster to fr.univlille.iutinfo.cam.player.perception--><g id="link_chasseaumonstre.model.strategy.monster_fr.univlille.iutinfo.cam.player.perception"><path codeLine="21" d="M364.32,291.04 C473.79,306.75 664.63,334.16 776.57,350.23 " fill="none" id="chasseaumonstre.model.strategy.monster-to-fr.univlille.iutinfo.cam.player.perception" style="stroke:#181818;stroke-width:1.0;"/><polygon fill="#181818" points="781.84,350.99,773.5025,345.7473,776.8911,350.2769,772.3615,353.6655,781.84,350.99" style="stroke:#181818;stroke-width:1.0;"/></g><!--link chasseaumonstre.model.strategy.hunter to SubjectObserver--><g id="link_chasseaumonstre.model.strategy.hunter_SubjectObserver"><path codeLine="22" d="M531.84,291.04 C424.76,307.63 233.65,337.25 133.25,352.81 " fill="none" id="chasseaumonstre.model.strategy.hunter-to-SubjectObserver" style="stroke:#181818;stroke-width:1.0;"/><polygon fill="#181818" points="128.24,353.59,137.7419,356.1812,133.1824,352.8329,136.5306,348.2734,128.24,353.59" style="stroke:#181818;stroke-width:1.0;"/></g><!--link chasseaumonstre.model.strategy.hunter to fr.univlille.iutinfo.cam.player.hunter--><g id="link_chasseaumonstre.model.strategy.hunter_fr.univlille.iutinfo.cam.player.hunter"><path codeLine="23" d="M604.34,291.04 C598.14,305.51 587.69,329.88 580.7,346.2 " fill="none" id="chasseaumonstre.model.strategy.hunter-to-fr.univlille.iutinfo.cam.player.hunter" style="stroke:#181818;stroke-width:1.0;"/><polygon fill="#181818" points="578.65,350.99,585.8719,344.2934,580.6196,346.3943,578.5187,341.142,578.65,350.99" style="stroke:#181818;stroke-width:1.0;"/></g><!--link chasseaumonstre.model.strategy.hunter to fr.univlille.iutinfo.cam.player.perception--><g id="link_chasseaumonstre.model.strategy.hunter_fr.univlille.iutinfo.cam.player.perception"><path codeLine="24" d="M646.18,291.04 C693.23,306.47 774.63,333.18 823.93,349.36 " fill="none" id="chasseaumonstre.model.strategy.hunter-to-fr.univlille.iutinfo.cam.player.perception" style="stroke:#181818;stroke-width:1.0;"/><polygon fill="#181818" points="828.89,350.99,821.5868,344.3822,824.1395,349.4303,819.0913,351.983,828.89,350.99" style="stroke:#181818;stroke-width:1.0;"/></g><!--link chasseaumonstre.controller to javafx.scene.control--><g id="link_chasseaumonstre.controller_javafx.scene.control"><path codeLine="25" d="M805.82,119.04 C885.44,134.66 1023.88,161.83 1105.97,177.94 " fill="none" id="chasseaumonstre.controller-to-javafx.scene.control" style="stroke:#181818;stroke-width:1.0;"/><polygon fill="#181818" points="1111.29,178.99,1103.2238,173.3388,1106.3827,178.0314,1101.6901,181.1904,1111.29,178.99" style="stroke:#181818;stroke-width:1.0;"/></g><!--link chasseaumonstre.controller to javafx.stage--><g id="link_chasseaumonstre.controller_javafx.stage"><path codeLine="26" d="M672.58,119.02 C590.28,132.91 451.51,156.7 332.5,179 C328.68,179.72 324.73,180.47 320.76,181.24 " fill="none" id="chasseaumonstre.controller-to-javafx.stage" style="stroke:#181818;stroke-width:1.0;"/><polygon fill="#181818" points="315.74,182.22,325.3399,184.4204,320.6473,181.2614,323.8062,176.5688,315.74,182.22" style="stroke:#181818;stroke-width:1.0;"/></g><!--link chasseaumonstre.controller to chasseaumonstre.model--><g id="link_chasseaumonstre.controller_chasseaumonstre.model"><path codeLine="27" d="M725.3,119.04 C701.22,134.13 659.95,160 634.01,176.26 " fill="none" id="chasseaumonstre.controller-to-chasseaumonstre.model" style="stroke:#181818;stroke-width:1.0;"/><polygon fill="#181818" points="629.66,178.99,639.4086,177.5884,633.8936,176.3297,635.1522,170.8147,629.66,178.99" style="stroke:#181818;stroke-width:1.0;"/></g><!--link chasseaumonstre.controller to javafx.scene.input--><g id="link_chasseaumonstre.controller_javafx.scene.input"><path codeLine="29" d="M832.34,119.04 C935.23,133.2 1110.78,157.48 1261.5,179 C1265.41,179.56 1269.42,180.13 1273.46,180.72 " fill="none" id="chasseaumonstre.controller-to-javafx.scene.input" style="stroke:#181818;stroke-width:1.0;"/><polygon fill="#181818" points="1278.6,181.46,1270.2773,176.1938,1273.6531,180.7329,1269.114,184.1088,1278.6,181.46" style="stroke:#181818;stroke-width:1.0;"/></g><!--link chasseaumonstre.controller to javafx.scene.image--><g id="link_chasseaumonstre.controller_javafx.scene.image"><path codeLine="30" d="M697.79,119.04 C637.51,134.57 532.96,161.51 470.3,177.65 " fill="none" id="chasseaumonstre.controller-to-javafx.scene.image" style="stroke:#181818;stroke-width:1.0;"/><polygon fill="#181818" points="465.12,178.99,474.8318,180.6272,469.9631,177.7471,472.8432,172.8783,465.12,178.99" style="stroke:#181818;stroke-width:1.0;"/></g><!--link chasseaumonstre.controller to javafx.scene.layout--><g id="link_chasseaumonstre.controller_javafx.scene.layout"><path codeLine="31" d="M780.89,119.04 C827.57,134.47 908.34,161.18 957.25,177.36 " fill="none" id="chasseaumonstre.controller-to-javafx.scene.layout" style="stroke:#181818;stroke-width:1.0;"/><polygon fill="#181818" points="962.18,178.99,954.8948,172.3624,957.4337,177.4174,952.3787,179.9564,962.18,178.99" style="stroke:#181818;stroke-width:1.0;"/></g><!--link chasseaumonstre.controller to fr.univlille.iutinfo.cam.player.perception--><g id="link_chasseaumonstre.controller_fr.univlille.iutinfo.cam.player.perception"><path codeLine="32" d="M771.39,119.06 C794.34,130.87 826.15,151.14 842.5,179 C874.21,233.03 871,311.23 867.64,345.64 " fill="none" id="chasseaumonstre.controller-to-fr.univlille.iutinfo.cam.player.perception" style="stroke:#181818;stroke-width:1.0;"/><polygon fill="#181818" points="867.1,350.78,872.0291,342.2533,867.6286,345.808,864.074,341.4075,867.1,350.78" style="stroke:#181818;stroke-width:1.0;"/></g><!--link chasseaumonstre.controller to javafx.scene--><g id="link_chasseaumonstre.controller_javafx.scene"><path codeLine="33" d="M749.51,119.04 C755.54,133.51 765.7,157.88 772.5,174.2 " fill="none" id="chasseaumonstre.controller-to-javafx.scene" style="stroke:#181818;stroke-width:1.0;"/><polygon fill="#181818" points="774.49,178.99,774.7359,169.1442,772.574,174.3717,767.3466,172.2098,774.49,178.99" style="stroke:#181818;stroke-width:1.0;"/></g><!--link chasseaumonstre.controller.utils to javafx.scene.control--><g id="link_chasseaumonstre.controller.utils_javafx.scene.control"><path codeLine="34" d="M1245.32,119.04 C1230.3,133.88 1204.73,159.15 1188.23,175.45 " fill="none" id="chasseaumonstre.controller.utils-to-javafx.scene.control" style="stroke:#181818;stroke-width:1.0;"/><polygon fill="#181818" points="1184.66,178.99,1193.8736,175.5102,1188.2169,175.476,1188.2512,169.8192,1184.66,178.99" style="stroke:#181818;stroke-width:1.0;"/></g><!--link chasseaumonstre.controller.utils to javafx.scene.input--><g id="link_chasseaumonstre.controller.utils_javafx.scene.input"><path codeLine="35" d="M1269.82,119.04 C1285.02,133.88 1310.89,159.15 1327.58,175.45 " fill="none" id="chasseaumonstre.controller.utils-to-javafx.scene.input" style="stroke:#181818;stroke-width:1.0;"/><polygon fill="#181818" points="1331.2,178.99,1327.5535,169.841,1327.622,175.4975,1321.9655,175.5659,1331.2,178.99" style="stroke:#181818;stroke-width:1.0;"/></g><text fill="#888888" font-family="sans-serif" font-size="10" lengthAdjust="spacing" textLength="186" x="607.5" y="391.5791">UMLDoclet 2.1.0, PlantUML 1.2022.14</text><!--SRC=[jLPDRzim3BtlLn05Yct0ecxx0JtrkA85YfsA7XI5JfH8b239sO9X_tsCd26fOqTsqfuCa-yzYX-Y3G0GLvgy3DB2LAhLFBYQPieP5o05IP5TIEa3R96OWAH5jYbymYqfCOmSOVOlz0n1wQ3CmJjQdpPGQJIpsBPQJ0l7vcnN2naZojewYYaWJ2Qti9HhMVqMqdkZbKpQKGaQavnZ5qYiDVwA6VfKJvUeqiCqObXZAA172BSzob4ApfZ1CHGI2YCthavZ6DgMp_QAuAMcxWZMpT1aGXL4JNfjD9zVw3ffgfnGqWhF1yGWF0Q5lgyd1q93ohr7Ttgu-ZnhED-8RBvKP57JIOsZSEFowAQNwbdCx3pP8MrgL-RST0_OfMCDRy48qKAk- -juV2DslZ6yteNGmdVcTmunN-RHcV5sxzac9rbsO7P3LrUBzdwjBE05npBnt07eOpT5pkIFyCZVKQuU64shNRyC2y9LI_SAdfzRfXlVS2UnjbO6dlvapSiB_CaoVq-8DTFH9PaT5mZli-zIttil296lH9TwTbmgVBGu-oFzHzxia6yNkbbZ0o8tm3VfLpEjXQvbJ2bS4m_p9gwSspv-tl-uS_ohb-2x-2Q-Ve578ocn5QxvSn7vvdxw_0y0]--></g></svg>