<?xml version="1.0" encoding="UTF-8" standalone="no"?><svg xmlns="http://www.w3.org/2000/svg" xmlns:xlink="http://www.w3.org/1999/xlink" contentStyleType="text/css" height="401px" preserveAspectRatio="none" style="width:1677px;height:401px;" version="1.1" viewBox="0 0 1677 401" width="1677px" zoomAndPan="magnify"><defs/><g><!--class chasseaumonstre--><a href="chasseaumonstre/package-summary.html" target="_top" title="chasseaumonstre/package-summary.html" xlink:actuate="onRequest" xlink:href="chasseaumonstre/package-summary.html" xlink:show="new" xlink:title="chasseaumonstre/package-summary.html" xlink:type="simple"><g id="elem_chasseaumonstre"><rect codeLine="34" fill="#F1F1F1" height="26.2969" id="chasseaumonstre" rx="2.5" ry="2.5" style="stroke:#181818;stroke-width:0.5;" width="131" x="70" y="93"/><text fill="#000000" font-family="sans-serif" font-size="14" lengthAdjust="spacing" textLength="125" x="73" y="110.9951">chasseaumonstre</text></g></a><!--class javafx.application--><g id="elem_javafx.application"><rect fill="#F1F1F1" height="26.2969" id="javafx.application" rx="2.5" ry="2.5" style="stroke:#181818;stroke-width:0.5;" width="121" x="7" y="179"/><text fill="#000000" font-family="sans-serif" font-size="14" lengthAdjust="spacing" textLength="115" x="10" y="196.9951">javafx.application</text></g><!--class javafx.stage--><g id="elem_javafx.stage"><rect fill="#F1F1F1" height="26.2969" id="javafx.stage" rx="2.5" ry="2.5" style="stroke:#181818;stroke-width:0.5;" width="86" x="163.5" y="179"/><text fill="#000000" font-family="sans-serif" font-size="14" lengthAdjust="spacing" textLength="80" x="166.5" y="196.9951">javafx.stage</text></g><!--class chasseaumonstre.views--><a href="chasseaumonstre/views/package-summary.html" target="_top" title="chasseaumonstre/views/package-summary.html" xlink:actuate="onRequest" xlink:href="chasseaumonstre/views/package-summary.html" xlink:show="new" xlink:title="chasseaumonstre/views/package-summary.html" xlink:type="simple"><g id="elem_chasseaumonstre.views"><rect codeLine="36" fill="#F1F1F1" height="26.2969" id="chasseaumonstre.views" rx="2.5" ry="2.5" style="stroke:#181818;stroke-width:0.5;" width="173" x="431" y="7"/><text fill="#000000" font-family="sans-serif" font-size="14" lengthAdjust="spacing" textLength="167" x="434" y="24.9951">chasseaumonstre.views</text></g></a><!--class chasseaumonstre.controller--><a href="chasseaumonstre/controller/package-summary.html" target="_top" title="chasseaumonstre/controller/package-summary.html" xlink:actuate="onRequest" xlink:href="chasseaumonstre/controller/package-summary.html" xlink:show="new" xlink:title="chasseaumonstre/controller/package-summary.html" xlink:type="simple"><g id="elem_chasseaumonstre.controller"><rect codeLine="38" fill="#F1F1F1" height="26.2969" id="chasseaumonstre.controller" rx="2.5" ry="2.5" style="stroke:#181818;stroke-width:0.5;" width="200" x="568.5" y="93"/><text fill="#000000" font-family="sans-serif" font-size="14" lengthAdjust="spacing" textLength="194" x="571.5" y="110.9951">chasseaumonstre.controller</text></g></a><!--class javafx.scene.layout--><g id="elem_javafx.scene.layout"><rect fill="#F1F1F1" height="26.2969" id="javafx.scene.layout" rx="2.5" ry="2.5" style="stroke:#181818;stroke-width:0.5;" width="135" x="285" y="179"/><text fill="#000000" font-family="sans-serif" font-size="14" lengthAdjust="spacing" textLength="129" x="288" y="196.9951">javafx.scene.layout</text></g><!--class chasseaumonstre.model--><a href="chasseaumonstre/model/package-summary.html" target="_top" title="chasseaumonstre/model/package-summary.html" xlink:actuate="onRequest" xlink:href="chasseaumonstre/model/package-summary.html" xlink:show="new" xlink:title="chasseaumonstre/model/package-summary.html" xlink:type="simple"><g id="elem_chasseaumonstre.model"><rect codeLine="40" fill="#F1F1F1" height="26.2969" id="chasseaumonstre.model" rx="2.5" ry="2.5" style="stroke:#181818;stroke-width:0.5;" width="178" x="1150.5" y="179"/><text fill="#000000" font-family="sans-serif" font-size="14" lengthAdjust="spacing" textLength="172" x="1153.5" y="196.9951">chasseaumonstre.model</text></g></a><!--class fr.univlille.iutinfo.cam.player.perception--><g id="elem_fr.univlille.iutinfo.cam.player.perception"><rect fill="#F1F1F1" height="26.2969" id="fr.univlille.iutinfo.cam.player.perception" rx="2.5" ry="2.5" style="stroke:#181818;stroke-width:0.5;" width="271" x="958" y="351"/><text fill="#000000" font-family="sans-serif" font-size="14" lengthAdjust="spacing" textLength="265" x="961" y="368.9951">fr.univlille.iutinfo.cam.player.perception</text></g><!--class chasseaumonstre.model.strategy.monster--><a href="chasseaumonstre/model/strategy/monster/package-summary.html" target="_top" title="chasseaumonstre/model/strategy/monster/package-summary.html" xlink:actuate="onRequest" xlink:href="chasseaumonstre/model/strategy/monster/package-summary.html" xlink:show="new" xlink:title="chasseaumonstre/model/strategy/monster/package-summary.html" xlink:type="simple"><g id="elem_chasseaumonstre.model.strategy.monster"><rect codeLine="42" fill="#F1F1F1" height="26.2969" id="chasseaumonstre.model.strategy.monster" rx="2.5" ry="2.5" style="stroke:#181818;stroke-width:0.5;" width="300" x="787.5" y="265"/><text fill="#000000" font-family="sans-serif" font-size="14" lengthAdjust="spacing" textLength="294" x="790.5" y="282.9951">chasseaumonstre.model.strategy.monster</text></g></a><!--class chasseaumonstre.model.strategy.hunter--><a href="chasseaumonstre/model/strategy/hunter/package-summary.html" target="_top" title="chasseaumonstre/model/strategy/hunter/package-summary.html" xlink:actuate="onRequest" xlink:href="chasseaumonstre/model/strategy/hunter/package-summary.html" xlink:show="new" xlink:title="chasseaumonstre/model/strategy/hunter/package-summary.html" xlink:type="simple"><g id="elem_chasseaumonstre.model.strategy.hunter"><rect codeLine="44" fill="#F1F1F1" height="26.2969" id="chasseaumonstre.model.strategy.hunter" rx="2.5" ry="2.5" style="stroke:#181818;stroke-width:0.5;" width="288" x="1193.5" y="265"/><text fill="#000000" font-family="sans-serif" font-size="14" lengthAdjust="spacing" textLength="282" x="1196.5" y="282.9951">chasseaumonstre.model.strategy.hunter</text></g></a><!--class fr.univlille.iutinfo.cam.player.monster--><g id="elem_fr.univlille.iutinfo.cam.player.monster"><rect fill="#F1F1F1" height="26.2969" id="fr.univlille.iutinfo.cam.player.monster" rx="2.5" ry="2.5" style="stroke:#181818;stroke-width:0.5;" width="254" x="668.5" y="351"/><text fill="#000000" font-family="sans-serif" font-size="14" lengthAdjust="spacing" textLength="248" x="671.5" y="368.9951">fr.univlille.iutinfo.cam.player.monster</text></g><!--class fr.univlille.iutinfo.cam.player.hunter--><g id="elem_fr.univlille.iutinfo.cam.player.hunter"><rect fill="#F1F1F1" height="26.2969" id="fr.univlille.iutinfo.cam.player.hunter" rx="2.5" ry="2.5" style="stroke:#181818;stroke-width:0.5;" width="242" x="1264.5" y="351"/><text fill="#000000" font-family="sans-serif" font-size="14" lengthAdjust="spacing" textLength="236" x="1267.5" y="368.9951">fr.univlille.iutinfo.cam.player.hunter</text></g><!--class javafx.scene.control--><g id="elem_javafx.scene.control"><rect fill="#F1F1F1" height="26.2969" id="javafx.scene.control" rx="2.5" ry="2.5" style="stroke:#181818;stroke-width:0.5;" width="142" x="1363.5" y="179"/><text fill="#000000" font-family="sans-serif" font-size="14" lengthAdjust="spacing" textLength="136" x="1366.5" y="196.9951">javafx.scene.control</text></g><!--class javafx.scene.input--><g id="elem_javafx.scene.input"><rect fill="#F1F1F1" height="26.2969" id="javafx.scene.input" rx="2.5" ry="2.5" style="stroke:#181818;stroke-width:0.5;" width="129" x="1541" y="179"/><text fill="#000000" font-family="sans-serif" font-size="14" lengthAdjust="spacing" textLength="123" x="1544" y="196.9951">javafx.scene.input</text></g><!--class javafx.scene.image--><g id="elem_javafx.scene.image"><rect fill="#F1F1F1" height="26.2969" id="javafx.scene.image" rx="2.5" ry="2.5" style="stroke:#181818;stroke-width:0.5;" width="136" x="526.5" y="179"/><text fill="#000000" font-family="sans-serif" font-size="14" lengthAdjust="spacing" textLength="130" x="529.5" y="196.9951">javafx.scene.image</text></g><!--class javafx.scene--><g id="elem_javafx.scene"><rect fill="#F1F1F1" height="26.2969" id="javafx.scene" rx="2.5" ry="2.5" style="stroke:#181818;stroke-width:0.5;" width="90" x="697.5" y="179"/><text fill="#000000" font-family="sans-serif" font-size="14" lengthAdjust="spacing" textLength="84" x="700.5" y="196.9951">javafx.scene</text></g><!--class javafx.scene.shape--><g id="elem_javafx.scene.shape"><rect fill="#F1F1F1" height="26.2969" id="javafx.scene.shape" rx="2.5" ry="2.5" style="stroke:#181818;stroke-width:0.5;" width="137" x="823" y="179"/><text fill="#000000" font-family="sans-serif" font-size="14" lengthAdjust="spacing" textLength="131" x="826" y="196.9951">javafx.scene.shape</text></g><!--class javafx.scene.text--><g id="elem_javafx.scene.text"><rect fill="#F1F1F1" height="26.2969" id="javafx.scene.text" rx="2.5" ry="2.5" style="stroke:#181818;stroke-width:0.5;" width="120" x="995.5" y="179"/><text fill="#000000" font-family="sans-serif" font-size="14" lengthAdjust="spacing" textLength="114" x="998.5" y="196.9951">javafx.scene.text</text></g><!--class chasseaumonstre.controller.utils--><a href="chasseaumonstre/controller/utils/package-summary.html" target="_top" title="chasseaumonstre/controller/utils/package-summary.html" xlink:actuate="onRequest" xlink:href="chasseaumonstre/controller/utils/package-summary.html" xlink:show="new" xlink:title="chasseaumonstre/controller/utils/package-summary.html" xlink:type="simple"><g id="elem_chasseaumonstre.controller.utils"><rect codeLine="46" fill="#F1F1F1" height="26.2969" id="chasseaumonstre.controller.utils" rx="2.5" ry="2.5" style="stroke:#181818;stroke-width:0.5;" width="232" x="1403.5" y="93"/><text fill="#000000" font-family="sans-serif" font-size="14" lengthAdjust="spacing" textLength="226" x="1406.5" y="110.9951">chasseaumonstre.controller.utils</text></g></a><!--link chasseaumonstre to javafx.application--><g id="link_chasseaumonstre_javafx.application"><path codeLine="7" d="M125.76,119.04 C113.84,133.76 93.63,158.72 80.42,175.04 " fill="none" id="chasseaumonstre-to-javafx.application" style="stroke:#181818;stroke-width:1.0;"/><polygon fill="#181818" points="77.22,178.99,85.9899,174.5079,80.3643,175.1024,79.7698,169.4769,77.22,178.99" style="stroke:#181818;stroke-width:1.0;"/></g><!--link chasseaumonstre to javafx.stage--><g id="link_chasseaumonstre_javafx.stage"><path codeLine="8" d="M145.67,119.04 C158.12,133.76 179.22,158.72 193.01,175.04 " fill="none" id="chasseaumonstre-to-javafx.stage" style="stroke:#181818;stroke-width:1.0;"/><polygon fill="#181818" points="196.35,178.99,193.6059,169.5311,193.1267,175.1677,187.4902,174.6884,196.35,178.99" style="stroke:#181818;stroke-width:1.0;"/></g><!--link chasseaumonstre.views to javafx.stage--><g id="link_chasseaumonstre.views_javafx.stage"><path codeLine="9" d="M495.13,33.23 C439.21,63.8 293.48,143.46 233.2,176.41 " fill="none" id="chasseaumonstre.views-to-javafx.stage" style="stroke:#181818;stroke-width:1.0;"/><polygon fill="#181818" points="228.66,178.88,238.4754,178.0685,233.0462,176.4797,234.6349,171.0506,228.66,178.88" style="stroke:#181818;stroke-width:1.0;"/></g><!--link chasseaumonstre.views to chasseaumonstre.controller--><g id="link_chasseaumonstre.views_chasseaumonstre.controller"><path codeLine="10" d="M529.88,33.04 C552.8,48.26 599.64,74.43 632.86,90.67 " fill="none" id="chasseaumonstre.views-to-chasseaumonstre.controller" style="stroke:#181818;stroke-width:1.0;"/><polygon fill="#181818" points="637.66,92.99,631.312,85.4598,633.1625,90.8055,627.8168,92.6559,637.66,92.99" style="stroke:#181818;stroke-width:1.0;"/></g><!--link chasseaumonstre.controller to chasseaumonstre.views--><g id="link_chasseaumonstre.controller_chasseaumonstre.views"><path codeLine="22" d="M656.7,92.99 C634.07,77.78 587.24,51.6 553.77,35.36 " fill="none" id="chasseaumonstre.controller-to-chasseaumonstre.views" style="stroke:#181818;stroke-width:1.0;"/><polygon fill="#181818" points="548.94,33.04,555.3359,40.5295,553.4514,35.1958,558.7851,33.3113,548.94,33.04" style="stroke:#181818;stroke-width:1.0;"/></g><!--link chasseaumonstre.views to javafx.scene.layout--><g id="link_chasseaumonstre.views_javafx.scene.layout"><path codeLine="11" d="M505.63,33.23 C476.38,63.37 400.8,141.23 368.04,174.99 " fill="none" id="chasseaumonstre.views-to-javafx.scene.layout" style="stroke:#181818;stroke-width:1.0;"/><polygon fill="#181818" points="364.26,178.88,373.4015,175.2148,367.7452,175.2948,367.6652,169.6385,364.26,178.88" style="stroke:#181818;stroke-width:1.0;"/></g><!--link chasseaumonstre.model to fr.univlille.iutinfo.cam.player.perception--><g id="link_chasseaumonstre.model_fr.univlille.iutinfo.cam.player.perception"><path codeLine="12" d="M1228.52,205.13 C1215.68,219.36 1193.85,243.72 1175.5,265 C1150.98,293.42 1123.05,327.09 1106.93,346.65 " fill="none" id="chasseaumonstre.model-to-fr.univlille.iutinfo.cam.player.perception" style="stroke:#181818;stroke-width:1.0;"/><polygon fill="#181818" points="1103.48,350.83,1112.2954,346.438,1106.664,346.9749,1106.1272,341.3436,1103.48,350.83" style="stroke:#181818;stroke-width:1.0;"/></g><!--link chasseaumonstre.model to chasseaumonstre.model.strategy.monster--><g id="link_chasseaumonstre.model_chasseaumonstre.model.strategy.monster"><path codeLine="13" d="M1196.23,205.04 C1140.5,220.54 1043.93,247.4 985.84,263.55 " fill="none" id="chasseaumonstre.model-to-chasseaumonstre.model.strategy.monster" style="stroke:#181818;stroke-width:1.0;"/><polygon fill="#181818" points="980.69,264.99,990.4338,266.4248,985.5062,263.6466,988.2844,258.719,980.69,264.99" style="stroke:#181818;stroke-width:1.0;"/></g><!--link chasseaumonstre.model to chasseaumonstre.model.strategy.hunter--><g id="link_chasseaumonstre.model_chasseaumonstre.model.strategy.hunter"><path codeLine="14" d="M1253.54,205.04 C1270.86,219.88 1300.34,245.15 1319.36,261.45 " fill="none" id="chasseaumonstre.model-to-chasseaumonstre.model.strategy.hunter" style="stroke:#181818;stroke-width:1.0;"/><polygon fill="#181818" points="1323.49,264.99,1319.2599,256.0959,1319.6937,261.736,1314.0535,262.1699,1323.49,264.99" style="stroke:#181818;stroke-width:1.0;"/></g><!--link chasseaumonstre.model.strategy.monster to fr.univlille.iutinfo.cam.player.monster--><g id="link_chasseaumonstre.model.strategy.monster_fr.univlille.iutinfo.cam.player.monster"><path codeLine="15" d="M917.15,291.04 C891.64,306.13 847.9,332 820.41,348.26 " fill="none" id="chasseaumonstre.model.strategy.monster-to-fr.univlille.iutinfo.cam.player.monster" style="stroke:#181818;stroke-width:1.0;"/><polygon fill="#181818" points="815.81,350.99,825.5929,349.8519,820.1138,348.4449,821.5207,342.9658,815.81,350.99" style="stroke:#181818;stroke-width:1.0;"/></g><!--link chasseaumonstre.model.strategy.monster to fr.univlille.iutinfo.cam.player.perception--><g id="link_chasseaumonstre.model.strategy.monster_fr.univlille.iutinfo.cam.player.perception"><path codeLine="16" d="M959.85,291.04 C988,306.19 1036.33,332.21 1066.51,348.47 " fill="none" id="chasseaumonstre.model.strategy.monster-to-fr.univlille.iutinfo.cam.player.perception" style="stroke:#181818;stroke-width:1.0;"/><polygon fill="#181818" points="1071.19,350.99,1065.1652,343.1989,1066.7886,348.6178,1061.3696,350.2412,1071.19,350.99" style="stroke:#181818;stroke-width:1.0;"/></g><!--link chasseaumonstre.model.strategy.hunter to fr.univlille.iutinfo.cam.player.hunter--><g id="link_chasseaumonstre.model.strategy.hunter_fr.univlille.iutinfo.cam.player.hunter"><path codeLine="17" d="M1344.38,291.04 C1352.72,305.63 1366.82,330.3 1376.14,346.62 " fill="none" id="chasseaumonstre.model.strategy.hunter-to-fr.univlille.iutinfo.cam.player.hunter" style="stroke:#181818;stroke-width:1.0;"/><polygon fill="#181818" points="1378.64,350.99,1377.6512,341.1909,1376.1608,346.6479,1370.7038,345.1575,1378.64,350.99" style="stroke:#181818;stroke-width:1.0;"/></g><!--link chasseaumonstre.model.strategy.hunter to fr.univlille.iutinfo.cam.player.perception--><g id="link_chasseaumonstre.model.strategy.hunter_fr.univlille.iutinfo.cam.player.perception"><path codeLine="18" d="M1302.54,291.04 C1257.7,306.47 1180.11,333.18 1133.12,349.36 " fill="none" id="chasseaumonstre.model.strategy.hunter-to-fr.univlille.iutinfo.cam.player.perception" style="stroke:#181818;stroke-width:1.0;"/><polygon fill="#181818" points="1128.39,350.99,1138.202,351.8412,1133.1175,349.3618,1135.5969,344.2773,1128.39,350.99" style="stroke:#181818;stroke-width:1.0;"/></g><!--link chasseaumonstre.controller to javafx.scene.control--><g id="link_chasseaumonstre.controller_javafx.scene.control"><path codeLine="19" d="M768.68,116.77 C900.9,129.86 1140.87,154.33 1345.5,179 C1349.62,179.5 1353.84,180.02 1358.1,180.56 " fill="none" id="chasseaumonstre.controller-to-javafx.scene.control" style="stroke:#181818;stroke-width:1.0;"/><polygon fill="#181818" points="1363.11,181.2,1354.6992,176.0758,1358.1515,180.557,1353.6703,184.0093,1363.11,181.2" style="stroke:#181818;stroke-width:1.0;"/></g><!--link chasseaumonstre.controller to javafx.stage--><g id="link_chasseaumonstre.controller_javafx.stage"><path codeLine="20" d="M599.61,119.01 C519.67,133.03 383.93,157.1 267.5,179 C263.38,179.77 259.11,180.59 254.83,181.42 " fill="none" id="chasseaumonstre.controller-to-javafx.stage" style="stroke:#181818;stroke-width:1.0;"/><polygon fill="#181818" points="249.8,182.39,259.3987,184.5956,254.7078,181.4341,257.8693,176.7432,249.8,182.39" style="stroke:#181818;stroke-width:1.0;"/></g><!--link chasseaumonstre.controller to chasseaumonstre.model--><g id="link_chasseaumonstre.controller_chasseaumonstre.model"><path codeLine="21" d="M750.31,119.04 C857.16,134.75 1043.44,162.16 1152.7,178.23 " fill="none" id="chasseaumonstre.controller-to-chasseaumonstre.model" style="stroke:#181818;stroke-width:1.0;"/><polygon fill="#181818" points="1157.84,178.99,1149.5195,173.7203,1152.8934,178.2609,1148.3529,181.6348,1157.84,178.99" style="stroke:#181818;stroke-width:1.0;"/></g><!--link chasseaumonstre.controller to javafx.scene.input--><g id="link_chasseaumonstre.controller_javafx.scene.input"><path codeLine="23" d="M768.74,113.44 C928.64,124.17 1251.21,147.64 1523.5,179 C1527.42,179.45 1531.44,179.94 1535.5,180.46 " fill="none" id="chasseaumonstre.controller-to-javafx.scene.input" style="stroke:#181818;stroke-width:1.0;"/><polygon fill="#181818" points="1540.65,181.13,1532.2392,176.0058,1535.6915,180.487,1531.2103,183.9393,1540.65,181.13" style="stroke:#181818;stroke-width:1.0;"/></g><!--link chasseaumonstre.controller to javafx.scene.image--><g id="link_chasseaumonstre.controller_javafx.scene.image"><path codeLine="24" d="M657.9,119.04 C644.93,133.76 622.93,158.72 608.56,175.04 " fill="none" id="chasseaumonstre.controller-to-javafx.scene.image" style="stroke:#181818;stroke-width:1.0;"/><polygon fill="#181818" points="605.08,178.99,614.0246,174.8676,608.3796,175.2333,608.0139,169.5883,605.08,178.99" style="stroke:#181818;stroke-width:1.0;"/></g><!--link chasseaumonstre.controller to javafx.scene.layout--><g id="link_chasseaumonstre.controller_javafx.scene.layout"><path codeLine="25" d="M623.22,119.04 C564.8,134.57 463.45,161.51 402.72,177.65 " fill="none" id="chasseaumonstre.controller-to-javafx.scene.layout" style="stroke:#181818;stroke-width:1.0;"/><polygon fill="#181818" points="397.69,178.99,407.4162,180.5396,402.5216,177.7035,405.3577,172.8089,397.69,178.99" style="stroke:#181818;stroke-width:1.0;"/></g><!--link chasseaumonstre.controller to fr.univlille.iutinfo.cam.player.perception--><g id="link_chasseaumonstre.controller_fr.univlille.iutinfo.cam.player.perception"><path codeLine="26" d="M609.49,119.04 C551.89,133.58 477.14,161.65 508.5,205 C564.41,282.29 834.68,329.36 987.54,350.25 " fill="none" id="chasseaumonstre.controller-to-fr.univlille.iutinfo.cam.player.perception" style="stroke:#181818;stroke-width:1.0;"/><polygon fill="#181818" points="992.93,350.98,984.5483,345.8082,987.9752,350.3089,983.4746,353.7358,992.93,350.98" style="stroke:#181818;stroke-width:1.0;"/></g><!--link chasseaumonstre.controller to javafx.scene--><g id="link_chasseaumonstre.controller_javafx.scene"><path codeLine="27" d="M679.1,119.04 C692.07,133.76 714.07,158.72 728.44,175.04 " fill="none" id="chasseaumonstre.controller-to-javafx.scene" style="stroke:#181818;stroke-width:1.0;"/><polygon fill="#181818" points="731.92,178.99,728.9861,169.5883,728.6204,175.2333,722.9754,174.8676,731.92,178.99" style="stroke:#181818;stroke-width:1.0;"/></g><!--link chasseaumonstre.controller to javafx.scene.shape--><g id="link_chasseaumonstre.controller_javafx.scene.shape"><path codeLine="28" d="M700.45,119.04 C741.27,134.41 811.77,160.97 854.76,177.16 " fill="none" id="chasseaumonstre.controller-to-javafx.scene.shape" style="stroke:#181818;stroke-width:1.0;"/><polygon fill="#181818" points="859.61,178.99,852.613,172.0588,854.9348,177.2172,849.7765,179.539,859.61,178.99" style="stroke:#181818;stroke-width:1.0;"/></g><!--link chasseaumonstre.controller to javafx.scene.text--><g id="link_chasseaumonstre.controller_javafx.scene.text"><path codeLine="29" d="M723.95,119.04 C795.79,134.63 920.62,161.72 994.9,177.85 " fill="none" id="chasseaumonstre.controller-to-javafx.scene.text" style="stroke:#181818;stroke-width:1.0;"/><polygon fill="#181818" points="1000.16,178.99,992.2095,173.1771,995.2731,177.9326,990.5176,180.9962,1000.16,178.99" style="stroke:#181818;stroke-width:1.0;"/></g><!--link chasseaumonstre.controller.utils to javafx.scene.control--><g id="link_chasseaumonstre.controller.utils_javafx.scene.control"><path codeLine="30" d="M1507.32,119.04 C1492.3,133.88 1466.73,159.15 1450.23,175.45 " fill="none" id="chasseaumonstre.controller.utils-to-javafx.scene.control" style="stroke:#181818;stroke-width:1.0;"/><polygon fill="#181818" points="1446.66,178.99,1455.8736,175.5102,1450.2169,175.476,1450.2512,169.8192,1446.66,178.99" style="stroke:#181818;stroke-width:1.0;"/></g><!--link chasseaumonstre.controller.utils to javafx.scene.input--><g id="link_chasseaumonstre.controller.utils_javafx.scene.input"><path codeLine="31" d="M1531.82,119.04 C1547.02,133.88 1572.89,159.15 1589.58,175.45 " fill="none" id="chasseaumonstre.controller.utils-to-javafx.scene.input" style="stroke:#181818;stroke-width:1.0;"/><polygon fill="#181818" points="1593.2,178.99,1589.5535,169.841,1589.622,175.4975,1583.9655,175.5659,1593.2,178.99" style="stroke:#181818;stroke-width:1.0;"/></g><text fill="#888888" font-family="sans-serif" font-size="10" lengthAdjust="spacing" textLength="186" x="738.5" y="391.5791">UMLDoclet 2.1.0, PlantUML 1.2022.14</text><!--SRC=[jLPDJ-Cm4BtlhnWXhM0bQc1_m9uuiXBIQa-8mwmxQKpz9TifL8Z_lbEdg2XD6gU5KvIPzzvuF1y9041SAkine85_A9UBu1exbqwx02cWZUmYcxx11aa9B1fYcwG_j24bXbbdAVjhDIUGAaZzuPsCJske5Ebvx5eDfTgnETjbZJ4IDiRPc0B1RFOBdd25rOj0xxMIc9IpOz2OS45z8B5Iz1odGhiUwMmAJciAXJ4aMH8Qrwv9lGpZvgGpemgYiMgb5QiBrIHbAoSa6k6PJa5u2fByq1ry4EhrSBPSBLgiHJOFdBzOf6xiGOszS4KfZXxjEDcIc-kcLYHSVWiJH4TEk-l0_JxR-gRm1cUWW-_DxnXY7f79cV6A6XYWWonJc5tfj7PeNrVAoOUEDVhfh4GlOuaAJal7OtjjYDtMCvFFuPw_ErmeqCekjwsXMH3EEhfdyF3GCLtvbZkBZJ4OUD2IqO-Fy9fbtWw8jOtO9vaT9mZlikzJttbF296dhqyzEquLtjkomv7UaLTRvEU5RZTcGUGM-2drQhjrf6ePCnQkZKTvwLVERHv_Vz_TElurIl1Jt8ZhIxZNQ1DRuVkAGkGbSV7ZFm00]--></g></svg>