<?xml version="1.0" encoding="UTF-8" standalone="no"?><svg xmlns="http://www.w3.org/2000/svg" xmlns:xlink="http://www.w3.org/1999/xlink" contentStyleType="text/css" height="383px" preserveAspectRatio="none" style="width:277px;height:383px;background:#FFFFFF;" version="1.1" viewBox="0 0 277 383" width="277px" zoomAndPan="magnify"><defs/><g><!--cluster chasseaumonstre--><g id="cluster_chasseaumonstre"><path d="M46.5,210 L188.5,210 A3.75,3.75 0 0 1 191,212.5 L198,232.2969 L229.5,232.2969 A2.5,2.5 0 0 1 232,234.7969 L232,355.5 A2.5,2.5 0 0 1 229.5,358 L46.5,358 A2.5,2.5 0 0 1 44,355.5 L44,212.5 A2.5,2.5 0 0 1 46.5,210 " fill="none" style="stroke:#000000;stroke-width:1.5;"/><line style="stroke:#000000;stroke-width:1.5;" x1="44" x2="198" y1="232.2969" y2="232.2969"/><text fill="#000000" font-family="sans-serif" font-size="14" font-weight="bold" lengthAdjust="spacing" textLength="141" x="48" y="224.9951">chasseaumonstre</text></g><!--cluster javafx.application--><g id="cluster_javafx.application"><path d="M8.5,6 L145.5,6 A3.75,3.75 0 0 1 148,8.5 L155,28.2969 L267.5,28.2969 A2.5,2.5 0 0 1 270,30.7969 L270,183.5 A2.5,2.5 0 0 1 267.5,186 L8.5,186 A2.5,2.5 0 0 1 6,183.5 L6,8.5 A2.5,2.5 0 0 1 8.5,6 " fill="none" style="stroke:#000000;stroke-width:1.5;"/><line style="stroke:#000000;stroke-width:1.5;" x1="6" x2="155" y1="28.2969" y2="28.2969"/><text fill="#000000" font-family="sans-serif" font-size="14" font-weight="bold" lengthAdjust="spacing" textLength="136" x="10" y="20.9951">javafx.application</text></g><!--class chasseaumonstre.App--><a href="App.html" target="_top" title="App.html" xlink:actuate="onRequest" xlink:href="App.html" xlink:show="new" xlink:title="App.html" xlink:type="simple"><g id="elem_chasseaumonstre.App"><rect codeLine="3" fill="#F1F1F1" height="96.8906" id="chasseaumonstre.App" rx="2.5" ry="2.5" style="stroke:#181818;stroke-width:0.5;" width="156" x="60" y="245"/><ellipse cx="120.25" cy="261" fill="#ADD1B2" rx="11" ry="11" style="stroke:#181818;stroke-width:1.0;"/><path d="M123.2188,266.6406 Q122.6406,266.9375 122,267.0781 Q121.3594,267.2344 120.6563,267.2344 Q118.1563,267.2344 116.8281,265.5938 Q115.5156,263.9375 115.5156,260.8125 Q115.5156,257.6875 116.8281,256.0313 Q118.1563,254.375 120.6563,254.375 Q121.3594,254.375 122,254.5313 Q122.6563,254.6875 123.2188,254.9844 L123.2188,257.7031 Q122.5938,257.125 122,256.8594 Q121.4063,256.5781 120.7813,256.5781 Q119.4375,256.5781 118.75,257.6563 Q118.0625,258.7188 118.0625,260.8125 Q118.0625,262.9063 118.75,263.9844 Q119.4375,265.0469 120.7813,265.0469 Q121.4063,265.0469 122,264.7813 Q122.5938,264.5 123.2188,263.9219 L123.2188,266.6406 Z " fill="#000000"/><text fill="#000000" font-family="sans-serif" font-size="14" lengthAdjust="spacing" textLength="27" x="140.75" y="265.8467">App</text><line style="stroke:#181818;stroke-width:0.5;" x1="61" x2="215" y1="277" y2="277"/><rect fill="none" height="6" style="stroke:#C82930;stroke-width:1.0;" width="6" x="68" y="287.6484"/><text fill="#000000" font-family="sans-serif" font-size="14" lengthAdjust="spacing" textLength="117" x="80" y="293.9951">ICON_URL: String</text><line style="stroke:#181818;stroke-width:0.5;" x1="61" x2="215" y1="301.2969" y2="301.2969"/><ellipse cx="71" cy="314.9453" fill="#84BE84" rx="3" ry="3" style="stroke:#038048;stroke-width:1.0;"/><text fill="#000000" font-family="sans-serif" font-size="14" lengthAdjust="spacing" textLength="118" x="80" y="318.292">start(Stage): void</text><ellipse cx="71" cy="331.2422" fill="#84BE84" rx="3" ry="3" style="stroke:#038048;stroke-width:1.0;"/><text fill="#000000" font-family="sans-serif" font-size="14" lengthAdjust="spacing" text-decoration="underline" textLength="130" x="80" y="334.5889">main(String[]): void</text></g></a><!--class javafx.application.Application--><g id="elem_javafx.application.Application"><rect codeLine="13" fill="#F1F1F1" height="129.4844" id="javafx.application.Application" rx="2.5" ry="2.5" style="stroke:#181818;stroke-width:0.5;" width="233" x="21.5" y="41"/><ellipse cx="95.75" cy="57" fill="#A9DCDF" rx="11" ry="11" style="stroke:#181818;stroke-width:1.0;"/><path d="M95.8594,52.3438 L94.7031,57.4219 L97.0313,57.4219 L95.8594,52.3438 Z M94.375,50.1094 L97.3594,50.1094 L100.7188,62.5 L98.2656,62.5 L97.5,59.4375 L94.2188,59.4375 L93.4688,62.5 L91.0313,62.5 L94.375,50.1094 Z " fill="#000000"/><text fill="#000000" font-family="sans-serif" font-size="14" font-style="italic" lengthAdjust="spacing" textLength="76" x="116.25" y="61.8467">Application</text><line style="stroke:#181818;stroke-width:0.5;" x1="22.5" x2="253.5" y1="73" y2="73"/><ellipse cx="32.5" cy="86.6484" fill="none" rx="3" ry="3" style="stroke:#038048;stroke-width:1.0;"/><text fill="#000000" font-family="sans-serif" font-size="14" lengthAdjust="spacing" text-decoration="underline" textLength="204" x="41.5" y="89.9951">STYLESHEET_CASPIAN: String</text><ellipse cx="32.5" cy="102.9453" fill="none" rx="3" ry="3" style="stroke:#038048;stroke-width:1.0;"/><text fill="#000000" font-family="sans-serif" font-size="14" lengthAdjust="spacing" text-decoration="underline" textLength="207" x="41.5" y="106.292">STYLESHEET_MODENA: String</text><rect fill="none" height="6" style="stroke:#C82930;stroke-width:1.0;" width="6" x="29.5" y="116.2422"/><text fill="#000000" font-family="sans-serif" font-size="14" lengthAdjust="spacing" textLength="188" x="41.5" y="122.5889">hostServices: HostServices</text><rect fill="none" height="6" style="stroke:#C82930;stroke-width:1.0;" width="6" x="29.5" y="132.5391"/><text fill="#000000" font-family="sans-serif" font-size="14" lengthAdjust="spacing" text-decoration="underline" textLength="194" x="41.5" y="138.8857">userAgentStylesheet: String</text><line style="stroke:#181818;stroke-width:0.5;" x1="22.5" x2="253.5" y1="146.1875" y2="146.1875"/><ellipse cx="32.5" cy="159.8359" fill="#84BE84" rx="3" ry="3" style="stroke:#038048;stroke-width:1.0;"/><text fill="#000000" font-family="sans-serif" font-size="14" font-style="italic" lengthAdjust="spacing" textLength="118" x="41.5" y="163.1826">start(Stage): void</text></g><!--reverse link javafx.application.Application to chasseaumonstre.App--><g id="link_javafx.application.Application_chasseaumonstre.App"><path codeLine="9" d="M138,190.27 C138,209.03 138,228.31 138,244.99 " fill="none" id="javafx.application.Application-backto-chasseaumonstre.App" style="stroke:#181818;stroke-width:1.0;"/><polygon fill="none" points="131,190.25,138,170.25,145,190.25,131,190.25" style="stroke:#181818;stroke-width:1.0;"/></g><text fill="#888888" font-family="sans-serif" font-size="10" lengthAdjust="spacing" textLength="186" x="38.5" y="373.2822">UMLDoclet 2.1.0, PlantUML 1.2022.14</text><!--SRC=[VL5DIyD04BttLyn5IAa9wZ5u2MsWXNxXjWSffOphD8aaks5t6fIQ_-uMBKaqE8VzUc-6zzu202Wio9Oe2MIArXAU2gqi6uBpO00_9NC7GLIMiDkvDKYvoFTxnu1M-RFnQddOFir346mobNJGaMKqx0d6X8OXL3fxxU1dXtCcQnWLc2dlUy9k_vjQDwBUiCBZUu1bcMVIzMeLHCqP7Zzz_o9vq6fhpFvjRhd15nS0Icvyzv2weiNcUHwBQHnl3kD8h6VHiZU5teR5QX8lerw-dshBWaoLIR8XJ5kt_hd-oPA94b8i-2Cdcn9nlvAhoVhVhwdRyKatbWmSjRvisyLyecLE30_1VN1t2-iS5RjNkAd8M9UMD_m2]--></g></svg>