<?xml version="1.0" encoding="UTF-8" standalone="no"?><svg xmlns="http://www.w3.org/2000/svg" xmlns:xlink="http://www.w3.org/1999/xlink" contentStyleType="text/css" height="388px" preserveAspectRatio="none" style="width:335px;height:388px;background:#FFFFFF;" version="1.1" viewBox="0 0 335 388" width="335px" zoomAndPan="magnify"><defs/><g><!--class chasseaumonstre.views.MHHunterView--><a href="MHHunterView.html" target="_top" title="MHHunterView.html" xlink:actuate="onRequest" xlink:href="MHHunterView.html" xlink:show="new" xlink:title="MHHunterView.html" xlink:type="simple"><g id="elem_chasseaumonstre.views.MHHunterView"><rect codeLine="5" fill="#F1F1F1" height="216.9063" id="chasseaumonstre.views.MHHunterView" rx="2.5" ry="2.5" style="stroke:#181818;stroke-width:0.5;" width="321" x="7" y="146"/><ellipse cx="105.25" cy="164.9688" fill="#ADD1B2" rx="11" ry="11" style="stroke:#181818;stroke-width:1.0;"/><path d="M108.2188,170.6094 Q107.6406,170.9063 107,171.0469 Q106.3594,171.2031 105.6563,171.2031 Q103.1563,171.2031 101.8281,169.5625 Q100.5156,167.9063 100.5156,164.7813 Q100.5156,161.6563 101.8281,160 Q103.1563,158.3438 105.6563,158.3438 Q106.3594,158.3438 107,158.5 Q107.6563,158.6563 108.2188,158.9531 L108.2188,161.6719 Q107.5938,161.0938 107,160.8281 Q106.4063,160.5469 105.7813,160.5469 Q104.4375,160.5469 103.75,161.625 Q103.0625,162.6875 103.0625,164.7813 Q103.0625,166.875 103.75,167.9531 Q104.4375,169.0156 105.7813,169.0156 Q106.4063,169.0156 107,168.75 Q107.5938,168.4688 108.2188,167.8906 L108.2188,170.6094 Z " fill="#000000"/><text fill="#000000" font-family="sans-serif" font-size="14" lengthAdjust="spacing" textLength="101" x="133.25" y="163.9951">MHHunterView</text><text fill="#000000" font-family="sans-serif" font-size="10" lengthAdjust="spacing" textLength="116" x="125.75" y="176.5791">chasseaumonstre.views</text><line style="stroke:#181818;stroke-width:0.5;" x1="8" x2="327" y1="183.9375" y2="183.9375"/><rect fill="none" height="6" style="stroke:#C82930;stroke-width:1.0;" width="6" x="15" y="194.5859"/><text fill="#000000" font-family="sans-serif" font-size="14" lengthAdjust="spacing" textLength="88" x="27" y="200.9326">stage: Stage</text><rect fill="none" height="6" style="stroke:#C82930;stroke-width:1.0;" width="6" x="15" y="210.8828"/><text fill="#000000" font-family="sans-serif" font-size="14" lengthAdjust="spacing" textLength="210" x="27" y="217.2295">controller: MHHunterController</text><rect fill="none" height="6" style="stroke:#C82930;stroke-width:1.0;" width="6" x="15" y="227.1797"/><text fill="#000000" font-family="sans-serif" font-size="14" lengthAdjust="spacing" textLength="110" x="27" y="233.5264">maze: GridPane</text><rect fill="none" height="6" style="stroke:#C82930;stroke-width:1.0;" width="6" x="15" y="243.4766"/><text fill="#000000" font-family="sans-serif" font-size="14" lengthAdjust="spacing" text-decoration="underline" textLength="239" x="27" y="249.8232">HUNTER_CROSSHAIR_PATH: String</text><line style="stroke:#181818;stroke-width:0.5;" x1="8" x2="327" y1="257.125" y2="257.125"/><ellipse cx="18" cy="270.7734" fill="#84BE84" rx="3" ry="3" style="stroke:#038048;stroke-width:1.0;"/><text fill="#000000" font-family="sans-serif" font-size="14" lengthAdjust="spacing" textLength="295" x="27" y="274.1201">MHHunterView(Stage, MHHunterController)</text><ellipse cx="18" cy="287.0703" fill="#84BE84" rx="3" ry="3" style="stroke:#038048;stroke-width:1.0;"/><text fill="#000000" font-family="sans-serif" font-size="14" lengthAdjust="spacing" textLength="93" x="27" y="290.417">render(): void</text><rect fill="#F24D5C" height="6" style="stroke:#C82930;stroke-width:1.0;" width="6" x="15" y="300.3672"/><text fill="#000000" font-family="sans-serif" font-size="14" lengthAdjust="spacing" textLength="80" x="27" y="306.7139">draw(): void</text><ellipse cx="18" cy="319.6641" fill="#84BE84" rx="3" ry="3" style="stroke:#038048;stroke-width:1.0;"/><text fill="#000000" font-family="sans-serif" font-size="14" lengthAdjust="spacing" text-decoration="underline" textLength="245" x="27" y="323.0107">isOnBorder(int, int, int, int): boolean</text><ellipse cx="18" cy="335.9609" fill="#84BE84" rx="3" ry="3" style="stroke:#038048;stroke-width:1.0;"/><text fill="#000000" font-family="sans-serif" font-size="14" lengthAdjust="spacing" textLength="142" x="27" y="339.3076">getMaze(): GridPane</text><ellipse cx="18" cy="352.2578" fill="#84BE84" rx="3" ry="3" style="stroke:#038048;stroke-width:1.0;"/><text fill="#000000" font-family="sans-serif" font-size="14" lengthAdjust="spacing" textLength="96" x="27" y="355.6045">update(): void</text></g></a><!--class chasseaumonstre.views.IPlayerView--><a href="IPlayerView.html" target="_top" title="IPlayerView.html" xlink:actuate="onRequest" xlink:href="IPlayerView.html" xlink:show="new" xlink:title="IPlayerView.html" xlink:type="simple"><g id="elem_chasseaumonstre.views.IPlayerView"><rect codeLine="18" fill="#F1F1F1" height="78.5313" id="chasseaumonstre.views.IPlayerView" rx="2.5" ry="2.5" style="stroke:#181818;stroke-width:0.5;" width="150" x="92.5" y="7"/><ellipse cx="107.5" cy="25.9688" fill="#B4A7E5" rx="11" ry="11" style="stroke:#181818;stroke-width:1.0;"/><path d="M103.4219,21.7344 L103.4219,19.5781 L110.8125,19.5781 L110.8125,21.7344 L108.3438,21.7344 L108.3438,29.8125 L110.8125,29.8125 L110.8125,31.9688 L103.4219,31.9688 L103.4219,29.8125 L105.8906,29.8125 L105.8906,21.7344 L103.4219,21.7344 Z " fill="#000000"/><text fill="#000000" font-family="sans-serif" font-size="14" font-style="italic" lengthAdjust="spacing" textLength="78" x="141.5" y="24.9951">IPlayerView</text><text fill="#000000" font-family="sans-serif" font-size="10" font-style="italic" lengthAdjust="spacing" textLength="118" x="121.5" y="37.5791">chasseaumonstre.views</text><line style="stroke:#181818;stroke-width:0.5;" x1="93.5" x2="241.5" y1="44.9375" y2="44.9375"/><ellipse cx="103.5" cy="58.5859" fill="#84BE84" rx="3" ry="3" style="stroke:#038048;stroke-width:1.0;"/><text fill="#000000" font-family="sans-serif" font-size="14" font-style="italic" lengthAdjust="spacing" textLength="94" x="112.5" y="61.9326">render(): void</text><ellipse cx="103.5" cy="74.8828" fill="#84BE84" rx="3" ry="3" style="stroke:#038048;stroke-width:1.0;"/><text fill="#000000" font-family="sans-serif" font-size="14" font-style="italic" lengthAdjust="spacing" textLength="97" x="112.5" y="78.2295">update(): void</text></g></a><!--reverse link chasseaumonstre.views.IPlayerView to chasseaumonstre.views.MHHunterView--><g id="link_chasseaumonstre.views.IPlayerView_chasseaumonstre.views.MHHunterView"><path codeLine="23" d="M167.5,106.53 C167.5,118.9 167.5,132.3 167.5,145.81 " fill="none" id="chasseaumonstre.views.IPlayerView-backto-chasseaumonstre.views.MHHunterView" style="stroke:#181818;stroke-width:1.0;stroke-dasharray:7.0,7.0;"/><polygon fill="none" points="160.5,106.25,167.5,86.25,174.5,106.25,160.5,106.25" style="stroke:#181818;stroke-width:1.0;"/></g><text fill="#888888" font-family="sans-serif" font-size="10" lengthAdjust="spacing" textLength="186" x="67.5" y="378.1885">UMLDoclet 2.1.0, PlantUML 1.2022.14</text><!--SRC=[fLF1Qi904BttAmQXeAX1Iqz116jB8zGgHdkn8cCoceNDRjXT5MlzzswiDR5QMcWEMURDl3TlCXi004q61CQa4mp8fmGL6gb0I45NDWqH2maeJim6venugB-ZCPb8MdYF1norXa93ipTowxVDhkSjXI7rmcZzAWvmhHb4jenm6KkXZI9dPTEw0AZXOiR9oy1ud0-ToCHyCe7jld_wLBN11RdWfqU61b8O9JadvSANGFk8PNKnMe_mg5ZOHv7njrRLi607LM_qF7mOJDk3dkzxhSvWscyDlRITOc9nh2_dJHRtNYeN-fOoWY8HaYgMN5X95cQ6GeNhC_HefynqJzn9bLAPC1KuULdQJ4fEAB8-2p9TEsCgUJPbUPc4QEYatUvpjImrFhUN9BVUJf_Zvj_RpQdOvUQYyzrkSMQ969ZTZzyhN_BpDByxQRmxpX-kuq6EqXZcKgR7gFjqBmDk_wmRf-xKAc1bXR4eNAz8QIP5iVG1]--></g></svg>