<?xml version="1.0" encoding="UTF-8" standalone="no"?><svg xmlns="http://www.w3.org/2000/svg" xmlns:xlink="http://www.w3.org/1999/xlink" contentStyleType="text/css" height="421px" preserveAspectRatio="none" style="width:335px;height:421px;background:#FFFFFF;" version="1.1" viewBox="0 0 335 421" width="335px" zoomAndPan="magnify"><defs/><g><!--class chasseaumonstre.views.MHHunterView--><a href="MHHunterView.html" target="_top" title="MHHunterView.html" xlink:actuate="onRequest" xlink:href="MHHunterView.html" xlink:show="new" xlink:title="MHHunterView.html" xlink:type="simple"><g id="elem_chasseaumonstre.views.MHHunterView"><rect codeLine="5" fill="#F1F1F1" height="249.5" id="chasseaumonstre.views.MHHunterView" rx="2.5" ry="2.5" style="stroke:#181818;stroke-width:0.5;" width="321" x="7" y="146"/><ellipse cx="105.25" cy="164.9688" fill="#ADD1B2" rx="11" ry="11" style="stroke:#181818;stroke-width:1.0;"/><path d="M108.2188,170.6094 Q107.6406,170.9063 107,171.0469 Q106.3594,171.2031 105.6563,171.2031 Q103.1563,171.2031 101.8281,169.5625 Q100.5156,167.9063 100.5156,164.7813 Q100.5156,161.6563 101.8281,160 Q103.1563,158.3438 105.6563,158.3438 Q106.3594,158.3438 107,158.5 Q107.6563,158.6563 108.2188,158.9531 L108.2188,161.6719 Q107.5938,161.0938 107,160.8281 Q106.4063,160.5469 105.7813,160.5469 Q104.4375,160.5469 103.75,161.625 Q103.0625,162.6875 103.0625,164.7813 Q103.0625,166.875 103.75,167.9531 Q104.4375,169.0156 105.7813,169.0156 Q106.4063,169.0156 107,168.75 Q107.5938,168.4688 108.2188,167.8906 L108.2188,170.6094 Z " fill="#000000"/><text fill="#000000" font-family="sans-serif" font-size="14" lengthAdjust="spacing" textLength="101" x="133.25" y="163.9951">MHHunterView</text><text fill="#000000" font-family="sans-serif" font-size="10" lengthAdjust="spacing" textLength="116" x="125.75" y="176.5791">chasseaumonstre.views</text><line style="stroke:#181818;stroke-width:0.5;" x1="8" x2="327" y1="183.9375" y2="183.9375"/><rect fill="none" height="6" style="stroke:#C82930;stroke-width:1.0;" width="6" x="15" y="194.5859"/><text fill="#000000" font-family="sans-serif" font-size="14" lengthAdjust="spacing" textLength="88" x="27" y="200.9326">stage: Stage</text><rect fill="none" height="6" style="stroke:#C82930;stroke-width:1.0;" width="6" x="15" y="210.8828"/><text fill="#000000" font-family="sans-serif" font-size="14" lengthAdjust="spacing" textLength="210" x="27" y="217.2295">controller: MHHunterController</text><rect fill="none" height="6" style="stroke:#C82930;stroke-width:1.0;" width="6" x="15" y="227.1797"/><text fill="#000000" font-family="sans-serif" font-size="14" lengthAdjust="spacing" textLength="110" x="27" y="233.5264">maze: GridPane</text><rect fill="none" height="6" style="stroke:#C82930;stroke-width:1.0;" width="6" x="15" y="243.4766"/><text fill="#000000" font-family="sans-serif" font-size="14" lengthAdjust="spacing" text-decoration="underline" textLength="239" x="27" y="249.8232">HUNTER_CROSSHAIR_PATH: String</text><line style="stroke:#181818;stroke-width:0.5;" x1="8" x2="327" y1="257.125" y2="257.125"/><ellipse cx="18" cy="270.7734" fill="#84BE84" rx="3" ry="3" style="stroke:#038048;stroke-width:1.0;"/><text fill="#000000" font-family="sans-serif" font-size="14" lengthAdjust="spacing" textLength="295" x="27" y="274.1201">MHHunterView(Stage, MHHunterController)</text><ellipse cx="18" cy="287.0703" fill="#84BE84" rx="3" ry="3" style="stroke:#038048;stroke-width:1.0;"/><text fill="#000000" font-family="sans-serif" font-size="14" lengthAdjust="spacing" textLength="93" x="27" y="290.417">render(): void</text><rect fill="#F24D5C" height="6" style="stroke:#C82930;stroke-width:1.0;" width="6" x="15" y="300.3672"/><text fill="#000000" font-family="sans-serif" font-size="14" lengthAdjust="spacing" textLength="80" x="27" y="306.7139">draw(): void</text><ellipse cx="18" cy="319.6641" fill="#84BE84" rx="3" ry="3" style="stroke:#038048;stroke-width:1.0;"/><text fill="#000000" font-family="sans-serif" font-size="14" lengthAdjust="spacing" text-decoration="underline" textLength="245" x="27" y="323.0107">isOnBorder(int, int, int, int): boolean</text><ellipse cx="18" cy="335.9609" fill="#84BE84" rx="3" ry="3" style="stroke:#038048;stroke-width:1.0;"/><text fill="#000000" font-family="sans-serif" font-size="14" lengthAdjust="spacing" textLength="142" x="27" y="339.3076">getMaze(): GridPane</text><ellipse cx="18" cy="352.2578" fill="#84BE84" rx="3" ry="3" style="stroke:#038048;stroke-width:1.0;"/><text fill="#000000" font-family="sans-serif" font-size="14" lengthAdjust="spacing" textLength="96" x="27" y="355.6045">update(): void</text><ellipse cx="18" cy="368.5547" fill="#84BE84" rx="3" ry="3" style="stroke:#038048;stroke-width:1.0;"/><text fill="#000000" font-family="sans-serif" font-size="14" lengthAdjust="spacing" textLength="148" x="27" y="371.9014">update(Subject): void</text><ellipse cx="18" cy="384.8516" fill="#84BE84" rx="3" ry="3" style="stroke:#038048;stroke-width:1.0;"/><text fill="#000000" font-family="sans-serif" font-size="14" lengthAdjust="spacing" textLength="201" x="27" y="388.1982">update(Subject, Object): void</text></g></a><!--class SubjectObserver.Observer--><g id="elem_SubjectObserver.Observer"><rect codeLine="20" fill="#F1F1F1" height="78.5313" id="SubjectObserver.Observer" rx="2.5" ry="2.5" style="stroke:#181818;stroke-width:0.5;" width="228" x="53.5" y="7"/><ellipse cx="122.25" cy="25.9688" fill="#B4A7E5" rx="11" ry="11" style="stroke:#181818;stroke-width:1.0;"/><path d="M118.1719,21.7344 L118.1719,19.5781 L125.5625,19.5781 L125.5625,21.7344 L123.0938,21.7344 L123.0938,29.8125 L125.5625,29.8125 L125.5625,31.9688 L118.1719,31.9688 L118.1719,29.8125 L120.6406,29.8125 L120.6406,21.7344 L118.1719,21.7344 Z " fill="#000000"/><text fill="#000000" font-family="sans-serif" font-size="14" font-style="italic" lengthAdjust="spacing" textLength="63" x="152.25" y="24.9951">Observer</text><text fill="#000000" font-family="sans-serif" font-size="10" font-style="italic" lengthAdjust="spacing" textLength="82" x="142.75" y="37.5791">SubjectObserver</text><line style="stroke:#181818;stroke-width:0.5;" x1="54.5" x2="280.5" y1="44.9375" y2="44.9375"/><ellipse cx="64.5" cy="58.5859" fill="#84BE84" rx="3" ry="3" style="stroke:#038048;stroke-width:1.0;"/><text fill="#000000" font-family="sans-serif" font-size="14" font-style="italic" lengthAdjust="spacing" textLength="149" x="73.5" y="61.9326">update(Subject): void</text><ellipse cx="64.5" cy="74.8828" fill="#84BE84" rx="3" ry="3" style="stroke:#038048;stroke-width:1.0;"/><text fill="#000000" font-family="sans-serif" font-size="14" font-style="italic" lengthAdjust="spacing" textLength="202" x="73.5" y="78.2295">update(Subject, Object): void</text></g><!--reverse link SubjectObserver.Observer to chasseaumonstre.views.MHHunterView--><g id="link_SubjectObserver.Observer_chasseaumonstre.views.MHHunterView"><path codeLine="25" d="M167.5,106.25 C167.5,118.62 167.5,132.13 167.5,145.9 " fill="none" id="SubjectObserver.Observer-backto-chasseaumonstre.views.MHHunterView" style="stroke:#181818;stroke-width:1.0;stroke-dasharray:7.0,7.0;"/><polygon fill="none" points="160.5,106,167.5,86,174.5,106,160.5,106" style="stroke:#181818;stroke-width:1.0;"/></g><text fill="#888888" font-family="sans-serif" font-size="10" lengthAdjust="spacing" textLength="186" x="67.5" y="410.7822">UMLDoclet 2.1.0, PlantUML 1.2022.14</text><!--SRC=[ZLDTJy8m57ttLzoGc40O3HYV2251DCv4X33m1GafsuNLTEtI5eWY_zqE6PjyY7rOrtFlFVVSz1G0GAC1GIFKCVNHmvWgQgG28GLUsJ24B430A3OVC6F80ts8HcX2QU4jxdEgDHGQcdrYlNRRxBZkGXXKhmnNRs87Lvj-QDEGBY8fj558bZQi2q0rd8oGF0sCHlaZ2Kt4nsDOR_idgw8DdMCTl6JBK5yAeoJdgEgG4hJtM9ONKQiH7XKBUbHazMlBQfY_WOexV1ayz2VjVjVptDPJVz9h3ToadM9YliylvqKMjrgS4trBMO524Q0gbkgmb2p810MAhexGlPmoqrrn9rLIoeHnuDV7basbv4X5rcUEfcDdJ2YFfYmlue0QF6gNujvY-ew-kH1se7kKjlan24l6drchvKpIdMfKIrGvW-o8qiZM6WSOINzoLx-cK-iQwflD9SNdC_yGVrP1uukGVrXtzqOmESDCocGRTfxlfS_jAxmXDL9reCUfC1Q5QykicHJ5qZS0]--></g></svg>