<?xml version="1.0" encoding="UTF-8" standalone="no"?><svg xmlns="http://www.w3.org/2000/svg" xmlns:xlink="http://www.w3.org/1999/xlink" contentStyleType="text/css" height="421px" preserveAspectRatio="none" style="width:355px;height:421px;background:#FFFFFF;" version="1.1" viewBox="0 0 355 421" width="355px" zoomAndPan="magnify"><defs/><g><!--class chasseaumonstre.views.MHMonsterView--><a href="MHMonsterView.html" target="_top" title="MHMonsterView.html" xlink:actuate="onRequest" xlink:href="MHMonsterView.html" xlink:show="new" xlink:title="MHMonsterView.html" xlink:type="simple"><g id="elem_chasseaumonstre.views.MHMonsterView"><rect codeLine="5" fill="#F1F1F1" height="249.5" id="chasseaumonstre.views.MHMonsterView" rx="2.5" ry="2.5" style="stroke:#181818;stroke-width:0.5;" width="341" x="7" y="146"/><ellipse cx="115.25" cy="164.9688" fill="#ADD1B2" rx="11" ry="11" style="stroke:#181818;stroke-width:1.0;"/><path d="M118.2188,170.6094 Q117.6406,170.9063 117,171.0469 Q116.3594,171.2031 115.6563,171.2031 Q113.1563,171.2031 111.8281,169.5625 Q110.5156,167.9063 110.5156,164.7813 Q110.5156,161.6563 111.8281,160 Q113.1563,158.3438 115.6563,158.3438 Q116.3594,158.3438 117,158.5 Q117.6563,158.6563 118.2188,158.9531 L118.2188,161.6719 Q117.5938,161.0938 117,160.8281 Q116.4063,160.5469 115.7813,160.5469 Q114.4375,160.5469 113.75,161.625 Q113.0625,162.6875 113.0625,164.7813 Q113.0625,166.875 113.75,167.9531 Q114.4375,169.0156 115.7813,169.0156 Q116.4063,169.0156 117,168.75 Q117.5938,168.4688 118.2188,167.8906 L118.2188,170.6094 Z " fill="#000000"/><text fill="#000000" font-family="sans-serif" font-size="14" lengthAdjust="spacing" textLength="111" x="138.25" y="163.9951">MHMonsterView</text><text fill="#000000" font-family="sans-serif" font-size="10" lengthAdjust="spacing" textLength="116" x="135.75" y="176.5791">chasseaumonstre.views</text><line style="stroke:#181818;stroke-width:0.5;" x1="8" x2="347" y1="183.9375" y2="183.9375"/><rect fill="none" height="6" style="stroke:#C82930;stroke-width:1.0;" width="6" x="15" y="194.5859"/><text fill="#000000" font-family="sans-serif" font-size="14" lengthAdjust="spacing" text-decoration="underline" textLength="251" x="27" y="200.9326">MONSTER_CROSSHAIR_PATH: String</text><rect fill="none" height="6" style="stroke:#C82930;stroke-width:1.0;" width="6" x="15" y="210.8828"/><text fill="#000000" font-family="sans-serif" font-size="14" lengthAdjust="spacing" textLength="88" x="27" y="217.2295">stage: Stage</text><rect fill="none" height="6" style="stroke:#C82930;stroke-width:1.0;" width="6" x="15" y="227.1797"/><text fill="#000000" font-family="sans-serif" font-size="14" lengthAdjust="spacing" textLength="220" x="27" y="233.5264">controller: MHMonsterController</text><rect fill="none" height="6" style="stroke:#C82930;stroke-width:1.0;" width="6" x="15" y="243.4766"/><text fill="#000000" font-family="sans-serif" font-size="14" lengthAdjust="spacing" textLength="110" x="27" y="249.8232">maze: GridPane</text><rect fill="none" height="6" style="stroke:#C82930;stroke-width:1.0;" width="6" x="15" y="259.7734"/><text fill="#000000" font-family="sans-serif" font-size="14" lengthAdjust="spacing" textLength="130" x="27" y="266.1201">otherImage: Image</text><rect fill="none" height="6" style="stroke:#C82930;stroke-width:1.0;" width="6" x="15" y="276.0703"/><text fill="#000000" font-family="sans-serif" font-size="14" lengthAdjust="spacing" textLength="233" x="27" y="282.417">patternInRectangle: ImagePattern</text><line style="stroke:#181818;stroke-width:0.5;" x1="8" x2="347" y1="289.7188" y2="289.7188"/><ellipse cx="18" cy="303.3672" fill="#84BE84" rx="3" ry="3" style="stroke:#038048;stroke-width:1.0;"/><text fill="#000000" font-family="sans-serif" font-size="14" lengthAdjust="spacing" textLength="315" x="27" y="306.7139">MHMonsterView(Stage, MHMonsterController)</text><ellipse cx="18" cy="319.6641" fill="#84BE84" rx="3" ry="3" style="stroke:#038048;stroke-width:1.0;"/><text fill="#000000" font-family="sans-serif" font-size="14" lengthAdjust="spacing" textLength="93" x="27" y="323.0107">render(): void</text><rect fill="#F24D5C" height="6" style="stroke:#C82930;stroke-width:1.0;" width="6" x="15" y="332.9609"/><text fill="#000000" font-family="sans-serif" font-size="14" lengthAdjust="spacing" textLength="80" x="27" y="339.3076">draw(): void</text><ellipse cx="18" cy="352.2578" fill="#84BE84" rx="3" ry="3" style="stroke:#038048;stroke-width:1.0;"/><text fill="#000000" font-family="sans-serif" font-size="14" lengthAdjust="spacing" textLength="96" x="27" y="355.6045">update(): void</text><ellipse cx="18" cy="368.5547" fill="#84BE84" rx="3" ry="3" style="stroke:#038048;stroke-width:1.0;"/><text fill="#000000" font-family="sans-serif" font-size="14" lengthAdjust="spacing" textLength="148" x="27" y="371.9014">update(Subject): void</text><ellipse cx="18" cy="384.8516" fill="#84BE84" rx="3" ry="3" style="stroke:#038048;stroke-width:1.0;"/><text fill="#000000" font-family="sans-serif" font-size="14" lengthAdjust="spacing" textLength="201" x="27" y="388.1982">update(Subject, Object): void</text></g></a><!--class SubjectObserver.Observer--><g id="elem_SubjectObserver.Observer"><rect codeLine="20" fill="#F1F1F1" height="78.5313" id="SubjectObserver.Observer" rx="2.5" ry="2.5" style="stroke:#181818;stroke-width:0.5;" width="228" x="63.5" y="7"/><ellipse cx="132.25" cy="25.9688" fill="#B4A7E5" rx="11" ry="11" style="stroke:#181818;stroke-width:1.0;"/><path d="M128.1719,21.7344 L128.1719,19.5781 L135.5625,19.5781 L135.5625,21.7344 L133.0938,21.7344 L133.0938,29.8125 L135.5625,29.8125 L135.5625,31.9688 L128.1719,31.9688 L128.1719,29.8125 L130.6406,29.8125 L130.6406,21.7344 L128.1719,21.7344 Z " fill="#000000"/><text fill="#000000" font-family="sans-serif" font-size="14" font-style="italic" lengthAdjust="spacing" textLength="63" x="162.25" y="24.9951">Observer</text><text fill="#000000" font-family="sans-serif" font-size="10" font-style="italic" lengthAdjust="spacing" textLength="82" x="152.75" y="37.5791">SubjectObserver</text><line style="stroke:#181818;stroke-width:0.5;" x1="64.5" x2="290.5" y1="44.9375" y2="44.9375"/><ellipse cx="74.5" cy="58.5859" fill="#84BE84" rx="3" ry="3" style="stroke:#038048;stroke-width:1.0;"/><text fill="#000000" font-family="sans-serif" font-size="14" font-style="italic" lengthAdjust="spacing" textLength="149" x="83.5" y="61.9326">update(Subject): void</text><ellipse cx="74.5" cy="74.8828" fill="#84BE84" rx="3" ry="3" style="stroke:#038048;stroke-width:1.0;"/><text fill="#000000" font-family="sans-serif" font-size="14" font-style="italic" lengthAdjust="spacing" textLength="202" x="83.5" y="78.2295">update(Subject, Object): void</text></g><!--reverse link SubjectObserver.Observer to chasseaumonstre.views.MHMonsterView--><g id="link_SubjectObserver.Observer_chasseaumonstre.views.MHMonsterView"><path codeLine="25" d="M177.5,106.25 C177.5,118.62 177.5,132.13 177.5,145.9 " fill="none" id="SubjectObserver.Observer-backto-chasseaumonstre.views.MHMonsterView" style="stroke:#181818;stroke-width:1.0;stroke-dasharray:7.0,7.0;"/><polygon fill="none" points="170.5,106,177.5,86,184.5,106,170.5,106" style="stroke:#181818;stroke-width:1.0;"/></g><text fill="#888888" font-family="sans-serif" font-size="10" lengthAdjust="spacing" textLength="186" x="77.5" y="410.7822">UMLDoclet 2.1.0, PlantUML 1.2022.14</text><!--SRC=[ZLDTQy9047plhrY4Wg86BNqI4SIMAZID6DiNAx8cgxcIt8MxKscj_xsN-97urJOlcvlPdPjBvW0056dW696AqIENOfIeXGGkEDqO6WBc4r0Kwq-OCGfzTOf6f0DXu1JtGbGA2at5lgXHls_PNLjmfKc-CLgzynrUQtc1wIDSH0ahoLeQMXK05Lnah2CT68sErbQWet0yXdLg8NdMIgDctWQgjlFY3Xy7ayx0STrkkpUOzDl3RWDSBHcV7mQgPc1E2MnAXdg2Qod2a6G33bjs3c3M6A4v5pn9vlUHvmI43aZsebGxBHaLepPYlCS7v6dayt3VqjyIXyxoqM6BgSNA9JkbR4GIzqaMImrO2kPdc_eILsTeUH7xgEagxYwc7yRZ7tG5dBEspJOLZ1kVCvElN3ASgIAv99aBnKvepwHnEC6i_Kl-P-FK90KzlVdByVNENynVTT3yjgp_n7LtCoZv230J8YclzlE3y49pz-wikbMhG3z4hWqAjqPQCS6BfHy0]--></g></svg>