<?xml version="1.0" encoding="UTF-8" standalone="no"?><svg xmlns="http://www.w3.org/2000/svg" xmlns:xlink="http://www.w3.org/1999/xlink" contentStyleType="text/css" height="482px" preserveAspectRatio="none" style="width:756px;height:482px;background:#FFFFFF;" version="1.1" viewBox="0 0 756 482" width="756px" zoomAndPan="magnify"><defs/><g><!--cluster chasseaumonstre.views--><g id="cluster_chasseaumonstre.views"><path d="M8.5,6 L201.5,6 A3.75,3.75 0 0 1 204,8.5 L211,28.2969 L746.5,28.2969 A2.5,2.5 0 0 1 749,30.7969 L749,454.5 A2.5,2.5 0 0 1 746.5,457 L8.5,457 A2.5,2.5 0 0 1 6,454.5 L6,8.5 A2.5,2.5 0 0 1 8.5,6 " fill="none" style="stroke:#000000;stroke-width:1.5;"/><line style="stroke:#000000;stroke-width:1.5;" x1="6" x2="211" y1="28.2969" y2="28.2969"/><text fill="#000000" font-family="sans-serif" font-size="14" font-weight="bold" lengthAdjust="spacing" textLength="192" x="10" y="20.9951">chasseaumonstre.views</text></g><!--class chasseaumonstre.views.MHHunterView--><a href="MHHunterView.html" target="_top" title="MHHunterView.html" xlink:actuate="onRequest" xlink:href="MHHunterView.html" xlink:show="new" xlink:title="MHHunterView.html" xlink:type="simple"><g id="elem_chasseaumonstre.views.MHHunterView"><rect codeLine="3" fill="#F1F1F1" height="210.9688" id="chasseaumonstre.views.MHHunterView" rx="2.5" ry="2.5" style="stroke:#181818;stroke-width:0.5;" width="321" x="22.5" y="230"/><ellipse cx="128.25" cy="246" fill="#ADD1B2" rx="11" ry="11" style="stroke:#181818;stroke-width:1.0;"/><path d="M131.2188,251.6406 Q130.6406,251.9375 130,252.0781 Q129.3594,252.2344 128.6563,252.2344 Q126.1563,252.2344 124.8281,250.5938 Q123.5156,248.9375 123.5156,245.8125 Q123.5156,242.6875 124.8281,241.0313 Q126.1563,239.375 128.6563,239.375 Q129.3594,239.375 130,239.5313 Q130.6563,239.6875 131.2188,239.9844 L131.2188,242.7031 Q130.5938,242.125 130,241.8594 Q129.4063,241.5781 128.7813,241.5781 Q127.4375,241.5781 126.75,242.6563 Q126.0625,243.7188 126.0625,245.8125 Q126.0625,247.9063 126.75,248.9844 Q127.4375,250.0469 128.7813,250.0469 Q129.4063,250.0469 130,249.7813 Q130.5938,249.5 131.2188,248.9219 L131.2188,251.6406 Z " fill="#000000"/><text fill="#000000" font-family="sans-serif" font-size="14" lengthAdjust="spacing" textLength="101" x="148.75" y="250.8467">MHHunterView</text><line style="stroke:#181818;stroke-width:0.5;" x1="23.5" x2="342.5" y1="262" y2="262"/><rect fill="none" height="6" style="stroke:#C82930;stroke-width:1.0;" width="6" x="30.5" y="272.6484"/><text fill="#000000" font-family="sans-serif" font-size="14" lengthAdjust="spacing" textLength="88" x="42.5" y="278.9951">stage: Stage</text><rect fill="none" height="6" style="stroke:#C82930;stroke-width:1.0;" width="6" x="30.5" y="288.9453"/><text fill="#000000" font-family="sans-serif" font-size="14" lengthAdjust="spacing" textLength="210" x="42.5" y="295.292">controller: MHHunterController</text><rect fill="none" height="6" style="stroke:#C82930;stroke-width:1.0;" width="6" x="30.5" y="305.2422"/><text fill="#000000" font-family="sans-serif" font-size="14" lengthAdjust="spacing" textLength="110" x="42.5" y="311.5889">maze: GridPane</text><rect fill="none" height="6" style="stroke:#C82930;stroke-width:1.0;" width="6" x="30.5" y="321.5391"/><text fill="#000000" font-family="sans-serif" font-size="14" lengthAdjust="spacing" text-decoration="underline" textLength="239" x="42.5" y="327.8857">HUNTER_CROSSHAIR_PATH: String</text><line style="stroke:#181818;stroke-width:0.5;" x1="23.5" x2="342.5" y1="335.1875" y2="335.1875"/><ellipse cx="33.5" cy="348.8359" fill="#84BE84" rx="3" ry="3" style="stroke:#038048;stroke-width:1.0;"/><text fill="#000000" font-family="sans-serif" font-size="14" lengthAdjust="spacing" textLength="295" x="42.5" y="352.1826">MHHunterView(Stage, MHHunterController)</text><ellipse cx="33.5" cy="365.1328" fill="#84BE84" rx="3" ry="3" style="stroke:#038048;stroke-width:1.0;"/><text fill="#000000" font-family="sans-serif" font-size="14" lengthAdjust="spacing" textLength="93" x="42.5" y="368.4795">render(): void</text><rect fill="#F24D5C" height="6" style="stroke:#C82930;stroke-width:1.0;" width="6" x="30.5" y="378.4297"/><text fill="#000000" font-family="sans-serif" font-size="14" lengthAdjust="spacing" textLength="80" x="42.5" y="384.7764">draw(): void</text><ellipse cx="33.5" cy="397.7266" fill="#84BE84" rx="3" ry="3" style="stroke:#038048;stroke-width:1.0;"/><text fill="#000000" font-family="sans-serif" font-size="14" lengthAdjust="spacing" text-decoration="underline" textLength="245" x="42.5" y="401.0732">isOnBorder(int, int, int, int): boolean</text><ellipse cx="33.5" cy="414.0234" fill="#84BE84" rx="3" ry="3" style="stroke:#038048;stroke-width:1.0;"/><text fill="#000000" font-family="sans-serif" font-size="14" lengthAdjust="spacing" textLength="142" x="42.5" y="417.3701">getMaze(): GridPane</text><ellipse cx="33.5" cy="430.3203" fill="#84BE84" rx="3" ry="3" style="stroke:#038048;stroke-width:1.0;"/><text fill="#000000" font-family="sans-serif" font-size="14" lengthAdjust="spacing" textLength="96" x="42.5" y="433.667">update(): void</text></g></a><!--class chasseaumonstre.views.MHMonsterView--><a href="MHMonsterView.html" target="_top" title="MHMonsterView.html" xlink:actuate="onRequest" xlink:href="MHMonsterView.html" xlink:show="new" xlink:title="MHMonsterView.html" xlink:type="simple"><g id="elem_chasseaumonstre.views.MHMonsterView"><rect codeLine="16" fill="#F1F1F1" height="178.375" id="chasseaumonstre.views.MHMonsterView" rx="2.5" ry="2.5" style="stroke:#181818;stroke-width:0.5;" width="341" x="378.5" y="246.5"/><ellipse cx="489.25" cy="262.5" fill="#ADD1B2" rx="11" ry="11" style="stroke:#181818;stroke-width:1.0;"/><path d="M492.2188,268.1406 Q491.6406,268.4375 491,268.5781 Q490.3594,268.7344 489.6563,268.7344 Q487.1563,268.7344 485.8281,267.0938 Q484.5156,265.4375 484.5156,262.3125 Q484.5156,259.1875 485.8281,257.5313 Q487.1563,255.875 489.6563,255.875 Q490.3594,255.875 491,256.0313 Q491.6563,256.1875 492.2188,256.4844 L492.2188,259.2031 Q491.5938,258.625 491,258.3594 Q490.4063,258.0781 489.7813,258.0781 Q488.4375,258.0781 487.75,259.1563 Q487.0625,260.2188 487.0625,262.3125 Q487.0625,264.4063 487.75,265.4844 Q488.4375,266.5469 489.7813,266.5469 Q490.4063,266.5469 491,266.2813 Q491.5938,266 492.2188,265.4219 L492.2188,268.1406 Z " fill="#000000"/><text fill="#000000" font-family="sans-serif" font-size="14" lengthAdjust="spacing" textLength="111" x="509.75" y="267.3467">MHMonsterView</text><line style="stroke:#181818;stroke-width:0.5;" x1="379.5" x2="718.5" y1="278.5" y2="278.5"/><rect fill="none" height="6" style="stroke:#C82930;stroke-width:1.0;" width="6" x="386.5" y="289.1484"/><text fill="#000000" font-family="sans-serif" font-size="14" lengthAdjust="spacing" text-decoration="underline" textLength="251" x="398.5" y="295.4951">MONSTER_CROSSHAIR_PATH: String</text><rect fill="none" height="6" style="stroke:#C82930;stroke-width:1.0;" width="6" x="386.5" y="305.4453"/><text fill="#000000" font-family="sans-serif" font-size="14" lengthAdjust="spacing" textLength="88" x="398.5" y="311.792">stage: Stage</text><rect fill="none" height="6" style="stroke:#C82930;stroke-width:1.0;" width="6" x="386.5" y="321.7422"/><text fill="#000000" font-family="sans-serif" font-size="14" lengthAdjust="spacing" textLength="220" x="398.5" y="328.0889">controller: MHMonsterController</text><rect fill="none" height="6" style="stroke:#C82930;stroke-width:1.0;" width="6" x="386.5" y="338.0391"/><text fill="#000000" font-family="sans-serif" font-size="14" lengthAdjust="spacing" textLength="110" x="398.5" y="344.3857">maze: GridPane</text><line style="stroke:#181818;stroke-width:0.5;" x1="379.5" x2="718.5" y1="351.6875" y2="351.6875"/><ellipse cx="389.5" cy="365.3359" fill="#84BE84" rx="3" ry="3" style="stroke:#038048;stroke-width:1.0;"/><text fill="#000000" font-family="sans-serif" font-size="14" lengthAdjust="spacing" textLength="315" x="398.5" y="368.6826">MHMonsterView(Stage, MHMonsterController)</text><ellipse cx="389.5" cy="381.6328" fill="#84BE84" rx="3" ry="3" style="stroke:#038048;stroke-width:1.0;"/><text fill="#000000" font-family="sans-serif" font-size="14" lengthAdjust="spacing" textLength="93" x="398.5" y="384.9795">render(): void</text><rect fill="#F24D5C" height="6" style="stroke:#C82930;stroke-width:1.0;" width="6" x="386.5" y="394.9297"/><text fill="#000000" font-family="sans-serif" font-size="14" lengthAdjust="spacing" textLength="80" x="398.5" y="401.2764">draw(): void</text><ellipse cx="389.5" cy="414.2266" fill="#84BE84" rx="3" ry="3" style="stroke:#038048;stroke-width:1.0;"/><text fill="#000000" font-family="sans-serif" font-size="14" lengthAdjust="spacing" textLength="96" x="398.5" y="417.5732">update(): void</text></g></a><!--class chasseaumonstre.views.JVJView--><a href="JVJView.html" target="_top" title="JVJView.html" xlink:actuate="onRequest" xlink:href="JVJView.html" xlink:show="new" xlink:title="JVJView.html" xlink:type="simple"><g id="elem_chasseaumonstre.views.JVJView"><rect codeLine="27" fill="#F1F1F1" height="113.1875" id="chasseaumonstre.views.JVJView" rx="2.5" ry="2.5" style="stroke:#181818;stroke-width:0.5;" width="213" x="520.5" y="49"/><ellipse cx="599.25" cy="65" fill="#ADD1B2" rx="11" ry="11" style="stroke:#181818;stroke-width:1.0;"/><path d="M602.2188,70.6406 Q601.6406,70.9375 601,71.0781 Q600.3594,71.2344 599.6563,71.2344 Q597.1563,71.2344 595.8281,69.5938 Q594.5156,67.9375 594.5156,64.8125 Q594.5156,61.6875 595.8281,60.0313 Q597.1563,58.375 599.6563,58.375 Q600.3594,58.375 601,58.5313 Q601.6563,58.6875 602.2188,58.9844 L602.2188,61.7031 Q601.5938,61.125 601,60.8594 Q600.4063,60.5781 599.7813,60.5781 Q598.4375,60.5781 597.75,61.6563 Q597.0625,62.7188 597.0625,64.8125 Q597.0625,66.9063 597.75,67.9844 Q598.4375,69.0469 599.7813,69.0469 Q600.4063,69.0469 601,68.7813 Q601.5938,68.5 602.2188,67.9219 L602.2188,70.6406 Z " fill="#000000"/><text fill="#000000" font-family="sans-serif" font-size="14" lengthAdjust="spacing" textLength="47" x="619.75" y="69.8467">JVJView</text><line style="stroke:#181818;stroke-width:0.5;" x1="521.5" x2="732.5" y1="81" y2="81"/><rect fill="none" height="6" style="stroke:#C82930;stroke-width:1.0;" width="6" x="528.5" y="91.6484"/><text fill="#000000" font-family="sans-serif" font-size="14" lengthAdjust="spacing" textLength="88" x="540.5" y="97.9951">stage: Stage</text><rect fill="none" height="6" style="stroke:#C82930;stroke-width:1.0;" width="6" x="528.5" y="107.9453"/><text fill="#000000" font-family="sans-serif" font-size="14" lengthAdjust="spacing" textLength="156" x="540.5" y="114.292">controller: JVJController</text><line style="stroke:#181818;stroke-width:0.5;" x1="521.5" x2="732.5" y1="121.5938" y2="121.5938"/><ellipse cx="531.5" cy="135.2422" fill="#84BE84" rx="3" ry="3" style="stroke:#038048;stroke-width:1.0;"/><text fill="#000000" font-family="sans-serif" font-size="14" lengthAdjust="spacing" textLength="187" x="540.5" y="138.5889">JVJView(Stage, JVJController)</text><rect fill="#F24D5C" height="6" style="stroke:#C82930;stroke-width:1.0;" width="6" x="528.5" y="148.5391"/><text fill="#000000" font-family="sans-serif" font-size="14" lengthAdjust="spacing" textLength="93" x="540.5" y="154.8857">render(): void</text></g></a><!--class chasseaumonstre.views.MHMenuView--><a href="MHMenuView.html" target="_top" title="MHMenuView.html" xlink:actuate="onRequest" xlink:href="MHMenuView.html" xlink:show="new" xlink:title="MHMenuView.html" xlink:type="simple"><g id="elem_chasseaumonstre.views.MHMenuView"><rect codeLine="34" fill="#F1F1F1" height="129.4844" id="chasseaumonstre.views.MHMenuView" rx="2.5" ry="2.5" style="stroke:#181818;stroke-width:0.5;" width="305" x="180.5" y="41"/><ellipse cx="282.25" cy="57" fill="#ADD1B2" rx="11" ry="11" style="stroke:#181818;stroke-width:1.0;"/><path d="M285.2188,62.6406 Q284.6406,62.9375 284,63.0781 Q283.3594,63.2344 282.6563,63.2344 Q280.1563,63.2344 278.8281,61.5938 Q277.5156,59.9375 277.5156,56.8125 Q277.5156,53.6875 278.8281,52.0313 Q280.1563,50.375 282.6563,50.375 Q283.3594,50.375 284,50.5313 Q284.6563,50.6875 285.2188,50.9844 L285.2188,53.7031 Q284.5938,53.125 284,52.8594 Q283.4063,52.5781 282.7813,52.5781 Q281.4375,52.5781 280.75,53.6563 Q280.0625,54.7188 280.0625,56.8125 Q280.0625,58.9063 280.75,59.9844 Q281.4375,61.0469 282.7813,61.0469 Q283.4063,61.0469 284,60.7813 Q284.5938,60.5 285.2188,59.9219 L285.2188,62.6406 Z " fill="#000000"/><text fill="#000000" font-family="sans-serif" font-size="14" lengthAdjust="spacing" textLength="93" x="302.75" y="61.8467">MHMenuView</text><line style="stroke:#181818;stroke-width:0.5;" x1="181.5" x2="484.5" y1="73" y2="73"/><rect fill="none" height="6" style="stroke:#C82930;stroke-width:1.0;" width="6" x="188.5" y="83.6484"/><text fill="#000000" font-family="sans-serif" font-size="14" lengthAdjust="spacing" text-decoration="underline" textLength="162" x="200.5" y="89.9951">FXML_LOCATION: String</text><rect fill="none" height="6" style="stroke:#C82930;stroke-width:1.0;" width="6" x="188.5" y="99.9453"/><text fill="#000000" font-family="sans-serif" font-size="14" lengthAdjust="spacing" textLength="88" x="200.5" y="106.292">stage: Stage</text><rect fill="none" height="6" style="stroke:#C82930;stroke-width:1.0;" width="6" x="188.5" y="116.2422"/><text fill="#000000" font-family="sans-serif" font-size="14" lengthAdjust="spacing" textLength="202" x="200.5" y="122.5889">controller: MHMenuController</text><line style="stroke:#181818;stroke-width:0.5;" x1="181.5" x2="484.5" y1="129.8906" y2="129.8906"/><ellipse cx="191.5" cy="143.5391" fill="#84BE84" rx="3" ry="3" style="stroke:#038048;stroke-width:1.0;"/><text fill="#000000" font-family="sans-serif" font-size="14" lengthAdjust="spacing" textLength="279" x="200.5" y="146.8857">MHMenuView(Stage, MHMenuController)</text><rect fill="#F24D5C" height="6" style="stroke:#C82930;stroke-width:1.0;" width="6" x="188.5" y="156.8359"/><text fill="#000000" font-family="sans-serif" font-size="14" lengthAdjust="spacing" textLength="93" x="200.5" y="163.1826">render(): void</text></g></a><!--class chasseaumonstre.views.IPlayerView--><a href="IPlayerView.html" target="_top" title="IPlayerView.html" xlink:actuate="onRequest" xlink:href="IPlayerView.html" xlink:show="new" xlink:title="IPlayerView.html" xlink:type="simple"><g id="elem_chasseaumonstre.views.IPlayerView"><rect codeLine="42" fill="#F1F1F1" height="96.8906" id="chasseaumonstre.views.IPlayerView" rx="2.5" ry="2.5" style="stroke:#181818;stroke-width:0.5;" width="123" x="22.5" y="57"/><ellipse cx="43.35" cy="73" fill="#B4A7E5" rx="11" ry="11" style="stroke:#181818;stroke-width:1.0;"/><path d="M39.2719,68.7656 L39.2719,66.6094 L46.6625,66.6094 L46.6625,68.7656 L44.1938,68.7656 L44.1938,76.8438 L46.6625,76.8438 L46.6625,79 L39.2719,79 L39.2719,76.8438 L41.7406,76.8438 L41.7406,68.7656 L39.2719,68.7656 Z " fill="#000000"/><text fill="#000000" font-family="sans-serif" font-size="14" font-style="italic" lengthAdjust="spacing" textLength="78" x="58.65" y="77.8467">IPlayerView</text><line style="stroke:#181818;stroke-width:0.5;" x1="23.5" x2="144.5" y1="89" y2="89"/><line style="stroke:#181818;stroke-width:0.5;" x1="23.5" x2="144.5" y1="97" y2="97"/><ellipse cx="33.5" cy="110.6484" fill="#84BE84" rx="3" ry="3" style="stroke:#038048;stroke-width:1.0;"/><text fill="#000000" font-family="sans-serif" font-size="14" font-style="italic" lengthAdjust="spacing" textLength="94" x="42.5" y="113.9951">render(): void</text><rect fill="#F24D5C" height="6" style="stroke:#C82930;stroke-width:1.0;" width="6" x="30.5" y="123.9453"/><text fill="#000000" font-family="sans-serif" font-size="14" lengthAdjust="spacing" textLength="80" x="42.5" y="130.292">draw(): void</text><ellipse cx="33.5" cy="143.2422" fill="#84BE84" rx="3" ry="3" style="stroke:#038048;stroke-width:1.0;"/><text fill="#000000" font-family="sans-serif" font-size="14" font-style="italic" lengthAdjust="spacing" textLength="97" x="42.5" y="146.5889">update(): void</text></g></a><!--reverse link chasseaumonstre.views.IPlayerView to chasseaumonstre.views.MHHunterView--><g id="link_chasseaumonstre.views.IPlayerView_chasseaumonstre.views.MHHunterView"><path codeLine="48" d="M112.69,172.57 C120.45,190.46 129.06,210.27 137.51,229.72 " fill="none" id="chasseaumonstre.views.IPlayerView-backto-chasseaumonstre.views.MHHunterView" style="stroke:#181818;stroke-width:1.0;stroke-dasharray:7.0,7.0;"/><polygon fill="none" points="106.18,175.15,104.63,154.02,119.02,169.58,106.18,175.15" style="stroke:#181818;stroke-width:1.0;"/></g><!--reverse link chasseaumonstre.views.IPlayerView to chasseaumonstre.views.MHMonsterView--><g id="link_chasseaumonstre.views.IPlayerView_chasseaumonstre.views.MHMonsterView"><path codeLine="49" d="M154.6,165.26 C157.39,166.93 160.19,168.52 163,170 C244.32,212.92 276.33,194.13 361,230 C372.86,235.03 384.94,240.6 396.96,246.47 " fill="none" id="chasseaumonstre.views.IPlayerView-backto-chasseaumonstre.views.MHMonsterView" style="stroke:#181818;stroke-width:1.0;stroke-dasharray:7.0,7.0;"/><polygon fill="none" points="150.6,171,137.8,154.11,158.33,159.33,150.6,171" style="stroke:#181818;stroke-width:1.0;"/></g><text fill="#888888" font-family="sans-serif" font-size="10" lengthAdjust="spacing" textLength="186" x="278" y="472.2822">UMLDoclet 2.1.0, PlantUML 1.2022.14</text><!--SRC=[hLHBRy8m3BxpAtoP12fKsuve5yOU1L6AU6aIGYYq1YAL1AK1j37- -vAfWqIKmM0vD4rYVtvyjW4069bZiY0XGZWZIO9aEUSiaGBT5SLr0fjS3j8Lnae0VCzRCecYhvvXC32FxapEu-5GwO2nIeaaKon3Hs_sIyYP53oEKPHtkDNTdIqx9nyAv5NGg4MOZRDH5YGDjr3oUitkStjKRGUTZbUfjKUjIjVJfWLbKql7CHtFV_jMpF2XO2i9P16AVA4CAquZsy58a7NcoyuzXoO1U-H2Gr0cYs1zbEgOynW9isrEKVegTWsT6RspN4H4ue7fxI5plgRMeCuuPtEtpwmVD3jdflPimbFp5p3kMBxlwJj0_0_-pavmlLzFKvl-NTKG2kD8PfmK_YTkIzAEk7GaugpYGBRSLqPwE5KMBsz-OzG8gfLkBMXUMGtAvB60zmuPN5loVmwRwaQVwC5NQyNaVTSLnkb8y6IivYC9vVRIUM00d2ujqxk7JzUr1l1lKaQ3v0pC4BKoJ3ZNMyzlFF4mHWdtxfrxMmI5mwIwXPiLYeHobYzy0G00]--></g></svg>