<?xml version="1.0" encoding="UTF-8" standalone="no"?><svg xmlns="http://www.w3.org/2000/svg" xmlns:xlink="http://www.w3.org/1999/xlink" contentStyleType="text/css" height="482px" preserveAspectRatio="none" style="width:1331px;height:482px;background:#FFFFFF;" version="1.1" viewBox="0 0 1331 482" width="1331px" zoomAndPan="magnify"><defs/><g><!--cluster chasseaumonstre.views--><g id="cluster_chasseaumonstre.views"><path d="M8.5,162 L201.5,162 A3.75,3.75 0 0 1 204,164.5 L211,184.2969 L1321.5,184.2969 A2.5,2.5 0 0 1 1324,186.7969 L1324,454.5 A2.5,2.5 0 0 1 1321.5,457 L8.5,457 A2.5,2.5 0 0 1 6,454.5 L6,164.5 A2.5,2.5 0 0 1 8.5,162 " fill="none" style="stroke:#000000;stroke-width:1.5;"/><line style="stroke:#000000;stroke-width:1.5;" x1="6" x2="211" y1="184.2969" y2="184.2969"/><text fill="#000000" font-family="sans-serif" font-size="14" font-weight="bold" lengthAdjust="spacing" textLength="192" x="10" y="176.9951">chasseaumonstre.views</text></g><!--cluster SubjectObserver--><g id="cluster_SubjectObserver"><path d="M836.5,6 L970.5,6 A3.75,3.75 0 0 1 973,8.5 L980,28.2969 L1091.5,28.2969 A2.5,2.5 0 0 1 1094,30.7969 L1094,135.5 A2.5,2.5 0 0 1 1091.5,138 L836.5,138 A2.5,2.5 0 0 1 834,135.5 L834,8.5 A2.5,2.5 0 0 1 836.5,6 " fill="none" style="stroke:#000000;stroke-width:1.5;"/><line style="stroke:#000000;stroke-width:1.5;" x1="834" x2="980" y1="28.2969" y2="28.2969"/><text fill="#000000" font-family="sans-serif" font-size="14" font-weight="bold" lengthAdjust="spacing" textLength="133" x="838" y="20.9951">SubjectObserver</text></g><!--class chasseaumonstre.views.MHHunterView--><a href="MHHunterView.html" target="_top" title="MHHunterView.html" xlink:actuate="onRequest" xlink:href="MHHunterView.html" xlink:show="new" xlink:title="MHHunterView.html" xlink:type="simple"><g id="elem_chasseaumonstre.views.MHHunterView"><rect codeLine="3" fill="#F1F1F1" height="243.5625" id="chasseaumonstre.views.MHHunterView" rx="2.5" ry="2.5" style="stroke:#181818;stroke-width:0.5;" width="321" x="986.5" y="197"/><ellipse cx="1092.25" cy="213" fill="#ADD1B2" rx="11" ry="11" style="stroke:#181818;stroke-width:1.0;"/><path d="M1095.2188,218.6406 Q1094.6406,218.9375 1094,219.0781 Q1093.3594,219.2344 1092.6563,219.2344 Q1090.1563,219.2344 1088.8281,217.5938 Q1087.5156,215.9375 1087.5156,212.8125 Q1087.5156,209.6875 1088.8281,208.0313 Q1090.1563,206.375 1092.6563,206.375 Q1093.3594,206.375 1094,206.5313 Q1094.6563,206.6875 1095.2188,206.9844 L1095.2188,209.7031 Q1094.5938,209.125 1094,208.8594 Q1093.4063,208.5781 1092.7813,208.5781 Q1091.4375,208.5781 1090.75,209.6563 Q1090.0625,210.7188 1090.0625,212.8125 Q1090.0625,214.9063 1090.75,215.9844 Q1091.4375,217.0469 1092.7813,217.0469 Q1093.4063,217.0469 1094,216.7813 Q1094.5938,216.5 1095.2188,215.9219 L1095.2188,218.6406 Z " fill="#000000"/><text fill="#000000" font-family="sans-serif" font-size="14" lengthAdjust="spacing" textLength="101" x="1112.75" y="217.8467">MHHunterView</text><line style="stroke:#181818;stroke-width:0.5;" x1="987.5" x2="1306.5" y1="229" y2="229"/><rect fill="none" height="6" style="stroke:#C82930;stroke-width:1.0;" width="6" x="994.5" y="239.6484"/><text fill="#000000" font-family="sans-serif" font-size="14" lengthAdjust="spacing" textLength="88" x="1006.5" y="245.9951">stage: Stage</text><rect fill="none" height="6" style="stroke:#C82930;stroke-width:1.0;" width="6" x="994.5" y="255.9453"/><text fill="#000000" font-family="sans-serif" font-size="14" lengthAdjust="spacing" textLength="210" x="1006.5" y="262.292">controller: MHHunterController</text><rect fill="none" height="6" style="stroke:#C82930;stroke-width:1.0;" width="6" x="994.5" y="272.2422"/><text fill="#000000" font-family="sans-serif" font-size="14" lengthAdjust="spacing" textLength="110" x="1006.5" y="278.5889">maze: GridPane</text><rect fill="none" height="6" style="stroke:#C82930;stroke-width:1.0;" width="6" x="994.5" y="288.5391"/><text fill="#000000" font-family="sans-serif" font-size="14" lengthAdjust="spacing" text-decoration="underline" textLength="239" x="1006.5" y="294.8857">HUNTER_CROSSHAIR_PATH: String</text><line style="stroke:#181818;stroke-width:0.5;" x1="987.5" x2="1306.5" y1="302.1875" y2="302.1875"/><ellipse cx="997.5" cy="315.8359" fill="#84BE84" rx="3" ry="3" style="stroke:#038048;stroke-width:1.0;"/><text fill="#000000" font-family="sans-serif" font-size="14" lengthAdjust="spacing" textLength="295" x="1006.5" y="319.1826">MHHunterView(Stage, MHHunterController)</text><ellipse cx="997.5" cy="332.1328" fill="#84BE84" rx="3" ry="3" style="stroke:#038048;stroke-width:1.0;"/><text fill="#000000" font-family="sans-serif" font-size="14" lengthAdjust="spacing" textLength="93" x="1006.5" y="335.4795">render(): void</text><rect fill="#F24D5C" height="6" style="stroke:#C82930;stroke-width:1.0;" width="6" x="994.5" y="345.4297"/><text fill="#000000" font-family="sans-serif" font-size="14" lengthAdjust="spacing" textLength="80" x="1006.5" y="351.7764">draw(): void</text><ellipse cx="997.5" cy="364.7266" fill="#84BE84" rx="3" ry="3" style="stroke:#038048;stroke-width:1.0;"/><text fill="#000000" font-family="sans-serif" font-size="14" lengthAdjust="spacing" text-decoration="underline" textLength="245" x="1006.5" y="368.0732">isOnBorder(int, int, int, int): boolean</text><ellipse cx="997.5" cy="381.0234" fill="#84BE84" rx="3" ry="3" style="stroke:#038048;stroke-width:1.0;"/><text fill="#000000" font-family="sans-serif" font-size="14" lengthAdjust="spacing" textLength="142" x="1006.5" y="384.3701">getMaze(): GridPane</text><ellipse cx="997.5" cy="397.3203" fill="#84BE84" rx="3" ry="3" style="stroke:#038048;stroke-width:1.0;"/><text fill="#000000" font-family="sans-serif" font-size="14" lengthAdjust="spacing" textLength="96" x="1006.5" y="400.667">update(): void</text><ellipse cx="997.5" cy="413.6172" fill="#84BE84" rx="3" ry="3" style="stroke:#038048;stroke-width:1.0;"/><text fill="#000000" font-family="sans-serif" font-size="14" lengthAdjust="spacing" textLength="148" x="1006.5" y="416.9639">update(Subject): void</text><ellipse cx="997.5" cy="429.9141" fill="#84BE84" rx="3" ry="3" style="stroke:#038048;stroke-width:1.0;"/><text fill="#000000" font-family="sans-serif" font-size="14" lengthAdjust="spacing" textLength="201" x="1006.5" y="433.2607">update(Subject, Object): void</text></g></a><!--class chasseaumonstre.views.MHMonsterView--><a href="MHMonsterView.html" target="_top" title="MHMonsterView.html" xlink:actuate="onRequest" xlink:href="MHMonsterView.html" xlink:show="new" xlink:title="MHMonsterView.html" xlink:type="simple"><g id="elem_chasseaumonstre.views.MHMonsterView"><rect codeLine="18" fill="#F1F1F1" height="243.5625" id="chasseaumonstre.views.MHMonsterView" rx="2.5" ry="2.5" style="stroke:#181818;stroke-width:0.5;" width="341" x="610.5" y="197"/><ellipse cx="721.25" cy="213" fill="#ADD1B2" rx="11" ry="11" style="stroke:#181818;stroke-width:1.0;"/><path d="M724.2188,218.6406 Q723.6406,218.9375 723,219.0781 Q722.3594,219.2344 721.6563,219.2344 Q719.1563,219.2344 717.8281,217.5938 Q716.5156,215.9375 716.5156,212.8125 Q716.5156,209.6875 717.8281,208.0313 Q719.1563,206.375 721.6563,206.375 Q722.3594,206.375 723,206.5313 Q723.6563,206.6875 724.2188,206.9844 L724.2188,209.7031 Q723.5938,209.125 723,208.8594 Q722.4063,208.5781 721.7813,208.5781 Q720.4375,208.5781 719.75,209.6563 Q719.0625,210.7188 719.0625,212.8125 Q719.0625,214.9063 719.75,215.9844 Q720.4375,217.0469 721.7813,217.0469 Q722.4063,217.0469 723,216.7813 Q723.5938,216.5 724.2188,215.9219 L724.2188,218.6406 Z " fill="#000000"/><text fill="#000000" font-family="sans-serif" font-size="14" lengthAdjust="spacing" textLength="111" x="741.75" y="217.8467">MHMonsterView</text><line style="stroke:#181818;stroke-width:0.5;" x1="611.5" x2="950.5" y1="229" y2="229"/><rect fill="none" height="6" style="stroke:#C82930;stroke-width:1.0;" width="6" x="618.5" y="239.6484"/><text fill="#000000" font-family="sans-serif" font-size="14" lengthAdjust="spacing" text-decoration="underline" textLength="251" x="630.5" y="245.9951">MONSTER_CROSSHAIR_PATH: String</text><rect fill="none" height="6" style="stroke:#C82930;stroke-width:1.0;" width="6" x="618.5" y="255.9453"/><text fill="#000000" font-family="sans-serif" font-size="14" lengthAdjust="spacing" textLength="88" x="630.5" y="262.292">stage: Stage</text><rect fill="none" height="6" style="stroke:#C82930;stroke-width:1.0;" width="6" x="618.5" y="272.2422"/><text fill="#000000" font-family="sans-serif" font-size="14" lengthAdjust="spacing" textLength="220" x="630.5" y="278.5889">controller: MHMonsterController</text><rect fill="none" height="6" style="stroke:#C82930;stroke-width:1.0;" width="6" x="618.5" y="288.5391"/><text fill="#000000" font-family="sans-serif" font-size="14" lengthAdjust="spacing" textLength="110" x="630.5" y="294.8857">maze: GridPane</text><rect fill="none" height="6" style="stroke:#C82930;stroke-width:1.0;" width="6" x="618.5" y="304.8359"/><text fill="#000000" font-family="sans-serif" font-size="14" lengthAdjust="spacing" textLength="130" x="630.5" y="311.1826">otherImage: Image</text><rect fill="none" height="6" style="stroke:#C82930;stroke-width:1.0;" width="6" x="618.5" y="321.1328"/><text fill="#000000" font-family="sans-serif" font-size="14" lengthAdjust="spacing" textLength="233" x="630.5" y="327.4795">patternInRectangle: ImagePattern</text><line style="stroke:#181818;stroke-width:0.5;" x1="611.5" x2="950.5" y1="334.7813" y2="334.7813"/><ellipse cx="621.5" cy="348.4297" fill="#84BE84" rx="3" ry="3" style="stroke:#038048;stroke-width:1.0;"/><text fill="#000000" font-family="sans-serif" font-size="14" lengthAdjust="spacing" textLength="315" x="630.5" y="351.7764">MHMonsterView(Stage, MHMonsterController)</text><ellipse cx="621.5" cy="364.7266" fill="#84BE84" rx="3" ry="3" style="stroke:#038048;stroke-width:1.0;"/><text fill="#000000" font-family="sans-serif" font-size="14" lengthAdjust="spacing" textLength="93" x="630.5" y="368.0732">render(): void</text><rect fill="#F24D5C" height="6" style="stroke:#C82930;stroke-width:1.0;" width="6" x="618.5" y="378.0234"/><text fill="#000000" font-family="sans-serif" font-size="14" lengthAdjust="spacing" textLength="80" x="630.5" y="384.3701">draw(): void</text><ellipse cx="621.5" cy="397.3203" fill="#84BE84" rx="3" ry="3" style="stroke:#038048;stroke-width:1.0;"/><text fill="#000000" font-family="sans-serif" font-size="14" lengthAdjust="spacing" textLength="96" x="630.5" y="400.667">update(): void</text><ellipse cx="621.5" cy="413.6172" fill="#84BE84" rx="3" ry="3" style="stroke:#038048;stroke-width:1.0;"/><text fill="#000000" font-family="sans-serif" font-size="14" lengthAdjust="spacing" textLength="148" x="630.5" y="416.9639">update(Subject): void</text><ellipse cx="621.5" cy="429.9141" fill="#84BE84" rx="3" ry="3" style="stroke:#038048;stroke-width:1.0;"/><text fill="#000000" font-family="sans-serif" font-size="14" lengthAdjust="spacing" textLength="201" x="630.5" y="433.2607">update(Subject, Object): void</text></g></a><!--class chasseaumonstre.views.JVJView--><a href="JVJView.html" target="_top" title="JVJView.html" xlink:actuate="onRequest" xlink:href="JVJView.html" xlink:show="new" xlink:title="JVJView.html" xlink:type="simple"><g id="elem_chasseaumonstre.views.JVJView"><rect codeLine="33" fill="#F1F1F1" height="113.1875" id="chasseaumonstre.views.JVJView" rx="2.5" ry="2.5" style="stroke:#181818;stroke-width:0.5;" width="213" x="362.5" y="262.5"/><ellipse cx="441.25" cy="278.5" fill="#ADD1B2" rx="11" ry="11" style="stroke:#181818;stroke-width:1.0;"/><path d="M444.2188,284.1406 Q443.6406,284.4375 443,284.5781 Q442.3594,284.7344 441.6563,284.7344 Q439.1563,284.7344 437.8281,283.0938 Q436.5156,281.4375 436.5156,278.3125 Q436.5156,275.1875 437.8281,273.5313 Q439.1563,271.875 441.6563,271.875 Q442.3594,271.875 443,272.0313 Q443.6563,272.1875 444.2188,272.4844 L444.2188,275.2031 Q443.5938,274.625 443,274.3594 Q442.4063,274.0781 441.7813,274.0781 Q440.4375,274.0781 439.75,275.1563 Q439.0625,276.2188 439.0625,278.3125 Q439.0625,280.4063 439.75,281.4844 Q440.4375,282.5469 441.7813,282.5469 Q442.4063,282.5469 443,282.2813 Q443.5938,282 444.2188,281.4219 L444.2188,284.1406 Z " fill="#000000"/><text fill="#000000" font-family="sans-serif" font-size="14" lengthAdjust="spacing" textLength="47" x="461.75" y="283.3467">JVJView</text><line style="stroke:#181818;stroke-width:0.5;" x1="363.5" x2="574.5" y1="294.5" y2="294.5"/><rect fill="none" height="6" style="stroke:#C82930;stroke-width:1.0;" width="6" x="370.5" y="305.1484"/><text fill="#000000" font-family="sans-serif" font-size="14" lengthAdjust="spacing" textLength="88" x="382.5" y="311.4951">stage: Stage</text><rect fill="none" height="6" style="stroke:#C82930;stroke-width:1.0;" width="6" x="370.5" y="321.4453"/><text fill="#000000" font-family="sans-serif" font-size="14" lengthAdjust="spacing" textLength="156" x="382.5" y="327.792">controller: JVJController</text><line style="stroke:#181818;stroke-width:0.5;" x1="363.5" x2="574.5" y1="335.0938" y2="335.0938"/><ellipse cx="373.5" cy="348.7422" fill="#84BE84" rx="3" ry="3" style="stroke:#038048;stroke-width:1.0;"/><text fill="#000000" font-family="sans-serif" font-size="14" lengthAdjust="spacing" textLength="187" x="382.5" y="352.0889">JVJView(Stage, JVJController)</text><rect fill="#F24D5C" height="6" style="stroke:#C82930;stroke-width:1.0;" width="6" x="370.5" y="362.0391"/><text fill="#000000" font-family="sans-serif" font-size="14" lengthAdjust="spacing" textLength="93" x="382.5" y="368.3857">render(): void</text></g></a><!--class chasseaumonstre.views.MHMenuView--><a href="MHMenuView.html" target="_top" title="MHMenuView.html" xlink:actuate="onRequest" xlink:href="MHMenuView.html" xlink:show="new" xlink:title="MHMenuView.html" xlink:type="simple"><g id="elem_chasseaumonstre.views.MHMenuView"><rect codeLine="40" fill="#F1F1F1" height="129.4844" id="chasseaumonstre.views.MHMenuView" rx="2.5" ry="2.5" style="stroke:#181818;stroke-width:0.5;" width="305" x="22.5" y="254.5"/><ellipse cx="124.25" cy="270.5" fill="#ADD1B2" rx="11" ry="11" style="stroke:#181818;stroke-width:1.0;"/><path d="M127.2188,276.1406 Q126.6406,276.4375 126,276.5781 Q125.3594,276.7344 124.6563,276.7344 Q122.1563,276.7344 120.8281,275.0938 Q119.5156,273.4375 119.5156,270.3125 Q119.5156,267.1875 120.8281,265.5313 Q122.1563,263.875 124.6563,263.875 Q125.3594,263.875 126,264.0313 Q126.6563,264.1875 127.2188,264.4844 L127.2188,267.2031 Q126.5938,266.625 126,266.3594 Q125.4063,266.0781 124.7813,266.0781 Q123.4375,266.0781 122.75,267.1563 Q122.0625,268.2188 122.0625,270.3125 Q122.0625,272.4063 122.75,273.4844 Q123.4375,274.5469 124.7813,274.5469 Q125.4063,274.5469 126,274.2813 Q126.5938,274 127.2188,273.4219 L127.2188,276.1406 Z " fill="#000000"/><text fill="#000000" font-family="sans-serif" font-size="14" lengthAdjust="spacing" textLength="93" x="144.75" y="275.3467">MHMenuView</text><line style="stroke:#181818;stroke-width:0.5;" x1="23.5" x2="326.5" y1="286.5" y2="286.5"/><rect fill="none" height="6" style="stroke:#C82930;stroke-width:1.0;" width="6" x="30.5" y="297.1484"/><text fill="#000000" font-family="sans-serif" font-size="14" lengthAdjust="spacing" text-decoration="underline" textLength="162" x="42.5" y="303.4951">FXML_LOCATION: String</text><rect fill="none" height="6" style="stroke:#C82930;stroke-width:1.0;" width="6" x="30.5" y="313.4453"/><text fill="#000000" font-family="sans-serif" font-size="14" lengthAdjust="spacing" textLength="88" x="42.5" y="319.792">stage: Stage</text><rect fill="none" height="6" style="stroke:#C82930;stroke-width:1.0;" width="6" x="30.5" y="329.7422"/><text fill="#000000" font-family="sans-serif" font-size="14" lengthAdjust="spacing" textLength="202" x="42.5" y="336.0889">controller: MHMenuController</text><line style="stroke:#181818;stroke-width:0.5;" x1="23.5" x2="326.5" y1="343.3906" y2="343.3906"/><ellipse cx="33.5" cy="357.0391" fill="#84BE84" rx="3" ry="3" style="stroke:#038048;stroke-width:1.0;"/><text fill="#000000" font-family="sans-serif" font-size="14" lengthAdjust="spacing" textLength="279" x="42.5" y="360.3857">MHMenuView(Stage, MHMenuController)</text><rect fill="#F24D5C" height="6" style="stroke:#C82930;stroke-width:1.0;" width="6" x="30.5" y="370.3359"/><text fill="#000000" font-family="sans-serif" font-size="14" lengthAdjust="spacing" textLength="93" x="42.5" y="376.6826">render(): void</text></g></a><!--class SubjectObserver.Observer--><g id="elem_SubjectObserver.Observer"><rect codeLine="53" fill="#F1F1F1" height="80.5938" id="SubjectObserver.Observer" rx="2.5" ry="2.5" style="stroke:#181818;stroke-width:0.5;" width="228" x="850" y="41"/><ellipse cx="928.25" cy="57" fill="#B4A7E5" rx="11" ry="11" style="stroke:#181818;stroke-width:1.0;"/><path d="M924.1719,52.7656 L924.1719,50.6094 L931.5625,50.6094 L931.5625,52.7656 L929.0938,52.7656 L929.0938,60.8438 L931.5625,60.8438 L931.5625,63 L924.1719,63 L924.1719,60.8438 L926.6406,60.8438 L926.6406,52.7656 L924.1719,52.7656 Z " fill="#000000"/><text fill="#000000" font-family="sans-serif" font-size="14" font-style="italic" lengthAdjust="spacing" textLength="63" x="948.75" y="61.8467">Observer</text><line style="stroke:#181818;stroke-width:0.5;" x1="851" x2="1077" y1="73" y2="73"/><line style="stroke:#181818;stroke-width:0.5;" x1="851" x2="1077" y1="81" y2="81"/><ellipse cx="861" cy="94.6484" fill="#84BE84" rx="3" ry="3" style="stroke:#038048;stroke-width:1.0;"/><text fill="#000000" font-family="sans-serif" font-size="14" font-style="italic" lengthAdjust="spacing" textLength="149" x="870" y="97.9951">update(Subject): void</text><ellipse cx="861" cy="110.9453" fill="#84BE84" rx="3" ry="3" style="stroke:#038048;stroke-width:1.0;"/><text fill="#000000" font-family="sans-serif" font-size="14" font-style="italic" lengthAdjust="spacing" textLength="202" x="870" y="114.292">update(Subject, Object): void</text></g><!--reverse link SubjectObserver.Observer to chasseaumonstre.views.MHHunterView--><g id="link_SubjectObserver.Observer_chasseaumonstre.views.MHHunterView"><path codeLine="48" d="M1007.14,138.02 C1020.96,155.8 1036.85,176.25 1052.84,196.83 " fill="none" id="SubjectObserver.Observer-backto-chasseaumonstre.views.MHHunterView" style="stroke:#181818;stroke-width:1.0;stroke-dasharray:7.0,7.0;"/><polygon fill="none" points="1001.58,142.27,994.84,122.18,1012.64,133.68,1001.58,142.27" style="stroke:#181818;stroke-width:1.0;"/></g><!--reverse link SubjectObserver.Observer to chasseaumonstre.views.MHMonsterView--><g id="link_SubjectObserver.Observer_chasseaumonstre.views.MHMonsterView"><path codeLine="49" d="M920.86,138.02 C907.04,155.8 891.15,176.25 875.16,196.83 " fill="none" id="SubjectObserver.Observer-backto-chasseaumonstre.views.MHMonsterView" style="stroke:#181818;stroke-width:1.0;stroke-dasharray:7.0,7.0;"/><polygon fill="none" points="915.36,133.68,933.16,122.18,926.42,142.27,915.36,133.68" style="stroke:#181818;stroke-width:1.0;"/></g><text fill="#888888" font-family="sans-serif" font-size="10" lengthAdjust="spacing" textLength="186" x="565.5" y="472.2822">UMLDoclet 2.1.0, PlantUML 1.2022.14</text><!--SRC=[nLLDZzem4BtpA-PI2GH4RO-e5qe_meeGHDXLfTKA6MSMN2KsiXrMwfR_lZODnDvDrBHRgJdWEFDctlFC2m40u2H7jISKWUw8KaYAN72b9GO7XWyA7ZiTA2-Q6G14OLXmZVB6XE7srjq6EvrdTtSc1vnhg3JPuWWIk_WHAhYM8ijGZYvr9vTdFZOdFqoHhvAb2yBzEe-6GJDwX65uFLzzNgudopX9ml5qkLwCLw6bbenllPo-AxnxqZQeqT3paoJo56MtDuA3OAalC9NaeJPoaTTdAkOVXRGb6DS3y7vCwaQ830dtERUe8tDsMxhszFrYdnADjTJdM59ilYFLBI03Y6kXnvS-YAnH72Cu-tedL7EAuddISb2jxLFI_uL_XaBlK4xp4yzfySDxearXFkLBqnZ2jzaPjlWLU6uifn6Lirx8-nVM-a-plxgvAgTUthtgpJSr6eRMBykVk-WX_VuD6_fNvrlaHMNQSlCxntxv5itMitWoNatZ-IkDQYYR3bm9SfpZuV_usELmuur2UK0Pd6_WmyyWyFxEMwSu1kyuRDMtv5a1fwlCajrRJ4tmr7AoCPyVGlMnZOERqSrcTXHJj7BWNWYxN4UpJu9cgE5zy2vuEu15HhWsJ-6DqQcOuDtU4m00]--></g></svg>