<?xml version="1.0" encoding="UTF-8" standalone="no"?><svg xmlns="http://www.w3.org/2000/svg" xmlns:xlink="http://www.w3.org/1999/xlink" contentStyleType="text/css" height="664px" preserveAspectRatio="none" style="width:377px;height:664px;background:#FFFFFF;" version="1.1" viewBox="0 0 377 664" width="377px" zoomAndPan="magnify"><defs/><g><!--class chasseaumonstre.model.strategy.monster.Monster--><a href="Monster.html" target="_top" title="Monster.html" xlink:actuate="onRequest" xlink:href="Monster.html" xlink:show="new" xlink:title="Monster.html" xlink:type="simple"><g id="elem_chasseaumonstre.model.strategy.monster.Monster"><rect codeLine="5" fill="#F1F1F1" height="510.25" id="chasseaumonstre.model.strategy.monster.Monster" rx="2.5" ry="2.5" style="stroke:#181818;stroke-width:0.5;" width="293" x="69.5" y="129"/><ellipse cx="108.8" cy="147.9688" fill="#ADD1B2" rx="11" ry="11" style="stroke:#181818;stroke-width:1.0;"/><path d="M111.7688,153.6094 Q111.1906,153.9063 110.55,154.0469 Q109.9094,154.2031 109.2063,154.2031 Q106.7063,154.2031 105.3781,152.5625 Q104.0656,150.9063 104.0656,147.7813 Q104.0656,144.6563 105.3781,143 Q106.7063,141.3438 109.2063,141.3438 Q109.9094,141.3438 110.55,141.5 Q111.2063,141.6563 111.7688,141.9531 L111.7688,144.6719 Q111.1438,144.0938 110.55,143.8281 Q109.9563,143.5469 109.3313,143.5469 Q107.9875,143.5469 107.3,144.625 Q106.6125,145.6875 106.6125,147.7813 Q106.6125,149.875 107.3,150.9531 Q107.9875,152.0156 109.3313,152.0156 Q109.9563,152.0156 110.55,151.75 Q111.1438,151.4688 111.7688,150.8906 L111.7688,153.6094 Z " fill="#000000"/><text fill="#000000" font-family="sans-serif" font-size="14" lengthAdjust="spacing" textLength="57" x="203.2" y="146.9951">Monster</text><text fill="#000000" font-family="sans-serif" font-size="10" lengthAdjust="spacing" textLength="207" x="128.2" y="159.5791">chasseaumonstre.model.strategy.monster</text><line style="stroke:#181818;stroke-width:0.5;" x1="70.5" x2="361.5" y1="166.9375" y2="166.9375"/><rect fill="none" height="6" style="stroke:#C82930;stroke-width:1.0;" width="6" x="77.5" y="177.5859"/><text fill="#000000" font-family="sans-serif" font-size="14" lengthAdjust="spacing" textLength="112" x="89.5" y="183.9326">exit: ICoordinate</text><rect fill="none" height="6" style="stroke:#C82930;stroke-width:1.0;" width="6" x="77.5" y="193.8828"/><text fill="#000000" font-family="sans-serif" font-size="14" lengthAdjust="spacing" textLength="123" x="89.5" y="200.2295">entry: ICoordinate</text><rect fill="none" height="6" style="stroke:#C82930;stroke-width:1.0;" width="6" x="77.5" y="210.1797"/><text fill="#000000" font-family="sans-serif" font-size="14" lengthAdjust="spacing" textLength="128" x="89.5" y="216.5264">coord: ICoordinate</text><rect fill="none" height="6" style="stroke:#C82930;stroke-width:1.0;" width="6" x="77.5" y="226.4766"/><text fill="#000000" font-family="sans-serif" font-size="14" lengthAdjust="spacing" textLength="119" x="89.5" y="232.8232">visited: boolean[]</text><rect fill="none" height="6" style="stroke:#C82930;stroke-width:1.0;" width="6" x="77.5" y="242.7734"/><text fill="#000000" font-family="sans-serif" font-size="14" lengthAdjust="spacing" textLength="144" x="89.5" y="249.1201">visitedTurn: Integer[]</text><line style="stroke:#181818;stroke-width:0.5;" x1="70.5" x2="361.5" y1="256.4219" y2="256.4219"/><ellipse cx="80.5" cy="270.0703" fill="#84BE84" rx="3" ry="3" style="stroke:#038048;stroke-width:1.0;"/><text fill="#000000" font-family="sans-serif" font-size="14" lengthAdjust="spacing" textLength="67" x="89.5" y="273.417">Monster()</text><ellipse cx="80.5" cy="286.3672" fill="#84BE84" rx="3" ry="3" style="stroke:#038048;stroke-width:1.0;"/><text fill="#000000" font-family="sans-serif" font-size="14" lengthAdjust="spacing" textLength="133" x="89.5" y="289.7139">Monster(boolean[])</text><ellipse cx="80.5" cy="302.6641" fill="#84BE84" rx="3" ry="3" style="stroke:#038048;stroke-width:1.0;"/><text fill="#000000" font-family="sans-serif" font-size="14" lengthAdjust="spacing" textLength="167" x="89.5" y="306.0107">initialize(boolean[]): void</text><ellipse cx="80.5" cy="318.9609" fill="#84BE84" rx="3" ry="3" style="stroke:#038048;stroke-width:1.0;"/><text fill="#000000" font-family="sans-serif" font-size="14" lengthAdjust="spacing" textLength="145" x="89.5" y="322.3076">getExit(): ICoordinate</text><ellipse cx="80.5" cy="335.2578" fill="#84BE84" rx="3" ry="3" style="stroke:#038048;stroke-width:1.0;"/><text fill="#000000" font-family="sans-serif" font-size="14" lengthAdjust="spacing" textLength="135" x="89.5" y="338.6045">setExit(int, int): void</text><rect fill="#F24D5C" height="6" style="stroke:#C82930;stroke-width:1.0;" width="6" x="77.5" y="348.5547"/><text fill="#000000" font-family="sans-serif" font-size="14" lengthAdjust="spacing" textLength="172" x="89.5" y="354.9014">setExit(ICoordinate): void</text><ellipse cx="80.5" cy="367.8516" fill="#84BE84" rx="3" ry="3" style="stroke:#038048;stroke-width:1.0;"/><text fill="#000000" font-family="sans-serif" font-size="14" lengthAdjust="spacing" textLength="156" x="89.5" y="371.1982">getEntry(): ICoordinate</text><ellipse cx="80.5" cy="384.1484" fill="#84BE84" rx="3" ry="3" style="stroke:#038048;stroke-width:1.0;"/><text fill="#000000" font-family="sans-serif" font-size="14" lengthAdjust="spacing" textLength="154" x="89.5" y="387.4951">getVisited(): boolean[]</text><ellipse cx="80.5" cy="400.4453" fill="#84BE84" rx="3" ry="3" style="stroke:#038048;stroke-width:1.0;"/><text fill="#000000" font-family="sans-serif" font-size="14" lengthAdjust="spacing" textLength="146" x="89.5" y="403.792">setEntry(int, int): void</text><rect fill="#F24D5C" height="6" style="stroke:#C82930;stroke-width:1.0;" width="6" x="77.5" y="413.7422"/><text fill="#000000" font-family="sans-serif" font-size="14" lengthAdjust="spacing" textLength="183" x="89.5" y="420.0889">setEntry(ICoordinate): void</text><ellipse cx="80.5" cy="433.0391" fill="#84BE84" rx="3" ry="3" style="stroke:#038048;stroke-width:1.0;"/><text fill="#000000" font-family="sans-serif" font-size="14" lengthAdjust="spacing" textLength="163" x="89.5" y="436.3857">getCoord(): ICoordinate</text><rect fill="#F24D5C" height="6" style="stroke:#C82930;stroke-width:1.0;" width="6" x="77.5" y="446.3359"/><text fill="#000000" font-family="sans-serif" font-size="14" lengthAdjust="spacing" textLength="190" x="89.5" y="452.6826">setCoord(ICoordinate): void</text><ellipse cx="80.5" cy="465.6328" fill="#84BE84" rx="3" ry="3" style="stroke:#038048;stroke-width:1.0;"/><text fill="#000000" font-family="sans-serif" font-size="14" lengthAdjust="spacing" textLength="178" x="89.5" y="468.9795">setCoord(int, int, int): void</text><ellipse cx="80.5" cy="481.9297" fill="#84BE84" rx="3" ry="3" style="stroke:#038048;stroke-width:1.0;"/><text fill="#000000" font-family="sans-serif" font-size="14" lengthAdjust="spacing" textLength="174" x="89.5" y="485.2764">isVisited(int, int): boolean</text><rect fill="#F24D5C" height="6" style="stroke:#C82930;stroke-width:1.0;" width="6" x="77.5" y="495.2266"/><text fill="#000000" font-family="sans-serif" font-size="14" lengthAdjust="spacing" textLength="157" x="89.5" y="501.5732">setVisited(int, int): void</text><ellipse cx="80.5" cy="514.5234" fill="#84BE84" rx="3" ry="3" style="stroke:#038048;stroke-width:1.0;"/><text fill="#000000" font-family="sans-serif" font-size="14" lengthAdjust="spacing" textLength="208" x="89.5" y="517.8701">estAdjacente(int, int): boolean</text><ellipse cx="80.5" cy="530.8203" fill="#84BE84" rx="3" ry="3" style="stroke:#038048;stroke-width:1.0;"/><text fill="#000000" font-family="sans-serif" font-size="14" lengthAdjust="spacing" textLength="194" x="89.5" y="534.167">setVisited(ICoordinate): void</text><rect fill="#F24D5C" height="6" style="stroke:#C82930;stroke-width:1.0;" width="6" x="77.5" y="544.1172"/><text fill="#000000" font-family="sans-serif" font-size="14" lengthAdjust="spacing" textLength="173" x="89.5" y="550.4639">checkCoord(int, int): void</text><ellipse cx="80.5" cy="563.4141" fill="#84BE84" rx="3" ry="3" style="stroke:#038048;stroke-width:1.0;"/><text fill="#000000" font-family="sans-serif" font-size="14" lengthAdjust="spacing" textLength="179" x="89.5" y="566.7607">getVisitedTurn(int, int): int</text><ellipse cx="80.5" cy="579.7109" fill="#84BE84" rx="3" ry="3" style="stroke:#038048;stroke-width:1.0;"/><text fill="#000000" font-family="sans-serif" font-size="14" lengthAdjust="spacing" textLength="125" x="89.5" y="583.0576">play(): ICoordinate</text><ellipse cx="80.5" cy="596.0078" fill="#84BE84" rx="3" ry="3" style="stroke:#038048;stroke-width:1.0;"/><text fill="#000000" font-family="sans-serif" font-size="14" lengthAdjust="spacing" textLength="163" x="89.5" y="599.3545">update(ICellEvent): void</text><rect fill="#F24D5C" height="6" style="stroke:#C82930;stroke-width:1.0;" width="6" x="77.5" y="609.3047"/><text fill="#000000" font-family="sans-serif" font-size="14" lengthAdjust="spacing" textLength="267" x="89.5" y="615.6514">writeObject(ObjectOutputStream): void</text><rect fill="#F24D5C" height="6" style="stroke:#C82930;stroke-width:1.0;" width="6" x="77.5" y="625.6016"/><text fill="#000000" font-family="sans-serif" font-size="14" lengthAdjust="spacing" textLength="252" x="89.5" y="631.9482">readObject(ObjectInputStream): void</text></g></a><!--class fr.univlille.iutinfo.cam.player.monster.IMonsterStrategy--><g id="elem_fr.univlille.iutinfo.cam.player.monster.IMonsterStrategy"><rect codeLine="36" fill="#F1F1F1" height="62.2344" id="fr.univlille.iutinfo.cam.player.monster.IMonsterStrategy" rx="2.5" ry="2.5" style="stroke:#181818;stroke-width:0.5;" width="220" x="7" y="7"/><ellipse cx="22" cy="25.9688" fill="#B4A7E5" rx="11" ry="11" style="stroke:#181818;stroke-width:1.0;"/><path d="M17.9219,21.7344 L17.9219,19.5781 L25.3125,19.5781 L25.3125,21.7344 L22.8438,21.7344 L22.8438,29.8125 L25.3125,29.8125 L25.3125,31.9688 L17.9219,31.9688 L17.9219,29.8125 L20.3906,29.8125 L20.3906,21.7344 L17.9219,21.7344 Z " fill="#000000"/><text fill="#000000" font-family="sans-serif" font-size="14" font-style="italic" lengthAdjust="spacing" textLength="118" x="71" y="24.9951">IMonsterStrategy</text><text fill="#000000" font-family="sans-serif" font-size="10" font-style="italic" lengthAdjust="spacing" textLength="188" x="36" y="37.5791">fr.univlille.iutinfo.cam.player.monster</text><line style="stroke:#181818;stroke-width:0.5;" x1="8" x2="226" y1="44.9375" y2="44.9375"/><ellipse cx="18" cy="58.5859" fill="#84BE84" rx="3" ry="3" style="stroke:#038048;stroke-width:1.0;"/><text fill="#000000" font-family="sans-serif" font-size="14" font-style="italic" lengthAdjust="spacing" textLength="167" x="27" y="61.9326">initialize(boolean[]): void</text></g><!--class java.io.Serializable--><g id="elem_java.io.Serializable"><rect codeLine="39" fill="#F1F1F1" height="37.9375" id="java.io.Serializable" rx="2.5" ry="2.5" style="stroke:#181818;stroke-width:0.5;" width="108" x="262" y="19"/><ellipse cx="277" cy="37.9688" fill="#B4A7E5" rx="11" ry="11" style="stroke:#181818;stroke-width:1.0;"/><path d="M272.9219,33.7344 L272.9219,31.5781 L280.3125,31.5781 L280.3125,33.7344 L277.8438,33.7344 L277.8438,41.8125 L280.3125,41.8125 L280.3125,43.9688 L272.9219,43.9688 L272.9219,41.8125 L275.3906,41.8125 L275.3906,33.7344 L272.9219,33.7344 Z " fill="#000000"/><text fill="#000000" font-family="sans-serif" font-size="14" font-style="italic" lengthAdjust="spacing" textLength="76" x="291" y="36.9951">Serializable</text><text fill="#000000" font-family="sans-serif" font-size="10" font-style="italic" lengthAdjust="spacing" textLength="33" x="312.5" y="49.5791">java.io</text></g><!--reverse link fr.univlille.iutinfo.cam.player.monster.IMonsterStrategy to chasseaumonstre.model.strategy.monster.Monster--><g id="link_fr.univlille.iutinfo.cam.player.monster.IMonsterStrategy_chasseaumonstre.model.strategy.monster.Monster"><path codeLine="41" d="M131.35,88.85 C134.79,100.8 138.69,114.38 142.9,128.99 " fill="none" id="fr.univlille.iutinfo.cam.player.monster.IMonsterStrategy-backto-chasseaumonstre.model.strategy.monster.Monster" style="stroke:#181818;stroke-width:1.0;stroke-dasharray:7.0,7.0;"/><polygon fill="none" points="124.5,90.38,125.7,69.23,137.96,86.51,124.5,90.38" style="stroke:#181818;stroke-width:1.0;"/></g><!--reverse link java.io.Serializable to chasseaumonstre.model.strategy.monster.Monster--><g id="link_java.io.Serializable_chasseaumonstre.model.strategy.monster.Monster"><path codeLine="42" d="M305.16,76.28 C300.93,90.85 295.69,108.86 289.9,128.79 " fill="none" id="java.io.Serializable-backto-chasseaumonstre.model.strategy.monster.Monster" style="stroke:#181818;stroke-width:1.0;stroke-dasharray:7.0,7.0;"/><polygon fill="none" points="298.46,74.26,310.76,57.01,311.9,78.17,298.46,74.26" style="stroke:#181818;stroke-width:1.0;"/></g><text fill="#888888" font-family="sans-serif" font-size="10" lengthAdjust="spacing" textLength="186" x="88.5" y="654.5322">UMLDoclet 2.1.0, PlantUML 1.2022.14</text><!--SRC=[dLN1Rjim3BtlAuW20nAa4TfXfw0eC6mz15ZH0TbwINDGPBfM9ak697lBklpxADjfbCHEk-PWAtoFv2DjqW003ZredgChkC0P5jnoRonee_4TmP39107pmgyXbQWITsZDqMU6pBLTAEuSd5qv-GSdbn-lRurs7ks3RYqNro8Z1l8o3uX5bfi45QCZz_YuPddZS0RSmUkehCq1ytbxOfdFrM81JxMay1lZR-adCFriZ4sa9ly8qjwkUp0HR3rO9PtqIEZI68LSpnT7sFVIQlBM91TjX8zQeOFXiUavMeH9BRtaYZeOmHEeZ4nsf4VqDrJbODYjT-HQN6f_3dGv333U4YBlpYIXNxrPY73V51yenwsfPTGHJkge6Iy8gT4-8I5AGpWLvPcq5TEfQ2JTjgQ8qjQsbx63jXy9dV-Kh6ZIw9qu5MmK1JjHm5XaA7xkbz3LgllT-nZpwBgZ5OhtFzQoIEW_IK6bRYhiU6g_B6MuMwvG-45pkojzKVePJIxFZ-XaJFROKzr9tZHxXPIYJQblqMwPjYCpQnT2j6HIoqejAoMLGYPBBtLgcE0v2qNIWeYtp2kvx31Tj5wU-39i9U4tBy_gfhUU6ThQaIyLHhMiUCMPDBNMzinYQjEWDrTnzPUn_zoqTS8kAMyArdmtma1OI8q9jn-tNxyOeUZBz85Tiejp-AQuzcI5znLQ9uqU3Fy1]--></g></svg>