<?xml version="1.0" encoding="UTF-8" standalone="no"?><svg xmlns="http://www.w3.org/2000/svg" xmlns:xlink="http://www.w3.org/1999/xlink" contentStyleType="text/css" height="664px" preserveAspectRatio="none" style="width:526px;height:664px;background:#FFFFFF;" version="1.1" viewBox="0 0 526 664" width="526px" zoomAndPan="magnify"><defs/><g><!--class chasseaumonstre.model.strategy.monster.Monster--><a href="Monster.html" target="_top" title="Monster.html" xlink:actuate="onRequest" xlink:href="Monster.html" xlink:show="new" xlink:title="Monster.html" xlink:type="simple"><g id="elem_chasseaumonstre.model.strategy.monster.Monster"><rect codeLine="5" fill="#F1F1F1" height="510.25" id="chasseaumonstre.model.strategy.monster.Monster" rx="2.5" ry="2.5" style="stroke:#181818;stroke-width:0.5;" width="293" x="119.5" y="129"/><ellipse cx="158.8" cy="147.9688" fill="#ADD1B2" rx="11" ry="11" style="stroke:#181818;stroke-width:1.0;"/><path d="M161.7688,153.6094 Q161.1906,153.9063 160.55,154.0469 Q159.9094,154.2031 159.2063,154.2031 Q156.7063,154.2031 155.3781,152.5625 Q154.0656,150.9063 154.0656,147.7813 Q154.0656,144.6563 155.3781,143 Q156.7063,141.3438 159.2063,141.3438 Q159.9094,141.3438 160.55,141.5 Q161.2063,141.6563 161.7688,141.9531 L161.7688,144.6719 Q161.1438,144.0938 160.55,143.8281 Q159.9563,143.5469 159.3313,143.5469 Q157.9875,143.5469 157.3,144.625 Q156.6125,145.6875 156.6125,147.7813 Q156.6125,149.875 157.3,150.9531 Q157.9875,152.0156 159.3313,152.0156 Q159.9563,152.0156 160.55,151.75 Q161.1438,151.4688 161.7688,150.8906 L161.7688,153.6094 Z " fill="#000000"/><text fill="#000000" font-family="sans-serif" font-size="14" lengthAdjust="spacing" textLength="57" x="253.2" y="146.9951">Monster</text><text fill="#000000" font-family="sans-serif" font-size="10" lengthAdjust="spacing" textLength="207" x="178.2" y="159.5791">chasseaumonstre.model.strategy.monster</text><line style="stroke:#181818;stroke-width:0.5;" x1="120.5" x2="411.5" y1="166.9375" y2="166.9375"/><rect fill="none" height="6" style="stroke:#C82930;stroke-width:1.0;" width="6" x="127.5" y="177.5859"/><text fill="#000000" font-family="sans-serif" font-size="14" lengthAdjust="spacing" textLength="112" x="139.5" y="183.9326">exit: ICoordinate</text><rect fill="none" height="6" style="stroke:#C82930;stroke-width:1.0;" width="6" x="127.5" y="193.8828"/><text fill="#000000" font-family="sans-serif" font-size="14" lengthAdjust="spacing" textLength="123" x="139.5" y="200.2295">entry: ICoordinate</text><rect fill="none" height="6" style="stroke:#C82930;stroke-width:1.0;" width="6" x="127.5" y="210.1797"/><text fill="#000000" font-family="sans-serif" font-size="14" lengthAdjust="spacing" textLength="128" x="139.5" y="216.5264">coord: ICoordinate</text><rect fill="none" height="6" style="stroke:#C82930;stroke-width:1.0;" width="6" x="127.5" y="226.4766"/><text fill="#000000" font-family="sans-serif" font-size="14" lengthAdjust="spacing" textLength="119" x="139.5" y="232.8232">visited: boolean[]</text><rect fill="none" height="6" style="stroke:#C82930;stroke-width:1.0;" width="6" x="127.5" y="242.7734"/><text fill="#000000" font-family="sans-serif" font-size="14" lengthAdjust="spacing" textLength="144" x="139.5" y="249.1201">visitedTurn: Integer[]</text><line style="stroke:#181818;stroke-width:0.5;" x1="120.5" x2="411.5" y1="256.4219" y2="256.4219"/><ellipse cx="130.5" cy="270.0703" fill="#84BE84" rx="3" ry="3" style="stroke:#038048;stroke-width:1.0;"/><text fill="#000000" font-family="sans-serif" font-size="14" lengthAdjust="spacing" textLength="67" x="139.5" y="273.417">Monster()</text><ellipse cx="130.5" cy="286.3672" fill="#84BE84" rx="3" ry="3" style="stroke:#038048;stroke-width:1.0;"/><text fill="#000000" font-family="sans-serif" font-size="14" lengthAdjust="spacing" textLength="133" x="139.5" y="289.7139">Monster(boolean[])</text><ellipse cx="130.5" cy="302.6641" fill="#84BE84" rx="3" ry="3" style="stroke:#038048;stroke-width:1.0;"/><text fill="#000000" font-family="sans-serif" font-size="14" lengthAdjust="spacing" textLength="167" x="139.5" y="306.0107">initialize(boolean[]): void</text><ellipse cx="130.5" cy="318.9609" fill="#84BE84" rx="3" ry="3" style="stroke:#038048;stroke-width:1.0;"/><text fill="#000000" font-family="sans-serif" font-size="14" lengthAdjust="spacing" textLength="145" x="139.5" y="322.3076">getExit(): ICoordinate</text><ellipse cx="130.5" cy="335.2578" fill="#84BE84" rx="3" ry="3" style="stroke:#038048;stroke-width:1.0;"/><text fill="#000000" font-family="sans-serif" font-size="14" lengthAdjust="spacing" textLength="135" x="139.5" y="338.6045">setExit(int, int): void</text><rect fill="#F24D5C" height="6" style="stroke:#C82930;stroke-width:1.0;" width="6" x="127.5" y="348.5547"/><text fill="#000000" font-family="sans-serif" font-size="14" lengthAdjust="spacing" textLength="172" x="139.5" y="354.9014">setExit(ICoordinate): void</text><ellipse cx="130.5" cy="367.8516" fill="#84BE84" rx="3" ry="3" style="stroke:#038048;stroke-width:1.0;"/><text fill="#000000" font-family="sans-serif" font-size="14" lengthAdjust="spacing" textLength="156" x="139.5" y="371.1982">getEntry(): ICoordinate</text><ellipse cx="130.5" cy="384.1484" fill="#84BE84" rx="3" ry="3" style="stroke:#038048;stroke-width:1.0;"/><text fill="#000000" font-family="sans-serif" font-size="14" lengthAdjust="spacing" textLength="154" x="139.5" y="387.4951">getVisited(): boolean[]</text><ellipse cx="130.5" cy="400.4453" fill="#84BE84" rx="3" ry="3" style="stroke:#038048;stroke-width:1.0;"/><text fill="#000000" font-family="sans-serif" font-size="14" lengthAdjust="spacing" textLength="146" x="139.5" y="403.792">setEntry(int, int): void</text><rect fill="#F24D5C" height="6" style="stroke:#C82930;stroke-width:1.0;" width="6" x="127.5" y="413.7422"/><text fill="#000000" font-family="sans-serif" font-size="14" lengthAdjust="spacing" textLength="183" x="139.5" y="420.0889">setEntry(ICoordinate): void</text><ellipse cx="130.5" cy="433.0391" fill="#84BE84" rx="3" ry="3" style="stroke:#038048;stroke-width:1.0;"/><text fill="#000000" font-family="sans-serif" font-size="14" lengthAdjust="spacing" textLength="163" x="139.5" y="436.3857">getCoord(): ICoordinate</text><rect fill="#F24D5C" height="6" style="stroke:#C82930;stroke-width:1.0;" width="6" x="127.5" y="446.3359"/><text fill="#000000" font-family="sans-serif" font-size="14" lengthAdjust="spacing" textLength="190" x="139.5" y="452.6826">setCoord(ICoordinate): void</text><ellipse cx="130.5" cy="465.6328" fill="#84BE84" rx="3" ry="3" style="stroke:#038048;stroke-width:1.0;"/><text fill="#000000" font-family="sans-serif" font-size="14" lengthAdjust="spacing" textLength="178" x="139.5" y="468.9795">setCoord(int, int, int): void</text><ellipse cx="130.5" cy="481.9297" fill="#84BE84" rx="3" ry="3" style="stroke:#038048;stroke-width:1.0;"/><text fill="#000000" font-family="sans-serif" font-size="14" lengthAdjust="spacing" textLength="174" x="139.5" y="485.2764">isVisited(int, int): boolean</text><ellipse cx="130.5" cy="498.2266" fill="#84BE84" rx="3" ry="3" style="stroke:#038048;stroke-width:1.0;"/><text fill="#000000" font-family="sans-serif" font-size="14" lengthAdjust="spacing" textLength="157" x="139.5" y="501.5732">setVisited(int, int): void</text><ellipse cx="130.5" cy="514.5234" fill="#84BE84" rx="3" ry="3" style="stroke:#038048;stroke-width:1.0;"/><text fill="#000000" font-family="sans-serif" font-size="14" lengthAdjust="spacing" textLength="208" x="139.5" y="517.8701">estAdjacente(int, int): boolean</text><ellipse cx="130.5" cy="530.8203" fill="#84BE84" rx="3" ry="3" style="stroke:#038048;stroke-width:1.0;"/><text fill="#000000" font-family="sans-serif" font-size="14" lengthAdjust="spacing" textLength="194" x="139.5" y="534.167">setVisited(ICoordinate): void</text><rect fill="#F24D5C" height="6" style="stroke:#C82930;stroke-width:1.0;" width="6" x="127.5" y="544.1172"/><text fill="#000000" font-family="sans-serif" font-size="14" lengthAdjust="spacing" textLength="173" x="139.5" y="550.4639">checkCoord(int, int): void</text><ellipse cx="130.5" cy="563.4141" fill="#84BE84" rx="3" ry="3" style="stroke:#038048;stroke-width:1.0;"/><text fill="#000000" font-family="sans-serif" font-size="14" lengthAdjust="spacing" textLength="179" x="139.5" y="566.7607">getVisitedTurn(int, int): int</text><ellipse cx="130.5" cy="579.7109" fill="#84BE84" rx="3" ry="3" style="stroke:#038048;stroke-width:1.0;"/><text fill="#000000" font-family="sans-serif" font-size="14" lengthAdjust="spacing" textLength="125" x="139.5" y="583.0576">play(): ICoordinate</text><ellipse cx="130.5" cy="596.0078" fill="#84BE84" rx="3" ry="3" style="stroke:#038048;stroke-width:1.0;"/><text fill="#000000" font-family="sans-serif" font-size="14" lengthAdjust="spacing" textLength="163" x="139.5" y="599.3545">update(ICellEvent): void</text><rect fill="#F24D5C" height="6" style="stroke:#C82930;stroke-width:1.0;" width="6" x="127.5" y="609.3047"/><text fill="#000000" font-family="sans-serif" font-size="14" lengthAdjust="spacing" textLength="267" x="139.5" y="615.6514">writeObject(ObjectOutputStream): void</text><rect fill="#F24D5C" height="6" style="stroke:#C82930;stroke-width:1.0;" width="6" x="127.5" y="625.6016"/><text fill="#000000" font-family="sans-serif" font-size="14" lengthAdjust="spacing" textLength="252" x="139.5" y="631.9482">readObject(ObjectInputStream): void</text></g></a><!--class SubjectObserver.Subject--><g id="elem_SubjectObserver.Subject"><rect codeLine="36" fill="#F1F1F1" height="37.9375" id="SubjectObserver.Subject" rx="2.5" ry="2.5" style="stroke:#181818;stroke-width:0.5;" width="114" x="7" y="19"/><ellipse cx="22" cy="37.9688" fill="#A9DCDF" rx="11" ry="11" style="stroke:#181818;stroke-width:1.0;"/><path d="M22.1094,33.3125 L20.9531,38.3906 L23.2813,38.3906 L22.1094,33.3125 Z M20.625,31.0781 L23.6094,31.0781 L26.9688,43.4688 L24.5156,43.4688 L23.75,40.4063 L20.4688,40.4063 L19.7188,43.4688 L17.2813,43.4688 L20.625,31.0781 Z " fill="#000000"/><text fill="#000000" font-family="sans-serif" font-size="14" font-style="italic" lengthAdjust="spacing" textLength="52" x="51" y="36.9951">Subject</text><text fill="#000000" font-family="sans-serif" font-size="10" font-style="italic" lengthAdjust="spacing" textLength="82" x="36" y="49.5791">SubjectObserver</text></g><!--class fr.univlille.iutinfo.cam.player.monster.IMonsterStrategy--><g id="elem_fr.univlille.iutinfo.cam.player.monster.IMonsterStrategy"><rect codeLine="37" fill="#F1F1F1" height="62.2344" id="fr.univlille.iutinfo.cam.player.monster.IMonsterStrategy" rx="2.5" ry="2.5" style="stroke:#181818;stroke-width:0.5;" width="220" x="156" y="7"/><ellipse cx="171" cy="25.9688" fill="#B4A7E5" rx="11" ry="11" style="stroke:#181818;stroke-width:1.0;"/><path d="M166.9219,21.7344 L166.9219,19.5781 L174.3125,19.5781 L174.3125,21.7344 L171.8438,21.7344 L171.8438,29.8125 L174.3125,29.8125 L174.3125,31.9688 L166.9219,31.9688 L166.9219,29.8125 L169.3906,29.8125 L169.3906,21.7344 L166.9219,21.7344 Z " fill="#000000"/><text fill="#000000" font-family="sans-serif" font-size="14" font-style="italic" lengthAdjust="spacing" textLength="118" x="220" y="24.9951">IMonsterStrategy</text><text fill="#000000" font-family="sans-serif" font-size="10" font-style="italic" lengthAdjust="spacing" textLength="188" x="185" y="37.5791">fr.univlille.iutinfo.cam.player.monster</text><line style="stroke:#181818;stroke-width:0.5;" x1="157" x2="375" y1="44.9375" y2="44.9375"/><ellipse cx="167" cy="58.5859" fill="#84BE84" rx="3" ry="3" style="stroke:#038048;stroke-width:1.0;"/><text fill="#000000" font-family="sans-serif" font-size="14" font-style="italic" lengthAdjust="spacing" textLength="167" x="176" y="61.9326">initialize(boolean[]): void</text></g><!--class java.io.Serializable--><g id="elem_java.io.Serializable"><rect codeLine="40" fill="#F1F1F1" height="37.9375" id="java.io.Serializable" rx="2.5" ry="2.5" style="stroke:#181818;stroke-width:0.5;" width="108" x="411" y="19"/><ellipse cx="426" cy="37.9688" fill="#B4A7E5" rx="11" ry="11" style="stroke:#181818;stroke-width:1.0;"/><path d="M421.9219,33.7344 L421.9219,31.5781 L429.3125,31.5781 L429.3125,33.7344 L426.8438,33.7344 L426.8438,41.8125 L429.3125,41.8125 L429.3125,43.9688 L421.9219,43.9688 L421.9219,41.8125 L424.3906,41.8125 L424.3906,33.7344 L421.9219,33.7344 Z " fill="#000000"/><text fill="#000000" font-family="sans-serif" font-size="14" font-style="italic" lengthAdjust="spacing" textLength="76" x="440" y="36.9951">Serializable</text><text fill="#000000" font-family="sans-serif" font-size="10" font-style="italic" lengthAdjust="spacing" textLength="33" x="461.5" y="49.5791">java.io</text></g><!--reverse link SubjectObserver.Subject to chasseaumonstre.model.strategy.monster.Monster--><g id="link_SubjectObserver.Subject_chasseaumonstre.model.strategy.monster.Monster"><path codeLine="42" d="M84.82,74.46 C94.21,90.44 106.17,110.82 119.47,133.47 " fill="none" id="SubjectObserver.Subject-backto-chasseaumonstre.model.strategy.monster.Monster" style="stroke:#181818;stroke-width:1.0;"/><polygon fill="none" points="78.67,77.8,74.58,57.01,90.74,70.71,78.67,77.8" style="stroke:#181818;stroke-width:1.0;"/></g><!--reverse link fr.univlille.iutinfo.cam.player.monster.IMonsterStrategy to chasseaumonstre.model.strategy.monster.Monster--><g id="link_fr.univlille.iutinfo.cam.player.monster.IMonsterStrategy_chasseaumonstre.model.strategy.monster.Monster"><path codeLine="43" d="M266,89.3 C266,101.14 266,114.56 266,128.99 " fill="none" id="fr.univlille.iutinfo.cam.player.monster.IMonsterStrategy-backto-chasseaumonstre.model.strategy.monster.Monster" style="stroke:#181818;stroke-width:1.0;stroke-dasharray:7.0,7.0;"/><polygon fill="none" points="259,89.23,266,69.23,273,89.23,259,89.23" style="stroke:#181818;stroke-width:1.0;"/></g><!--reverse link java.io.Serializable to chasseaumonstre.model.strategy.monster.Monster--><g id="link_java.io.Serializable_chasseaumonstre.model.strategy.monster.Monster"><path codeLine="44" d="M444.51,74.41 C435.8,89.48 424.82,108.46 412.61,129.57 " fill="none" id="java.io.Serializable-backto-chasseaumonstre.model.strategy.monster.Monster" style="stroke:#181818;stroke-width:1.0;stroke-dasharray:7.0,7.0;"/><polygon fill="none" points="438.51,70.82,454.58,57.01,450.63,77.83,438.51,70.82" style="stroke:#181818;stroke-width:1.0;"/></g><text fill="#888888" font-family="sans-serif" font-size="10" lengthAdjust="spacing" textLength="186" x="163" y="654.5322">UMLDoclet 2.1.0, PlantUML 1.2022.14</text><!--SRC=[dLLHRzem47xVhpXLcWIYMEsq9uGgJLiVa5OnYQqlZ0UJ7CNCiIFRoSPQ_likZYa64ih8G-BSVVVTT-Vu0W1WqO7Y6TgS9pZ1d1lkj06b5RuZDon5Ye1PxjQm42XJUsZDq2qrcRqzaTnQk1fQyHS7jn_l7hIo3irF5ImtTycI4CYBhF8OP9bEKJ9QSeTFQvRL0LV0BPm7PI47JATXnPOkaxCPF7j9rTN7Fy8DOFHPQvCAHV6HIpcpRl4bbQt5Lmeh799thhL4hgQp8z_tmYYALYGNJUJl1Q6Txh7fbIto2IMSu98w6Ba7K6gHxa1FwEwfoawtMM_F1hzGxXheTaZGtmAYwCOaLRzQin3WiIw-WXotnilm32TrUCGRGhotJKZ5KWDEiRo2jc8Q5VM4tTOKGK9jUsGDi7qcjEvJkgAJHj_4kMGd2kWdIqn-xPVGrAh7tVSOu-Y-W-MIjszhaQVqJb9GoliI6tRjjw4Cu_aA4zUf7-F2vOMRqCdbsH6SZEaUUgGQmPjwhl1vTUmJTpHW9eMFZWPCi8pd5aqP9ic1ZOLtJqrDGBEWBObOH-4qJiAiYUWNXXLAb598YKmKJgY5PWdFMDK_eeu7s9bOTfWkcbpFsyetRu-1JMiz4pG-aCybHhMiUCcPq5vhMBCOMlU-fNamVEdt_tD6UxwBkp9yOUoIX4sbNKHM_-AgisjWeNNr-F7mzOjE9Fr4Fx1RTdCDtoHNZgpmddfbXLQTxZy0]--></g></svg>