<?xml version="1.0" encoding="UTF-8" standalone="no"?><svg xmlns="http://www.w3.org/2000/svg" xmlns:xlink="http://www.w3.org/1999/xlink" contentStyleType="text/css" height="725px" preserveAspectRatio="none" style="width:749px;height:725px;background:#FFFFFF;" version="1.1" viewBox="0 0 749 725" width="749px" zoomAndPan="magnify"><defs/><g><!--cluster chasseaumonstre.model.strategy.monster--><g id="cluster_chasseaumonstre.model.strategy.monster"><path d="M249.5,145 L586.5,145 A3.75,3.75 0 0 1 589,147.5 L596,167.2969 L596.5,167.2969 A2.5,2.5 0 0 1 599,169.7969 L599,697.5 A2.5,2.5 0 0 1 596.5,700 L249.5,700 A2.5,2.5 0 0 1 247,697.5 L247,147.5 A2.5,2.5 0 0 1 249.5,145 " fill="none" style="stroke:#000000;stroke-width:1.5;"/><line style="stroke:#000000;stroke-width:1.5;" x1="247" x2="596" y1="167.2969" y2="167.2969"/><text fill="#000000" font-family="sans-serif" font-size="14" font-weight="bold" lengthAdjust="spacing" textLength="336" x="251" y="159.9951">chasseaumonstre.model.strategy.monster</text></g><!--cluster SubjectObserver--><g id="cluster_SubjectObserver"><path d="M8.5,6 L142.5,6 A3.75,3.75 0 0 1 145,8.5 L152,28.2969 L241.5,28.2969 A2.5,2.5 0 0 1 244,30.7969 L244,118.5 A2.5,2.5 0 0 1 241.5,121 L8.5,121 A2.5,2.5 0 0 1 6,118.5 L6,8.5 A2.5,2.5 0 0 1 8.5,6 " fill="none" style="stroke:#000000;stroke-width:1.5;"/><line style="stroke:#000000;stroke-width:1.5;" x1="6" x2="152" y1="28.2969" y2="28.2969"/><text fill="#000000" font-family="sans-serif" font-size="14" font-weight="bold" lengthAdjust="spacing" textLength="133" x="10" y="20.9951">SubjectObserver</text></g><!--cluster fr.univlille.iutinfo.cam.player.monster--><g id="cluster_fr.univlille.iutinfo.cam.player.monster"><path d="M270.5,6 L565.5,6 A3.75,3.75 0 0 1 568,8.5 L575,28.2969 L575.5,28.2969 A2.5,2.5 0 0 1 578,30.7969 L578,118.5 A2.5,2.5 0 0 1 575.5,121 L270.5,121 A2.5,2.5 0 0 1 268,118.5 L268,8.5 A2.5,2.5 0 0 1 270.5,6 " fill="none" style="stroke:#000000;stroke-width:1.5;"/><line style="stroke:#000000;stroke-width:1.5;" x1="268" x2="575" y1="28.2969" y2="28.2969"/><text fill="#000000" font-family="sans-serif" font-size="14" font-weight="bold" lengthAdjust="spacing" textLength="294" x="272" y="20.9951">fr.univlille.iutinfo.cam.player.monster</text></g><!--cluster java.io--><g id="cluster_java.io"><path d="M604.5,14 L655.5,14 A3.75,3.75 0 0 1 658,16.5 L665,36.2969 L739.5,36.2969 A2.5,2.5 0 0 1 742,38.7969 L742,110.5 A2.5,2.5 0 0 1 739.5,113 L604.5,113 A2.5,2.5 0 0 1 602,110.5 L602,16.5 A2.5,2.5 0 0 1 604.5,14 " fill="none" style="stroke:#000000;stroke-width:1.5;"/><line style="stroke:#000000;stroke-width:1.5;" x1="602" x2="665" y1="36.2969" y2="36.2969"/><text fill="#000000" font-family="sans-serif" font-size="14" font-weight="bold" lengthAdjust="spacing" textLength="50" x="606" y="28.9951">java.io</text></g><!--class chasseaumonstre.model.strategy.monster.Monster--><a href="Monster.html" target="_top" title="Monster.html" xlink:actuate="onRequest" xlink:href="Monster.html" xlink:show="new" xlink:title="Monster.html" xlink:type="simple"><g id="elem_chasseaumonstre.model.strategy.monster.Monster"><rect codeLine="3" fill="#F1F1F1" height="504.3125" id="chasseaumonstre.model.strategy.monster.Monster" rx="2.5" ry="2.5" style="stroke:#181818;stroke-width:0.5;" width="293" x="276.5" y="180"/><ellipse cx="390.25" cy="196" fill="#ADD1B2" rx="11" ry="11" style="stroke:#181818;stroke-width:1.0;"/><path d="M393.2188,201.6406 Q392.6406,201.9375 392,202.0781 Q391.3594,202.2344 390.6563,202.2344 Q388.1563,202.2344 386.8281,200.5938 Q385.5156,198.9375 385.5156,195.8125 Q385.5156,192.6875 386.8281,191.0313 Q388.1563,189.375 390.6563,189.375 Q391.3594,189.375 392,189.5313 Q392.6563,189.6875 393.2188,189.9844 L393.2188,192.7031 Q392.5938,192.125 392,191.8594 Q391.4063,191.5781 390.7813,191.5781 Q389.4375,191.5781 388.75,192.6563 Q388.0625,193.7188 388.0625,195.8125 Q388.0625,197.9063 388.75,198.9844 Q389.4375,200.0469 390.7813,200.0469 Q391.4063,200.0469 392,199.7813 Q392.5938,199.5 393.2188,198.9219 L393.2188,201.6406 Z " fill="#000000"/><text fill="#000000" font-family="sans-serif" font-size="14" lengthAdjust="spacing" textLength="57" x="410.75" y="200.8467">Monster</text><line style="stroke:#181818;stroke-width:0.5;" x1="277.5" x2="568.5" y1="212" y2="212"/><rect fill="none" height="6" style="stroke:#C82930;stroke-width:1.0;" width="6" x="284.5" y="222.6484"/><text fill="#000000" font-family="sans-serif" font-size="14" lengthAdjust="spacing" textLength="112" x="296.5" y="228.9951">exit: ICoordinate</text><rect fill="none" height="6" style="stroke:#C82930;stroke-width:1.0;" width="6" x="284.5" y="238.9453"/><text fill="#000000" font-family="sans-serif" font-size="14" lengthAdjust="spacing" textLength="123" x="296.5" y="245.292">entry: ICoordinate</text><rect fill="none" height="6" style="stroke:#C82930;stroke-width:1.0;" width="6" x="284.5" y="255.2422"/><text fill="#000000" font-family="sans-serif" font-size="14" lengthAdjust="spacing" textLength="128" x="296.5" y="261.5889">coord: ICoordinate</text><rect fill="none" height="6" style="stroke:#C82930;stroke-width:1.0;" width="6" x="284.5" y="271.5391"/><text fill="#000000" font-family="sans-serif" font-size="14" lengthAdjust="spacing" textLength="119" x="296.5" y="277.8857">visited: boolean[]</text><rect fill="none" height="6" style="stroke:#C82930;stroke-width:1.0;" width="6" x="284.5" y="287.8359"/><text fill="#000000" font-family="sans-serif" font-size="14" lengthAdjust="spacing" textLength="144" x="296.5" y="294.1826">visitedTurn: Integer[]</text><line style="stroke:#181818;stroke-width:0.5;" x1="277.5" x2="568.5" y1="301.4844" y2="301.4844"/><ellipse cx="287.5" cy="315.1328" fill="#84BE84" rx="3" ry="3" style="stroke:#038048;stroke-width:1.0;"/><text fill="#000000" font-family="sans-serif" font-size="14" lengthAdjust="spacing" textLength="67" x="296.5" y="318.4795">Monster()</text><ellipse cx="287.5" cy="331.4297" fill="#84BE84" rx="3" ry="3" style="stroke:#038048;stroke-width:1.0;"/><text fill="#000000" font-family="sans-serif" font-size="14" lengthAdjust="spacing" textLength="133" x="296.5" y="334.7764">Monster(boolean[])</text><ellipse cx="287.5" cy="347.7266" fill="#84BE84" rx="3" ry="3" style="stroke:#038048;stroke-width:1.0;"/><text fill="#000000" font-family="sans-serif" font-size="14" lengthAdjust="spacing" textLength="167" x="296.5" y="351.0732">initialize(boolean[]): void</text><ellipse cx="287.5" cy="364.0234" fill="#84BE84" rx="3" ry="3" style="stroke:#038048;stroke-width:1.0;"/><text fill="#000000" font-family="sans-serif" font-size="14" lengthAdjust="spacing" textLength="145" x="296.5" y="367.3701">getExit(): ICoordinate</text><ellipse cx="287.5" cy="380.3203" fill="#84BE84" rx="3" ry="3" style="stroke:#038048;stroke-width:1.0;"/><text fill="#000000" font-family="sans-serif" font-size="14" lengthAdjust="spacing" textLength="135" x="296.5" y="383.667">setExit(int, int): void</text><rect fill="#F24D5C" height="6" style="stroke:#C82930;stroke-width:1.0;" width="6" x="284.5" y="393.6172"/><text fill="#000000" font-family="sans-serif" font-size="14" lengthAdjust="spacing" textLength="172" x="296.5" y="399.9639">setExit(ICoordinate): void</text><ellipse cx="287.5" cy="412.9141" fill="#84BE84" rx="3" ry="3" style="stroke:#038048;stroke-width:1.0;"/><text fill="#000000" font-family="sans-serif" font-size="14" lengthAdjust="spacing" textLength="156" x="296.5" y="416.2607">getEntry(): ICoordinate</text><ellipse cx="287.5" cy="429.2109" fill="#84BE84" rx="3" ry="3" style="stroke:#038048;stroke-width:1.0;"/><text fill="#000000" font-family="sans-serif" font-size="14" lengthAdjust="spacing" textLength="154" x="296.5" y="432.5576">getVisited(): boolean[]</text><ellipse cx="287.5" cy="445.5078" fill="#84BE84" rx="3" ry="3" style="stroke:#038048;stroke-width:1.0;"/><text fill="#000000" font-family="sans-serif" font-size="14" lengthAdjust="spacing" textLength="146" x="296.5" y="448.8545">setEntry(int, int): void</text><rect fill="#F24D5C" height="6" style="stroke:#C82930;stroke-width:1.0;" width="6" x="284.5" y="458.8047"/><text fill="#000000" font-family="sans-serif" font-size="14" lengthAdjust="spacing" textLength="183" x="296.5" y="465.1514">setEntry(ICoordinate): void</text><ellipse cx="287.5" cy="478.1016" fill="#84BE84" rx="3" ry="3" style="stroke:#038048;stroke-width:1.0;"/><text fill="#000000" font-family="sans-serif" font-size="14" lengthAdjust="spacing" textLength="163" x="296.5" y="481.4482">getCoord(): ICoordinate</text><rect fill="#F24D5C" height="6" style="stroke:#C82930;stroke-width:1.0;" width="6" x="284.5" y="491.3984"/><text fill="#000000" font-family="sans-serif" font-size="14" lengthAdjust="spacing" textLength="190" x="296.5" y="497.7451">setCoord(ICoordinate): void</text><ellipse cx="287.5" cy="510.6953" fill="#84BE84" rx="3" ry="3" style="stroke:#038048;stroke-width:1.0;"/><text fill="#000000" font-family="sans-serif" font-size="14" lengthAdjust="spacing" textLength="178" x="296.5" y="514.042">setCoord(int, int, int): void</text><ellipse cx="287.5" cy="526.9922" fill="#84BE84" rx="3" ry="3" style="stroke:#038048;stroke-width:1.0;"/><text fill="#000000" font-family="sans-serif" font-size="14" lengthAdjust="spacing" textLength="174" x="296.5" y="530.3389">isVisited(int, int): boolean</text><ellipse cx="287.5" cy="543.2891" fill="#84BE84" rx="3" ry="3" style="stroke:#038048;stroke-width:1.0;"/><text fill="#000000" font-family="sans-serif" font-size="14" lengthAdjust="spacing" textLength="157" x="296.5" y="546.6357">setVisited(int, int): void</text><ellipse cx="287.5" cy="559.5859" fill="#84BE84" rx="3" ry="3" style="stroke:#038048;stroke-width:1.0;"/><text fill="#000000" font-family="sans-serif" font-size="14" lengthAdjust="spacing" textLength="208" x="296.5" y="562.9326">estAdjacente(int, int): boolean</text><ellipse cx="287.5" cy="575.8828" fill="#84BE84" rx="3" ry="3" style="stroke:#038048;stroke-width:1.0;"/><text fill="#000000" font-family="sans-serif" font-size="14" lengthAdjust="spacing" textLength="194" x="296.5" y="579.2295">setVisited(ICoordinate): void</text><rect fill="#F24D5C" height="6" style="stroke:#C82930;stroke-width:1.0;" width="6" x="284.5" y="589.1797"/><text fill="#000000" font-family="sans-serif" font-size="14" lengthAdjust="spacing" textLength="173" x="296.5" y="595.5264">checkCoord(int, int): void</text><ellipse cx="287.5" cy="608.4766" fill="#84BE84" rx="3" ry="3" style="stroke:#038048;stroke-width:1.0;"/><text fill="#000000" font-family="sans-serif" font-size="14" lengthAdjust="spacing" textLength="179" x="296.5" y="611.8232">getVisitedTurn(int, int): int</text><ellipse cx="287.5" cy="624.7734" fill="#84BE84" rx="3" ry="3" style="stroke:#038048;stroke-width:1.0;"/><text fill="#000000" font-family="sans-serif" font-size="14" lengthAdjust="spacing" textLength="125" x="296.5" y="628.1201">play(): ICoordinate</text><ellipse cx="287.5" cy="641.0703" fill="#84BE84" rx="3" ry="3" style="stroke:#038048;stroke-width:1.0;"/><text fill="#000000" font-family="sans-serif" font-size="14" lengthAdjust="spacing" textLength="163" x="296.5" y="644.417">update(ICellEvent): void</text><rect fill="#F24D5C" height="6" style="stroke:#C82930;stroke-width:1.0;" width="6" x="284.5" y="654.3672"/><text fill="#000000" font-family="sans-serif" font-size="14" lengthAdjust="spacing" textLength="267" x="296.5" y="660.7139">writeObject(ObjectOutputStream): void</text><rect fill="#F24D5C" height="6" style="stroke:#C82930;stroke-width:1.0;" width="6" x="284.5" y="670.6641"/><text fill="#000000" font-family="sans-serif" font-size="14" lengthAdjust="spacing" textLength="252" x="296.5" y="677.0107">readObject(ObjectInputStream): void</text></g></a><!--class SubjectObserver.Subject--><g id="elem_SubjectObserver.Subject"><rect codeLine="40" fill="#F1F1F1" height="64.2969" id="SubjectObserver.Subject" rx="2.5" ry="2.5" style="stroke:#181818;stroke-width:0.5;" width="206" x="22" y="41"/><ellipse cx="94.75" cy="57" fill="#A9DCDF" rx="11" ry="11" style="stroke:#181818;stroke-width:1.0;"/><path d="M94.8594,52.3438 L93.7031,57.4219 L96.0313,57.4219 L94.8594,52.3438 Z M93.375,50.1094 L96.3594,50.1094 L99.7188,62.5 L97.2656,62.5 L96.5,59.4375 L93.2188,59.4375 L92.4688,62.5 L90.0313,62.5 L93.375,50.1094 Z " fill="#000000"/><text fill="#000000" font-family="sans-serif" font-size="14" font-style="italic" lengthAdjust="spacing" textLength="52" x="115.25" y="61.8467">Subject</text><line style="stroke:#181818;stroke-width:0.5;" x1="23" x2="227" y1="73" y2="73"/><polygon fill="none" points="33,81.6484,37,85.6484,33,89.6484,29,85.6484" style="stroke:#B38D22;stroke-width:1.0;"/><text fill="#000000" font-family="sans-serif" font-size="14" lengthAdjust="spacing" textLength="180" x="42" y="89.9951">attached: List&lt;Observer&gt;</text><line style="stroke:#181818;stroke-width:0.5;" x1="23" x2="227" y1="97.2969" y2="97.2969"/></g><!--class fr.univlille.iutinfo.cam.player.monster.IMonsterStrategy--><g id="elem_fr.univlille.iutinfo.cam.player.monster.IMonsterStrategy"><rect codeLine="46" fill="#F1F1F1" height="64.2969" id="fr.univlille.iutinfo.cam.player.monster.IMonsterStrategy" rx="2.5" ry="2.5" style="stroke:#181818;stroke-width:0.5;" width="193" x="326.5" y="41"/><ellipse cx="360.85" cy="57" fill="#B4A7E5" rx="11" ry="11" style="stroke:#181818;stroke-width:1.0;"/><path d="M356.7719,52.7656 L356.7719,50.6094 L364.1625,50.6094 L364.1625,52.7656 L361.6938,52.7656 L361.6938,60.8438 L364.1625,60.8438 L364.1625,63 L356.7719,63 L356.7719,60.8438 L359.2406,60.8438 L359.2406,52.7656 L356.7719,52.7656 Z " fill="#000000"/><text fill="#000000" font-family="sans-serif" font-size="14" font-style="italic" lengthAdjust="spacing" textLength="118" x="379.15" y="61.8467">IMonsterStrategy</text><line style="stroke:#181818;stroke-width:0.5;" x1="327.5" x2="518.5" y1="73" y2="73"/><line style="stroke:#181818;stroke-width:0.5;" x1="327.5" x2="518.5" y1="81" y2="81"/><ellipse cx="337.5" cy="94.6484" fill="#84BE84" rx="3" ry="3" style="stroke:#038048;stroke-width:1.0;"/><text fill="#000000" font-family="sans-serif" font-size="14" font-style="italic" lengthAdjust="spacing" textLength="167" x="346.5" y="97.9951">initialize(boolean[]): void</text></g><!--class java.io.Serializable--><g id="elem_java.io.Serializable"><rect codeLine="52" fill="#F1F1F1" height="48" id="java.io.Serializable" rx="2.5" ry="2.5" style="stroke:#181818;stroke-width:0.5;" width="108" x="618" y="49"/><ellipse cx="633" cy="65" fill="#B4A7E5" rx="11" ry="11" style="stroke:#181818;stroke-width:1.0;"/><path d="M628.9219,60.7656 L628.9219,58.6094 L636.3125,58.6094 L636.3125,60.7656 L633.8438,60.7656 L633.8438,68.8438 L636.3125,68.8438 L636.3125,71 L628.9219,71 L628.9219,68.8438 L631.3906,68.8438 L631.3906,60.7656 L628.9219,60.7656 Z " fill="#000000"/><text fill="#000000" font-family="sans-serif" font-size="14" font-style="italic" lengthAdjust="spacing" textLength="76" x="647" y="69.8467">Serializable</text><line style="stroke:#181818;stroke-width:0.5;" x1="619" x2="725" y1="81" y2="81"/><line style="stroke:#181818;stroke-width:0.5;" x1="619" x2="725" y1="89" y2="89"/></g><!--reverse link SubjectObserver.Subject to chasseaumonstre.model.strategy.monster.Monster--><g id="link_SubjectObserver.Subject_chasseaumonstre.model.strategy.monster.Monster"><path codeLine="34" d="M163.75,120.42 C192.87,155.31 234.74,205.47 276.37,255.34 " fill="none" id="SubjectObserver.Subject-backto-chasseaumonstre.model.strategy.monster.Monster" style="stroke:#181818;stroke-width:1.0;"/><polygon fill="none" points="158.37,124.9,150.92,105.06,169.11,115.93,158.37,124.9" style="stroke:#181818;stroke-width:1.0;"/></g><!--reverse link fr.univlille.iutinfo.cam.player.monster.IMonsterStrategy to chasseaumonstre.model.strategy.monster.Monster--><g id="link_fr.univlille.iutinfo.cam.player.monster.IMonsterStrategy_chasseaumonstre.model.strategy.monster.Monster"><path codeLine="35" d="M423,125.15 C423,141.01 423,159.67 423,179.81 " fill="none" id="fr.univlille.iutinfo.cam.player.monster.IMonsterStrategy-backto-chasseaumonstre.model.strategy.monster.Monster" style="stroke:#181818;stroke-width:1.0;stroke-dasharray:7.0,7.0;"/><polygon fill="none" points="416,125.06,423,105.06,430,125.06,416,125.06" style="stroke:#181818;stroke-width:1.0;"/></g><!--reverse link java.io.Serializable to chasseaumonstre.model.strategy.monster.Monster--><g id="link_java.io.Serializable_chasseaumonstre.model.strategy.monster.Monster"><path codeLine="36" d="M644.24,113.8 C625.15,141.17 598.15,179.88 569.55,220.89 " fill="none" id="java.io.Serializable-backto-chasseaumonstre.model.strategy.monster.Monster" style="stroke:#181818;stroke-width:1.0;stroke-dasharray:7.0,7.0;"/><polygon fill="none" points="638.67,109.55,655.85,97.15,650.15,117.56,638.67,109.55" style="stroke:#181818;stroke-width:1.0;"/></g><text fill="#888888" font-family="sans-serif" font-size="10" lengthAdjust="spacing" textLength="186" x="274.5" y="715.2822">UMLDoclet 2.1.0, PlantUML 1.2022.14</text><!--SRC=[bLJBRjim4BpdAmWK1Mmu8jeUWo10qUHW844AkCt5y86IrZ5TYZJ8bTeqpRzt9L4sPJtiwA07TtPsTaKEOunfaO7RYGHOiX7EWSWpenrQu9b9GN5w5GZFBxnQ1ijUBowOln956Up11vPB_yOtcAdLYf0ik2Bu8_6ApRyPOrEfYVGehD6-ZCIJSdqaNaWd4GWH6wD0wEMgD_uZjvfODFK4zWWpymrCfltBU-QZkDGIfL3oBmIGArOOcRQ1pu1tD8N9TBYFcVCOgV6IqQsFA6f00SjWmNAkenK9z5GFfuJrZw-ILJ6Tr5MXpX1M8SQ4bMmrw1JR7jY86rGuawxfDO3vdZkaFT0k8pZyccxf1D6UUW_fYQQYP0F9htPRGwDyEkpj44ltDdIdnFXMo7SfhP4qKEgkW86__DjIjSTu2mbEwiTZZhiS5sGR8kjDeK3QofZhmOItWyCiyfe-Tc0BSXR_pQx_HL5ZF7lmsl9Soq99fO3B7ALU6vw8Z9TjKx9tC3xtYGjlRSJ6UOTjAmh1fU4BiDNP5h62Bj9hFRZeaUB014LSUYc9hsspQQNjaXy4eg0_JpvsBnrUDpmtmNHwwvxPV52ETWVOTPdR6KXRqskZ_EqygnjGw0VQgo0SSfXT7IhBriQKZvyFzxScKO3i2__CFrsoxqfef5NsaKRafD6JwNy0]--></g></svg>