<?xml version="1.0" encoding="UTF-8" standalone="no"?><svg xmlns="http://www.w3.org/2000/svg" xmlns:xlink="http://www.w3.org/1999/xlink" contentStyleType="text/css" height="348px" preserveAspectRatio="none" style="width:343px;height:348px;background:#FFFFFF;" version="1.1" viewBox="0 0 343 348" width="343px" zoomAndPan="magnify"><defs/><g><!--class fr.univlille.info.J3.chasseaumonstre.controller.utils.UtilsController--><a href="UtilsController.html" target="_top" title="UtilsController.html" xlink:actuate="onRequest" xlink:href="UtilsController.html" xlink:show="new" xlink:title="UtilsController.html" xlink:type="simple"><g id="elem_fr.univlille.info.J3.chasseaumonstre.controller.utils.UtilsController"><rect codeLine="5" fill="#F1F1F1" height="314.6875" id="fr.univlille.info.J3.chasseaumonstre.controller.utils.UtilsController" rx="2.5" ry="2.5" style="stroke:#181818;stroke-width:0.5;" width="322" x="7" y="7"/><ellipse cx="45.85" cy="25.9688" fill="#ADD1B2" rx="11" ry="11" style="stroke:#181818;stroke-width:1.0;"/><path d="M45.3188,32.8906 Q43.5688,32.8906 42.4281,32.1563 Q41.3031,31.4063 40.7406,30.0625 Q40.1938,28.7031 40.1938,26.9063 Q40.1938,24.875 40.85,23.4219 Q41.5063,21.9688 42.7875,21.1875 Q44.0688,20.4063 45.9438,20.4063 Q46.8344,20.4063 47.5063,20.5938 Q48.1781,20.7656 48.8656,21.1094 L48.0531,23.125 Q47.4281,22.8125 46.8813,22.6875 Q46.35,22.5625 45.8656,22.5625 Q44.6938,22.5625 43.9906,23.0938 Q43.2875,23.625 42.9906,24.5781 Q42.6938,25.5313 42.6938,26.7969 Q42.6938,28.8125 43.4125,29.7813 Q44.1313,30.7344 45.725,30.7344 Q46.3188,30.7344 46.9438,30.5781 Q47.5688,30.4219 48.3969,30.0469 L48.3969,32.2656 Q47.6625,32.5781 46.8656,32.7344 Q46.0844,32.8906 45.3188,32.8906 Z " fill="#000000"/><text fill="#000000" font-family="sans-serif" font-size="14" lengthAdjust="spacing" textLength="96" x="135.65" y="24.9951">UtilsController</text><text fill="#000000" font-family="sans-serif" font-size="10" lengthAdjust="spacing" textLength="237" x="65.15" y="37.5791">fr.univlille.info.J3.chasseaumonstre.controller.utils</text><line style="stroke:#181818;stroke-width:0.5;" x1="8" x2="328" y1="44.9375" y2="44.9375"/><ellipse cx="18" cy="58.5859" fill="none" rx="3" ry="3" style="stroke:#038048;stroke-width:1.0;"/><text fill="#000000" font-family="sans-serif" font-size="14" lengthAdjust="spacing" text-decoration="underline" textLength="162" x="27" y="61.9326">FXML_LOCATION: String</text><ellipse cx="18" cy="74.8828" fill="none" rx="3" ry="3" style="stroke:#038048;stroke-width:1.0;"/><text fill="#000000" font-family="sans-serif" font-size="14" lengthAdjust="spacing" text-decoration="underline" textLength="144" x="27" y="78.2295">SOUND_PATH: String</text><ellipse cx="18" cy="91.1797" fill="none" rx="3" ry="3" style="stroke:#038048;stroke-width:1.0;"/><text fill="#000000" font-family="sans-serif" font-size="14" lengthAdjust="spacing" text-decoration="underline" textLength="228" x="27" y="94.5264">GUN_SHOT_SOUND_PATH: String</text><ellipse cx="18" cy="107.4766" fill="none" rx="3" ry="3" style="stroke:#038048;stroke-width:1.0;"/><text fill="#000000" font-family="sans-serif" font-size="14" lengthAdjust="spacing" text-decoration="underline" textLength="197" x="27" y="110.8232">METAL_SOUND_PATH: String</text><ellipse cx="18" cy="123.7734" fill="none" rx="3" ry="3" style="stroke:#038048;stroke-width:1.0;"/><text fill="#000000" font-family="sans-serif" font-size="14" lengthAdjust="spacing" text-decoration="underline" textLength="247" x="27" y="127.1201">MONSTERKILL_SOUND_PATH: String</text><ellipse cx="18" cy="140.0703" fill="none" rx="3" ry="3" style="stroke:#038048;stroke-width:1.0;"/><text fill="#000000" font-family="sans-serif" font-size="14" lengthAdjust="spacing" text-decoration="underline" textLength="196" x="27" y="143.417">STEPS_SOUND_PATH: String</text><ellipse cx="18" cy="156.3672" fill="none" rx="3" ry="3" style="stroke:#038048;stroke-width:1.0;"/><text fill="#000000" font-family="sans-serif" font-size="14" lengthAdjust="spacing" text-decoration="underline" textLength="206" x="27" y="159.7139">WRONG_SOUND_PATH: String</text><ellipse cx="18" cy="172.6641" fill="none" rx="3" ry="3" style="stroke:#038048;stroke-width:1.0;"/><text fill="#000000" font-family="sans-serif" font-size="14" lengthAdjust="spacing" text-decoration="underline" textLength="242" x="27" y="176.0107">HUNTER_WIN_SOUND_PATH: String</text><ellipse cx="18" cy="188.9609" fill="none" rx="3" ry="3" style="stroke:#038048;stroke-width:1.0;"/><text fill="#000000" font-family="sans-serif" font-size="14" lengthAdjust="spacing" text-decoration="underline" textLength="195" x="27" y="192.3076">MUSIC_SOUND_PATH: String</text><ellipse cx="18" cy="205.2578" fill="none" rx="3" ry="3" style="stroke:#038048;stroke-width:1.0;"/><text fill="#000000" font-family="sans-serif" font-size="14" lengthAdjust="spacing" text-decoration="underline" textLength="204" x="27" y="208.6045">MUSIC2_SOUND_PATH: String</text><line style="stroke:#181818;stroke-width:0.5;" x1="8" x2="328" y1="215.9063" y2="215.9063"/><ellipse cx="18" cy="229.5547" fill="#84BE84" rx="3" ry="3" style="stroke:#038048;stroke-width:1.0;"/><text fill="#000000" font-family="sans-serif" font-size="14" lengthAdjust="spacing" text-decoration="underline" textLength="243" x="27" y="232.9014">playSound(String, double): boolean</text><ellipse cx="18" cy="245.8516" fill="#84BE84" rx="3" ry="3" style="stroke:#038048;stroke-width:1.0;"/><text fill="#000000" font-family="sans-serif" font-size="14" lengthAdjust="spacing" text-decoration="underline" textLength="296" x="27" y="249.1982">playBackgroundMusicOnRepeat(): boolean</text><ellipse cx="18" cy="262.1484" fill="#84BE84" rx="3" ry="3" style="stroke:#038048;stroke-width:1.0;"/><text fill="#000000" font-family="sans-serif" font-size="14" lengthAdjust="spacing" text-decoration="underline" textLength="259" x="27" y="265.4951">checkAddressSyntax(String): boolean</text><ellipse cx="18" cy="278.4453" fill="#84BE84" rx="3" ry="3" style="stroke:#038048;stroke-width:1.0;"/><text fill="#000000" font-family="sans-serif" font-size="14" lengthAdjust="spacing" text-decoration="underline" textLength="172" x="27" y="281.792">hovereffect(Button): void</text><rect fill="#F24D5C" height="6" style="stroke:#C82930;stroke-width:1.0;" width="6" x="15" y="291.7422"/><text fill="#000000" font-family="sans-serif" font-size="14" lengthAdjust="spacing" text-decoration="underline" textLength="253" x="27" y="298.0889">onMouseEntered(MouseEvent): void</text><rect fill="#F24D5C" height="6" style="stroke:#C82930;stroke-width:1.0;" width="6" x="15" y="308.0391"/><text fill="#000000" font-family="sans-serif" font-size="14" lengthAdjust="spacing" text-decoration="underline" textLength="240" x="27" y="314.3857">onMouseExited(MouseEvent): void</text></g></a><text fill="#888888" font-family="sans-serif" font-size="10" lengthAdjust="spacing" textLength="186" x="74.5" y="337.9697">UMLDoclet 2.1.0, PlantUML 1.2022.14</text><!--SRC=[dPHHQzim4CVVzocEmi1bdMYxFOLHIDEioURO8RRfe2j6bS-rgAmprZaqA_tkazkmXspDlEb5wA_VxtHwa000739OMQDhfC846zbAfXOiMNpZjw7I1GBM3M-Wr6WAjvlMo1Nv-3bNHZe71v-S_e6Zauzd6MlZ9cIv9MEm_MwtEyTdPIiwgzT6-rneMvBuya6eokiekvgiunQ5-cMAhgzq0DB1VvbYfnEuljv9HCMrkRc1n-UBzEFHiMIjdk3Tvs-BC0_ZoJYTnz484cwrlVi3byHPT94ln-bi3tIPHNaoYzDy4BsOfkDm81f7IJfTVPs70mLFBvDXwDKgZYw7eRCiybtaL_DeODjPCf_y0tewZ6sCt2JKsI9uGOwWeExMuE48ReaCIlkAT2xL_LtRculEQHNR5JOeETWhgWhL_RWeMdGksLYM3zjZzreLhR75iaJ5mNd7JDRZQzB5x-nxiWlg74ujUwK8NXPhjFntvK7pgyRJzk5YNnTAedxA5k45AUE_XbDn8ewFO6caPP_2Mz-mqsI3mvy0]--></g></svg>