<?xml version="1.0" encoding="UTF-8" standalone="no"?><svg xmlns="http://www.w3.org/2000/svg" xmlns:xlink="http://www.w3.org/1999/xlink" contentStyleType="text/css" height="355px" preserveAspectRatio="none" style="width:355px;height:355px;background:#FFFFFF;" version="1.1" viewBox="0 0 355 355" width="355px" zoomAndPan="magnify"><defs/><g><!--class chasseaumonstre.views.MHMonsterView--><a href="MHMonsterView.html" target="_top" title="MHMonsterView.html" xlink:actuate="onRequest" xlink:href="MHMonsterView.html" xlink:show="new" xlink:title="MHMonsterView.html" xlink:type="simple"><g id="elem_chasseaumonstre.views.MHMonsterView"><rect codeLine="5" fill="#F1F1F1" height="184.3125" id="chasseaumonstre.views.MHMonsterView" rx="2.5" ry="2.5" style="stroke:#181818;stroke-width:0.5;" width="341" x="7" y="146"/><ellipse cx="115.25" cy="164.9688" fill="#ADD1B2" rx="11" ry="11" style="stroke:#181818;stroke-width:1.0;"/><path d="M118.2188,170.6094 Q117.6406,170.9063 117,171.0469 Q116.3594,171.2031 115.6563,171.2031 Q113.1563,171.2031 111.8281,169.5625 Q110.5156,167.9063 110.5156,164.7813 Q110.5156,161.6563 111.8281,160 Q113.1563,158.3438 115.6563,158.3438 Q116.3594,158.3438 117,158.5 Q117.6563,158.6563 118.2188,158.9531 L118.2188,161.6719 Q117.5938,161.0938 117,160.8281 Q116.4063,160.5469 115.7813,160.5469 Q114.4375,160.5469 113.75,161.625 Q113.0625,162.6875 113.0625,164.7813 Q113.0625,166.875 113.75,167.9531 Q114.4375,169.0156 115.7813,169.0156 Q116.4063,169.0156 117,168.75 Q117.5938,168.4688 118.2188,167.8906 L118.2188,170.6094 Z " fill="#000000"/><text fill="#000000" font-family="sans-serif" font-size="14" lengthAdjust="spacing" textLength="111" x="138.25" y="163.9951">MHMonsterView</text><text fill="#000000" font-family="sans-serif" font-size="10" lengthAdjust="spacing" textLength="116" x="135.75" y="176.5791">chasseaumonstre.views</text><line style="stroke:#181818;stroke-width:0.5;" x1="8" x2="347" y1="183.9375" y2="183.9375"/><rect fill="none" height="6" style="stroke:#C82930;stroke-width:1.0;" width="6" x="15" y="194.5859"/><text fill="#000000" font-family="sans-serif" font-size="14" lengthAdjust="spacing" text-decoration="underline" textLength="251" x="27" y="200.9326">MONSTER_CROSSHAIR_PATH: String</text><rect fill="none" height="6" style="stroke:#C82930;stroke-width:1.0;" width="6" x="15" y="210.8828"/><text fill="#000000" font-family="sans-serif" font-size="14" lengthAdjust="spacing" textLength="88" x="27" y="217.2295">stage: Stage</text><rect fill="none" height="6" style="stroke:#C82930;stroke-width:1.0;" width="6" x="15" y="227.1797"/><text fill="#000000" font-family="sans-serif" font-size="14" lengthAdjust="spacing" textLength="220" x="27" y="233.5264">controller: MHMonsterController</text><rect fill="none" height="6" style="stroke:#C82930;stroke-width:1.0;" width="6" x="15" y="243.4766"/><text fill="#000000" font-family="sans-serif" font-size="14" lengthAdjust="spacing" textLength="110" x="27" y="249.8232">maze: GridPane</text><line style="stroke:#181818;stroke-width:0.5;" x1="8" x2="347" y1="257.125" y2="257.125"/><ellipse cx="18" cy="270.7734" fill="#84BE84" rx="3" ry="3" style="stroke:#038048;stroke-width:1.0;"/><text fill="#000000" font-family="sans-serif" font-size="14" lengthAdjust="spacing" textLength="315" x="27" y="274.1201">MHMonsterView(Stage, MHMonsterController)</text><ellipse cx="18" cy="287.0703" fill="#84BE84" rx="3" ry="3" style="stroke:#038048;stroke-width:1.0;"/><text fill="#000000" font-family="sans-serif" font-size="14" lengthAdjust="spacing" textLength="93" x="27" y="290.417">render(): void</text><rect fill="#F24D5C" height="6" style="stroke:#C82930;stroke-width:1.0;" width="6" x="15" y="300.3672"/><text fill="#000000" font-family="sans-serif" font-size="14" lengthAdjust="spacing" textLength="80" x="27" y="306.7139">draw(): void</text><ellipse cx="18" cy="319.6641" fill="#84BE84" rx="3" ry="3" style="stroke:#038048;stroke-width:1.0;"/><text fill="#000000" font-family="sans-serif" font-size="14" lengthAdjust="spacing" textLength="96" x="27" y="323.0107">update(): void</text></g></a><!--class chasseaumonstre.views.IPlayerView--><a href="IPlayerView.html" target="_top" title="IPlayerView.html" xlink:actuate="onRequest" xlink:href="IPlayerView.html" xlink:show="new" xlink:title="IPlayerView.html" xlink:type="simple"><g id="elem_chasseaumonstre.views.IPlayerView"><rect codeLine="16" fill="#F1F1F1" height="78.5313" id="chasseaumonstre.views.IPlayerView" rx="2.5" ry="2.5" style="stroke:#181818;stroke-width:0.5;" width="150" x="102.5" y="7"/><ellipse cx="117.5" cy="25.9688" fill="#B4A7E5" rx="11" ry="11" style="stroke:#181818;stroke-width:1.0;"/><path d="M113.4219,21.7344 L113.4219,19.5781 L120.8125,19.5781 L120.8125,21.7344 L118.3438,21.7344 L118.3438,29.8125 L120.8125,29.8125 L120.8125,31.9688 L113.4219,31.9688 L113.4219,29.8125 L115.8906,29.8125 L115.8906,21.7344 L113.4219,21.7344 Z " fill="#000000"/><text fill="#000000" font-family="sans-serif" font-size="14" font-style="italic" lengthAdjust="spacing" textLength="78" x="151.5" y="24.9951">IPlayerView</text><text fill="#000000" font-family="sans-serif" font-size="10" font-style="italic" lengthAdjust="spacing" textLength="118" x="131.5" y="37.5791">chasseaumonstre.views</text><line style="stroke:#181818;stroke-width:0.5;" x1="103.5" x2="251.5" y1="44.9375" y2="44.9375"/><ellipse cx="113.5" cy="58.5859" fill="#84BE84" rx="3" ry="3" style="stroke:#038048;stroke-width:1.0;"/><text fill="#000000" font-family="sans-serif" font-size="14" font-style="italic" lengthAdjust="spacing" textLength="94" x="122.5" y="61.9326">render(): void</text><ellipse cx="113.5" cy="74.8828" fill="#84BE84" rx="3" ry="3" style="stroke:#038048;stroke-width:1.0;"/><text fill="#000000" font-family="sans-serif" font-size="14" font-style="italic" lengthAdjust="spacing" textLength="97" x="122.5" y="78.2295">update(): void</text></g></a><!--reverse link chasseaumonstre.views.IPlayerView to chasseaumonstre.views.MHMonsterView--><g id="link_chasseaumonstre.views.IPlayerView_chasseaumonstre.views.MHMonsterView"><path codeLine="21" d="M177.5,106.76 C177.5,119.18 177.5,132.55 177.5,145.82 " fill="none" id="chasseaumonstre.views.IPlayerView-backto-chasseaumonstre.views.MHMonsterView" style="stroke:#181818;stroke-width:1.0;stroke-dasharray:7.0,7.0;"/><polygon fill="none" points="170.5,106.31,177.5,86.31,184.5,106.31,170.5,106.31" style="stroke:#181818;stroke-width:1.0;"/></g><text fill="#888888" font-family="sans-serif" font-size="10" lengthAdjust="spacing" textLength="186" x="77.5" y="345.5947">UMLDoclet 2.1.0, PlantUML 1.2022.14</text><!--SRC=[fPDHQy8m4CVVzoaEOQ2eHSUUYWZYnXJMATRjnOdSqjC6sgGaKN7ExxxKYMstoWRhIyZlxlvtrtyB0A39WC2OT8ACV4fGeP4AX1HqPSCGye20uiJiOCaf2lHt6fC9fSL7pYBK6YeTpT_9RTzslO4dXJQaNZXjNyM9jxeij7c4wpYDAd8sDgmhW1fA8qv11sQpmjq9JHpDvx0_Zf0-UstGS7Q0fZTwygVtaqL_ClBzGMyuMOnxqu4Blb5ShCu5JLkmeXJR8wDC2gDa595ouTooVuPPOensBtXGF1YZo0JgXJchH_L6cL8jAr4a0bBLcWiRoOEiHQ1m-uFMrqc0XWhyy6K55xR3qfgQisCuZd3tRpDoAjQAtAt427opXSZCuU9Y-PJBs_m-IUV3SVxozPpqA7qzi9GoFPwznpl98liht3XjfzK0gokCfN2z8QMv5DNQ9m00]--></g></svg>